<svg xmlns="http://www.w3.org/2000/svg" viewBox="0 0 41.83 32.9"><title>quotation-marks</title><g id="Layer_2" data-name="Layer 2"><g id="Layer_1-2" data-name="Layer 1"><path d="M15.21,32.9H0V22A37.27,37.27,0,0,1,1.16,11.61,15.85,15.85,0,0,1,5.47,4.76a21.93,21.93,0,0,1,8-4.76l3,6.28A12.81,12.81,0,0,0,9.93,10.5a12.42,12.42,0,0,0-2.08,7.2h7.36Zm25.38,0H25.38V22a37.31,37.31,0,0,1,1.16-10.45,15.89,15.89,0,0,1,4.33-6.82,22.27,22.27,0,0,1,8-4.76l3,6.28a12.81,12.81,0,0,0-6.52,4.22,12.42,12.42,0,0,0-2.08,7.2h7.36Z" style="fill:#ff009a"/></g></g></svg>