<svg xmlns="http://www.w3.org/2000/svg" id="uuid-3afeb996-c0b9-41b0-94b7-720740f90958" viewBox="0 0 939.63 940"><defs><style>.uuid-3a8df53f-aea7-44cd-8303-cca131c3eb4b{fill:#ff009a;}.uuid-a59cd424-671b-4b59-88c5-131af9b7b91f{fill:#fff;}</style></defs><g id="uuid-7b11d1d4-7909-4eba-860f-9a7b37fed418"><path class="uuid-a59cd424-671b-4b59-88c5-131af9b7b91f" d="M853.32,467.93c-7.52,0-14.73-4.27-18.13-11.53-4.68-10-.36-21.91,9.64-26.59l55.16-25.8c10-4.68,21.91-.36,26.59,9.64,4.68,10,.36,21.91-9.64,26.59l-55.16,25.8c-2.74,1.28-5.62,1.89-8.46,1.89h0Z"/><path class="uuid-a59cd424-671b-4b59-88c5-131af9b7b91f" d="M919.63,537.88c-2.26,0-4.57-.39-6.82-1.2l-57.25-20.76c-10.38-3.77-15.75-15.24-11.98-25.62s15.24-15.75,25.62-11.98l57.25,20.76c10.38,3.77,15.75,15.24,11.98,25.62-2.95,8.13-10.63,13.19-18.8,13.19h0Z"/><path class="uuid-a59cd424-671b-4b59-88c5-131af9b7b91f" d="M86.32,467.93c-2.84,0-5.72-.61-8.46-1.89l-55.16-25.8c-10.01-4.68-14.32-16.58-9.64-26.59s16.58-14.32,26.59-9.64l55.16,25.8c10.01,4.68,14.32,16.58,9.64,26.59-3.4,7.27-10.61,11.53-18.13,11.53h0Z"/><path class="uuid-a59cd424-671b-4b59-88c5-131af9b7b91f" d="M20.01,537.88c-8.18,0-15.85-5.05-18.8-13.19-3.77-10.38,1.6-21.85,11.98-25.62l57.25-20.76c10.38-3.76,21.85,1.6,25.62,11.98,3.77,10.38-1.6,21.85-11.98,25.62l-57.25,20.76c-2.25.82-4.55,1.2-6.82,1.2h0Z"/><path class="uuid-3a8df53f-aea7-44cd-8303-cca131c3eb4b" d="M478.45,267.74l43.85,138.58,145.35-1.12c8.84-.07,12.53,11.28,5.33,16.42l-118.25,84.53,45.98,137.89c2.8,8.39-6.85,15.4-13.96,10.15l-116.93-86.34-116.93,86.34c-7.11,5.25-16.76-1.76-13.96-10.15l45.98-137.89-118.25-84.53c-7.19-5.14-3.51-16.48,5.33-16.42l145.35,1.12,43.85-138.58c2.67-8.43,14.59-8.43,17.26,0h0Z"/><path class="uuid-a59cd424-671b-4b59-88c5-131af9b7b91f" d="M469.82,102.26c-11.05,0-20-8.95-20-20V20c0-11.05,8.95-20,20-20s20,8.95,20,20v62.26c0,11.05-8.95,20-20,20Z"/><path class="uuid-a59cd424-671b-4b59-88c5-131af9b7b91f" d="M500.95,71.13h-62.26c-11.05,0-20-8.95-20-20s8.95-20,20-20h62.26c11.05,0,20,8.95,20,20s-8.95,20-20,20Z"/><path class="uuid-a59cd424-671b-4b59-88c5-131af9b7b91f" d="M469.82,940c-11.05,0-20-8.95-20-20v-62.26c0-11.05,8.95-20,20-20s20,8.95,20,20v62.26c0,11.05-8.95,20-20,20Z"/><path class="uuid-a59cd424-671b-4b59-88c5-131af9b7b91f" d="M500.95,908.87h-62.26c-11.05,0-20-8.95-20-20s8.95-20,20-20h62.26c11.05,0,20,8.95,20,20s-8.95,20-20,20Z"/><path class="uuid-a59cd424-671b-4b59-88c5-131af9b7b91f" d="M832.57,730.57c-11.05,0-20-8.95-20-20v-62.26c0-11.05,8.95-20,20-20s20,8.95,20,20v62.26c0,11.05-8.95,20-20,20Z"/><path class="uuid-a59cd424-671b-4b59-88c5-131af9b7b91f" d="M863.7,699.43h-62.26c-11.05,0-20-8.95-20-20s8.95-20,20-20h62.26c11.05,0,20,8.95,20,20s-8.95,20-20,20Z"/><path class="uuid-a59cd424-671b-4b59-88c5-131af9b7b91f" d="M832.57,311.7c-11.05,0-20-8.95-20-20v-62.26c0-11.05,8.95-20,20-20s20,8.95,20,20v62.26c0,11.05-8.95,20-20,20Z"/><path class="uuid-a59cd424-671b-4b59-88c5-131af9b7b91f" d="M863.7,280.57h-62.26c-11.05,0-20-8.95-20-20s8.95-20,20-20h62.26c11.05,0,20,8.95,20,20s-8.95,20-20,20Z"/><path class="uuid-a59cd424-671b-4b59-88c5-131af9b7b91f" d="M107.07,730.57c-11.05,0-20-8.95-20-20v-62.26c0-11.05,8.95-20,20-20s20,8.95,20,20v62.26c0,11.05-8.95,20-20,20Z"/><path class="uuid-a59cd424-671b-4b59-88c5-131af9b7b91f" d="M138.2,699.43h-62.26c-11.05,0-20-8.95-20-20s8.95-20,20-20h62.26c11.05,0,20,8.95,20,20s-8.95,20-20,20Z"/><path class="uuid-a59cd424-671b-4b59-88c5-131af9b7b91f" d="M107.07,311.7c-11.05,0-20-8.95-20-20v-62.26c0-11.05,8.95-20,20-20s20,8.95,20,20v62.26c0,11.05-8.95,20-20,20Z"/><path class="uuid-a59cd424-671b-4b59-88c5-131af9b7b91f" d="M138.2,280.57h-62.26c-11.05,0-20-8.95-20-20s8.95-20,20-20h62.26c11.05,0,20,8.95,20,20s-8.95,20-20,20Z"/><path class="uuid-a59cd424-671b-4b59-88c5-131af9b7b91f" d="M469.82,799.79c-88.09,0-170.91-34.3-233.19-96.59-62.29-62.29-96.59-145.1-96.59-233.19s34.3-170.91,96.59-233.19c62.29-62.29,145.1-96.59,233.19-96.59,46.59,0,91.63,9.52,133.87,28.31,10.09,4.49,14.64,16.31,10.15,26.4s-16.31,14.64-26.4,10.15c-37.1-16.49-76.67-24.86-117.62-24.86-77.41,0-150.18,30.14-204.91,84.88s-84.88,127.5-84.88,204.91,30.14,150.18,84.88,204.91c54.74,54.73,127.5,84.88,204.91,84.88s150.18-30.14,204.91-84.88,84.88-127.5,84.88-204.91c0-40.33-8.12-79.36-24.14-115.99-15.48-35.4-37.56-66.93-65.64-93.72-7.99-7.62-8.29-20.28-.67-28.28s20.28-8.29,28.28-.67c31.94,30.47,57.07,66.35,74.68,106.63,18.24,41.71,27.49,86.13,27.49,132.01,0,88.09-34.3,170.91-96.59,233.19-62.29,62.29-145.1,96.59-233.19,96.59h-.01Z"/></g></svg>