<svg xmlns="http://www.w3.org/2000/svg" viewBox="0 0 354.85 222.69"><title>stone-3-big</title><g style="isolation:isolate"><g id="Layer_2" data-name="Layer 2"><g id="Layer_1-2" data-name="Layer 1"><g id="Blue_Stone" data-name="Blue Stone"><polygon points="354.85 37.67 278.3 218.61 230 210.5 181.65 202.37 118.94 150.99 117.47 149.79 81.9 147.47 6.13 43.86 41.7 32.26 111.97 33.48 205.98 35.1 251.78 35.89 307.85 36.86 354.85 37.67" style="fill:#ff009a"/><polygon points="308.52 71.14 272.17 222.69 223.87 214.58 251.3 60.31 277.59 42.53 245.66 39.98 200.26 36.34 199.85 39.19 175.52 206.45 112.81 155.08 101.29 48.72 105.84 37.56 109.8 27.84 118.3 22.43 259.03 26.29 301.56 40.21 301.72 40.95 308.52 71.14" style="fill:#80004d;opacity:0.65;mix-blend-mode:multiply"/><path d="M348.72,41.76,312.38,71.91l-58.76-10s-54.26,10.71-61.93,12.92l-.18,0L191,75c-3.87,1.55-89.7-2.32-89.7-2.32L0,48S35.57,24,39.44,22.42,105.16,0,105.16,0L201,12.38l61.86,1.54Z" style="fill:#e18dbe"/><path d="M105.77,67.35,191,75c-3.87,1.55-89.7-2.32-89.7-2.32L0,48Z" style="fill:#ffbdff"/><path d="M313.27,63.89l35.45-22.13L312.38,71.91l-58.76-10s-54.26,10.71-61.93,12.92L251,55.25Z" style="fill:#ffbdff"/></g></g></g></g></svg>