<svg xmlns="http://www.w3.org/2000/svg" viewBox="0 0 95.77 95.81"><title>box-3-icon</title><g id="Layer_2" data-name="Layer 2"><g id="Layer_1-2" data-name="Layer 1"><path d="M87,47.69a2,2,0,0,1-.87-3.88l5.62-2.63a2,2,0,1,1,1.73,3.69L87.84,47.5A2.06,2.06,0,0,1,87,47.69Z"/><path d="M93.73,54.82A2.09,2.09,0,0,1,93,54.7L87.2,52.58a2,2,0,0,1,1.39-3.83l5.84,2.12a2,2,0,0,1-.7,4Z"/><path d="M8.8,47.69a2,2,0,0,1-.86-.19L2.31,44.87A2,2,0,0,1,4,41.18l5.62,2.63a2,2,0,0,1-.86,3.88Z"/><path d="M2,54.82a2,2,0,0,1-.7-4l5.84-2.12a2,2,0,0,1,1.39,3.83L2.73,54.7A2.09,2.09,0,0,1,2,54.82Z"/><path d="M48.77,27.29l4.47,14.13,14.81-.12A.92.92,0,0,1,68.59,43L56.54,51.59l4.69,14a.93.93,0,0,1-1.43,1l-11.91-8.8L36,66.68a.93.93,0,0,1-1.43-1l4.69-14L27.18,43a.92.92,0,0,1,.54-1.67l14.82.12L47,27.29A.92.92,0,0,1,48.77,27.29Z" style="fill:#e93396"/><path d="M47.89,10.42a2,2,0,0,1-2-2V2a2,2,0,1,1,4.08,0V8.38A2,2,0,0,1,47.89,10.42Z"/><path d="M51.06,7.25H44.71a2,2,0,0,1,0-4.08h6.35a2,2,0,0,1,0,4.08Z"/><path d="M47.89,95.81a2,2,0,0,1-2-2V87.43a2,2,0,1,1,4.08,0v6.34A2,2,0,0,1,47.89,95.81Z"/><path d="M51.06,92.64H44.71a2,2,0,0,1,0-4.08h6.35a2,2,0,0,1,0,4.08Z"/><path d="M84.86,74.46a2,2,0,0,1-2-2V66.08a2,2,0,0,1,4.08,0v6.35A2,2,0,0,1,84.86,74.46Z"/><path d="M88,71.29H81.69a2,2,0,1,1,0-4.08H88a2,2,0,0,1,0,4.08Z"/><path d="M84.86,31.77a2,2,0,0,1-2-2V23.39a2,2,0,0,1,4.08,0v6.34A2,2,0,0,1,84.86,31.77Z"/><path d="M88,28.6H81.69a2,2,0,1,1,0-4.08H88a2,2,0,0,1,0,4.08Z"/><path d="M10.91,74.46a2,2,0,0,1-2-2V66.08a2,2,0,0,1,4.08,0v6.35A2,2,0,0,1,10.91,74.46Z"/><path d="M14.09,71.29H7.74a2,2,0,1,1,0-4.08h6.35a2,2,0,0,1,0,4.08Z"/><path d="M10.91,31.77a2,2,0,0,1-2-2V23.39a2,2,0,0,1,4.08,0v6.34A2,2,0,0,1,10.91,31.77Z"/><path d="M14.09,28.6H7.74a2,2,0,1,1,0-4.08h6.35a2,2,0,0,1,0,4.08Z"/><path d="M47.89,81.52a33.62,33.62,0,0,1,0-67.23,33.27,33.27,0,0,1,13.64,2.89,2,2,0,1,1-1.65,3.72,29.69,29.69,0,1,0,8.39,5.63,2,2,0,1,1,2.82-3,33.62,33.62,0,0,1-23.2,57.94Z"/></g></g></svg>