<svg xmlns="http://www.w3.org/2000/svg" viewBox="0 0 154.03 136.93"><title>Asset 5</title><g id="Layer_2" data-name="Layer 2"><g id="Layer_1-2" data-name="Layer 1"><path d="M7.72,89.75A5.25,5.25,0,0,1,4,80.83a37.63,37.63,0,0,0,7.69-11.25C4.12,62,0,52.46,0,42.53A36.41,36.41,0,0,1,4.12,25.75,42.94,42.94,0,0,1,15.2,12.24C24.82,4.35,37.56,0,51.08,0c23.23,0,43.55,13,49.41,31.72a3.35,3.35,0,0,1-6.39,2c-2.36-7.51-7.82-14.33-15.38-19.21A50.82,50.82,0,0,0,51.08,6.7C26.61,6.7,6.7,22.77,6.7,42.53c0,8.75,4,17.17,11.15,23.73a3.34,3.34,0,0,1,.88,3.64,43.15,43.15,0,0,1-7,12.25A48,48,0,0,0,27.6,74.8a3.33,3.33,0,0,1,3.24-.37,50.62,50.62,0,0,0,6.26,2.12A3.35,3.35,0,0,1,35.36,83C33.54,82.53,31.74,82,30,81.29A56.17,56.17,0,0,1,8.63,89.68,5.58,5.58,0,0,1,7.72,89.75Z" style="fill:#fff"/><path d="M140.12,116.86C148.76,109,154,98.54,154,87.09c0-24.58-24.28-44.51-54.22-44.51S45.59,62.51,45.59,87.09s24.28,44.52,54.22,44.52a63.81,63.81,0,0,0,24.45-4.78,59.27,59.27,0,0,0,24.42,10.07,2.17,2.17,0,0,0,1.94-3.64A46.63,46.63,0,0,1,140.12,116.86ZM82.3,84.67,75,89.92l2.85,8.56a.56.56,0,0,1-.86.63l-7.26-5.36-7.26,5.36a.56.56,0,0,1-.87-.63l2.86-8.56-7.34-5.25a.56.56,0,0,1,.33-1l9,.06,2.72-8.6a.56.56,0,0,1,1.07,0L73,83.72l9-.06A.56.56,0,0,1,82.3,84.67Zm30.08,0L105,89.92l2.86,8.56a.56.56,0,0,1-.87.63l-7.26-5.36-7.26,5.36a.56.56,0,0,1-.87-.63l2.86-8.56-7.34-5.25a.56.56,0,0,1,.33-1l9,.06,2.72-8.6a.57.57,0,0,1,1.08,0l2.72,8.6,9-.06A.56.56,0,0,1,112.38,84.67Zm24.73,14.44-7.26-5.36-7.26,5.36a.56.56,0,0,1-.86-.63l2.85-8.56-7.34-5.25a.56.56,0,0,1,.33-1l9,.06,2.72-8.6a.56.56,0,0,1,1.07,0l2.72,8.6,9-.06a.56.56,0,0,1,.33,1l-7.34,5.25L138,98.48A.56.56,0,0,1,137.11,99.11Z" style="fill:#e93396"/><circle cx="34.58" cy="40.78" r="5.02" style="fill:#fff"/><circle cx="51" cy="40.78" r="5.02" style="fill:#fff"/><circle cx="67.43" cy="40.78" r="5.02" style="fill:#fff"/><path d="M111.92,32.2a3.24,3.24,0,0,1-1.38-.3,3.34,3.34,0,0,1-1.66-4.43l4.21-9.29A3.35,3.35,0,0,1,119.18,21L115,30.24A3.34,3.34,0,0,1,111.92,32.2Z" style="fill:#fff"/><path d="M118.43,37.47A3.35,3.35,0,0,1,117.25,31l9.55-3.59a3.35,3.35,0,1,1,2.35,6.27l-9.54,3.58A3.28,3.28,0,0,1,118.43,37.47Z" style="fill:#fff"/><path d="M30.5,114.87a3.39,3.39,0,0,1-1.56-.38,3.35,3.35,0,0,1-1.4-4.52l4.75-9a3.35,3.35,0,0,1,5.93,3.13l-4.75,9A3.37,3.37,0,0,1,30.5,114.87Z" style="fill:#fff"/><path d="M19.33,103.23a3.35,3.35,0,0,1-1-6.55l9.74-3a3.35,3.35,0,1,1,2,6.4l-9.73,3A3.52,3.52,0,0,1,19.33,103.23Z" style="fill:#fff"/></g></g></svg>