<svg xmlns="http://www.w3.org/2000/svg" xmlns:xlink="http://www.w3.org/1999/xlink" viewBox="0 0 107.33 88.21"><defs><clipPath id="clip-path" transform="translate(0 0)"><rect width="107.33" height="88.21" style="fill:none"/></clipPath><clipPath id="clip-path-4" transform="translate(0 0)"><rect x="13.55" y="6.34" width="93.77" height="81.87" style="fill:none"/></clipPath></defs><title>stone-2</title><g style="isolation:isolate"><g id="Layer_2" data-name="Layer 2"><g id="Layer_1-2" data-name="Layer 1"><g id="stone-2"><g style="clip-path:url(#clip-path)"><g style="clip-path:url(#clip-path)"><polygon points="49.25 88.21 73.51 76.45 80.13 51.46 94.09 41.9 107.33 9.56 13.55 6.34 0 5.88 49.25 88.21" style="fill:#ff009a"/><g style="clip-path:url(#clip-path)"><g style="opacity:0.6499940156936646;mix-blend-mode:multiply"><g style="clip-path:url(#clip-path-4)"><path d="M107.33,9.56,94.1,41.9,74.25,16.17,58.81,12.5s13.23,60.28,14.7,64L49.25,88.21,17.64,30.14,13.55,6.34Z" transform="translate(0 0)" style="fill:#80004d"/></g></g></g><polygon points="99.97 0 0 5.88 17.65 30.14 86 23.52 107.32 9.56 104.63 6.05 99.97 0" style="fill:#e18dbe"/><polygon points="17.65 30.14 86 23.52 107.32 9.56 104.63 6.05 79.57 19.02 20.77 22.48 0 5.88 17.65 30.14" style="fill:#ffbdff"/></g></g></g></g></g></g></svg>