<svg xmlns="http://www.w3.org/2000/svg" xmlns:xlink="http://www.w3.org/1999/xlink" viewBox="0 0 60.95 43.79"><defs><style>.uuid-c2cba057-bb16-4c31-95a8-cc39923131f0{fill:none;}.uuid-08d95210-eaee-40e5-a3da-446a75b5bf7a{fill:#a42477;}.uuid-0a9e450e-7665-4409-9c5a-1be59eb468ec{fill:#480014;}.uuid-93724249-2f8e-4217-8fa3-15b8449ad668{fill:#d60166;}.uuid-24709ef8-cc24-4c1f-8ad7-4b68b19714f2{fill:#d7479a;}.uuid-4a6a05fc-0c90-4006-b294-154d785f663b{fill:#fff;}.uuid-4a6a05fc-0c90-4006-b294-154d785f663b,.uuid-923bf9f7-4fa1-4ee1-8a58-7aca0095650c{opacity:.5;}.uuid-1d93b4fd-1c74-47af-a212-2e950e6f2070{clip-path:url(#uuid-6a7b0a08-6ece-407d-941b-550e09335366);}.uuid-557e1cd0-2631-433e-bf1d-fbf5cfd70df5{isolation:isolate;}.uuid-57b84000-21c5-4860-b1c6-25226438fad6{fill:#ff2af8;}.uuid-923bf9f7-4fa1-4ee1-8a58-7aca0095650c,.uuid-e2cdc03b-1934-433a-a65e-da92b0b811c3{fill:#ff3f79;mix-blend-mode:multiply;}.uuid-e2cdc03b-1934-433a-a65e-da92b0b811c3{opacity:.3;}.uuid-195e74cb-01d8-4eb2-9133-f7ae7c9becc3{fill:#1e1d1e;}.uuid-ed578581-f237-418b-90d6-53c8995a85cb{fill:#8f7283;}.uuid-8ee96fe3-ebc7-4beb-b5a1-d63d92c48fe0{fill:#a7017a;}.uuid-a2ed3ac1-699c-42c5-a109-9cf79c0ddade{fill:#c9098b;}.uuid-266e9cbd-e336-4a1f-aede-ab0f8f05fb90{fill:#8d004e;}.uuid-cc68b25c-880f-4ae7-b24c-7a0c02a5f378{fill:#cc01af;}.uuid-9075b773-fa46-4d83-ac97-9d6f5d0afe54{fill:#9c8597;}.uuid-fceb52d2-c008-4faf-bd0b-1fb9d90ed211{fill:#a2044d;}.uuid-8b98b392-459e-4e22-8d4d-6a3ff2540102{fill:#ffa9e1;}.uuid-a7bcc797-31e6-4a35-951a-438951270146{fill:#f216e4;}.uuid-7bccc3da-927c-4a97-b2e7-4dc41f768f20{fill:#72003d;}.uuid-5c177406-8a6a-4622-9107-c1c95704a2e3{fill:#e602bd;}.uuid-e0031b6f-dcd2-4a73-a36b-27be20c8d3f8{fill:#d2bccb;}.uuid-a9f39472-bf08-4633-acd9-551d777981cf{fill:#f5eff5;}</style><clipPath id="uuid-6a7b0a08-6ece-407d-941b-550e09335366"><path class="uuid-c2cba057-bb16-4c31-95a8-cc39923131f0" d="M34.78,18.34c4.06,2,7.81,4.13,11.14,6.29,1.4-3.4,1.03-7.17-.72-10.32-1.25-2.25-3.22-4.19-5.76-5.44-6.1-3-13.28-.98-16.43,4.48,3.74,1.32,7.72,2.98,11.78,4.98Z"/></clipPath></defs><g class="uuid-557e1cd0-2631-433e-bf1d-fbf5cfd70df5"><g id="uuid-f1593b19-f40e-4f48-93c6-927144099c11"><g id="uuid-b3af36f8-eb01-4999-a748-1f16a6507d1d"><g id="uuid-e6662fdc-1037-4b55-8d63-0ac6462ed4fc"><path class="uuid-266e9cbd-e336-4a1f-aede-ab0f8f05fb90" d="M29.12,3.18c-.34-1.38.51-2.77,1.89-3.11,1.38-.34,2.77.51,3.11,1.89.31,1.28-.39,2.56-1.59,3.01l.75,3.07-.73.18-.75-3.09c-1.23.08-2.37-.72-2.67-1.96Z"/><path class="uuid-8b98b392-459e-4e22-8d4d-6a3ff2540102" d="M45.6,25.34c-1.64,3.33-4.7,5.52-8.19,6.26-2.77.6-5.8.28-8.61-1.1-4.41-2.17-7.09-6.4-7.33-10.78-.1-1.92.26-3.86,1.16-5.68.1-.2.2-.39.31-.58,3.12-5.54,10.36-7.6,16.49-4.58,2.54,1.25,4.51,3.18,5.76,5.44,1.88,3.36,2.17,7.44.41,11.02Z"/><path class="uuid-e2cdc03b-1934-433a-a65e-da92b0b811c3" d="M45.6,25.34c-1.64,3.33-4.7,5.52-8.19,6.26l-15.94-11.88c-.1-1.92.26-3.86,1.16-5.68.1-.2.2-.39.31-.58,1.37.35,2.94.81,4.75,1.39,10.74,3.45,15.58,1.14,17.51-.53,1.88,3.36,2.17,7.44.41,11.02Z"/><path class="uuid-266e9cbd-e336-4a1f-aede-ab0f8f05fb90" d="M60.64,41.96c-2.39,4.85-16.5-.56-33.17-8.76C15.98,27.55,6.28,22.05,2.14,17.6.28,15.59-.46,13.79.28,12.28c2.39-4.85,17.83-2.14,34.5,6.06,9.06,4.45,16.61,9.61,21.24,14.16,3.89,3.83,5.71,7.24,4.62,9.46Z"/><path class="uuid-a7bcc797-31e6-4a35-951a-438951270146" d="M55.16,39.73c-.33.66-1.13.94-1.79.61-.66-.33-.94-1.13-.61-1.79.33-.66,1.13-.94,1.79-.61.66.33.94,1.13.61,1.79Z"/><path class="uuid-a7bcc797-31e6-4a35-951a-438951270146" d="M5.32,15.22c-.33.66-1.13.94-1.79.61s-.94-1.13-.61-1.79c.33-.66,1.13-.94,1.79-.61.66.33.94,1.13.61,1.79Z"/><path class="uuid-a7bcc797-31e6-4a35-951a-438951270146" d="M30,31.09c-.33.66-1.13.94-1.79.61s-.94-1.13-.61-1.79c.33-.66,1.13-.94,1.79-.61.66.33.94,1.13.61,1.79Z"/><g class="uuid-1d93b4fd-1c74-47af-a212-2e950e6f2070"><path class="uuid-195e74cb-01d8-4eb2-9133-f7ae7c9becc3" d="M36.25,10.3l.04.02s.03,0,.04,0c.42.26.82.6,1.25.83.06.05.07.06.14.1.02.01.05.01.06.02.1.07.2.14.3.2,0,0,.01.02.02.02.1.07.2.14.3.2,0,.06.01.03.04.04,0,0,.01,0,.02,0,.01,0,.02.02.04.02.61.43,1.28.82,1.88,1.27.32.24.04.26-.13.39s-.35.37-.54.52c-.29.23-.65.45-1.03.35-.21.53-.45,1.04-.68,1.55-.06.13-.16.48-.24.57-.04.05-.11.05-.15.07-.01,0,.01.07-.04,0-.12-.14-.28-.35-.21-.54l-.34-1.31.46-.85s.03-.06.04-.08c.02-.04.04-.08.06-.12.02,0,.04-.02.06-.02.04,0,.07-.01.1-.02.37-.11.74-.2,1.11-.28.06-.01.04.03.04.07,0,.07-.03.15-.04.21-.02.08-.15.54-.12.57.15.01.38-.03.51-.12.02-.02.09-.11.12-.12.13-.07.13-.05.26-.16.07-.06.15-.07.18-.09.03-.02.01-.07.02-.09,0-.01.05-.02.08-.04.06-.05.16-.15.16-.23,0-.04-.03-.04-.04-.05,0-.01,0-.03-.02-.05-.11-.13-.89-.62-1.06-.66-.16-.04-.25.06-.32.19,0-.01-.03-.05-.04-.06-.05-.18.17-.2-.02-.36,0,0-.03-.01-.04-.02-.08-.07-.14-.08-.2-.12,0,0,0-.03-.01-.04-.09-.06-.17-.13-.27-.16-.21-.22-.26-.18-.44.02-.16.18-.3.37-.49.53-.04,0-.07.03-.08.06-.02.01-.04.03-.06.04-.01.01-.05.01-.06.02,0,.01,0,.03,0,.04-.09.04-.19.06-.28.1-.22.05-.43.01-.63-.09-.07-.04-.13-.1-.2-.13-.01-.02-.03-.03-.04-.04-.04-.06-.08-.11-.12-.16,0-.05-.07-.14-.08-.18,0-.02-.02-.17-.02-.18,0-.1.09-.55.13-.65.04-.12.18-.32.25-.44.05-.07.23-.31.23-.37,0-.07-.06-.19.08-.18ZM35.9,11.27c-.04.08-.05.1-.08.18,0,.01-.04,0-.04.08,0,.19.32.31.46.38,0,.02-.01.03.01.06.05.05.23.12.3.16.13.07.22.19.41.16.06,0,.05-.05.07-.06.13-.1.2-.18.3-.3.18-.22.33-.28.07-.53-.05-.05-.12-.08-.17-.12-.18-.14-.35-.28-.55-.39-.09-.06-.3-.2-.4-.16-.09.04-.33.43-.39.53Z"/><path class="uuid-195e74cb-01d8-4eb2-9133-f7ae7c9becc3" d="M36.29,10.67c.1,0,.37-.07.16-.15-.09-.03-.18.14-.16.15Z"/><path class="uuid-195e74cb-01d8-4eb2-9133-f7ae7c9becc3" d="M40.39,13.16s-.12-.05-.14-.06v.24s.17-.13.14-.18Z"/><path class="uuid-93724249-2f8e-4217-8fa3-15b8449ad668" d="M32.57,15.9c.46.35.95.68,1.39,1.04.02.02.05.04.06.07-.01,0-.05,0-.07-.02-.05-.02-.38-.26-.41-.23-.01.16.06.32.06.48l.61-.08c-.04-.06-.15-.08-.16-.16.04.02.08.05.11.08.01,0,0-.02,0-.02.09.04.11.16.14.24-.07.05.07.59.01.59l-.09-.7-.56.1c0,.18-.01.36,0,.53,0,.05.04.1.04.14,0,.07-.15.38-.12.41.06,0,.11-.02.17-.02.02,0,.08-.01.07.02-.07.01-.15.03-.22.04-.02-.03-.08-.02-.11-.02-.1,0-.25.03-.35.04.08-.18.18-.36.18-.56,0-.13-.05-.13-.08-.22-.03-.08-.04-.2-.06-.29.15-.03.3-.05.44-.08,0-.04-.07-.02-.09-.02-.3.02-.65.15-.94.16,0,0-.01,0-.02,0,0-.06-.04-.12-.06-.17-.23-.49-.53-1.18-.81-1.63,0-.04.06.01.07.02.21.13.42.25.63.36.08.02.15-.04.17-.12Z"/><path class="uuid-fceb52d2-c008-4faf-bd0b-1fb9d90ed211" d="M33.52,13.78s-.02.05.04.04c0,0,0,.01,0,.02.03.1.34.61.41.73.02.03.02.06.07.06,0,0,.01.02.02.04l.02.02s0,.03,0,.04c-.04.03-.03.05.02.04.23.63.55,1.15.86,1.74-.01.52.05,1.09,0,1.6-.03-.02-.04-.05-.05-.08-.13-.3-.5-1.09-.55-1.35,0-.06.02-.14.01-.21-.01-.16-.05-.32-.06-.48-.01-.15-.02-.3-.04-.44,0-.05.02-.14-.03-.16-.04-.01-.26.03-.33.04-.05,0-.09.05-.12-.02-.18-.58-.27-1.2-.44-1.78.07.01.12.1.16.16Z"/><path class="uuid-a9f39472-bf08-4633-acd9-551d777981cf" d="M27.23,16.81s.01,0,.02.01c.04.03.08.05.12.07.37-.17.74-.35,1.1-.53.37-.03.81-.17,1.17-.17.04-.03.1-.02.14-.04.23-.09.51-.29.75-.4.02,0,.03-.03.06-.04.03-.01.04-.01.06-.02.04-.01.08-.01.12-.02,0,0,0-.01.04-.02.04,0,.08,0,.12,0,0,0,.01-.02.02-.02.05,0,.08-.02.14-.02l.04-.02s.13,0,.16,0c-.04-.04-.12-.02-.18-.02-.08,0-.16,0-.24,0h-.1c-.11,0-.23,0-.34,0,.13.04.29.01.43.02.02,0,.08-.02.07.02-.43.02-.86.07-1.29.12-.05,0-.08-.02-.09-.02-.01,0-.04.02-.06.02-.32.04-.54.11-.83.24-.45.2-.93.53-1.35.79-.02.01-.05.05-.08.06Z"/><path class="uuid-e0031b6f-dcd2-4a73-a36b-27be20c8d3f8" d="M37.08,13.46c.07.02.17.04.24.06,0,.08.15.09.22.12,0,.01,0,.03,0,.04-.07-.01-.04.05-.04.1l-.46.85c-.39-.45-.88-.85-1.21-1.35-.04-.05-.07-.13-.1-.18.14-.06.28.06.38.09.32.1.65.17.97.27Z"/><path class="uuid-24709ef8-cc24-4c1f-8ad7-4b68b19714f2" d="M34.65,11.17c-.06-.01-.04.03-.04.07-.01.25-.04.5-.06.76.09.02.49.2.54.16-.06-.09-.11-.19-.16-.28h.02c.08.13.18.24.24.38-.05-.03-.08-.05-.14-.04v1.54s.19.06.22.06c0,.01,0,.03,0,.04-.07,0-.13-.04-.19-.06-.01,0,0,.02,0,.02-.16-.05-.31-.09-.48-.12-.03,0-.03,0-.03.03l.5,1.28c.24.1.5.17.76.24.01-.01-.14-.31-.16-.34v-.02s.04.08.08.04c.05.12.09.24.14.36-.11.02-.76-.25-.79-.22,0,.01,0,.03,0,.04-.06-.05-.09-.04-.17-.04-.13,0-.44.05-.57.08-.02,0-.05.01-.05.03,0,.04.31.59.36.67.03.05.08.11.1.15,0,0,0,.05.02.07.03.05.2.36.22.37.23,0,.47-.05.7-.06.01,0,.03-.01.03-.03.01-.04-.24-.47-.29-.54-.01-.02-.03-.03-.04-.03-.05-.09-.32-.61-.32-.67.05.04.07.1.1.15.2.31.36.67.55.98h.05c.02-.28.04-.55.06-.82,0-.04,0-.08.04-.09,0,.02.01.04.02.06-.02.05-.03.14-.04.19-.03.28-.03.56-.04.84,0,.02-.02.07-.02.12-.02.72.04,1.44.02,2.16-.04-.02-.06,0-.06,0-.18-.09-.35-.23-.53-.32,0,0,.06,0,.09.02.04.03.42.26.44.24v-2.24s-.77.08-.77.08c0,.58-.01,1.17.02,1.75,0,.01.18.1.21.11.02.01.01.04.01.04-.03-.02-.22-.12-.24-.12-.03,0-.05.02-.07.04-.44.47-.9.91-1.36,1.35-.17.16-.32.35-.51.49,0,0-.02,0-.02,0,.02-.03.05-.07.08-.1.26-.26.53-.51.79-.77.05-.05.32-.29.32-.31,0-.04-.07-.05-.09-.09-.03-.05-.04-.16-.07-.22.1.04.19.02.29.02.05,0,.11.04.15.01.02-.01.02-.05.02-.05.11-.1.27-.2.36-.32.01-.02.01-.02.02-.04.02-.05.01-.06.02-.1,0-.01.02-.03.02-.06.04-.51-.02-1.08,0-1.6-.31-.59-.63-1.11-.86-1.74,0-.02-.02-.03-.02-.04,0-.01,0-.03,0-.04,0-.02-.02-.02-.02-.02,0-.02-.02-.03-.02-.04-.13-.37-.14-.43-.41-.73-.02-.03-.03-.06-.08-.05,0,0,0-.01,0-.02,0-.04.02-.05-.04-.04-.04-.06-.09-.15-.16-.16v-.06s.31,0,.32-.02c0,0,0-.1,0-.13,0-.02.04-.01.04-.01l.02.04s-.02.07-.02.09c0,.02.05,0,.04.03-.07-.02-.02.09,0,.14.13.45.35.88.48,1.34l.03.02c.03-.26.09-.53.14-.79.02-.11.04-.21.06-.31,0-.04-.02-.08.04-.07-.01.13-.04.32-.06.44,0,0-.03.02-.04.05-.04.25-.09.5-.13.75l.73-.1s-.07-.19-.08-.22c-.12-.31-.23-.69-.38-.99-.02-.04,0-.06-.05-.02,0-.04,0-.08,0-.12-.02,0-.04,0-.06,0l.06-.05v-1.52c-.01-.16-.21-.15-.33-.19s-.22-.1-.34-.12c0-.02.02-.03.02-.04l.65.2c.03-.26.05-.51.08-.77,0-.04,0-.08,0-.12.06.02.05.08.06.1ZM34.55,12.06v1.46l.46-1.31-.46-.14ZM35.02,13.74v-1.39l-.45,1.3s.38.07.45.09Z"/><path class="uuid-e0031b6f-dcd2-4a73-a36b-27be20c8d3f8" d="M35.97,9.56c.28-.04.58-.05.86-.1.06,0,.06.03.09.06.16.13.35.31.53.42v.02s-.07.02-.1.02v-.02s-.04.02-.04.02c-.2.02-.41.05-.61.08-.04,0-.07.02-.08.02-.52.08-1.04.17-1.56.26l.91-.79Z"/><path class="uuid-a9f39472-bf08-4633-acd9-551d777981cf" d="M35.97,9.56l-.91.79s-.01,0-.02,0c-.05.02-.03.06-.04.08,0,0-.01,0-.04.04-.08.13-.14.28-.23.4-.02.03-.02.06-.07.06,0-.22.07-.46.08-.69-.14.19-.29.38-.4.59-.14.24-.34.62-.44.87,0,.02-.01.04-.02.06,0,0-.02.02-.02.04s0,.06,0,.08h-.02l-.03.04-.42,1.53c.06-.59.17-1.18.27-1.76.48-1.07,1.07-1.95,2.32-2.14Z"/><path class="uuid-a9f39472-bf08-4633-acd9-551d777981cf" d="M34.99,10.51c-.07.4-.07.83-.12,1.23,0,0,0,.01,0,.02-.06-.11-.06-.26-.08-.38,0-.04,0-.09,0-.12l.16-.79.04.04Z"/><path class="uuid-24709ef8-cc24-4c1f-8ad7-4b68b19714f2" d="M31.66,15.2c.44.12.88.33,1.3.48.41.46.81.92,1.2,1.39,0,0,0,.02,0,.02-.03-.03-.07-.06-.11-.08,0,0-.01,0-.02,0-.01-.03-.04-.05-.06-.07-.44-.36-.93-.7-1.39-1.04-.31-.23-.61-.47-.91-.71Z"/><path class="uuid-fceb52d2-c008-4faf-bd0b-1fb9d90ed211" d="M35.88,15.3s.01.02.02.04c-.05.01-.04.05-.04.09-.02.27-.04.54-.06.81h-.05c-.2-.3-.36-.66-.55-.97-.03-.05-.06-.11-.1-.15,0-.01,0-.03,0-.04.03-.03.68.24.79.22Z"/><path class="uuid-fceb52d2-c008-4faf-bd0b-1fb9d90ed211" d="M36.45,16.83l-.18-.1c-.13-.11-.28-.22-.42-.3,0-.28.01-.55.04-.84,0-.06.01-.14.04-.19.19.47.39.95.53,1.44Z"/><path class="uuid-a9f39472-bf08-4633-acd9-551d777981cf" d="M31.66,15.2l-2.04.2c-.13.05-.27.07-.4.1l-.04-.02c.5-.14.99-.3,1.49-.44.33.06.68.07,1,.16Z"/><path class="uuid-93724249-2f8e-4217-8fa3-15b8449ad668" d="M36.63,19.06s-.08,0-.12,0l-.02-2.1s.04.05.05.08c.05.16.17.55.17.69,0,.16-.03.38-.04.54,0,.26,0,.53-.04.78Z"/><path class="uuid-93724249-2f8e-4217-8fa3-15b8449ad668" d="M35.2,12.27c.07.05.13.19.18.26,0,0-.03.02-.04.02-.04-.06-.09-.13-.14-.18l.08,1.46s-.22-.05-.22-.06v-1.54c.06,0,.09,0,.14.04Z"/><path class="uuid-e0031b6f-dcd2-4a73-a36b-27be20c8d3f8" d="M33.82,11.92s.02.07.02.12c-.09-.01-.02.09-.02.12,0,.03,0,.07,0,.1-.09-.01-.02.08-.02.1,0,.05,0,.1,0,.14-.09-.01-.02.08-.02.1,0,.04,0,.08,0,.12-.09-.01-.02.09-.02.12,0,.03,0,.07,0,.1-.09-.01-.02.09-.02.12,0,.04,0,.08,0,.12-.09-.01-.02.06-.02.08,0,.02,0,.12,0,.12,0,0-.04,0-.04.01,0,.03,0,.12,0,.13-.01.01-.28.02-.32.02,0-.01,0-.03,0-.04l.02-.04s0-.01,0-.02l.42-1.53.03-.04s0,.03,0,.04Z"/><path class="uuid-08d95210-eaee-40e5-a3da-446a75b5bf7a" d="M29.62,15.44c-.03.09-.1.19-.12.28-.32.04-.54.11-.83.24-.03-.1-.09-.21-.16-.28.09-.05.18-.04.26-.06.15-.04.3-.09.44-.12.14-.03.27-.06.4-.1,0,.01,0,.03,0,.04Z"/><path class="uuid-7bccc3da-927c-4a97-b2e7-4dc41f768f20" d="M28.51,15.68c.08.08.14.18.16.28-.45.2-.93.53-1.35.79l-.02-.02c.24-.21.83-.64.97-.87.12-.07.1-.07.18-.14.01-.01.04-.03.06-.04Z"/><path class="uuid-9075b773-fa46-4d83-ac97-9d6f5d0afe54" d="M35.64,12.51c.04.09.08.18.14.25.05.07.18.21.24.26.18.17.69.27.95.36.03.01.11.02.1.07-.32-.1-.65-.17-.97-.27-.11-.03-.24-.15-.38-.09-.09-.13-.19-.26-.28-.38-.04-.06-.07-.11-.1-.16.02,0,.03-.02.04-.02.08,0,.18,0,.26-.02Z"/><path class="uuid-24709ef8-cc24-4c1f-8ad7-4b68b19714f2" d="M33.8,15.4c.03.07.07.03.12.02,0,.08.14.05.19.06.06.02.1.08.18.06.02.15.03.3.04.44-.09.01-.15.03-.24,0,0,.03,0,.05,0,.08-.1-.22-.21-.44-.28-.67Z"/><path class="uuid-93724249-2f8e-4217-8fa3-15b8449ad668" d="M38.01,10.22c.09.08.29.25.34.34-.03.17-.01.35-.04.53-.04,0-.04-.02-.06-.05-.16-.25-.21-.27-.24-.59,0-.07-.01-.16,0-.23Z"/><path class="uuid-fceb52d2-c008-4faf-bd0b-1fb9d90ed211" d="M35.28,13.86c.04.22.36.82.46,1.07-.04.04-.05,0-.08-.04-.07-.14-.14-.3-.24-.42-.12-.21-.24-.42-.34-.65,0,0,0-.02,0-.02.06.02.12.07.19.06Z"/><path class="uuid-24709ef8-cc24-4c1f-8ad7-4b68b19714f2" d="M36.92,9.52s.06,0,.08.01c.45.2.65.37,1.01.7-.16-.09-.35-.14-.51-.24-.02-.01-.04-.03-.06-.04-.17-.12-.36-.29-.53-.42Z"/><path class="uuid-08d95210-eaee-40e5-a3da-446a75b5bf7a" d="M34.37,18.03s.01-.01.02-.02c0,0-.01.02-.02.02Z"/><path class="uuid-08d95210-eaee-40e5-a3da-446a75b5bf7a" d="M34.39,18.01s.01-.01.02-.02c0,0-.01.01-.02.02Z"/><path class="uuid-08d95210-eaee-40e5-a3da-446a75b5bf7a" d="M34.41,17.99s0-.02.02-.04c0,.03-.01.03-.02.04Z"/><path class="uuid-08d95210-eaee-40e5-a3da-446a75b5bf7a" d="M34.17,18.31s0,.05,0,.06c0,0-.03,0-.04,0,.02-.04.03-.05.04-.06Z"/><path class="uuid-08d95210-eaee-40e5-a3da-446a75b5bf7a" d="M34.33,18.09s.02-.01.02-.02c0,0-.02.01-.02.02Z"/><path class="uuid-08d95210-eaee-40e5-a3da-446a75b5bf7a" d="M34.31,18.13s.02-.03.02-.04c0,0,0,.02-.02.04Z"/><path class="uuid-08d95210-eaee-40e5-a3da-446a75b5bf7a" d="M34.35,18.07s0-.01,0-.02,0-.01,0-.02h.02s0,.02-.02.04Z"/><path class="uuid-08d95210-eaee-40e5-a3da-446a75b5bf7a" d="M34.04,18.49s.02-.01.02-.02c0,0-.01.01-.02.02Z"/><path class="uuid-08d95210-eaee-40e5-a3da-446a75b5bf7a" d="M34.29,18.15s.02-.01.02-.02c0,0-.02.01-.02.02Z"/><path class="uuid-08d95210-eaee-40e5-a3da-446a75b5bf7a" d="M34.04,18.49s-.03.07-.01.08l.58-.2-.57.22.31.04h.19s0,.04-.02.05c-.04.03-.1-.01-.15-.01-.1,0-.19.03-.29-.02.03.06.04.17.07.22.02.04.1.05.09.09,0,.03-.28.27-.32.31v-.53c-.08-.02-.05.05-.1.05.02-.14.13-.22.22-.31Z"/><path class="uuid-08d95210-eaee-40e5-a3da-446a75b5bf7a" d="M34.33,15.98c.02.16.05.32.06.48,0,.08-.02.15-.01.21.04.27.42,1.06.55,1.35.01.03.02.06.05.08,0,.03-.02.05-.02.06l-.49-1.17-.02.19c0,.18.06.59.02.75,0,.02-.04,0-.04.01.01-.08,0-.18,0-.26,0-.2.03-.64,0-.81-.05-.23-.32-.58-.34-.8,0-.03,0-.05,0-.08.09.03.15.01.24,0Z"/><path class="uuid-08d95210-eaee-40e5-a3da-446a75b5bf7a" d="M34.27,18.19s0-.03.02-.04c0,0-.01.03-.02.04Z"/><path class="uuid-08d95210-eaee-40e5-a3da-446a75b5bf7a" d="M34.27,18.19s-.04.04-.04.04c.03-.04.04-.04.04-.04Z"/><path class="uuid-08d95210-eaee-40e5-a3da-446a75b5bf7a" d="M34.23,18.23s.01.01-.04.06c.02-.02.02-.04.04-.06Z"/><path class="uuid-08d95210-eaee-40e5-a3da-446a75b5bf7a" d="M34.17,18.31s.02-.01.02-.02c0,0-.02.02-.02.02Z"/><path class="uuid-08d95210-eaee-40e5-a3da-446a75b5bf7a" d="M34.07,18.47s-.01-.05.06-.1c-.03.06,0,.04-.06.1Z"/><path class="uuid-fceb52d2-c008-4faf-bd0b-1fb9d90ed211" d="M38.51,11.76s-.03-.02-.04-.02c.04-.02,0-.07,0-.09-.02-.1-.07-.3-.12-.37,0-.19-.03-.39.04-.57.08.33.1.71.12,1.05Z"/><path class="uuid-24709ef8-cc24-4c1f-8ad7-4b68b19714f2" d="M36.45,16.83s.07.06.04.12l.02,2.1s-.04-.01-.06-.02c.04-.05.02-.15.02-.22,0-.63,0-1.26,0-1.89-.02-.08-.12-.11-.17-.15-.01-.01-.02-.03-.03-.04l.18.1Z"/><path class="uuid-fceb52d2-c008-4faf-bd0b-1fb9d90ed211" d="M34.95,18.17s0,.05-.02.1h-.04s.02.04.02.04c-.09.12-.25.22-.36.32h-.19s-.31-.04-.31-.04l.57-.22-.58.2s0-.06.01-.08c0,0,.01-.01.02-.02.06-.06.03-.04.06-.1,0,0,.03,0,.04,0,.01-.01,0-.05,0-.06,0,0,.01-.01.02-.02.05-.05.02-.02.04-.06,0,0,.01,0,.04-.04,0-.01.01-.03.02-.04,0,0,.02-.01.02-.02.01-.02.01-.03.02-.04,0,0,.01-.01.02-.02.01-.02.02-.03.02-.04,0,0,.01-.01.02-.02,0,0,.02-.01.02-.02,0-.01.02-.01.02-.04,0,0,.04.01.04-.01.04-.16-.01-.57-.02-.75l.02-.19.49,1.17Z"/><path class="uuid-fceb52d2-c008-4faf-bd0b-1fb9d90ed211" d="M34.83,18.29s-.09.02-.14.04c-.03.01-.05-.01-.04.05l.18-.08Z"/><path class="uuid-fceb52d2-c008-4faf-bd0b-1fb9d90ed211" d="M33.6,18.43c.07-.01.15-.03.22-.04,0-.03-.05-.02-.07-.02-.06,0-.11.03-.17.02-.03-.03.12-.34.12-.41,0-.04-.03-.09-.04-.14-.01-.18,0-.36,0-.53l.56-.1.09.7c.06,0-.08-.54-.01-.59.04.12.05.25.12.36,0,.08.01.19,0,.26-.02.02-.02.04-.02.04,0,0-.01.01-.02.02,0,0-.01.01-.02.02h-.02v-.12s-.02.02-.02.02c0,.04-.02.1.02.12,0,0,0,.01,0,.02,0,0-.02.01-.02.02,0,0-.02.04-.02.04,0,0-.01.01-.02.02-.01.02-.01.03-.02.04,0,0-.01,0-.04.04-.02.02-.03.04-.04.06,0,0-.02.01-.02.02,0,.01-.02.02-.04.06-.07.05-.04.05-.06.1,0,0-.02.01-.02.02-.09.1-.2.18-.22.31.05,0,.03-.08.1-.05v.53c-.26.26-.53.51-.79.77h-.08c.04-.27.11-.55.18-.82-.06-.04-.11-.08-.16-.13-.02-.02-.06-.02-.03-.06.08-.03.2-.06.28-.08.07-.02.15-.04.22-.07-.05-.02-.12,0-.17.02-.03,0-.05.03-.05.04-.01,0-.03,0-.04,0-.02-.17.15-.22.21-.3.03-.04.05-.15.07-.2,0,0,.01,0,.02,0Z"/><path class="uuid-fceb52d2-c008-4faf-bd0b-1fb9d90ed211" d="M33.81,18.83s-.05.06-.04.08c.02-.02.05-.06.04-.08Z"/><path class="uuid-fceb52d2-c008-4faf-bd0b-1fb9d90ed211" d="M33.75,18.94v.02s.01-.01,0-.02Z"/><path class="uuid-24709ef8-cc24-4c1f-8ad7-4b68b19714f2" d="M38.39,10.71c-.07.18-.03.38-.04.57,0-.01-.02-.04-.03-.04-.06.06-.11.14-.15.21-.02.03-.02.06-.06.05,0,0-.01-.02-.02-.02.12-.13.2-.21.22-.38s.01-.35.04-.53c.03.06.03.09.04.14Z"/><path class="uuid-24709ef8-cc24-4c1f-8ad7-4b68b19714f2" d="M35.72,13.09s.07.13.1.18l-.16-.18-.23-.39c.09.13.19.25.28.38Z"/><path class="uuid-e0031b6f-dcd2-4a73-a36b-27be20c8d3f8" d="M29.17,15.48l.04.02c-.15.03-.3.09-.44.12l.18-.09c.07-.02.15-.03.22-.05Z"/><path class="uuid-a9f39472-bf08-4633-acd9-551d777981cf" d="M33.36,13.52s.02-.04.02-.04l-.02.04Z"/><path class="uuid-a9f39472-bf08-4633-acd9-551d777981cf" d="M37.62,11.94s.09-.02.14,0c.07.02.42.17.45.21.02.02.02.05.03.07.06.07.14.18.2.24.01.01.02.02.04.01,0,.05.05.11.09.16,0,0,.03,0,.03,0,0,.01.03.05.04.06.02.02.03.08.05.12.08.13.16.27.23.4-.01,0-.04.04-.06.04-.37.09-.75.17-1.11.28-.02-.04-.08.01-.1.02-.02,0-.04.02-.06.02-.42-.16-.84-.33-1.25-.51l.3-.19c.09-.1.22-.14.28-.25.03-.01.05,0,.06-.06.02-.01.05-.03.06-.04.03-.02.05-.04.08-.06.18-.15.32-.35.49-.53Z"/><path class="uuid-08d95210-eaee-40e5-a3da-446a75b5bf7a" d="M40.05,13.22c-.11.17-.26.3-.4.44-.01-.03-.04-.05-.07-.07-.13-.09-.42-.29-.55-.36-.03-.01-.05-.03-.09-.02-.07-.14-.15-.27-.23-.4-.02-.04-.03-.1-.05-.12.07-.13.16-.22.32-.19.17.04.94.53,1.06.66.01.02.01.04.02.05Z"/><path class="uuid-a2ed3ac1-699c-42c5-a109-9cf79c0ddade" d="M38.01,10.22c-.01.07,0,.16,0,.23.03.31.08.34.24.59.02.03.02.06.06.05-.03.17-.1.26-.22.38-.1-.07-.2-.14-.3-.2l-.28-1.29c.16.1.34.15.51.24Z"/><path class="uuid-a2ed3ac1-699c-42c5-a109-9cf79c0ddade" d="M37.24,11.29s-.05.04-.07.06c-.16.09-.36.17-.53.25-.01,0-.05,0-.06,0,0-.09.02-.2-.09-.2-.03,0-.05.03-.1.04-.04,0-.19,0-.22,0s-.02-.1-.04-.12c-.02-.03-.18-.03-.22-.04.06-.1.3-.49.39-.53.09-.04.3.1.4.16.19.12.37.25.55.39ZM36.59,11.09c.03.07.03.13.11.14l-.03-.12.08.02s-.04-.12-.07-.14c-.01-.01-.05-.01-.08-.03,0,0-.01-.02-.02-.02-.06-.03-.08,0-.1,0,0,0,0-.03-.03-.05-.04-.03-.11-.07-.16-.08,0,.07.24.28.28.27Z"/><path class="uuid-7bccc3da-927c-4a97-b2e7-4dc41f768f20" d="M35.5,11.94c.02.06.03.15.06.22.03.07.07.09.1.14.04.05.08.11.12.16-.05,0-.1.03-.14.04-.08.01-.18.01-.26.02-.05-.08-.11-.21-.18-.26-.06-.14-.17-.25-.24-.38-.02-.03,0-.1-.08-.1,0,0,0-.01,0-.02s0-.01,0-.02l.63-.77c-.02.15-.12.71-.09.81.01.06.07.11.09.16Z"/><path class="uuid-a9f39472-bf08-4633-acd9-551d777981cf" d="M36.17,10.49c0,.05-.19.29-.23.37-.07.12-.21.32-.25.44-.03.1-.13.55-.13.65h-.06s-.08-.11-.09-.16c-.03-.1.07-.66.09-.81.01-.08.03-.16.04-.24s.05-.16.04-.24c.03-.03.42.11.47.1.02,0,.05-.08.05-.1h.06Z"/><path class="uuid-24709ef8-cc24-4c1f-8ad7-4b68b19714f2" d="M37.34,11.94s-.07,0-.11-.02c-.15-.06-.33-.12-.46-.18-.06-.03-.14-.05-.13-.14.17-.08.37-.16.53-.25.03-.01.06-.02.07-.06.05.04.12.07.17.12.26.24.11.31-.07.53Z"/><path class="uuid-08d95210-eaee-40e5-a3da-446a75b5bf7a" d="M36.63,11.6c-.01.08.08.11.13.14.14.06.32.13.46.18.04.01.07.03.11.02-.1.12-.17.21-.3.3l-.11-.02c-.21-.17-.47-.25-.7-.38,0-.02,0-.04,0-.06.08,0,.13-.06.16-.08.1-.04.12-.07.18-.1.01,0,.05,0,.06,0Z"/><path class="uuid-57b84000-21c5-4860-b1c6-25226438fad6" d="M37.5,9.98l.28,1.29s-.04,0-.06-.02c-.03-.07-.09-.07-.14-.1-.19-.15-.39-.27-.59-.41-.03-.02-.05-.04-.05-.08.21.04.47.03.69.04.03-.03-.18-.65-.18-.75v-.02s.04.03.06.04Z"/><path class="uuid-7bccc3da-927c-4a97-b2e7-4dc41f768f20" d="M39.64,13.66s-.05.02,0,.04c-.13.11-.14.09-.26.16,0-.04-.02-.04-.05-.06-.14-.09-.3-.2-.46-.26.01-.07.03-.15.04-.21,0-.04.02-.08-.04-.07.02,0,.05-.04.06-.04.04,0,.06,0,.09.02.13.06.43.26.55.36.03.02.05.03.07.07Z"/><path class="uuid-0a9e450e-7665-4409-9c5a-1be59eb468ec" d="M38.88,13.54c.15.06.32.17.46.26.03.02.06.02.05.06-.02.01-.09.11-.12.12-.13.09-.36.13-.51.12-.02-.02.11-.49.12-.57Z"/><path class="uuid-ed578581-f237-418b-90d6-53c8995a85cb" d="M35.78,12.47s.03.02.04.04c.08.13.13.28.22.4.1.14.16.1.3.16.42.17.83.34,1.25.51-.02.04-.04.08-.06.12v-.02s0-.03,0-.04c-.01-.07-.15-.1-.22-.12-.07-.02-.17-.04-.24-.06.01-.05-.07-.06-.1-.07-.26-.09-.77-.19-.95-.36-.06-.06-.19-.2-.24-.26-.06-.07-.11-.17-.14-.25.04,0,.1-.04.14-.04Z"/><path class="uuid-8ee96fe3-ebc7-4beb-b5a1-d63d92c48fe0" d="M35.9,11.27s.2.02.22.04c.01.02,0,.11.04.12s.18,0,.22,0,.07-.04.1-.04c.12,0,.1.11.09.2-.06.03-.09.06-.18.1-.16-.11-.38-.2-.57-.24.03-.08.04-.1.08-.18Z"/><path class="uuid-e0031b6f-dcd2-4a73-a36b-27be20c8d3f8" d="M37,12.57c-.01.07-.03.05-.06.06-.07.11-.19.16-.28.25l-.3.19c-.14-.06-.2-.02-.3-.16.04-.09.09,0,.15,0,.11-.01.35-.13.46-.18.09-.04.19-.06.28-.1,0,0,0-.02,0-.04,0-.01.04-.01.06-.02Z"/><path class="uuid-7bccc3da-927c-4a97-b2e7-4dc41f768f20" d="M37.04,12.24s-.02.05-.07.06c-.18.03-.28-.08-.41-.16-.07-.04-.25-.11-.3-.16-.03-.03,0-.04-.01-.06,0-.03-.02-.06-.02-.08.23.13.49.22.7.38l.11.02Z"/><path class="uuid-9075b773-fa46-4d83-ac97-9d6f5d0afe54" d="M36.65,12.73c-.11.04-.35.17-.46.18-.06,0-.11-.09-.15,0-.09-.12-.14-.28-.22-.4.08.03.13.09.2.13.19.11.41.14.63.09Z"/><path class="uuid-93724249-2f8e-4217-8fa3-15b8449ad668" d="M38.35,11.27c.05.08.1.28.12.37,0,.03.03.08,0,.09,0,0-.01,0-.02,0,0-.02-.02-.03-.04-.04-.1-.06-.2-.13-.3-.2.04,0,.04-.02.06-.05.04-.07.09-.15.15-.21,0,0,.02.03.03.04Z"/><path class="uuid-7bccc3da-927c-4a97-b2e7-4dc41f768f20" d="M36.39,11.7s-.08.08-.16.08-.35-.21-.44-.24c0-.07.04-.07.04-.08.19.04.41.13.57.24Z"/><path class="uuid-e0031b6f-dcd2-4a73-a36b-27be20c8d3f8" d="M38.07,11.92c.08.09.14.2.23.28l.05-.08c.06.04.12.05.2.12-.05.05-.06.15-.06.22-.02,0-.03,0-.04-.01-.06-.06-.14-.17-.2-.24-.02-.02-.01-.05-.03-.07-.04-.04-.39-.19-.45-.21-.05-.01-.09-.03-.14,0,.18-.2.24-.24.44-.02Z"/><path class="uuid-0a9e450e-7665-4409-9c5a-1be59eb468ec" d="M36.23,11.78s0,.04,0,.06c0,.03.01.06.02.08-.15-.07-.47-.19-.46-.38.1.04.36.24.44.24Z"/><path class="uuid-ed578581-f237-418b-90d6-53c8995a85cb" d="M40.05,13.22s.04,0,.04.05c0,.08-.1.18-.16.23-.02.02-.07.02-.08.04-.01.02,0,.06-.02.09-.03.03-.11.03-.18.09-.05-.02-.01-.03,0-.04.14-.14.29-.28.4-.44Z"/><path class="uuid-ed578581-f237-418b-90d6-53c8995a85cb" d="M38.61,12.63s-.03,0-.03,0c-.04-.05-.09-.1-.09-.16.06-.01.11-.15.1-.2.19.17-.03.18.02.36Z"/><path class="uuid-08d95210-eaee-40e5-a3da-446a75b5bf7a" d="M38.07,11.92c.1.03.18.1.27.16.02.01.01.04.01.04l-.05.08c-.09-.08-.15-.2-.23-.28Z"/><path class="uuid-5c177406-8a6a-4622-9107-c1c95704a2e3" d="M36.29,10.67s.07-.18.16-.15c.21.08-.06.15-.16.15Z"/><path class="uuid-24709ef8-cc24-4c1f-8ad7-4b68b19714f2" d="M40.39,13.16s-.12.21-.14.18v-.24s.14.06.14.06Z"/><path class="uuid-e0031b6f-dcd2-4a73-a36b-27be20c8d3f8" d="M36.33,10.3v.02s-.03,0-.04,0c0,0,0-.02-.04-.02-.14,0-.08.11-.08.18h-.06s0-.09,0-.13c0,0,.07-.11.08-.11.06-.03.1.04.14.06Z"/><path class="uuid-e0031b6f-dcd2-4a73-a36b-27be20c8d3f8" d="M35.56,11.94s.02.16.02.18l-.02.04c-.03-.07-.04-.16-.06-.22h.06Z"/><path class="uuid-9075b773-fa46-4d83-ac97-9d6f5d0afe54" d="M36.33,10.3c.15.08.28.18.42.26.02.01.04.03.06.04.05.03.03.04.12.06,0,.04.02.06.05.08.2.14.41.26.59.41-.43-.23-.83-.57-1.25-.83v-.02Z"/><path class="uuid-ed578581-f237-418b-90d6-53c8995a85cb" d="M37.72,11.25c-.07-.04-.08-.05-.14-.1.05.03.11.03.14.1Z"/><path class="uuid-ed578581-f237-418b-90d6-53c8995a85cb" d="M35.66,12.31c-.04-.05-.07-.07-.1-.14l.02-.04s.07.13.08.18Z"/><path class="uuid-9075b773-fa46-4d83-ac97-9d6f5d0afe54" d="M37.54,13.68v.02s0,.06-.04.08c0-.05-.02-.12.04-.1Z"/><path class="uuid-7bccc3da-927c-4a97-b2e7-4dc41f768f20" d="M37.76,13.54s-.06.03-.1.02c.02,0,.08-.06.1-.02Z"/><path class="uuid-0a9e450e-7665-4409-9c5a-1be59eb468ec" d="M38.45,11.74s-.05.02-.04-.04c.02.01.03.02.04.04Z"/><path class="uuid-e0031b6f-dcd2-4a73-a36b-27be20c8d3f8" d="M37.14,12.47s-.05.04-.08.06c.02-.04.04-.06.08-.06Z"/><path class="uuid-9075b773-fa46-4d83-ac97-9d6f5d0afe54" d="M36.29,10.32l-.04-.02s.04.02.04.02Z"/><path class="uuid-a2ed3ac1-699c-42c5-a109-9cf79c0ddade" d="M31.66,15.2c.3.23.6.48.91.71-.02.07-.09.14-.17.12-.22-.11-.42-.23-.63-.36-.01,0-.06-.06-.07-.02,0-.01-.03-.03-.04-.04-.01-.01,0-.06-.03-.06-.17,0-.34,0-.51,0,0,0-.01,0-.02,0l-1.36-.12h-.05s0,.09,0,.12l-.06-.1s0-.03,0-.04l2.04-.2Z"/><path class="uuid-a2ed3ac1-699c-42c5-a109-9cf79c0ddade" d="M33.18,17.38c.02.09.03.21.06.29.04.1.08.09.08.22,0,.2-.11.38-.18.56-.16.02-.32.09-.49.08-.01-.12,0-.27,0-.39-.01-.21-.06-.45-.06-.66.19-.05.39-.07.59-.1Z"/><path class="uuid-fceb52d2-c008-4faf-bd0b-1fb9d90ed211" d="M34.02,17.02s.01,0,.02,0c.02.08.12.1.16.16l-.61.08c0-.16-.07-.32-.06-.48.03-.03.36.2.41.23.03.01.06,0,.07.02Z"/><path class="uuid-24709ef8-cc24-4c1f-8ad7-4b68b19714f2" d="M31.7,15.64c.27.45.57,1.14.81,1.63.02.05.06.11.06.17-.02,0-.04-.02-.04-.02l-.89-1.82h.02s.03.03.04.04Z"/><path class="uuid-24709ef8-cc24-4c1f-8ad7-4b68b19714f2" d="M32.59,17.44c.29-.01.64-.14.94-.16.02,0,.09-.02.09.02-.15.03-.3.06-.44.08-.2.03-.39.05-.59.1,0-.01,0-.03,0-.04Z"/><path class="uuid-24709ef8-cc24-4c1f-8ad7-4b68b19714f2" d="M33.6,18.43s-.01,0-.02,0c-.3.05-.59.1-.89.14,0,0-.03.03-.04-.04.16,0,.33-.06.49-.08.1-.02.25-.03.35-.04.03,0,.09,0,.11.02Z"/><path class="uuid-08d95210-eaee-40e5-a3da-446a75b5bf7a" d="M33.56,13.84s.05.03.08.05c.27.3.28.37.41.73-.05,0-.05-.03-.07-.06-.08-.12-.39-.63-.41-.73Z"/><path class="uuid-08d95210-eaee-40e5-a3da-446a75b5bf7a" d="M34.29,15.54c-.08.02-.12-.04-.18-.06-.05-.01-.19.01-.19-.06.07,0,.29-.05.33-.04.05.02.03.11.03.16Z"/><path class="uuid-08d95210-eaee-40e5-a3da-446a75b5bf7a" d="M33.52,13.78c.06,0,.03,0,.04.04-.06.01-.03-.03-.04-.04Z"/><path class="uuid-08d95210-eaee-40e5-a3da-446a75b5bf7a" d="M34.11,14.77s-.06,0-.02-.04c0,0,.01.02.02.04Z"/><path class="uuid-08d95210-eaee-40e5-a3da-446a75b5bf7a" d="M34.09,14.69l-.02-.02s.01,0,.02.02Z"/><path class="uuid-5c177406-8a6a-4622-9107-c1c95704a2e3" d="M31.3,15.58c.11,0,.25-.02.34.02l.89,1.82c-.42-.05-.68-.11-1.12-.1-.19,0-.39-.02-.58.02l-.18-1.66s.08-.01.12-.02c.03.04.05.03.04-.02.04,0,.08,0,.12,0l.02-.02c.05,0,.08-.02.14-.02,0,0,.02.03.04.02,0,0,0-.04,0-.04,0,0,.13,0,.16,0Z"/><path class="uuid-fceb52d2-c008-4faf-bd0b-1fb9d90ed211" d="M30.53,15.74c.06-.01.03.03.04.07.08.5.12,1.02.18,1.53-.05-.02-.12.02-.14.02-.03,0-.05,0-.08,0-.03,0-.1,0-.15,0-.26.01-.52,0-.78.04l.14-1.18.04-.07c.23-.09.51-.29.75-.4Z"/><path class="uuid-fceb52d2-c008-4faf-bd0b-1fb9d90ed211" d="M31.09,15.54c-.07,0-.17-.02-.22.02-.03,0-.05,0-.08,0v-.02s-.02.02-.02.02c-.11,0-.23,0-.34,0,0,0-.01,0-.02,0-.03,0-.05,0-.08,0-.25,0-.42-.03-.65.06v-.02s0-.04,0-.06c0-.03.01-.07,0-.12h.05s1.36.12,1.36.12Z"/><path class="uuid-e0031b6f-dcd2-4a73-a36b-27be20c8d3f8" d="M30.33,15.56s.07.03.08,0c0,0,.01,0,.02,0,.13.04.29.01.43.02.02,0,.08-.02.07.02-.43.02-.86.07-1.29.12-.05,0-.08-.02-.09-.02.03-.02.06-.04.08-.06.01,0,.03-.02.04-.02.23-.09.39-.06.65-.06Z"/><path class="uuid-08d95210-eaee-40e5-a3da-446a75b5bf7a" d="M30.59,15.7s.03.09.04.13c.06.48.1.97.17,1.45.01.09-.12.07-.18.07.02,0,.09-.04.14-.02-.07-.51-.1-1.02-.18-1.53,0-.04.02-.08-.04-.07.02,0,.03-.03.06-.04Z"/><path class="uuid-7bccc3da-927c-4a97-b2e7-4dc41f768f20" d="M29.68,15.54s0,.04,0,.06c-.02,0-.03.03-.04.04-.02.02-.06.04-.08.06-.01,0-.04.02-.06.02.02-.1.09-.19.12-.28l.06.1Z"/><path class="uuid-e0031b6f-dcd2-4a73-a36b-27be20c8d3f8" d="M31.11,15.54c.17,0,.34,0,.51,0,.02,0,.02.05.03.06h-.02c-.1-.04-.24-.02-.34-.02-.04-.04-.12-.02-.18-.02v-.02Z"/><path class="uuid-ed578581-f237-418b-90d6-53c8995a85cb" d="M31.09,15.54s.01,0,.02,0v.02c-.08,0-.16,0-.24,0,.05-.04.15-.02.22-.02Z"/><path class="uuid-24709ef8-cc24-4c1f-8ad7-4b68b19714f2" d="M30.81,15.64s0,.06-.04.02c0,0,0-.01.04-.02Z"/><path class="uuid-24709ef8-cc24-4c1f-8ad7-4b68b19714f2" d="M31.13,15.58s0,.03,0,.04c-.02.02-.04-.02-.04-.02l.04-.02Z"/><path class="uuid-08d95210-eaee-40e5-a3da-446a75b5bf7a" d="M30.79,15.56s-.01,0-.02,0v-.02s.02.02.02.02Z"/><path class="uuid-24709ef8-cc24-4c1f-8ad7-4b68b19714f2" d="M30.93,15.64s.01-.02.02-.02l-.02.02Z"/><path class="uuid-9075b773-fa46-4d83-ac97-9d6f5d0afe54" d="M37.32,13.52c.07.02.21.05.22.12-.07-.04-.21-.04-.22-.12Z"/><path class="uuid-cc68b25c-880f-4ae7-b24c-7a0c02a5f378" d="M35.26,18.39c.17.1.35.23.53.32-.39.47-.73.98-1.11,1.46-.1,0-.15-.14-.2-.21-.03-.04-.09-.04-.09-.11l-.15-.14.12.17c.09.11.22.22.26.35,0,0-.01,0-.02,0-.09.01-.22,0-.31,0-.03,0-.05-.02-.06-.02h-.99s-.13-.04-.15-.04v-.02c.19-.14.34-.32.51-.49.46-.44.92-.88,1.36-1.35.02-.01.05-.04.07-.04.01,0,.21.1.24.12Z"/><path class="uuid-cc68b25c-880f-4ae7-b24c-7a0c02a5f378" d="M33.97,19.38v.02s.01-.01,0-.02Z"/><path class="uuid-cc68b25c-880f-4ae7-b24c-7a0c02a5f378" d="M34.04,19.48s0-.04-.03-.06c0,.02.02.08.03.06Z"/><path class="uuid-cc68b25c-880f-4ae7-b24c-7a0c02a5f378" d="M34.18,19.61s-.08-.14-.11-.11c-.02.02.12.14.12.17.07,0,0-.06-.01-.06Z"/><path class="uuid-5c177406-8a6a-4622-9107-c1c95704a2e3" d="M35.26,18.39s0-.03-.01-.04c-.03-.02-.21-.1-.21-.11-.03-.58-.02-1.16-.02-1.75l.77-.08v2.24s-.39-.22-.44-.24c-.03-.02-.08-.02-.09-.02Z"/><path class="uuid-8ee96fe3-ebc7-4beb-b5a1-d63d92c48fe0" d="M34.19,11.92c.11.04.31.03.32.19v1.52s-.06.05-.06.05c-.13-.03-.26-.03-.39-.06-.09.15.15.51.25.62.03.03.05.04.1.03-.05.26-.11.52-.14.79l-.03-.02c-.13-.45-.35-.89-.48-1.34-.01-.05-.07-.15,0-.14,0-.03-.04,0-.04-.03,0-.02.01-.07.02-.09.08-.2.26-.41.34-.62,0-.06,0-.03-.02,0-.03.06-.06.12-.08.18l-.04-.05.24-1.02Z"/><path class="uuid-93724249-2f8e-4217-8fa3-15b8449ad668" d="M35.66,14.91s.18.33.16.34c-.25-.07-.52-.14-.76-.24l-.5-1.28s0-.03.03-.03c.17.03.32.07.48.12.1.22.23.43.34.65.08.15.16.3.24.44Z"/><path class="uuid-cc68b25c-880f-4ae7-b24c-7a0c02a5f378" d="M35.82,16.55l.65,2.26c0,.07.02.17-.02.22-.16-.06-.43-.24-.61-.32.02-.72-.04-1.44-.02-2.16Z"/><path class="uuid-a2ed3ac1-699c-42c5-a109-9cf79c0ddade" d="M36.27,16.73s.01.03.03.04c.05.04.16.07.17.15,0,.63,0,1.26,0,1.89l-.65-2.26c0-.05.02-.1.02-.12.15.09.29.19.42.3Z"/><path class="uuid-8ee96fe3-ebc7-4beb-b5a1-d63d92c48fe0" d="M35.1,15.12c0,.06.27.57.32.67l-.65.22s-.08-.1-.1-.15c-.05-.08-.37-.63-.36-.67,0-.02.03-.03.05-.03.13-.03.43-.08.57-.08.08,0,.11,0,.17.04Z"/><path class="uuid-a2ed3ac1-699c-42c5-a109-9cf79c0ddade" d="M34.77,16l.65-.22s.03.01.04.03c.04.08.3.5.29.54,0,.01-.02.02-.03.03-.23,0-.47.07-.7.06-.02,0-.19-.32-.22-.37-.02-.03-.01-.06-.02-.07Z"/><path class="uuid-a2ed3ac1-699c-42c5-a109-9cf79c0ddade" d="M34.19,11.92l-.24,1.02.04.05c.02-.06.05-.12.08-.18.02-.03.02-.06.02,0-.08.21-.26.42-.34.62l-.02-.04s0-.1,0-.12c.03-.02.02-.05.02-.08,0-.04,0-.08,0-.12.03-.03.02-.08.02-.12,0-.03,0-.07,0-.1.03-.03.02-.08.02-.12s0-.08,0-.12c.03-.03.02-.07.02-.1,0-.05,0-.1,0-.14.03-.03.02-.07.02-.1,0-.03,0-.07,0-.1.03-.03.02-.08.02-.12,0-.05-.01-.08-.02-.12.08,0,.02-.03.02-.04,0-.02,0-.06,0-.08.12.02.23.08.34.12Z"/><polygon class="uuid-a2ed3ac1-699c-42c5-a109-9cf79c0ddade" points="34.55 12.06 35.02 12.2 34.55 13.52 34.55 12.06"/><path class="uuid-cc68b25c-880f-4ae7-b24c-7a0c02a5f378" d="M34.45,14.33c.13.02.11.11.16.17.04.04.13.1.18.16.03.03.02.08.04.1,0,0,.09.05.1.05.01.04.1.2.08.22l-.73.1c.03-.25.08-.5.13-.75,0-.03.04-.05.04-.05Z"/><path class="uuid-5c177406-8a6a-4622-9107-c1c95704a2e3" d="M35.02,13.74c-.06-.03-.44-.06-.45-.09l.45-1.3v1.39Z"/><path class="uuid-fceb52d2-c008-4faf-bd0b-1fb9d90ed211" d="M34.59,11.19c-.03.26-.05.51-.08.77l-.65-.2s.01-.04.02-.06c.06-.02.12-.08.17-.12.07-.06.37-.35.42-.37.04-.02.08-.01.12-.01Z"/><path class="uuid-5c177406-8a6a-4622-9107-c1c95704a2e3" d="M34.65,11.17c.03.07.08.16.14.2.02.12.02.27.08.38,0,0,0,.01,0,.02.01.06.04.07.06.1.05.1.1.19.16.28-.05.04-.46-.15-.54-.16.01-.25.05-.5.06-.76,0-.04-.02-.08.04-.07Z"/><path class="uuid-fceb52d2-c008-4faf-bd0b-1fb9d90ed211" d="M34.45,13.68s.04,0,.06,0c0,.04,0,.08,0,.12,0,.01,0,.08,0,.08-.06-.01-.03.03-.04.07-.02.11-.04.21-.06.31-.05,0-.06,0-.1-.03-.11-.11-.35-.47-.25-.62.13.04.26.04.39.06Z"/><path class="uuid-7bccc3da-927c-4a97-b2e7-4dc41f768f20" d="M34.59,11.05s0,.01,0,.02c0,.04,0,.08,0,.12-.04,0-.08,0-.12.01-.04.02-.35.31-.42.37-.05.04-.11.1-.17.12.1-.25.31-.63.44-.87.11.04.17.16.26.22Z"/><path class="uuid-a2ed3ac1-699c-42c5-a109-9cf79c0ddade" d="M34.93,14.81s-.1-.05-.1-.05c-.01-.02-.01-.07-.04-.1-.05-.06-.15-.12-.18-.16-.05-.06-.03-.15-.16-.17.02-.12.05-.32.06-.44,0,0,0-.07,0-.08.06-.04.03-.02.05.02.14.3.25.68.38.99Z"/><path class="uuid-fceb52d2-c008-4faf-bd0b-1fb9d90ed211" d="M34.65,10.95c.01.15.12.21.14.3,0,.03,0,.09,0,.12-.06-.04-.11-.14-.14-.2-.01-.03,0-.09-.06-.1,0,0,0-.01,0-.02,0-.04.02-.12.06-.1Z"/><path class="uuid-08d95210-eaee-40e5-a3da-446a75b5bf7a" d="M34.93,18.27s0,.02-.02.04l-.02-.05h.04Z"/><path class="uuid-5c177406-8a6a-4622-9107-c1c95704a2e3" d="M37.44,9.96c0,.1.21.72.18.75-.22-.01-.47,0-.69-.04-.1-.02-.07-.03-.12-.06-.01-.16-.09-.3-.13-.45,0-.03-.03-.08,0-.1.2-.03.4-.06.61-.08.01,0,.03,0,.04,0,.03,0,.07,0,.1-.02Z"/><path class="uuid-8ee96fe3-ebc7-4beb-b5a1-d63d92c48fe0" d="M36.61,10.08l.14.49c-.15-.09-.28-.19-.42-.26-.03-.02-.08-.09-.14-.06,0,0-.08.11-.08.11-.01.04,0,.09,0,.13,0,.02-.03.09-.05.1-.05.01-.45-.13-.47-.1,0,.08-.03.16-.04.24-.08,0-.05.08-.1.12-.14-.17-.3-.31-.4-.51,0,0,.01,0,.02,0,.52-.09,1.04-.18,1.56-.26Z"/><path class="uuid-24709ef8-cc24-4c1f-8ad7-4b68b19714f2" d="M36.69,10.06s-.01.07,0,.1c.04.15.11.29.13.45-.02-.01-.04-.03-.06-.04l-.14-.49s.04-.01.08-.02Z"/><path class="uuid-57b84000-21c5-4860-b1c6-25226438fad6" d="M37.34,9.98s-.03,0-.04,0l.03-.02v.02Z"/><path class="uuid-24709ef8-cc24-4c1f-8ad7-4b68b19714f2" d="M34.65,10.93s0,.01,0,.02c-.04-.02-.05.06-.06.1-.1-.06-.15-.19-.26-.22.12-.2.27-.4.4-.59-.01.22-.08.46-.08.69Z"/><path class="uuid-e0031b6f-dcd2-4a73-a36b-27be20c8d3f8" d="M34.79,11.25c-.02-.09-.13-.16-.14-.3,0,0,0-.01,0-.02.05,0,.05-.03.07-.06.09-.13.15-.27.23-.4l-.16.79Z"/><path class="uuid-e0031b6f-dcd2-4a73-a36b-27be20c8d3f8" d="M34.99,10.43s0,.06,0,.08l-.04-.04s.04-.04.04-.04Z"/><path class="uuid-24709ef8-cc24-4c1f-8ad7-4b68b19714f2" d="M35.04,10.34c.11.19.26.34.4.51-.06.04-.09-.08-.11-.1-.05-.06-.13-.13-.18-.18-.04-.05-.06-.14-.15-.14,0-.02-.01-.06.04-.08Z"/><path class="uuid-24709ef8-cc24-4c1f-8ad7-4b68b19714f2" d="M33.84,11.88s.06.05-.02.04c0-.01,0-.03,0-.04h.02Z"/><path class="uuid-57b84000-21c5-4860-b1c6-25226438fad6" d="M35.58,21.02l-.87-.8,1.14-1.46c.15.13.45.21.58.33.01.01.02.02.02.04l-.87,1.89Z"/><path class="uuid-24709ef8-cc24-4c1f-8ad7-4b68b19714f2" d="M34.61,20.23c-.04-.14-.17-.24-.26-.35l-.12-.17.15.14c0,.07.07.08.09.11.06.07.11.2.2.21-.02.02-.03.05-.06.06Z"/><path class="uuid-24709ef8-cc24-4c1f-8ad7-4b68b19714f2" d="M33.76,12.95s.01.09-.02.12c0-.03-.07-.14.02-.12Z"/><path class="uuid-24709ef8-cc24-4c1f-8ad7-4b68b19714f2" d="M33.78,12.73s.01.09-.02.12c0-.03-.07-.14.02-.12Z"/><path class="uuid-24709ef8-cc24-4c1f-8ad7-4b68b19714f2" d="M33.84,12.04s0,.09-.02.12c0-.03-.07-.14.02-.12Z"/><path class="uuid-24709ef8-cc24-4c1f-8ad7-4b68b19714f2" d="M33.82,12.27s0,.07-.02.1c0-.02-.07-.11.02-.1Z"/><path class="uuid-24709ef8-cc24-4c1f-8ad7-4b68b19714f2" d="M33.8,12.51s0,.07-.02.1c0-.02-.07-.11.02-.1Z"/><path class="uuid-24709ef8-cc24-4c1f-8ad7-4b68b19714f2" d="M33.74,13.19s0,.06-.02.08c0-.02-.06-.09.02-.08Z"/><path class="uuid-a2ed3ac1-699c-42c5-a109-9cf79c0ddade" d="M35.66,14.89v.02c-.08-.15-.16-.3-.24-.44.1.12.17.28.24.42Z"/><path class="uuid-93724249-2f8e-4217-8fa3-15b8449ad668" d="M34.35,18.03s0,.01,0,.02c-.04-.02-.02-.08-.02-.12h.02v.1Z"/><polygon class="uuid-08d95210-eaee-40e5-a3da-446a75b5bf7a" points="34.35 17.92 34.33 17.92 34.34 17.9 34.35 17.92"/><path class="uuid-e0031b6f-dcd2-4a73-a36b-27be20c8d3f8" d="M36.59,11.09s-.28-.2-.28-.27c.05.02.12.06.16.08.02.01.02.04.03.05.01,0,.04-.03.1,0l-.06.06.05.02.03-.06s.06.01.08.03c.02.02.04.11.07.14l-.08-.02.03.12c-.08-.01-.09-.07-.11-.14.08.06.1-.03.01-.02-.01,0,0,.02-.01.02Z"/><path class="uuid-24709ef8-cc24-4c1f-8ad7-4b68b19714f2" d="M36.59,10.95s.01.02.02.02l-.03.06-.05-.02.06-.06Z"/><path class="uuid-fceb52d2-c008-4faf-bd0b-1fb9d90ed211" d="M34.99,10.43c.09,0,.11.1.15.14.05.06.13.13.18.18.02.02.06.14.11.1.05-.04.03-.12.1-.12-.01.08-.03.16-.04.24l-.63.77c.05-.41.06-.83.12-1.23,0-.02,0-.05,0-.08ZM35.45,10.89s.01.03.02.04c.02-.01,0-.03-.02-.04Z"/><path class="uuid-fceb52d2-c008-4faf-bd0b-1fb9d90ed211" d="M34.95,11.88h-.02s-.05-.04-.06-.1c.07,0,.06.07.08.1Z"/><path class="uuid-a2ed3ac1-699c-42c5-a109-9cf79c0ddade" d="M33.58,18.43c-.02.05-.04.16-.07.2-.06.08-.23.14-.21.3-.06.02-.28.1-.32.08-.07-.12-.15-.24-.23-.35-.02-.03-.02-.06-.06-.05,0-.01,0-.04,0-.04.3-.04.59-.09.89-.14Z"/><path class="uuid-93724249-2f8e-4217-8fa3-15b8449ad668" d="M33.05,19.04s0,.04.03.06c.05.05.1.09.16.13-.07.27-.14.54-.18.82h.08s-.06.07-.08.1c0,0-.02,0-.02,0-.06,0-.04-.03-.04-.06.02-.14.21-.78.17-.85-.01-.02-.05-.02-.07-.03-.04-.04-.06-.1-.12-.13.02-.02.05-.03.08-.04Z"/><path class="uuid-93724249-2f8e-4217-8fa3-15b8449ad668" d="M33.04,20.07v.02s.01-.01,0-.02Z"/><path class="uuid-a2ed3ac1-699c-42c5-a109-9cf79c0ddade" d="M33.34,18.94s.02-.03.05-.04c.05-.01.12-.03.17-.02-.07.03-.15.05-.22.07v-.02Z"/><path class="uuid-08d95210-eaee-40e5-a3da-446a75b5bf7a" d="M33.81,18.83s-.02.06-.04.08c0-.02.02-.06.04-.08Z"/><path class="uuid-08d95210-eaee-40e5-a3da-446a75b5bf7a" d="M33.75,18.94s.01.01,0,.02v-.02Z"/><path class="uuid-a9f39472-bf08-4633-acd9-551d777981cf" d="M30.41,15.56s-.07.03-.08,0c.03,0,.05,0,.08,0Z"/><path class="uuid-a2ed3ac1-699c-42c5-a109-9cf79c0ddade" d="M29.68,15.62s-.03.01-.04.02c.01-.01.02-.04.04-.04v.02Z"/><path class="uuid-24709ef8-cc24-4c1f-8ad7-4b68b19714f2" d="M34.18,19.61s.08.06.01.06c0-.03-.14-.16-.12-.17.03-.03.1.09.11.11Z"/><path class="uuid-24709ef8-cc24-4c1f-8ad7-4b68b19714f2" d="M34.04,19.48s-.04-.04-.03-.06c.02.02.04.03.03.06Z"/><path class="uuid-24709ef8-cc24-4c1f-8ad7-4b68b19714f2" d="M33.97,19.38s.01.01,0,.02v-.02Z"/><path class="uuid-08d95210-eaee-40e5-a3da-446a75b5bf7a" d="M34.83,18.29l-.18.08c0-.06.01-.03.04-.05.04-.02.09-.02.14-.04Z"/><path class="uuid-24709ef8-cc24-4c1f-8ad7-4b68b19714f2" d="M36.59,11.09s0-.02.01-.02c.09-.01.07.08-.01.02Z"/><path class="uuid-24709ef8-cc24-4c1f-8ad7-4b68b19714f2" d="M35.45,10.89s.04.03.02.04c0-.01-.04-.03-.02-.04Z"/><path class="uuid-fceb52d2-c008-4faf-bd0b-1fb9d90ed211" d="M33.04,20.07s.01.01,0,.02v-.02Z"/></g><path class="uuid-4a6a05fc-0c90-4006-b294-154d785f663b" d="M41.53,14.76c-.61,1.24-3.29,1.18-5.99-.15-2.69-1.33-4.38-3.41-3.77-4.65.61-1.24,3.29-1.18,5.99.15,2.69,1.33,4.38,3.41,3.77,4.65Z"/><path class="uuid-923bf9f7-4fa1-4ee1-8a58-7aca0095650c" d="M60.64,41.96c-2.39,4.85-16.5-.56-33.17-8.76C15.98,27.55,6.28,22.05,2.14,17.6c8.84,5.17,23.95,13.22,38.32,17.14,10.59,2.89,14.43.77,15.55-2.24,3.89,3.83,5.71,7.24,4.62,9.46Z"/><path class="uuid-4a6a05fc-0c90-4006-b294-154d785f663b" d="M31.26,12.13c-.16.33-.93.29-1.72-.1-.79-.39-1.29-.97-1.13-1.3.16-.33.93-.29,1.72.1.79.39,1.29.97,1.13,1.3Z"/><path class="uuid-266e9cbd-e336-4a1f-aede-ab0f8f05fb90" d="M48.94,12.93c1.3-.58,1.88-2.1,1.3-3.4-.58-1.3-2.1-1.88-3.4-1.31-1.2.53-1.79,1.87-1.41,3.1l-2.89,1.28.31.69,2.9-1.29c.68,1.02,2.02,1.44,3.18.92Z"/></g></g></g></g></svg>