<svg xmlns="http://www.w3.org/2000/svg" id="uuid-7c662b76-0ef9-4d66-90a1-d09e8901dc9d" viewBox="0 0 840 300"><defs><style>.uuid-2bb1dfa7-5eea-4cef-bcc7-a5ede7cfe4e1{fill:#bcbec0;}</style></defs><g id="uuid-2e5567b1-03c8-42fc-8284-ef92ad76b9ee"><path class="uuid-2bb1dfa7-5eea-4cef-bcc7-a5ede7cfe4e1" d="M35.38,94.83c4.45-46.59,54.07-64.96,93.55-73.49L231.92,4.06l-30.95,100.83.14,1.06c35.1-8.84,64.52-38.9,74.26-73.54,1.45-5.14,2.31-10.4,3.36-15.63l64.91-10.86c-.2,52.59-38.99,96.34-85.78,115.61,1.74,25.74,8.48,50.9,17.76,74.83,9.12,23.53,21.2,47.07,36.96,66.8l-67.2,32.19c-10.01-19.25-15.09-40.54-18.47-61.9-3.74-23.63-5.08-47.41-6.08-71.26-.05-1.1-.47-2.11-.5-3.2l-.44-25.72-28.97,3.71-31.75,104.2h-59.8l60.26-200.52c-25.65,4.57-60.63,19.82-65.69,48.52-2.59,14.66,5.79,31.33,13.78,43.17l-44.99,33.14h-.89c-14.33-15.8-24.48-36.32-26-57.87l-.43-.74v-12.04Z"/><path class="uuid-2bb1dfa7-5eea-4cef-bcc7-a5ede7cfe4e1" d="M396.48,3.59c25.53,2.58,37.8,34.39,20.87,53.96-20.77,24.01-59.94,7.21-57.48-24.09,1.16-14.77,13.86-28.28,28.73-29.88,1.97-.21,5.9-.2,7.88,0Z"/><path class="uuid-2bb1dfa7-5eea-4cef-bcc7-a5ede7cfe4e1" d="M775.2,16.56l-54,174.13c-2.18,7.05-2.55,18.37,7.44,18.53,14.41.23,30.29-22.08,35.94-33.79l12.41,7.14c-13.74,24.14-33.75,57.02-63.81,61.7-14.37,2.24-31.76-.28-41.59-11.9-6.54-7.73-8.59-17.94-9.27-27.79l-15.98,16.45c-20,17.73-46.92,28.91-73.9,21.95-18.69-4.82-28.15-19.54-28.78-38.4l-14.13,14.6c-29.26,30.11-96.63,43.43-103.36-12.99-.08-.7-.02-1.15-.71-1.59-16.67,17.51-37.18,33.51-61.42,38.66-40.15,8.54-55.64-15.42-48.07-52.65l29.98-99.02h57.94l-31.29,101.88c-2.92,11.61,3.17,18.02,14.81,14.8,17.47-4.84,42.46-32.73,48.81-49.41l14.49-46.89h-19.47l6.07-20.33,19.66-.5,17.33-55.85,1.19-1.12,60.04-9.71-20.4,67.14h59.8l17.71-57.33,60.39-9.83-20.62,67.16h40.33l-6.07,20.33-40.68.11-24.63,80.75c-1.5,18.01,13.43,18.5,26.66,13.67,18-6.58,37.5-28.07,44.81-45.54l45.11-144.34h57.25ZM568.46,111.96h-60.26l-24.1,80.82c-1.36,13.42,7.42,17.98,19.57,15.85,22.82-4.01,44.2-33.44,51.69-53.94,5.04-13.78,8.35-28.78,13.1-42.72Z"/></g></svg>