<svg xmlns="http://www.w3.org/2000/svg" viewBox="0 0 150.45 217.81"><title>flag</title><g id="Layer_2" data-name="Layer 2"><g id="Layer_1-2" data-name="Layer 1"><path d="M136.13,103.76C98.84,91.38,61.54,107.71,24.24,89q5.55-33.37,11.1-67.73c37.3,12.38,74.6-3.95,111.9,14.75Q141.69,69.41,136.13,103.76Z" style="fill:#ff009a"></path><path d="M136.13,103.76C98.84,91.38,61.54,107.71,24.24,89q5.55-33.37,11.1-67.73c37.3,12.38,74.6-3.95,111.9,14.75Q141.69,69.41,136.13,103.76Z" style="fill:none;stroke:#231f20;stroke-miterlimit:10;stroke-width:5.80891113491751px"></path><line x1="36.99" y1="0.45" x2="2.87" y2="217.36" style="fill:#b2b2b2;stroke:#231f20;stroke-miterlimit:10;stroke-width:5.80891113491751px"></line><path d="M91.7,67l14.41-14.62L89.63,58.46l-4.5-14.8h0l-4.5,14.8L64.09,52.35,78.51,67,66.9,85.67,85.1,72.5l18.2,13.17Z" style="fill:#fff"></path><path d="M91.7,63.22,106.11,48.6,89.63,54.71l-4.5-14.8h0l-4.5,14.8L64.09,48.6,78.51,63.22,66.9,81.92,85.1,68.75l18.2,13.17Z"></path></g></g></svg>