<svg xmlns="http://www.w3.org/2000/svg" viewBox="0 0 93.77 83.36"><title>box-2-icon</title><g id="Layer_2" data-name="Layer 2"><g id="Layer_1-2" data-name="Layer 1"><path d="M4.7,54.64a3.19,3.19,0,0,1-2.29-5.43,23,23,0,0,0,4.68-6.85A23.34,23.34,0,0,1,0,25.9,22.06,22.06,0,0,1,2.51,15.68,26.1,26.1,0,0,1,9.26,7.45,34.38,34.38,0,0,1,31.1,0C45.24,0,57.61,7.94,61.18,19.31a2,2,0,0,1-3.89,1.22A22.12,22.12,0,0,0,47.92,8.84,30.82,30.82,0,0,0,31.1,4.08c-14.9,0-27,9.78-27,21.82a19.57,19.57,0,0,0,6.79,14.44,2,2,0,0,1,.53,2.22A26.44,26.44,0,0,1,7.14,50a29.31,29.31,0,0,0,9.66-4.48,2,2,0,0,1,2-.23,31.07,31.07,0,0,0,3.81,1.3,2,2,0,1,1-1,3.93c-1.11-.3-2.21-.65-3.27-1a34.35,34.35,0,0,1-13,5.11A3.6,3.6,0,0,1,4.7,54.64Z"/><path d="M85.31,71.14C90.57,66.34,93.77,60,93.77,53c0-15-14.78-27.1-33-27.1s-33,12.14-33,27.1,14.78,27.1,33,27.1a39,39,0,0,0,14.88-2.9,36.13,36.13,0,0,0,14.87,6.12,1.32,1.32,0,0,0,1.18-2.21A28.26,28.26,0,0,1,85.31,71.14ZM50.11,51.55l-4.47,3.2L47.37,60a.34.34,0,0,1-.52.38l-4.42-3.26L38,60.34a.34.34,0,0,1-.53-.38l1.74-5.21-4.47-3.2a.34.34,0,0,1,.2-.62l5.49,0,1.66-5.24a.34.34,0,0,1,.65,0L44.41,51l5.49,0A.34.34,0,0,1,50.11,51.55Zm18.31,0L64,54.75,65.69,60a.34.34,0,0,1-.53.38l-4.42-3.26-4.42,3.26a.34.34,0,0,1-.53-.38l1.74-5.21-4.47-3.2a.34.34,0,0,1,.2-.62l5.5,0,1.65-5.24a.35.35,0,0,1,.66,0L62.72,51l5.5,0A.34.34,0,0,1,68.42,51.55Zm15,8.79-4.41-3.26-4.42,3.26a.34.34,0,0,1-.53-.38l1.74-5.21-4.47-3.2a.34.34,0,0,1,.2-.62l5.49,0,1.66-5.24a.34.34,0,0,1,.65,0L81,51l5.49,0a.34.34,0,0,1,.2.62l-4.47,3.2L84,60A.34.34,0,0,1,83.47,60.34Z" style="fill:#e93396"/><circle cx="21.05" cy="24.83" r="3.06"/><circle cx="31.05" cy="24.83" r="3.06"/><circle cx="41.05" cy="24.83" r="3.06"/><path d="M68.14,19.6a1.93,1.93,0,0,1-.84-.18,2,2,0,0,1-1-2.7l2.57-5.65a2,2,0,0,1,3.71,1.68L70,18.41A2,2,0,0,1,68.14,19.6Z"/><path d="M72.1,22.81a2,2,0,0,1-.72-3.95l5.81-2.18a2,2,0,0,1,1.44,3.82l-5.81,2.18A2,2,0,0,1,72.1,22.81Z"/><path d="M18.57,69.94a2,2,0,0,1-1.8-3l2.89-5.49a2,2,0,1,1,3.61,1.9l-2.9,5.49A2,2,0,0,1,18.57,69.94Z"/><path d="M11.77,62.85a2,2,0,0,1-.6-4L17.1,57a2,2,0,0,1,1.2,3.9l-5.93,1.83A1.8,1.8,0,0,1,11.77,62.85Z"/></g></g></svg>