<svg xmlns="http://www.w3.org/2000/svg" viewBox="0 0 323.89 296.27"><title>rocket</title><g id="Layer_2" data-name="Layer 2"><g id="Layer_1-2" data-name="Layer 1"><g id="Rocket"><path d="M141.38,234l-.33-.09c-.1,0-2.43-.79-6.5-2.3a3.19,3.19,0,0,1-1.93-4.19,3.47,3.47,0,0,1,4.4-1.84c3.91,1.46,6.19,2.2,6.21,2.21a3.19,3.19,0,0,1,2.12,4.1A3.42,3.42,0,0,1,141.38,234Z" style="fill:#f6f6f6"/><path d="M121.93,226.51a3.31,3.31,0,0,1-.61-.19c-4.33-1.82-8.7-3.75-13-5.76a3.16,3.16,0,0,1-1.56-4.32,3.47,3.47,0,0,1,4.53-1.49c4.23,2,8.52,3.87,12.76,5.65a3.18,3.18,0,0,1,1.74,4.27A3.44,3.44,0,0,1,121.93,226.51ZM96.41,214.64a4,4,0,0,1-.85-.31c-4.24-2.17-8.44-4.43-12.48-6.71a3.15,3.15,0,0,1-1.2-4.43,3.5,3.5,0,0,1,4.65-1.13c4,2.23,8.08,4.45,12.25,6.58a3.16,3.16,0,0,1,1.38,4.38A3.46,3.46,0,0,1,96.41,214.64ZM72,200.85a3.42,3.42,0,0,1-1.09-.44c-4.06-2.53-8-5.14-11.83-7.76a3.14,3.14,0,0,1-.75-4.52,3.49,3.49,0,0,1,4.73-.72c3.71,2.56,7.59,5.11,11.56,7.58a3.15,3.15,0,0,1,1,4.48A3.48,3.48,0,0,1,72,200.85ZM49,184.94a3.55,3.55,0,0,1-1.38-.64c-3.78-2.94-7.44-6-10.88-9a3.12,3.12,0,0,1-.19-4.56,3.5,3.5,0,0,1,4.79-.19c3.34,2.94,6.89,5.87,10.57,8.72a3.14,3.14,0,0,1,.49,4.55A3.49,3.49,0,0,1,49,184.94Zm-20.8-18.37a3.34,3.34,0,0,1-1.71-.94c-3.37-3.41-6.55-6.92-9.47-10.43a3.13,3.13,0,0,1,.55-4.54,3.51,3.51,0,0,1,4.77.52c2.8,3.37,5.86,6.74,9.09,10a3.12,3.12,0,0,1-.15,4.57A3.47,3.47,0,0,1,28.23,166.57Zm-17.57-21.2A3.36,3.36,0,0,1,8.57,144c-.43-.63-.85-1.26-1.27-1.9A43.88,43.88,0,0,1,2.08,131a3.23,3.23,0,0,1,2.3-4,3.42,3.42,0,0,1,4.21,2.2,37.65,37.65,0,0,0,4.46,9.49c.4.61.8,1.21,1.21,1.81a3.15,3.15,0,0,1-1,4.48A3.53,3.53,0,0,1,10.66,145.37Zm-8-25.5A3.27,3.27,0,0,1,0,116.72,58.57,58.57,0,0,1,1.69,103l.11-.43a3.4,3.4,0,0,1,4.06-2.41h0a3.23,3.23,0,0,1,2.52,3.89l-.1.4a53.05,53.05,0,0,0-1.52,12.25A3.31,3.31,0,0,1,3.39,120,3.77,3.77,0,0,1,2.63,119.87ZM9,93.71a4,4,0,0,1-.64-.21,3.18,3.18,0,0,1-1.69-4.28A84.24,84.24,0,0,1,13.82,77a3.49,3.49,0,0,1,4.71-.87,3.14,3.14,0,0,1,.92,4.48A77.47,77.47,0,0,0,12.8,91.89,3.43,3.43,0,0,1,9,93.71Zm15.7-22.4a3.37,3.37,0,0,1-1.53-.77,3.12,3.12,0,0,1-.2-4.56,101.78,101.78,0,0,1,10.67-9.59,3.51,3.51,0,0,1,4.77.46,3.13,3.13,0,0,1-.48,4.55,94.73,94.73,0,0,0-10,8.95A3.49,3.49,0,0,1,24.65,71.31Zm21.9-17.07a3.38,3.38,0,0,1-2.14-1.47,3.15,3.15,0,0,1,1.14-4.44,111.93,111.93,0,0,1,13-6.44A3.46,3.46,0,0,1,63,43.56a3.18,3.18,0,0,1-1.75,4.26,104.31,104.31,0,0,0-12.17,6A3.49,3.49,0,0,1,46.55,54.24Z" style="fill:#f6f6f6"/><path d="M72.45,43.42A3.36,3.36,0,0,1,70,41.17a3.22,3.22,0,0,1,2.32-4c2.22-.61,4.5-1.17,6.77-1.66a3.4,3.4,0,0,1,4,2.45,3.23,3.23,0,0,1-2.56,3.86c-2.14.46-4.29,1-6.38,1.56A3.5,3.5,0,0,1,72.45,43.42Z" style="fill:#f6f6f6"/><path d="M122.5,252.86c-21.39,8.07-50-1.22-50.67-3-.75-2,15.61-28,36.1-35.69,21.29-8,31.78-2.09,35.81,8.59S145.6,244.15,122.5,252.86Z" style="fill:#ff009a"/><path d="M125.21,243.14c-13,4.88-30.29-.74-30.69-1.81s9.45-16.93,21.86-21.61c12.89-4.86,19.25-1.27,21.69,5.2S139.19,237.86,125.21,243.14Z" style="fill:#ff98ff"/><path d="M160.73,192.56a3.49,3.49,0,0,1-4.61-1.71l-24.79-53c-.63-1.67-.76-4.48,2.33-4.34l36.92,1.06c.87.16,3.48.09,4.6,1.72L205,172.43a3.5,3.5,0,0,1-2.33,4.34Z" style="fill:#903d67"/><path d="M175.79,232.52a3.49,3.49,0,0,0-2.33,4.33l14.6,56.81c.63,1.66,2.39,3.86,4.61,1.71l28.77-25.81c.55-.7,2.56-2.37,2.33-4.34l-1.46-46.78a3.5,3.5,0,0,0-4.61-1.72Z" style="fill:#903d67"/><path d="M292.56,207.48a53.29,53.29,0,0,1-27.91-74.06,100.31,100.31,0,0,0-34.59,4.76c-25.65,8.45-71.74,34.69-84.59,55.53l17.34,46c17.27,11.42,74.36-1.12,100.56-13.16A117.31,117.31,0,0,0,292.56,207.48Z" style="fill:#ffc9ff"/><path d="M262.14,176.66a53.18,53.18,0,0,0,30.42,30.82c24.58-21.93,33.15-48.36,31-54s-27.84-19.08-58.93-20A53.16,53.16,0,0,0,262.14,176.66Z" style="fill:#903d67"/><path d="M162.45,243.68a3.46,3.46,0,0,1-4.45-2L140.77,196a3.46,3.46,0,0,1,2-4.45h0a3.45,3.45,0,0,1,4.44,2l17.23,45.7a3.46,3.46,0,0,1-2,4.45Z" style="fill:#ea0baa"/><path d="M268.74,205.43A27.84,27.84,0,0,0,278,174.05l-.18-.51a27.83,27.83,0,1,0-9.1,31.89Z" style="fill:#5a2d46"/><path d="M264.79,200.28a21.51,21.51,0,0,0,5.17-5.73,22.26,22.26,0,0,0,1.65-3.27,21.3,21.3,0,0,0,.29-15.06c0-.13-.09-.26-.13-.4a21.32,21.32,0,1,0-7,24.46Z" style="fill:#e870b2"/><path d="M271.61,191.28a21.3,21.3,0,0,0,.29-15.06l-33.49-9.48a21.42,21.42,0,0,0-7.63,13h0Z" style="fill:#ff90ff;opacity:0.5"/><path d="M252.29,189.55a3.46,3.46,0,1,0-1.88,6.66l14.38,4.07a21.51,21.51,0,0,0,5.17-5.73Z" style="fill:#ff90ff;opacity:0.5"/><path d="M156.11,241.75a1.79,1.79,0,0,1-2.31-1.05l-15.13-40.13a1.79,1.79,0,0,1,1.05-2.31h0a1.79,1.79,0,0,1,2.31,1.05l15.13,40.13a1.79,1.79,0,0,1-1,2.31Z" style="fill:#ff61cf"/><path d="M132.78,232.07a4,4,0,0,1-5.2-2.36l-.77-2a4,4,0,0,1,2.35-5.2l65-29.25a4,4,0,0,1,5.21,2.35l4.12,10.93a4.05,4.05,0,0,1-2.36,5.21Z" style="fill:#903d67"/></g><g id="Earth"><path d="M152.58,23.86c-.17-.69-.37-1.37-.59-2a31.18,31.18,0,1,0,.59,2Z" style="fill:#b2b2b2"/><path d="M97.45,27.19c1.23,3.16,1.23,1.1,3.43,1.79s4.6.89,6.46,2.74,3.3.14,3.3,2.2-2.75,3.44-2.75,6.73.41,5,5.08,6.74,3.3.55,3.3,5.22.89,5.56,1.79,6.45,3,1.52,3-.82-1.65-3.71,0-5.36.75-1.3,3.3-3.85,4.39-3.8,5.63-6.84,5.36-4.42,0-6.35-7.62.3-9.85-1.92a14.43,14.43,0,0,0-7-3.57,9.84,9.84,0,0,1-5.5-2.2c-1.51-1.51-2.61-4.12-4-2.75s-2.89.55-2.89-.68,1.52-3.44,2.06-3.44,4.81,4.12,9.07,4.12,2.61-.13,2.61-1.65-.41-1.64,3.85-2.47,11.54.28,11.54-3.16,1.93-4.26-1.78-6.46-1.24.14-4.68-1.37-1.64-3.44.83-3.44,1,.42,3.85,1.79,4.12-.27,2.61-1.79-1.65-2.61-5.5-2.61-7.62-2.13-9.75,0S111.74,9.19,108.58,8c-1.6-.62-2.88-1.8-4.28-2.56A31.62,31.62,0,0,0,91.52,23.12c.86.42,1.78.84,2.63,1.18C96.9,25.4,96.21,24,97.45,27.19Z" style="fill:#414042"/><path d="M152.58,23.86a10.14,10.14,0,0,1-4.71-.18c-2.2-.82-1.79-1.78-3.71-1.78s-3.2-.41-5.77,2.15-6.46,6.09-1.1,8.84S142,38,145.12,36.74s4.85-.52,4,.34a8.6,8.6,0,0,0-2.75,5.72,45.92,45.92,0,0,0,.14,6.44,11.26,11.26,0,0,1-.08,2.3,31.64,31.64,0,0,0,6.16-27.68Z" style="fill:#414042"/><path d="M139.49,8.3c-1.12,2.19,3.85,1.09,3.85,2.33s-1.24,1.1-2.06,1.92.41,1.65.41,2.34-2.34.69-4,.69-1.51,1.92-1.51,3.16,2.08,2.21,3,1.26a4.61,4.61,0,0,1,3.58-1.54c1.65,0,1.1,1.65,2.07,2.61s2.19-.41,2.19-1.07-2.82-1.61-2.06-2.36,1.92,1,2.61,1,.08,1.16,2.19,3.27c1.16,1.16,1.83.65,2.2-.05A31.69,31.69,0,0,0,139.9,5.6C139.59,6,140.22,6.87,139.49,8.3Z" style="fill:#414042"/></g></g></g></svg>