<svg xmlns="http://www.w3.org/2000/svg" xmlns:xlink="http://www.w3.org/1999/xlink" id="uuid-1bbe7316-7410-4ec0-a40f-ca48f5713e7f" viewBox="0 0 60.95 72.35"><defs><style>.uuid-6edfcee3-3c1a-4e3e-a872-daf46071cc6f{fill:none;}.uuid-b26d740a-b8d5-48d3-80f5-775868038e79{fill:#a42477;}.uuid-a216d9fa-6f34-46f5-91ed-b59ff6bc63f3{fill:#480014;}.uuid-6375c1e1-6759-443e-ab15-f485ec71ca18{fill:#d60166;}.uuid-dfff0b3a-a687-4e57-b59f-cdffa3ed36c8{opacity:.3;}.uuid-dfff0b3a-a687-4e57-b59f-cdffa3ed36c8,.uuid-9d28de7d-7f69-42ef-95e0-63b44d1d43fc{fill:#ff3f79;mix-blend-mode:multiply;}.uuid-dfff0b3a-a687-4e57-b59f-cdffa3ed36c8,.uuid-9d28de7d-7f69-42ef-95e0-63b44d1d43fc,.uuid-87cdc1c3-ded9-4510-8d6e-db3dad20b428,.uuid-a9b41c76-4345-4645-b9c5-eff575a99691{isolation:isolate;}.uuid-9d28de7d-7f69-42ef-95e0-63b44d1d43fc,.uuid-a9b41c76-4345-4645-b9c5-eff575a99691{opacity:.5;}.uuid-3ae5fe89-6f89-45bb-924f-bdab3f68173d{fill:#d7479a;}.uuid-ef1579ce-f4d9-4dde-a89e-2f1ef5f7d3ad{opacity:.05;}.uuid-ef1579ce-f4d9-4dde-a89e-2f1ef5f7d3ad,.uuid-a92b5639-73cd-41c3-89fe-8aaf4e3787c7,.uuid-9b50b688-a0b2-4adc-a2bf-1294d4666991{fill:#ffa7ff;}.uuid-a92b5639-73cd-41c3-89fe-8aaf4e3787c7{opacity:.2;}.uuid-9b50b688-a0b2-4adc-a2bf-1294d4666991{opacity:.15;}.uuid-bd24c311-d662-4e18-b634-c944840a90a3{fill:#ff2af8;}.uuid-28a91755-0abb-42b7-80df-fbf1b3bcf6fe{fill:#1e1d1e;}.uuid-9c9bcc9e-8e1b-4888-9243-622ff4bc6e27{fill:#8f7283;}.uuid-5eb9f87c-c2c9-4199-9da3-2c3efa3e1282{fill:#a7017a;}.uuid-7571c464-6f6e-4037-b198-afa1d472ebea{fill:#c9098b;}.uuid-6e2d8081-3f16-4970-ac8b-94806fbb14f8{fill:#8d004e;}.uuid-dbdd4921-30f4-4597-8478-c0837b980a43{fill:#cc01af;}.uuid-a3a82da5-4b23-4196-bc12-742e2c31bb19{fill:#9c8597;}.uuid-86aafb42-0f93-459d-b17d-038cfc083fe2{fill:#a2044d;}.uuid-5ca19c5b-af56-4fa0-8c78-aa37598342df{fill:#ffa9e1;}.uuid-9d349682-6fbd-4f67-9f90-e6ea97ebf821{fill:#f216e4;}.uuid-8f69ed70-c2f8-4810-8440-2e7efd470a67{fill:#72003d;}.uuid-4afd3f66-f88b-4626-bf13-196f9e69bddf{fill:#e602bd;}.uuid-bfb1c78c-dfd3-4c72-9abc-132cd601df58{clip-path:url(#uuid-c2084fc8-11be-444e-affc-1fc8020eb3ed);}.uuid-76ddb334-6a70-4120-9a22-021bf34979f0{fill:#d2bccb;}.uuid-c138e38b-d0a2-4755-88f5-6eb87e5bf557{fill:#f5eff5;}.uuid-a9b41c76-4345-4645-b9c5-eff575a99691{fill:#fff;}</style><clipPath id="uuid-c2084fc8-11be-444e-affc-1fc8020eb3ed"><path class="uuid-6edfcee3-3c1a-4e3e-a872-daf46071cc6f" d="M25.85,16.84c3.89-1.57,7.67-2.83,11.22-3.79-2.53-5.26-9.03-7.61-14.86-5.26-2.43.98-4.38,2.64-5.69,4.63-1.83,2.79-2.43,6.25-1.37,9.48,3.22-1.77,6.83-3.48,10.72-5.04h0Z"/></clipPath></defs><g id="uuid-6656cbc2-b4ff-4cf2-b663-2833687986d5"><path class="uuid-ef1579ce-f4d9-4dde-a89e-2f1ef5f7d3ad" d="M23.37,25.83l6.99,44.76s9.72,1.98,17.85-1.62c8.13-3.6,11.34-10.39,11.34-10.39l-24.45-36.7-11.73,3.94Z"/><path class="uuid-9b50b688-a0b2-4adc-a2bf-1294d4666991" d="M25.84,29.21l8.21,35.39s5.89,1.47,9.88-.25c3.99-1.72,9.46-6.66,9.46-6.66l-18.88-32.66-8.67,4.18Z"/><path class="uuid-a92b5639-73cd-41c3-89fe-8aaf4e3787c7" d="M28.24,27.83l9.21,32.83s3.49.9,6.2-.34c2.7-1.24,5.01-3.55,5.01-3.55l-15.98-30.09-4.44,1.15Z"/><g class="uuid-87cdc1c3-ded9-4510-8d6e-db3dad20b428"><g id="uuid-76f02d37-8d44-4752-9512-9f0a8959e888"><g id="uuid-71cb72f8-77d8-44a7-b33c-07aa7fe1f367"><g id="uuid-16ffc6ad-b006-417c-b923-a8f77aa06cc3"><path class="uuid-6e2d8081-3f16-4970-ac8b-94806fbb14f8" d="M32.11,3.22c-.36,1.12-1.47,1.79-2.6,1.63l-.9,2.8-.66-.22.9-2.78c-1.08-.5-1.64-1.73-1.26-2.89.41-1.25,1.75-1.94,3-1.53,1.25.41,1.94,1.75,1.53,3h0Z"/><path class="uuid-5ca19c5b-af56-4fa0-8c78-aa37598342df" d="M16.52,12.42c1.31-2,3.26-3.65,5.69-4.63,5.87-2.37,12.41.03,14.91,5.36.09.18.17.37.25.56.71,1.74.91,3.56.68,5.32-.52,4.03-3.29,7.75-7.51,9.45-2.69,1.08-5.51,1.17-8.03.43-3.17-.92-5.85-3.15-7.13-6.34-1.38-3.43-.83-7.17,1.13-10.15Z"/><path class="uuid-dfff0b3a-a687-4e57-b59f-cdffa3ed36c8" d="M15.38,22.57c-1.38-3.43-.83-7.17,1.13-10.15,1.67,1.67,5.98,4.14,16.13,1.69,1.71-.41,3.19-.73,4.48-.96.09.18.17.37.25.56.71,1.74.91,3.56.68,5.32l-15.53,9.88c-3.17-.92-5.85-3.15-7.13-6.34h0Z"/><path class="uuid-6e2d8081-3f16-4970-ac8b-94806fbb14f8" d="M5.28,28.46c4.59-3.88,11.91-8.13,20.58-11.62,15.95-6.43,30.4-7.87,32.27-3.23.58,1.45-.23,3.06-2.08,4.78-4.13,3.83-13.46,8.24-24.46,12.67C15.64,37.5,2.24,41.53.36,36.88c-.85-2.12,1.06-5.15,4.91-8.42Z"/><path class="uuid-9d349682-6fbd-4f67-9f90-e6ea97ebf821" d="M6.26,33.59c.63-.26,1.35.05,1.61.69.26.63-.05,1.35-.69,1.61-.63.26-1.35-.05-1.61-.69-.26-.63.05-1.35.69-1.61Z"/><path class="uuid-9d349682-6fbd-4f67-9f90-e6ea97ebf821" d="M53.96,14.37c.63-.26,1.35.05,1.61.69s-.05,1.35-.69,1.61-1.35-.05-1.61-.69.05-1.35.69-1.61Z"/><path class="uuid-9d349682-6fbd-4f67-9f90-e6ea97ebf821" d="M30.08,27.33c.63-.26,1.35.05,1.61.69.26.63-.05,1.35-.69,1.61s-1.35-.05-1.61-.69c-.26-.63.05-1.35.69-1.61Z"/><g class="uuid-bfb1c78c-dfd3-4c72-9abc-132cd601df58"><path class="uuid-28a91755-0abb-42b7-80df-fbf1b3bcf6fe" d="M25.07,9.33c.13,0,.07.11.06.17,0,.06.15.29.19.36.06.12.17.31.2.42.03.1.08.52.08.61,0,0-.03.15-.03.16-.01.04-.08.11-.09.16-.04.04-.08.09-.12.14,0,0-.03.02-.04.03-.07.02-.13.07-.19.11-.19.08-.39.1-.59.04-.08-.04-.17-.07-.25-.11v-.04s-.04-.01-.05-.02c-.02-.01-.03-.03-.05-.04,0-.03-.03-.06-.07-.06-.16-.16-.28-.35-.42-.52-.15-.2-.2-.24-.4-.05-.09.02-.17.08-.26.13,0,0-.01.04-.01.04-.06.03-.11.04-.19.1,0,0-.04.02-.04.02-.19.13.02.17-.04.33,0,0-.04.04-.04.05-.06-.12-.13-.22-.28-.2-.16.03-.91.42-1.02.54-.02.02-.02.04-.02.04,0,0-.04,0-.04.04,0,.07.08.17.13.22.03.02.07.03.07.04,0,.02-.01.06.01.08s.1.04.16.1c.11.11.11.09.23.17.03.01.09.1.1.12.11.09.32.14.46.15.03-.03-.06-.46-.07-.53,0-.06-.03-.13-.02-.2,0-.04-.01-.08.04-.06.34.1.67.21,1.01.33.03.01.05.02.09.03.02,0,.04.02.05.02l.05.11s.03.08.03.08l.37.82-.4,1.19c.05.18-.11.36-.23.48-.05.06-.03,0-.04,0-.04-.02-.1-.03-.13-.07-.07-.09-.14-.42-.18-.54-.18-.49-.36-.97-.52-1.48-.36.07-.68-.16-.93-.39-.17-.15-.31-.39-.46-.52s-.41-.17-.09-.37c.58-.37,1.23-.69,1.82-1.04.02,0,.03-.02.04-.02h.02s.04.02.04-.03c.1-.05.19-.11.29-.16,0,0,.02-.02.02-.02.1-.05.19-.11.29-.16,0,0,.04,0,.06-.01.07-.03.08-.04.14-.08.41-.18.81-.47,1.21-.68h.04s.04-.01.04-.01h.02ZM25.32,10.23c-.05-.1-.24-.47-.32-.52-.09-.04-.29.07-.38.12-.19.09-.36.21-.53.32-.05.03-.12.06-.17.1-.26.21-.12.28.03.49.08.12.14.2.26.3.02.01,0,.06.06.06.17.04.26-.06.39-.12.07-.03.24-.08.29-.13.02-.03.01-.04.01-.05.13-.06.44-.14.45-.32,0-.07-.03-.07-.03-.08-.02-.08-.03-.1-.06-.17h0Z"/><path class="uuid-28a91755-0abb-42b7-80df-fbf1b3bcf6fe" d="M24.85,9.51c-.2.06.05.14.14.15.02,0-.05-.17-.14-.15Z"/><path class="uuid-28a91755-0abb-42b7-80df-fbf1b3bcf6fe" d="M21.15,11.85l.02-.22s-.13.05-.13.05c-.03.04.12.18.12.18Z"/><path class="uuid-6375c1e1-6759-443e-ab15-f485ec71ca18" d="M28.07,14.73c.01.08.07.14.15.12.2-.09.4-.18.61-.29,0,0,.07-.05.07-.01-.29.4-.61,1.01-.86,1.45-.02.04-.06.1-.07.15h-.02c-.27-.03-.58-.17-.86-.21-.02,0-.08-.02-.08.01.13.04.26.07.4.1-.02.08-.04.19-.08.26-.03.08-.08.08-.09.2-.01.18.07.36.13.53-.09-.02-.23-.05-.32-.06-.03,0-.08-.02-.1.01-.06-.01-.14-.04-.2-.05,0-.03.05-.02.07-.01.06,0,.1.03.16.03.03-.03-.09-.32-.08-.39,0-.04.04-.08.05-.13.02-.16.02-.32.04-.49l-.51-.13-.13.64c-.06,0,.11-.49.05-.54.03-.07.06-.18.15-.21,0,0-.01.02,0,.02.03-.03.07-.05.11-.07-.01.07-.12.08-.16.14l.56.12c.01-.15.09-.29.09-.44-.03-.03-.35.17-.39.18-.02.02-.06.01-.07.01.01-.03.04-.04.06-.06.43-.3.91-.57,1.35-.87v-.02Z"/><path class="uuid-86aafb42-0f93-459d-b17d-038cfc083fe2" d="M27.34,12.73c.04-.05.09-.13.16-.14-.2.52-.32,1.09-.53,1.61-.03.06-.07.01-.11.01-.06-.01-.26-.07-.3-.06-.05.02-.04.1-.04.15-.03.13-.05.27-.07.4-.02.15-.07.29-.09.44-.01.06,0,.14,0,.19-.06.24-.46.94-.6,1.21-.01.03-.02.05-.05.07-.01-.47.08-1,.11-1.48.33-.52.66-.98.91-1.55.05.01.06,0,.02-.04v-.04s.02-.02.02-.02c.01-.02.02-.04.02-.04.05,0,.05-.02.07-.05.07-.11.39-.56.43-.65v-.02c.06.01.04-.03.04-.03h0Z"/><path class="uuid-c138e38b-d0a2-4755-88f5-6eb87e5bf557" d="M32.93,15.96s-.05-.05-.07-.06c-.37-.27-.79-.61-1.19-.82-.26-.14-.46-.22-.75-.28-.02,0-.04-.02-.05-.02s-.04.02-.08.01c-.39-.08-.79-.15-1.18-.2,0-.04.05-.02.07-.01.13,0,.28.04.4.01l-.31-.02h-.09c-.07-.01-.15-.02-.22-.02-.06,0-.13-.03-.17,0h.15s.04.03.04.03c.06,0,.08.02.13.03,0,0,.02.02.02.02h.11s.04.03.04.03c.04.01.07.01.11.03.02.01.03.01.05.02.03.01.03.04.05.04.21.12.46.32.67.42.04.02.09.02.13.05.33.02.73.18,1.07.24.32.19.65.38.98.56.04-.02.08-.03.12-.06,0,0,.02,0,.02,0h0Z"/><path class="uuid-76ddb334-6a70-4120-9a22-021bf34979f0" d="M24.98,12c.09-.02.23-.12.36-.06-.03.04-.06.12-.1.16-.34.44-.82.77-1.21,1.16l-.37-.82s.04-.1-.03-.1v-.04c.07-.02.21-.02.21-.1.07-.01.16-.03.23-.04.3-.07.61-.11.91-.18Z"/><path class="uuid-3ae5fe89-6f89-45bb-924f-bdab3f68173d" d="M26.5,10.24s0-.07.06-.09v.11c0,.24,0,.47.01.72l.61-.14s.02.02.02.04c-.11.01-.21.06-.32.09s-.3,0-.32.15l-.1,1.4.05.05h-.06s0,.07,0,.11c-.04-.04-.03-.02-.05.02-.16.27-.29.61-.42.89-.01.03-.09.2-.09.2l.67.14c-.02-.23-.05-.47-.07-.7,0-.03-.03-.05-.03-.05-.01-.11-.02-.29-.03-.41.06,0,.03.03.03.07.01.09.02.19.03.29.03.24.07.5.08.74l.03-.02c.15-.42.38-.8.54-1.2.02-.04.08-.14,0-.13,0-.03.04,0,.04-.02s-.01-.08-.01-.08l.02-.04s.04,0,.04.01v.12s.29.04.29.04v.06c-.07,0-.12.08-.16.14-.05-.01-.04,0-.04.03v.02s-.06.01-.08.04c-.27.26-.28.31-.43.65,0,0-.02.02-.02.04,0,0-.02,0-.02.02v.04s-.02.02-.02.04c-.26.57-.59,1.02-.91,1.55-.02.48-.11,1-.11,1.48,0,.03.02.05.01.06,0,.04,0,.05.01.09t.02.04c.07.12.22.22.31.32,0,0,0,.04.02.05.03.03.09,0,.14,0,.09,0,.17.03.27,0-.03.05-.05.15-.08.2-.02.04-.09.04-.09.08,0,.02.23.26.27.31.22.26.45.51.68.77.03.03.05.07.07.1h-.02c-.17-.14-.29-.33-.44-.49-.39-.44-.79-.88-1.16-1.34-.02-.02-.03-.04-.06-.04-.02,0-.2.08-.23.09,0,0,0-.03.01-.04.03,0,.2-.08.2-.09.07-.53.1-1.08.14-1.61l-.71-.13-.15,2.07s.38-.17.42-.19c.03-.02.08-.01.08-.01-.17.07-.34.19-.51.26,0,0-.02-.02-.06,0,.03-.67.14-1.33.17-1.99,0-.05-.01-.09-.01-.11,0-.26.03-.52.02-.78,0-.05,0-.13-.02-.18.01-.02.02-.04.02-.05.04.01.03.05.03.09,0,.25,0,.5,0,.76h.05c.2-.27.37-.59.58-.86.03-.04.05-.1.1-.13,0,.06-.29.52-.34.6,0,0-.03,0-.04.02-.05.06-.31.44-.3.48,0,.02.02.03.03.03.21.02.43.09.64.1.02,0,.2-.28.23-.33.02-.02.02-.06.02-.06.02-.04.07-.09.1-.13.05-.07.38-.56.38-.59,0-.02-.03-.03-.04-.03-.12-.04-.4-.1-.52-.11-.07,0-.1-.02-.16.03v-.04s-.64.18-.74.15c.05-.11.1-.22.15-.32.03.04.08-.03.08-.03v.02s-.18.29-.17.3c.24-.05.49-.09.72-.17l.55-1.15s0-.03-.03-.03c-.16.02-.3.04-.45.08,0,0,.01-.02,0-.02-.06.01-.11.05-.18.04v-.04s.21-.04.21-.04l.11-1.42c-.05-.01-.08,0-.13.03.06-.13.16-.22.25-.33h.02c-.05.08-.11.17-.17.25.04.04.43-.1.51-.11,0-.24-.01-.47,0-.71,0-.04.02-.07-.03-.07h.03ZM26.5,11.07l-.43.1.33,1.24.1-1.35h0ZM26.37,12.53l-.33-1.23-.1,1.28c.07-.01.42-.05.42-.05Z"/><path class="uuid-76ddb334-6a70-4120-9a22-021bf34979f0" d="M25.36,8.65l.79.79c-.47-.12-.95-.24-1.42-.35,0,0-.04-.02-.07-.02-.18-.04-.37-.08-.56-.12l-.04-.02v.02s-.09-.03-.09-.03v-.02c.18-.09.36-.24.52-.35.03-.03.03-.05.09-.05.26.07.53.1.79.15h0Z"/><path class="uuid-c138e38b-d0a2-4755-88f5-6eb87e5bf557" d="M25.35,8.65c1.14.26,1.63,1.11,2,2.13.05.54.11,1.09.13,1.64l-.28-1.44-.02-.04h-.02s0-.06,0-.08-.02-.04-.02-.04c0-.02-.02-.04-.01-.06-.08-.24-.23-.6-.35-.83-.09-.2-.21-.39-.33-.57,0,.21.04.44.03.64-.05,0-.04-.03-.06-.06-.07-.12-.12-.26-.18-.39-.02-.04-.03-.04-.03-.04,0-.02.01-.05-.03-.08h-.02s-.79-.79-.79-.79h0Z"/><path class="uuid-c138e38b-d0a2-4755-88f5-6eb87e5bf557" d="M26.24,9.57l.09.74v.11c-.03.11-.05.25-.11.35v-.02c-.02-.37.01-.77-.03-1.14l.04-.03Z"/><path class="uuid-3ae5fe89-6f89-45bb-924f-bdab3f68173d" d="M28.95,14.15c-.29.2-.59.4-.89.59-.45.28-.92.56-1.35.87-.02.02-.05.03-.06.06h-.02s-.08.04-.11.06v-.02c.39-.41.79-.8,1.2-1.2.4-.11.82-.27,1.23-.35h0Z"/><path class="uuid-86aafb42-0f93-459d-b17d-038cfc083fe2" d="M25.04,13.96c.1.03.72-.18.74-.15v.04s-.07.09-.11.13c-.2.27-.37.59-.57.86h-.05c0-.25,0-.5,0-.76,0-.04.01-.07-.03-.09.01-.02.02-.04.02-.04h0Z"/><path class="uuid-86aafb42-0f93-459d-b17d-038cfc083fe2" d="M24.41,15.35c.16-.44.38-.87.59-1.29.02.05.03.12.02.18,0,.27,0,.52-.02.78-.13.06-.28.16-.41.25l-.17.08h0Z"/><path class="uuid-c138e38b-d0a2-4755-88f5-6eb87e5bf557" d="M28.95,14.16c.3-.06.63-.05.93-.08.45.16.89.34,1.35.51l-.04.02c-.12-.04-.25-.06-.36-.12l-1.87-.32h0Z"/><path class="uuid-6375c1e1-6759-443e-ab15-f485ec71ca18" d="M24.1,17.37c-.02-.23,0-.48.02-.72,0-.15-.01-.35,0-.5,0-.13.15-.48.2-.63.01-.03.05-.07.05-.07l-.16,1.94h-.11s0-.02,0-.02Z"/><path class="uuid-6375c1e1-6759-443e-ab15-f485ec71ca18" d="M26.02,11.18l-.11,1.42s-.21.04-.21.04l.17-1.34s-.1.1-.14.16c0,0-.04-.02-.04-.02.05-.06.12-.19.18-.23.05-.03.08-.03.13-.03Z"/><path class="uuid-76ddb334-6a70-4120-9a22-021bf34979f0" d="M27.18,10.97v-.04s.03.04.03.04l.28,1.44v.02s.01.04.01.04v.04s-.29-.03-.3-.04v-.12s-.03-.01-.03-.01v-.11s.08-.08,0-.08v-.11s.08-.12,0-.11v-.09s.08-.12,0-.11v-.11s.08-.1,0-.09v-.13s.08-.1,0-.09v-.09s.08-.12,0-.11c0-.05.03-.11.03-.11h0Z"/><path class="uuid-b26d740a-b8d5-48d3-80f5-775868038e79" d="M30.83,14.52v-.04c.12.05.24.08.37.12.13.04.26.09.4.14.07.02.16.02.24.07-.07.06-.13.16-.17.25-.26-.14-.46-.22-.75-.28-.01-.08-.07-.18-.09-.27h0Z"/><path class="uuid-8f69ed70-c2f8-4810-8440-2e7efd470a67" d="M31.88,14.86c.07.07.05.07.16.14.11.22.63.66.84.87l-.02.02c-.37-.27-.79-.61-1.19-.82.03-.09.09-.18.17-.25.02.01.04.03.05.04Z"/><path class="uuid-a3a82da5-4b23-4196-bc12-742e2c31bb19" d="M25.7,11.44s.02.02.04.02c-.03.04-.06.09-.1.14-.09.1-.19.22-.28.33-.13-.06-.25.04-.36.06-.3.07-.61.11-.91.18,0-.05.07-.05.1-.06.25-.07.72-.12.9-.27.06-.04.19-.16.24-.22.06-.06.1-.14.15-.22.07.02.16.03.24.04Z"/><path class="uuid-3ae5fe89-6f89-45bb-924f-bdab3f68173d" d="M26.96,14.19c-.08.21-.2.4-.3.6v-.07c-.08.02-.13,0-.22-.02.02-.13.04-.27.07-.4.07.02.11-.03.17-.04.05,0,.17.03.18-.04.05.01.08.05.11-.01h0Z"/><path class="uuid-6375c1e1-6759-443e-ab15-f485ec71ca18" d="M23.42,9.34c-.05.29-.1.31-.26.53-.02.03-.02.04-.06.04-.02-.17.02-.33,0-.49.05-.08.25-.22.34-.29,0,.07-.01.15-.02.21Z"/><path class="uuid-86aafb42-0f93-459d-b17d-038cfc083fe2" d="M25.71,12.67c.06.01.12-.03.18-.04v.02c-.11.21-.23.39-.36.58-.1.1-.18.25-.25.37-.03.03-.04.07-.08.03.11-.22.45-.76.5-.96h0Z"/><path class="uuid-3ae5fe89-6f89-45bb-924f-bdab3f68173d" d="M24.5,8.56c-.17.11-.35.25-.52.35-.02,0-.04.02-.06.03-.15.08-.33.11-.49.19.36-.28.55-.42.98-.58.02,0,.07,0,.07,0h0Z"/><path class="uuid-b26d740a-b8d5-48d3-80f5-775868038e79" d="M26.24,16.57s.02.02.02.02c0,0-.02-.02-.02-.02Z"/><path class="uuid-b26d740a-b8d5-48d3-80f5-775868038e79" d="M26.22,16.55s.02.02.02.02c0,0-.02-.02-.02-.02Z"/><path class="uuid-b26d740a-b8d5-48d3-80f5-775868038e79" d="M26.21,16.51s.02.04.02.04c0,0-.02-.01-.02-.04Z"/><path class="uuid-b26d740a-b8d5-48d3-80f5-775868038e79" d="M26.46,16.92h-.04s0-.06,0-.06c0,0,.02.02.03.06Z"/><path class="uuid-b26d740a-b8d5-48d3-80f5-775868038e79" d="M26.27,16.63s.02.02.02.02c0,0-.02-.02-.02-.02Z"/><path class="uuid-b26d740a-b8d5-48d3-80f5-775868038e79" d="M26.29,16.65s.02.04.02.04c-.02-.02-.02-.04-.02-.04Z"/><path class="uuid-b26d740a-b8d5-48d3-80f5-775868038e79" d="M26.26,16.59h.02s0,.01,0,.02v.02s-.02-.04-.02-.04Z"/><path class="uuid-b26d740a-b8d5-48d3-80f5-775868038e79" d="M26.51,17.01s.02.02.02.02c0,0-.02-.02-.02-.02Z"/><path class="uuid-b26d740a-b8d5-48d3-80f5-775868038e79" d="M26.31,16.68s.02.02.02.02c0,0-.02-.02-.02-.02Z"/><path class="uuid-b26d740a-b8d5-48d3-80f5-775868038e79" d="M26.53,17.03c.08.09.17.17.18.3-.05,0-.01-.07-.09-.05l-.04.49s-.28-.28-.27-.31c0-.04.07-.04.09-.08.03-.04.05-.14.08-.2-.1.04-.18,0-.27,0-.05,0-.1.03-.14,0-.02-.01-.02-.05-.02-.05h.18s.29,0,.29,0l-.51-.24.52.22s0-.07,0-.07h0Z"/><path class="uuid-b26d740a-b8d5-48d3-80f5-775868038e79" d="M26.43,14.71c.08.02.14.04.22.02v.07c-.04.2-.31.51-.37.72-.04.15-.04.56-.06.75,0,.07-.02.17-.02.24,0,0-.04,0-.04-.01-.03-.15.06-.52.07-.69v-.18s-.54,1.05-.54,1.05c0,0-.02-.03-.01-.06.03-.02.04-.04.05-.07.14-.26.54-.96.6-1.21.01-.05,0-.12,0-.19.02-.15.06-.29.09-.44h0Z"/><path class="uuid-b26d740a-b8d5-48d3-80f5-775868038e79" d="M26.32,16.7s.02.04.02.04c0,0-.02-.04-.02-.04Z"/><path class="uuid-b26d740a-b8d5-48d3-80f5-775868038e79" d="M26.37,16.78l-.03-.04s0,0,.03.04Z"/><path class="uuid-b26d740a-b8d5-48d3-80f5-775868038e79" d="M26.41,16.84s-.03-.06-.03-.06c.02.02.02.04.03.06Z"/><path class="uuid-b26d740a-b8d5-48d3-80f5-775868038e79" d="M26.41,16.84s.02.02.02.02l-.02-.02Z"/><path class="uuid-b26d740a-b8d5-48d3-80f5-775868038e79" d="M26.46,16.92c.06.05.05.1.05.1-.05-.06-.02-.04-.05-.1Z"/><path class="uuid-86aafb42-0f93-459d-b17d-038cfc083fe2" d="M23.05,9.55c.05.17.01.35,0,.53-.05.06-.11.24-.14.33,0,.02-.04.06,0,.08,0,0-.04.02-.04.02.04-.31.09-.66.18-.96Z"/><path class="uuid-3ae5fe89-6f89-45bb-924f-bdab3f68173d" d="M24.59,15.26s-.02.03-.03.03c-.05.03-.14.05-.17.13l-.13,1.75c0,.06-.03.16,0,.2-.02,0-.06.01-.06.01l.16-1.94c-.02-.06.05-.11.05-.11,0,0,.17-.08.17-.08Z"/><path class="uuid-86aafb42-0f93-459d-b17d-038cfc083fe2" d="M25.7,16.68l.53-1.05v.18c-.02.17-.09.54-.06.69,0,.02.04.01.04.01,0,.03.02.03.02.04s.02.02.02.02c0,0,.02.02.02.02,0,0,0,.02.02.04,0,0,.02.02.02.02,0,0,0,.02.02.04,0,0,.02.02.02.02,0,0,.02.03.02.04.02.04.03.04.03.04.02.04,0,0,.03.06,0,0,.02.02.02.02,0,0-.01.05,0,.06h.04c.02.06,0,.04.05.1,0,0,.02.02.02.02,0,.02,0,.07,0,.07l-.52-.22.51.24-.29.02h-.18c-.09-.11-.24-.22-.31-.33l.02-.04h-.04c-.02-.05-.01-.1-.01-.1h0Z"/><path class="uuid-86aafb42-0f93-459d-b17d-038cfc083fe2" d="M25.81,16.8l.16.09c.01-.05,0-.04-.03-.05-.04-.02-.13-.05-.13-.05h0Z"/><path class="uuid-86aafb42-0f93-459d-b17d-038cfc083fe2" d="M26.96,17.02h.02s.03.15.05.19c.05.08.2.14.17.29h-.04s-.02-.04-.04-.04c-.04-.02-.11-.05-.16-.03.06.03.14.06.2.08.07.02.18.06.25.09.02.04-.01.04-.03.05-.05.04-.1.08-.16.11.05.25.09.52.11.77h-.07c-.22-.26-.45-.51-.68-.77l.04-.49c.07-.02.04.05.09.05,0-.12-.11-.2-.18-.3,0,0-.02-.02-.02-.02-.02-.05.01-.05-.05-.1-.02-.04-.03-.05-.03-.06s-.02-.02-.02-.02c0-.02-.02-.04-.03-.06-.02-.04-.03-.04-.03-.04,0,0,0-.02-.02-.04,0,0-.02-.02-.02-.02l-.02-.04s-.02-.02-.02-.02v-.02s.03-.07.03-.11l-.02-.02v.11s-.03,0-.03,0c0,0-.02-.02-.02-.02,0,0-.02-.02-.02-.02,0,0,0-.02-.02-.04,0-.07.01-.17.02-.24.07-.1.09-.22.14-.32.06.05-.11.54-.05.54l.13-.64.51.13c-.01.16-.01.32-.04.49-.01.05-.04.09-.05.13,0,.06.11.36.08.39-.06,0-.1-.03-.16-.03-.02,0-.06-.01-.07.01.06.01.14.04.2.05h.02Z"/><path class="uuid-86aafb42-0f93-459d-b17d-038cfc083fe2" d="M26.75,17.44s-.03-.08-.03-.08c-.01.02.01.06.03.08Z"/><path class="uuid-86aafb42-0f93-459d-b17d-038cfc083fe2" d="M26.77,17.49v-.02s0,.02,0,.02Z"/><path class="uuid-3ae5fe89-6f89-45bb-924f-bdab3f68173d" d="M23.09,9.43c.02.17,0,.33,0,.49s.08.24.18.37c0,0-.02.02-.02.02-.04,0-.04-.02-.05-.05-.03-.07-.07-.14-.12-.2,0,0-.03.03-.03.03,0-.18.05-.36,0-.53.01-.05.01-.07.05-.13Z"/><path class="uuid-3ae5fe89-6f89-45bb-924f-bdab3f68173d" d="M25.36,11.92c.09-.11.19-.22.28-.33l-.24.34-.16.16s.1-.16.1-.16h0Z"/><path class="uuid-76ddb334-6a70-4120-9a22-021bf34979f0" d="M31.43,14.65l.16.1c-.13-.04-.26-.1-.4-.14l.04-.02c.06.02.14.04.2.06Z"/><path class="uuid-c138e38b-d0a2-4755-88f5-6eb87e5bf557" d="M27.48,12.45l.02.04-.02-.04Z"/><path class="uuid-c138e38b-d0a2-4755-88f5-6eb87e5bf557" d="M23.68,10.73c.14.18.26.37.42.52.03.02.04.04.07.06,0,0,.03.03.05.04,0,.06.02.05.05.06.05.11.17.15.24.25l.26.2c-.39.14-.79.27-1.19.39-.02,0-.04-.02-.05-.02-.02-.01-.07-.06-.09-.03-.32-.13-.67-.23-1.01-.33-.02,0-.04-.04-.05-.04.07-.12.16-.24.24-.35.02-.04.03-.09.05-.11,0,0,.04-.04.04-.05h.03s.09-.09.09-.14c.02.01.03,0,.04,0,.06-.05.14-.15.2-.21.01-.02.01-.05.03-.06.03-.03.36-.15.43-.16.05-.02.13,0,.13,0h0Z"/><path class="uuid-b26d740a-b8d5-48d3-80f5-775868038e79" d="M21.33,11.75s.01-.03.02-.04c.12-.11.86-.51,1.02-.54.15-.02.23.07.28.2-.02.02-.03.07-.05.11-.08.11-.17.23-.24.35-.04-.01-.06,0-.08.01-.12.06-.41.22-.53.29-.03.02-.06.03-.07.06-.12-.14-.25-.27-.34-.43h0Z"/><path class="uuid-7571c464-6f6e-4037-b198-afa1d472ebea" d="M23.42,9.13c.16-.07.33-.11.49-.19l-.35,1.17c-.1.05-.19.11-.29.16-.1-.12-.16-.21-.18-.37.04.01.04-.02.06-.04.16-.22.21-.24.26-.53,0-.06.02-.15.02-.21h0Z"/><path class="uuid-7571c464-6f6e-4037-b198-afa1d472ebea" d="M24.06,10.18c.18-.12.35-.22.53-.32.1-.05.3-.16.38-.12s.28.42.32.52c-.04,0-.19,0-.21.02-.02.02-.02.11-.05.11l-.2-.02s-.06-.04-.09-.04c-.1,0-.09.1-.1.18h-.06c-.15-.09-.33-.18-.47-.27-.02-.02-.06-.06-.06-.06h0ZM24.7,10.02s.27-.17.28-.23c-.05,0-.11.04-.15.06-.03.02-.03.04-.03.04-.02,0-.03-.03-.09,0,0,0-.02.02-.02.02-.03.02-.07.01-.08.02-.03.02-.07.12-.07.12h.08s-.04.1-.04.1c.07,0,.08-.06.11-.12h.02Z"/><path class="uuid-8f69ed70-c2f8-4810-8440-2e7efd470a67" d="M25.62,10.89s.08-.09.09-.14c.03-.09-.02-.61-.03-.75l.53.75v.02s0,.02,0,.02c-.07,0-.06.06-.08.09-.07.12-.18.21-.25.33-.07.04-.13.16-.18.23-.07-.01-.17-.02-.24-.04-.04-.01-.08-.04-.13-.05.04-.04.08-.1.12-.14.03-.04.07-.06.1-.12.03-.06.05-.14.07-.2h0Z"/><path class="uuid-c138e38b-d0a2-4755-88f5-6eb87e5bf557" d="M25.12,9.51h.06s.02.1.04.1c.05.01.42-.09.44-.06-.01.07.02.15.02.22s.02.15.02.22c0,.14.06.66.03.75-.01.05-.09.14-.09.14h-.06c0-.1-.05-.52-.08-.61-.03-.11-.14-.31-.2-.42-.03-.08-.19-.31-.19-.36h0Z"/><path class="uuid-3ae5fe89-6f89-45bb-924f-bdab3f68173d" d="M23.9,10.27s.12-.07.17-.1c0,.04.03.05.06.06.14.09.32.18.47.27,0,.08-.07.1-.13.12-.12.05-.29.09-.44.13-.04.02-.1.01-.1.01-.15-.22-.28-.29-.03-.49Z"/><path class="uuid-b26d740a-b8d5-48d3-80f5-775868038e79" d="M24.62,10.5h.06c.05.04.07.06.16.11.03.02.07.08.14.08v.06c-.23.1-.47.16-.68.3h-.1c-.11-.08-.17-.17-.26-.29.04.01.07,0,.1-.01.13-.04.3-.09.44-.13.05-.02.13-.05.13-.12h0Z"/><path class="uuid-bd24c311-d662-4e18-b634-c944840a90a3" d="M23.91,8.93s.06-.03.06-.03v.02c0,.09-.24.65-.22.68.2,0,.44.03.64.01,0,.04-.02.05-.05.07-.19.12-.39.21-.57.34-.05.02-.1.02-.14.08-.02.02-.06.01-.06.01l.35-1.17h0Z"/><path class="uuid-8f69ed70-c2f8-4810-8440-2e7efd470a67" d="M21.69,12.2s.04-.04.07-.06c.12-.08.41-.25.53-.29.03-.02.05-.02.08-.01,0,0,.03.04.05.04-.05-.01-.04.02-.04.06,0,.06.02.13.02.2-.15.04-.31.14-.44.21-.03.02-.05.02-.05.05-.11-.07-.12-.06-.23-.17.05-.02,0-.04,0-.04h0Z"/><path class="uuid-a216d9fa-6f34-46f5-91ed-b59ff6bc63f3" d="M22.4,12.12c0,.07.09.52.07.53-.14,0-.35-.05-.46-.15-.03-.01-.08-.11-.1-.12,0-.04.02-.04.05-.05.14-.07.3-.16.44-.21h0Z"/><path class="uuid-9c9bcc9e-8e1b-4888-9243-622ff4bc6e27" d="M25.34,11.37s.09.04.13.05c-.03.07-.09.16-.15.22-.05.05-.18.17-.24.22-.18.14-.66.2-.9.27-.03,0-.1.01-.1.06-.07.01-.16.03-.23.04-.07.01-.2.03-.21.1v.04s0,.02,0,.02l-.05-.11c.4-.13.79-.26,1.19-.39.13-.05.19,0,.29-.13.09-.1.15-.24.23-.35.01-.02.04-.03.04-.03h0Z"/><path class="uuid-5eb9f87c-c2c9-4199-9da3-2c3efa3e1282" d="M25.37,10.41c-.18.02-.39.09-.54.18-.08-.04-.11-.07-.16-.1,0-.08-.01-.19.1-.18.03,0,.05.04.09.04s.17.02.2.02.03-.09.05-.11c.02-.02.21-.02.21-.02.03.08.04.1.06.17Z"/><path class="uuid-76ddb334-6a70-4120-9a22-021bf34979f0" d="M24.19,11.36s.05.01.05.02v.04c.08.04.17.07.25.11.1.05.31.18.41.2.06,0,.11-.08.14.01-.1.12-.15.08-.29.13l-.26-.2c-.08-.09-.18-.14-.24-.25-.03-.01-.05,0-.05-.06h0Z"/><path class="uuid-8f69ed70-c2f8-4810-8440-2e7efd470a67" d="M24.29,11.05c.2-.13.45-.2.67-.3,0,.02-.02.04-.02.07-.01.02.02.03-.01.05-.05.04-.22.1-.29.13-.13.06-.23.16-.39.12-.05-.01-.06-.06-.06-.06,0,0,.1-.01.1-.01Z"/><path class="uuid-a3a82da5-4b23-4196-bc12-742e2c31bb19" d="M25.1,11.5c.07-.03.12-.08.19-.11-.08.11-.14.25-.23.35-.03-.09-.08,0-.14-.01-.1-.02-.31-.15-.41-.2.2.06.4.05.59-.04Z"/><path class="uuid-6375c1e1-6759-443e-ab15-f485ec71ca18" d="M23.08,10.04c.05.06.09.14.12.2.02.03.02.05.05.05-.1.06-.19.12-.29.16-.02,0-.04.02-.04.03h-.02s0-.06,0-.08c.02-.08.08-.26.14-.33,0,0,.03-.03.03-.03Z"/><path class="uuid-8f69ed70-c2f8-4810-8440-2e7efd470a67" d="M24.82,10.6c.16-.09.36-.16.54-.18,0,0,.04.01.03.08-.09.02-.35.2-.42.19s-.14-.08-.14-.08h0Z"/><path class="uuid-76ddb334-6a70-4120-9a22-021bf34979f0" d="M23.26,10.68c.2-.19.25-.15.4.05-.04-.03-.08-.02-.13,0-.06.01-.39.13-.43.16-.02.02-.01.05-.03.06-.06.06-.14.16-.2.21,0,0-.02,0-.04,0,0-.06,0-.16-.04-.21.08-.06.13-.06.19-.1l.04.08c.09-.07.15-.17.23-.24h0Z"/><path class="uuid-a216d9fa-6f34-46f5-91ed-b59ff6bc63f3" d="M25.39,10.5c0,.18-.31.27-.45.32.01-.02.02-.04.02-.07v-.06c.08,0,.33-.16.43-.19Z"/><path class="uuid-9c9bcc9e-8e1b-4888-9243-622ff4bc6e27" d="M21.34,11.77c.09.16.22.29.34.43,0,0,.04.02,0,.04-.06-.06-.13-.07-.16-.1-.02-.03,0-.07-.01-.08,0-.02-.05-.02-.07-.04-.05-.05-.14-.15-.13-.22,0-.05.04-.04.04-.04v.02Z"/><path class="uuid-9c9bcc9e-8e1b-4888-9243-622ff4bc6e27" d="M22.76,10.98s.02.18.08.19c0,.06-.05.1-.09.14h-.03c.06-.16-.14-.19.04-.33Z"/><path class="uuid-b26d740a-b8d5-48d3-80f5-775868038e79" d="M23.03,10.93l-.04-.08s0-.03.01-.04c.09-.05.17-.11.26-.13-.08.07-.14.18-.23.24Z"/><path class="uuid-4afd3f66-f88b-4626-bf13-196f9e69bddf" d="M24.85,9.51c.09-.02.14.15.14.15-.09,0-.34-.09-.14-.15Z"/><path class="uuid-3ae5fe89-6f89-45bb-924f-bdab3f68173d" d="M21.17,11.63l-.02.22s-.12-.18-.12-.18c0,0,.13-.05.13-.05Z"/><path class="uuid-76ddb334-6a70-4120-9a22-021bf34979f0" d="M25.11,9.27s.07.11.07.11v.12s-.06,0-.06,0c0-.06.07-.16-.06-.17-.04,0-.04.02-.04.02h-.04s0-.02,0-.02c.04-.02.08-.08.13-.05Z"/><path class="uuid-76ddb334-6a70-4120-9a22-021bf34979f0" d="M25.63,10.89c-.02.05-.04.14-.07.2l-.02-.04s.03-.16.03-.16h.06Z"/><path class="uuid-a3a82da5-4b23-4196-bc12-742e2c31bb19" d="M24.99,9.32v.02c-.41.21-.8.5-1.21.68.18-.13.38-.22.57-.34.03-.02.05-.03.05-.07.08-.01.07-.02.11-.05.02,0,.04-.02.06-.03.13-.06.26-.15.41-.21h0Z"/><path class="uuid-9c9bcc9e-8e1b-4888-9243-622ff4bc6e27" d="M23.77,10.01c-.06.04-.07.05-.14.08.03-.06.09-.06.14-.08Z"/><path class="uuid-9c9bcc9e-8e1b-4888-9243-622ff4bc6e27" d="M25.55,11.06l.02.04c-.03.06-.06.08-.1.12.01-.05.09-.16.09-.16Z"/><path class="uuid-a3a82da5-4b23-4196-bc12-742e2c31bb19" d="M23.66,12.45s-.03-.08-.03-.08v-.02c.06-.01.03.05.03.1Z"/><path class="uuid-8f69ed70-c2f8-4810-8440-2e7efd470a67" d="M23.53,12.23s-.09-.03-.09-.03c.02-.04.07.02.09.03Z"/><path class="uuid-a216d9fa-6f34-46f5-91ed-b59ff6bc63f3" d="M22.96,10.47c0,.06-.04.03-.04.03.01-.02.02-.03.04-.03Z"/><path class="uuid-76ddb334-6a70-4120-9a22-021bf34979f0" d="M24.15,11.32s-.07-.06-.07-.06c.04,0,.05.02.07.06Z"/><path class="uuid-a3a82da5-4b23-4196-bc12-742e2c31bb19" d="M25.05,9.32l-.04.02.04-.02Z"/><path class="uuid-7571c464-6f6e-4037-b198-afa1d472ebea" d="M28.94,14.17l1.87.32v.04s-.06.09-.06.09v-.11s-.04,0-.04,0l-1.26.02h-.02c-.16-.01-.31-.02-.47-.04-.03,0-.02.04-.03.05s-.04.02-.04.03c0-.04-.06.01-.07.01-.2.11-.4.2-.61.29-.08.01-.14-.06-.15-.12.3-.19.6-.4.89-.59h0Z"/><path class="uuid-7571c464-6f6e-4037-b198-afa1d472ebea" d="M27.94,16.2c-.01.19-.08.41-.1.61,0,.11,0,.25-.03.36-.16,0-.3-.08-.45-.11-.05-.17-.14-.34-.13-.53,0-.12.05-.11.09-.2.03-.07.05-.18.08-.26.18.04.37.07.54.13Z"/><path class="uuid-86aafb42-0f93-459d-b17d-038cfc083fe2" d="M26.66,15.69s.04,0,.07-.01c.05-.02.37-.21.39-.18,0,.15-.08.29-.09.44l-.56-.12c.04-.05.13-.06.16-.14h.02s0,.01,0,.01Z"/><path class="uuid-3ae5fe89-6f89-45bb-924f-bdab3f68173d" d="M28.93,14.53h.02s-.95,1.62-.95,1.62c0,0-.02.02-.04.02,0-.06.05-.11.07-.15.26-.44.58-1.05.86-1.45,0,0,.04-.03.04-.03Z"/><path class="uuid-3ae5fe89-6f89-45bb-924f-bdab3f68173d" d="M27.94,16.2c-.18-.06-.36-.09-.54-.13-.13-.03-.26-.07-.4-.1,0-.04.07-.01.08-.01.28.04.59.18.86.21v.04Z"/><path class="uuid-3ae5fe89-6f89-45bb-924f-bdab3f68173d" d="M27.04,17c.09.02.23.04.32.06.15.03.3.1.45.11-.01.06-.04.03-.04.03-.27-.06-.54-.12-.81-.19h-.02s.08-.01.1-.01Z"/><path class="uuid-b26d740a-b8d5-48d3-80f5-775868038e79" d="M27.28,12.76c-.03.09-.35.54-.43.65-.02.03-.02.05-.07.05.14-.32.16-.39.43-.65.03-.02.08-.04.08-.04h0Z"/><path class="uuid-b26d740a-b8d5-48d3-80f5-775868038e79" d="M26.51,14.29s0-.13.04-.15c.04,0,.24.05.3.06,0,.06-.13.04-.18.04-.06.01-.1.07-.17.04h0Z"/><path class="uuid-b26d740a-b8d5-48d3-80f5-775868038e79" d="M27.29,12.76s-.02-.04.04-.03c0,0,.02.05-.04.03Z"/><path class="uuid-b26d740a-b8d5-48d3-80f5-775868038e79" d="M26.74,13.56s-.02.04-.02.04c.01-.02.02-.04.02-.04Z"/><path class="uuid-b26d740a-b8d5-48d3-80f5-775868038e79" d="M26.77,13.51l-.02.02s.02-.02.02-.02Z"/><path class="uuid-4afd3f66-f88b-4626-bf13-196f9e69bddf" d="M29.27,14.54h.15s0,.05,0,.05c.02.01.04-.02.04-.02.06,0,.08.02.13.03l.02.02h.11c-.01.05,0,.06.04.03.04.01.11.03.11.03l-.28,1.52c-.17-.05-.36-.05-.53-.06-.41-.04-.65,0-1.04.02l.95-1.62c.09-.03.21,0,.32,0h0Z"/><path class="uuid-86aafb42-0f93-459d-b17d-038cfc083fe2" d="M29.96,14.74c.21.12.46.32.67.42l.03.07.05,1.1c-.24-.05-.48-.06-.72-.09h-.14s-.05-.01-.07-.02c-.02,0-.08-.04-.13-.03.09-.47.16-.94.27-1.4.01-.04-.01-.08.04-.06h0Z"/><path class="uuid-86aafb42-0f93-459d-b17d-038cfc083fe2" d="M30.72,14.49h.05s0,.09,0,.11v.06s0,.02,0,.02c-.21-.1-.37-.08-.6-.1h-.07s-.02,0-.02,0l-.31-.02-.02-.02v.02s-.05,0-.08,0c-.04-.04-.14-.03-.2-.03l1.26-.02Z"/><path class="uuid-76ddb334-6a70-4120-9a22-021bf34979f0" d="M30.17,14.58c.24.02.39,0,.6.1,0,0,.03.02.04.02.02.02.04.04.07.06,0,0-.04.02-.08.01-.39-.08-.79-.15-1.18-.2,0-.04.05-.02.07-.01.13,0,.28.04.4.01h.02s.07,0,.07,0h0Z"/><path class="uuid-b26d740a-b8d5-48d3-80f5-775868038e79" d="M29.9,14.68s.03.04.05.04c-.05-.01-.04.02-.04.06-.11.47-.17.93-.27,1.4.05-.02.11.03.13.03-.06,0-.18,0-.16-.08.1-.44.17-.89.26-1.33.01-.04.05-.12.05-.12h0Z"/><path class="uuid-8f69ed70-c2f8-4810-8440-2e7efd470a67" d="M30.82,14.52c.02.09.08.17.09.27-.02,0-.04-.02-.05-.02-.02-.02-.05-.04-.07-.06,0,0-.02-.04-.03-.04v-.06s.07-.09.07-.09Z"/><path class="uuid-76ddb334-6a70-4120-9a22-021bf34979f0" d="M29.44,14.53c-.06,0-.13-.03-.17,0-.09,0-.22-.03-.32,0h-.02s.01-.06.03-.05l.47.03s0,.02,0,.02Z"/><path class="uuid-9c9bcc9e-8e1b-4888-9243-622ff4bc6e27" d="M29.66,14.55l-.22-.02v-.02s.02,0,.02,0c.06,0,.16,0,.2.03Z"/><path class="uuid-3ae5fe89-6f89-45bb-924f-bdab3f68173d" d="M29.74,14.65s-.04-.02-.04-.02c.04.01.04.02.04.02Z"/><path class="uuid-3ae5fe89-6f89-45bb-924f-bdab3f68173d" d="M29.45,14.57s-.02.04-.04.02v-.04s.04.02.04.02Z"/><path class="uuid-b26d740a-b8d5-48d3-80f5-775868038e79" d="M29.75,14.53v.02s-.02,0-.02,0l.02-.02Z"/><path class="uuid-3ae5fe89-6f89-45bb-924f-bdab3f68173d" d="M29.58,14.6s.02.02.02.02l-.02-.02Z"/><path class="uuid-a3a82da5-4b23-4196-bc12-742e2c31bb19" d="M23.63,12.32c.01-.06.15-.08.21-.1-.01.07-.14.06-.21.1Z"/><path class="uuid-dbdd4921-30f4-4597-8478-c0837b980a43" d="M25.4,16.86s.22-.1.23-.09c.02,0,.04.03.06.04.37.46.77.9,1.16,1.34.15.17.27.35.44.49v.02s-.14.03-.14.03l-.91-.07s-.03.02-.06.01c-.08,0-.2,0-.29-.02h-.02c.05-.12.17-.21.26-.31l.12-.15-.15.12c0,.06-.06.06-.09.1-.05.06-.11.19-.2.18-.32-.47-.6-.96-.92-1.42.17-.07.35-.18.51-.26h0Z"/><path class="uuid-dbdd4921-30f4-4597-8478-c0837b980a43" d="M26.53,17.88v-.02s0,.02,0,.02Z"/><path class="uuid-dbdd4921-30f4-4597-8478-c0837b980a43" d="M26.5,17.9s-.03.05-.03.05c0,.02.03-.03.03-.05Z"/><path class="uuid-dbdd4921-30f4-4597-8478-c0837b980a43" d="M26.31,18.11s.14-.13.12-.15c-.03-.03-.11.09-.11.09,0,0-.08.05-.01.05Z"/><path class="uuid-4afd3f66-f88b-4626-bf13-196f9e69bddf" d="M25.33,16.87s-.42.19-.42.19l.15-2.07.71.13c-.04.54-.07,1.08-.14,1.61,0,0-.17.07-.2.09,0,0-.01.04-.01.04,0,0-.06,0-.08.01Z"/><path class="uuid-5eb9f87c-c2c9-4199-9da3-2c3efa3e1282" d="M26.85,10.97l.15.96-.04.04c-.01-.06-.04-.11-.06-.17-.02-.03-.01-.06-.02,0,.06.2.21.41.27.6,0,.02.01.07.01.08,0,.03-.04,0-.04.02.07,0,0,.08,0,.13-.15.41-.38.8-.54,1.2l-.03.02c0-.25-.05-.5-.08-.74.05.01.06,0,.09-.02.1-.09.35-.41.27-.56-.12.02-.24,0-.36.03l-.05-.05.1-1.4c.02-.15.2-.12.31-.15h0Z"/><path class="uuid-6375c1e1-6759-443e-ab15-f485ec71ca18" d="M25.29,13.62c.08-.12.17-.26.25-.39.12-.2.25-.38.36-.58.15-.04.29-.06.45-.08.03,0,.03.03.03.03l-.55,1.15c-.23.08-.48.12-.72.17-.02-.01.17-.3.17-.3h0Z"/><path class="uuid-dbdd4921-30f4-4597-8478-c0837b980a43" d="M24.85,17.11c-.17.06-.43.21-.59.25-.03-.05,0-.14,0-.2l.76-2.04c-.03.67-.14,1.33-.17,1.99Z"/><path class="uuid-7571c464-6f6e-4037-b198-afa1d472ebea" d="M24.6,15.26c.13-.09.26-.18.41-.25,0,.02.01.07.01.11l-.76,2.04.13-1.75c.01-.07.12-.09.17-.13.02,0,.03-.03.03-.03h0Z"/><path class="uuid-5eb9f87c-c2c9-4199-9da3-2c3efa3e1282" d="M25.94,13.82c.13,0,.4.08.52.11.02,0,.05.01.04.03,0,.04-.33.52-.38.59-.02.04-.1.13-.1.13l-.59-.25c.05-.09.34-.54.34-.6.06-.03.09-.03.16-.03Z"/><path class="uuid-7571c464-6f6e-4037-b198-afa1d472ebea" d="M26.02,14.68s0,.04-.02.06c-.03.04-.21.33-.23.33-.21,0-.43-.09-.64-.1,0,0-.03-.02-.03-.03,0-.04.26-.41.3-.48.01-.02.04-.02.04-.02l.59.25h0Z"/><path class="uuid-7571c464-6f6e-4037-b198-afa1d472ebea" d="M26.84,10.97c.1-.03.21-.08.32-.09v.07s-.06.03.01.04c-.01.04-.02.06-.03.11,0,.04-.02.08.01.11v.09s-.02.06,0,.09v.13s-.02.06,0,.09v.11s-.02.08,0,.11v.09s-.02.08,0,.11v.11s-.02.05,0,.08v.11s-.03.04-.03.04c-.06-.19-.21-.4-.27-.6,0-.06,0-.03.02,0,.02.06.05.11.06.17l.04-.04-.15-.96h0Z"/><polygon class="uuid-7571c464-6f6e-4037-b198-afa1d472ebea" points="26.4 12.41 26.06 11.16 26.5 11.06 26.4 12.41"/><path class="uuid-dbdd4921-30f4-4597-8478-c0837b980a43" d="M26.47,13.21c.03.23.06.47.07.7l-.67-.14s.08-.16.09-.2c0,0,.1-.04.1-.04.02-.02.01-.06.04-.09.05-.05.14-.1.18-.14.05-.05.04-.14.16-.15,0,0,.04.02.03.05Z"/><path class="uuid-4afd3f66-f88b-4626-bf13-196f9e69bddf" d="M26.05,11.3l.33,1.23s-.36.03-.42.05l.1-1.28Z"/><path class="uuid-86aafb42-0f93-459d-b17d-038cfc083fe2" d="M26.52,10.27s.07,0,.11.02c.04.02.3.31.36.37.04.04.09.1.15.12,0,.02.01.06.01.06l-.61.14c0-.24-.01-.47-.02-.72h0Z"/><path class="uuid-4afd3f66-f88b-4626-bf13-196f9e69bddf" d="M26.47,10.22c.06,0,.03.03.03.07,0,.24.01.47,0,.71-.07,0-.47.15-.51.11.06-.08.11-.16.17-.25.02-.03.05-.03.06-.09v-.02c.06-.1.07-.24.1-.35.06-.03.11-.11.14-.18h0Z"/><path class="uuid-86aafb42-0f93-459d-b17d-038cfc083fe2" d="M26.48,12.56c.12,0,.24,0,.36-.03.08.15-.16.46-.27.56-.04.02-.05.02-.09.02-.01-.09-.02-.19-.03-.29,0-.04.02-.07-.03-.07v-.07s.01-.07.01-.11h.06s0,0,0,0Z"/><path class="uuid-8f69ed70-c2f8-4810-8440-2e7efd470a67" d="M26.54,10.12c.09-.05.15-.16.26-.19.1.23.27.6.35.83-.05-.02-.11-.08-.15-.12-.06-.06-.33-.35-.36-.37-.04-.01-.07-.01-.11-.02v-.11s0-.02,0-.02h0Z"/><path class="uuid-7571c464-6f6e-4037-b198-afa1d472ebea" d="M25.95,13.58c.14-.28.27-.62.42-.89.02-.04,0-.06.05-.02v.07c0,.11,0,.3.02.41-.12,0-.11.09-.16.15-.03.03-.13.08-.18.14-.03.03-.03.07-.04.09l-.1.04h0Z"/><path class="uuid-86aafb42-0f93-459d-b17d-038cfc083fe2" d="M26.53,10.13v.02c-.06,0-.05.06-.06.09-.03.05-.08.14-.14.18v-.11c.03-.08.14-.13.16-.27.04-.02.05.06.05.1Z"/><path class="uuid-b26d740a-b8d5-48d3-80f5-775868038e79" d="M25.73,16.76h.04s-.02.05-.02.05c-.02-.02-.02-.04-.02-.04h0Z"/><path class="uuid-4afd3f66-f88b-4626-bf13-196f9e69bddf" d="M23.99,8.93s.06.02.09.03h.04c.19.04.38.08.56.12.03.02,0,.06,0,.09-.05.14-.13.26-.15.41-.05.02-.02.04-.11.05-.21.02-.44,0-.64-.01-.03-.03.21-.59.22-.68h0Z"/><path class="uuid-5eb9f87c-c2c9-4199-9da3-2c3efa3e1282" d="M24.72,9.09c.47.11.95.23,1.42.35h.02c-.11.18-.26.3-.4.44-.04-.04-.01-.11-.08-.12,0-.07-.03-.15-.02-.22-.02-.03-.4.07-.44.06-.02-.01-.04-.08-.04-.1,0-.04.02-.08,0-.12l-.07-.11c-.05-.03-.1.03-.13.05-.13.06-.26.14-.41.21l.16-.44h-.02Z"/><path class="uuid-3ae5fe89-6f89-45bb-924f-bdab3f68173d" d="M24.65,9.07l.07.02-.16.44s-.04.02-.06.03c.03-.15.1-.27.15-.41.01-.03,0-.09,0-.09h0Z"/><path class="uuid-bd24c311-d662-4e18-b634-c944840a90a3" d="M24.08,8.95v-.02s.03.02.03.02h-.04s0,0,0,0Z"/><path class="uuid-3ae5fe89-6f89-45bb-924f-bdab3f68173d" d="M26.46,9.37c.11.18.23.38.33.57-.1.02-.16.14-.26.19,0-.04-.01-.11-.05-.1v-.02c.02-.21-.03-.44-.03-.64Z"/><path class="uuid-76ddb334-6a70-4120-9a22-021bf34979f0" d="M26.33,10.31l-.09-.74c.06.13.11.26.18.39.02.03.01.06.06.06v.02c-.02.13-.13.19-.15.27h0Z"/><path class="uuid-76ddb334-6a70-4120-9a22-021bf34979f0" d="M26.24,9.57l-.04.03v-.07s.04.04.04.04Z"/><path class="uuid-3ae5fe89-6f89-45bb-924f-bdab3f68173d" d="M26.17,9.45s.03.06.03.08c-.08,0-.11.08-.15.12-.05.04-.13.1-.18.15-.02.02-.06.13-.11.08.14-.15.29-.28.4-.44h0Z"/><path class="uuid-3ae5fe89-6f89-45bb-924f-bdab3f68173d" d="M27.19,10.95v.04c-.08,0-.02-.04-.02-.04h.02Z"/><path class="uuid-bd24c311-d662-4e18-b634-c944840a90a3" d="M24.26,17.46s.01-.03.02-.04c.13-.1.41-.16.56-.26l.95,1.43-.86.68s-.67-1.8-.67-1.8Z"/><path class="uuid-3ae5fe89-6f89-45bb-924f-bdab3f68173d" d="M25.83,18.54c.08,0,.14-.12.2-.18.02-.03.09-.03.09-.1l.15-.12-.12.15c-.09.1-.22.18-.26.31-.03-.01-.03-.04-.05-.06Z"/><path class="uuid-3ae5fe89-6f89-45bb-924f-bdab3f68173d" d="M27.18,12.05s-.01-.11-.01-.11c.08-.01.01.08.01.11Z"/><path class="uuid-3ae5fe89-6f89-45bb-924f-bdab3f68173d" d="M27.18,11.85s-.01-.11-.01-.11c.08-.01.01.08.01.11Z"/><path class="uuid-3ae5fe89-6f89-45bb-924f-bdab3f68173d" d="M27.17,11.2s-.01-.11-.01-.11c.08-.01.01.08.01.11Z"/><path class="uuid-3ae5fe89-6f89-45bb-924f-bdab3f68173d" d="M27.17,11.4s-.01-.09-.01-.09c.08,0,.01.08.01.09Z"/><path class="uuid-3ae5fe89-6f89-45bb-924f-bdab3f68173d" d="M27.17,11.62s-.01-.09-.01-.09c.08,0,.01.08.01.09Z"/><path class="uuid-3ae5fe89-6f89-45bb-924f-bdab3f68173d" d="M27.18,12.24s-.01-.08-.01-.08c.07,0,.01.06.01.08Z"/><path class="uuid-7571c464-6f6e-4037-b198-afa1d472ebea" d="M25.53,13.23c-.08.12-.17.26-.25.39v-.02c.08-.12.15-.27.25-.37Z"/><path class="uuid-6375c1e1-6759-443e-ab15-f485ec71ca18" d="M26.28,16.5h.02s.01.1-.03.11v-.02s0-.09,0-.09Z"/><polygon class="uuid-b26d740a-b8d5-48d3-80f5-775868038e79" points="26.29 16.47 26.3 16.49 26.28 16.49 26.29 16.47"/><path class="uuid-76ddb334-6a70-4120-9a22-021bf34979f0" d="M24.66,10.03s0-.02,0-.02c-.08-.02-.07.07,0,.02-.02.06-.04.12-.11.12l.04-.11h-.08s.05-.09.07-.11c.02-.02.08-.02.08-.02l.02.06.05-.02-.05-.06c.06-.02.08,0,.09,0,0,0,.01-.04.03-.04.04-.02.11-.05.15-.06,0,.06-.28.23-.28.23h-.02Z"/><path class="uuid-3ae5fe89-6f89-45bb-924f-bdab3f68173d" d="M24.74,9.96l-.05.02-.02-.06s.02-.02.02-.02c0,0,.05.06.05.06Z"/><path class="uuid-86aafb42-0f93-459d-b17d-038cfc083fe2" d="M26.22,9.53v.07c.02.37,0,.76.02,1.14l-.53-.75c0-.07-.02-.15-.02-.22.06,0,.04.08.08.12s.09-.07.11-.08c.05-.04.13-.1.18-.15.04-.03.06-.13.15-.12h0ZM25.73,9.96s.02-.04.02-.04c-.02,0-.04.02-.02.04Z"/><path class="uuid-86aafb42-0f93-459d-b17d-038cfc083fe2" d="M26.22,10.78c-.01.05-.06.09-.06.09h-.02s.02-.09.08-.09Z"/><path class="uuid-7571c464-6f6e-4037-b198-afa1d472ebea" d="M27.77,17.2v.04s-.04.02-.06.04c-.08.1-.16.2-.24.31-.04.02-.24-.07-.29-.1.03-.15-.12-.21-.17-.29-.02-.04-.04-.14-.05-.19.27.07.54.13.81.19Z"/><path class="uuid-6375c1e1-6759-443e-ab15-f485ec71ca18" d="M27.4,17.61s.05.02.07.04c-.06.02-.08.08-.12.11-.02,0-.06,0-.07.02-.04.06.09.67.1.8,0,.03.01.06-.04.05h-.02s-.07-.1-.07-.1h.07c-.02-.26-.06-.51-.11-.76.06-.03.11-.07.16-.11.03-.02.03-.05.03-.05h0Z"/><path class="uuid-6375c1e1-6759-443e-ab15-f485ec71ca18" d="M27.35,18.58v-.02s0,.02,0,.02Z"/><path class="uuid-7571c464-6f6e-4037-b198-afa1d472ebea" d="M27.15,17.49v.02c-.06-.02-.14-.05-.2-.08.05,0,.11.02.16.03.03.01.04.04.04.04h0Z"/><path class="uuid-b26d740a-b8d5-48d3-80f5-775868038e79" d="M26.75,17.44s-.03-.08-.03-.08c.02.02.03.06.03.08Z"/><path class="uuid-b26d740a-b8d5-48d3-80f5-775868038e79" d="M26.77,17.49s0-.02,0-.02v.02Z"/><path class="uuid-c138e38b-d0a2-4755-88f5-6eb87e5bf557" d="M30.16,14.58s-.07,0-.07,0h.07Z"/><path class="uuid-7571c464-6f6e-4037-b198-afa1d472ebea" d="M30.76,14.66s.03.03.03.04c0,0-.04-.02-.04-.02,0,0,0-.02,0-.02Z"/><path class="uuid-3ae5fe89-6f89-45bb-924f-bdab3f68173d" d="M26.43,17.96s-.12.12-.12.15c-.06,0,.01-.05.01-.05.01-.02.08-.12.11-.09Z"/><path class="uuid-3ae5fe89-6f89-45bb-924f-bdab3f68173d" d="M26.5,17.9s-.03.05-.03.05c0-.03.01-.04.03-.05Z"/><path class="uuid-3ae5fe89-6f89-45bb-924f-bdab3f68173d" d="M26.53,17.88s0-.02,0-.02v.02Z"/><path class="uuid-b26d740a-b8d5-48d3-80f5-775868038e79" d="M25.82,16.79s.09.03.13.05c.03.02.04,0,.03.05l-.16-.09h0Z"/><path class="uuid-3ae5fe89-6f89-45bb-924f-bdab3f68173d" d="M24.68,10.01s0,.02,0,.02c-.08.05-.09-.03,0-.02Z"/><path class="uuid-3ae5fe89-6f89-45bb-924f-bdab3f68173d" d="M25.73,9.96s.02-.04.02-.04c.02.01-.02.03-.02.04Z"/><path class="uuid-86aafb42-0f93-459d-b17d-038cfc083fe2" d="M27.35,18.58s0-.02,0-.02v.02Z"/></g><path class="uuid-a9b41c76-4345-4645-b9c5-eff575a99691" d="M23.67,9.04c2.58-1.04,5.06-.91,5.54.27s-1.22,2.99-3.8,4.04c-2.58,1.04-5.06.91-5.54-.27-.48-1.19,1.22-2.99,3.8-4.04Z"/><path class="uuid-9d28de7d-7f69-42ef-95e0-63b44d1d43fc" d="M.37,36.88c-.85-2.12,1.06-5.15,4.91-8.42.83,2.86,4.23,5.08,14.21,3.13,13.54-2.64,28.04-9.03,36.56-13.2-4.13,3.83-13.46,8.24-24.46,12.67C15.64,37.5,2.24,41.53.36,36.88h0Z"/><path class="uuid-a9b41c76-4345-4645-b9c5-eff575a99691" d="M30.67,10.23c.76-.31,1.47-.29,1.6.03.13.32-.38.82-1.13,1.12-.76.31-1.47.29-1.6-.03-.13-.32.38-.82,1.13-1.12Z"/><path class="uuid-6e2d8081-3f16-4970-ac8b-94806fbb14f8" d="M13.16,10.87c1.04.56,2.3.26,3-.63l2.59,1.39.33-.62-2.58-1.38c.44-1.11-.02-2.39-1.09-2.96-1.16-.62-2.6-.18-3.23.98-.62,1.16-.19,2.6.97,3.23h0Z"/></g></g></g></g></g></svg>