<svg xmlns="http://www.w3.org/2000/svg" viewBox="0 0 188.07 143.98"><title>planet</title><g style="isolation:isolate"><g id="Layer_2" data-name="Layer 2"><g id="Layer_1-2" data-name="Layer 1"><g id="Planet_4" data-name="Planet 4"><circle cx="92.71" cy="69.12" r="69.11" transform="translate(7.95 147.79) rotate(-79.57)" style="fill:#fff;opacity:0.1"/><path d="M139.51,100.35a56.33,56.33,0,0,1-10.47,12,57,57,0,0,1-14.75,9.22c-1.53.65-3.09,1.24-4.66,1.76a56.6,56.6,0,0,1-61.35-17.88,57.18,57.18,0,0,1-4.49-6.34Q42.25,96.61,41,93.93a56.46,56.46,0,0,1-4-11.42A55.45,55.45,0,0,1,35.72,75s0-.08,0-.12c-.16-1.63-.24-3.28-.25-4.94A57,57,0,0,1,38.8,50.53a56.94,56.94,0,0,1,8.71-15.79l1-1.19c.86-1,1.75-2,2.67-3s2.09-2.1,3.19-3.08a56.61,56.61,0,0,1,13-8.69q1.41-.69,2.85-1.29a56.55,56.55,0,0,1,73.56,29.21c.54,1.23,1,2.49,1.5,3.76a56.4,56.4,0,0,1,3.37,19.47c0,.32,0,.63,0,.94a56.65,56.65,0,0,1-3.32,17.86c-.36,1-.73,2-1.13,2.9A56.36,56.36,0,0,1,139.51,100.35Z" style="fill:#d7d7d9"/><g style="opacity:0.5;mix-blend-mode:multiply"><path d="M114.29,121.61c-1.53.65-3.08,1.24-4.67,1.76a56.55,56.55,0,0,1-61.34-17.88,58,58,0,0,1-4.49-6.33Q42.25,96.61,41,93.93a56.46,56.46,0,0,1-4-11.42A55.45,55.45,0,0,1,35.72,75V74.9c-.15-1.63-.23-3.28-.24-4.94a53.49,53.49,0,0,1,.34-6.56,55.4,55.4,0,0,1,1.27-7.12,56.56,56.56,0,0,0,72.34,39.54q2.37-.78,4.67-1.76a56.37,56.37,0,0,0,29.81-30c.4-1,.78-1.92,1.13-2.9a57.7,57.7,0,0,0,1.72-5.73,56.19,56.19,0,0,1,1.83,14.48c0,.32,0,.63,0,.94a56.37,56.37,0,0,1-3.32,17.86c-.36,1-.73,2-1.13,2.9A56.28,56.28,0,0,1,129,112.39,57,57,0,0,1,114.29,121.61Z" style="fill:#d42c90"/></g><ellipse cx="97.23" cy="77.76" rx="16.16" ry="18.06" transform="translate(-2.84 151.84) rotate(-75.16)" style="fill:#ff85f5;opacity:0.30000000000000004;mix-blend-mode:screen"/><ellipse cx="120.47" cy="65.27" rx="4.87" ry="5.44" transform="matrix(0.26, -0.97, 0.97, 0.26, 26.53, 165.01)" style="fill:#ff85f5;opacity:0.30000000000000004;mix-blend-mode:screen"/><path d="M186.16,125.09c3.93-7,1.75-16.48-6.31-27.8h0a107.26,107.26,0,0,0-9.21-11.07,193.08,193.08,0,0,0-22.1-19.76l.06,1.23c0,.31,0,.62,0,.94,0,.47,0,.93,0,1.4,0,.32,0,.63,0,.94,0,1.21-.09,2.43-.2,3.65q-.07.85-.18,1.71h0a174.25,174.25,0,0,1,16.64,15.31q3.65,3.88,6.47,7.49c1.41,1.82,2.67,3.58,3.75,5.27.25.38.49.75.71,1.13a31.75,31.75,0,0,1,3.88,8.62c.71,2.84.59,5.23-.44,7-3.14,5.62-15.38,6.79-32.72,3.12a178.83,178.83,0,0,1-23.93-7A290.81,290.81,0,0,1,80.39,97.68L80,97.47A297.39,297.39,0,0,1,46,75.29q-5.52-4.2-10.44-8.44a165.08,165.08,0,0,1-12.4-11.76C11,42.19,5.67,31.14,8.82,25.53c2.59-4.62,11.3-6.22,24-4.62h0a88.89,88.89,0,0,1,13.66,1.91c3.35.71,6.84,1.58,10.43,2.62a57.86,57.86,0,0,1,7.2-4.86,174.67,174.67,0,0,0-23.26-6.41C22.05,10.53,7.28,12.09,1.91,21.65c-3.81,6.78-1.72,15.49,4.42,25,6.3,9.8,16.88,20.47,29.73,30.79a299.83,299.83,0,0,0,40.45,27.12,308.17,308.17,0,0,0,36.65,17.6h0a197.9,197.9,0,0,0,31.74,9.89C166.74,136.69,181,134.28,186.16,125.09Z" style="fill:#cc009a"/><g style="opacity:0.65;mix-blend-mode:multiply"><path d="M183.48,120.1c3.3-5.9,2-13.64-3.63-22.81h0a107.26,107.26,0,0,0-9.21-11.07,193.08,193.08,0,0,0-22.1-19.76l.06,1.23c0,.31,0,.62,0,.94,0,.47,0,.93,0,1.4,0,.32,0,.63,0,.94,0,1.21-.09,2.43-.2,3.65q-.07.85-.18,1.71h0a174.25,174.25,0,0,1,16.64,15.31q3.65,3.88,6.47,7.49c.7.33,3.73,4.81,4.46,6.4a31.75,31.75,0,0,1,3.88,8.62c.71,2.84.59,5.23-.44,7-3.14,5.62-15.38,6.79-32.72,3.12a178.83,178.83,0,0,1-23.93-7A290.81,290.81,0,0,1,80.39,97.68L80,97.47A297.39,297.39,0,0,1,46,75.29q-5.52-4.2-10.44-8.44a165.08,165.08,0,0,1-12.4-11.76C11,42.19,5.67,31.14,8.82,25.53c2.59-4.62,11.3-6.22,24-4.62h0a88.89,88.89,0,0,1,13.66,1.91c3.35.71,6.84,1.58,10.43,2.62a57.86,57.86,0,0,1,7.2-4.86,174.67,174.67,0,0,0-23.26-6.41c-15.41-2.26-27.3-.27-31.9,7.93-3.61,6.42-1.63,14.67,4.18,23.71,6,9.29,16,19.39,28.17,29.17A285.15,285.15,0,0,0,79.6,100.68a291.27,291.27,0,0,0,34.72,16.67h0a188.28,188.28,0,0,0,30.06,9.37C165.07,131.09,178.59,128.8,183.48,120.1Z" style="fill:#cc009a"/></g><path d="M139.75,138.55a12,12,0,0,1-5.31,4.47c-.32.13-.65.26-1,.37a11.88,11.88,0,0,1-12.89-3.76,11.22,11.22,0,0,1-.95-1.34,11.46,11.46,0,0,1-.59-1.09,12.11,12.11,0,0,1-.85-2.41,13.53,13.53,0,0,1-.26-1.57v0c0-.35,0-.7,0-1a12.75,12.75,0,0,1,.07-1.38,12.17,12.17,0,0,1,.28-1.56c.1-.39.22-.77.35-1.15a12,12,0,0,1,1.83-3.32l.2-.25q.27-.33.57-.63c.21-.22.43-.44.67-.65a12.09,12.09,0,0,1,2.72-1.82q.3-.15.6-.27a11.88,11.88,0,0,1,15.47,6.14c.11.26.22.52.32.79a12,12,0,0,1,.7,4.09v.2a12.12,12.12,0,0,1-.7,3.76q-.1.3-.24.6A11.88,11.88,0,0,1,139.75,138.55Z" style="fill:#ff7be2"/><g style="opacity:0.5;mix-blend-mode:multiply"><path d="M134.44,143c-.32.13-.65.26-1,.37a11.88,11.88,0,0,1-12.89-3.76,11.22,11.22,0,0,1-.95-1.34,11.46,11.46,0,0,1-.59-1.09,12.25,12.25,0,0,1-.85-2.4,14.06,14.06,0,0,1-.26-1.58v0c0-.35,0-.69,0-1a12.75,12.75,0,0,1,.07-1.38,13.12,13.12,0,0,1,.27-1.5,12.2,12.2,0,0,0,.77,2.12,10.59,10.59,0,0,0,.6,1.1,11.37,11.37,0,0,0,.94,1.33,11.86,11.86,0,0,0,12.9,3.76c.33-.11.66-.23,1-.37a11.79,11.79,0,0,0,3.1-1.94,11.64,11.64,0,0,0,2.2-2.53,11.39,11.39,0,0,0,1-1.83l.24-.61q.21-.6.36-1.2a11.46,11.46,0,0,1,.38,3v.2a12.12,12.12,0,0,1-.7,3.76c-.07.2-.15.4-.24.61a11.89,11.89,0,0,1-6.27,6.3Z" style="fill:#d42c90"/></g><ellipse cx="130.86" cy="133.8" rx="3.4" ry="3.8" transform="translate(-31.99 226.02) rotate(-75.16)" style="fill:#f9a7f7;opacity:0.61;mix-blend-mode:screen"/><path d="M136.85,131.46a1.09,1.09,0,0,1-1.37.7,1,1,0,1,1,1.37-.7Z" style="fill:#f9a7f7;opacity:0.61;mix-blend-mode:screen"/><path d="M176.41,133.48a4.51,4.51,0,0,1-.81.93,4.26,4.26,0,0,1-1.14.71l-.36.14a4.39,4.39,0,0,1-2.84,0,4.45,4.45,0,0,1-1.91-1.34,5.36,5.36,0,0,1-.34-.49,3.23,3.23,0,0,1-.22-.41,3.83,3.83,0,0,1-.31-.88,3.7,3.7,0,0,1-.1-.58h0c0-.12,0-.25,0-.38a4.36,4.36,0,0,1,0-.51,5.67,5.67,0,0,1,.1-.57c0-.14.08-.28.13-.42a4.38,4.38,0,0,1,.67-1.22l.08-.09a2.25,2.25,0,0,1,.21-.24,2.61,2.61,0,0,1,.24-.23,4.17,4.17,0,0,1,1-.67l.22-.1a4.36,4.36,0,0,1,5.69,2.25l.12.29a4.52,4.52,0,0,1,.26,1.51v.07a4.43,4.43,0,0,1-.26,1.38l-.09.23A5.32,5.32,0,0,1,176.41,133.48Z" style="fill:#f660c1"/><g style="opacity:0.5;mix-blend-mode:multiply"><path d="M174.46,135.12l-.36.14a4.39,4.39,0,0,1-2.84,0,4.45,4.45,0,0,1-1.91-1.34,5.36,5.36,0,0,1-.34-.49,3.23,3.23,0,0,1-.22-.41,3.83,3.83,0,0,1-.31-.88,3.7,3.7,0,0,1-.1-.58h0c0-.12,0-.25,0-.38a4.36,4.36,0,0,1,0-.51,3.76,3.76,0,0,1,.1-.55,4.26,4.26,0,0,0,.28.78c.07.14.14.28.22.41a5.48,5.48,0,0,0,.35.49,4.37,4.37,0,0,0,4.74,1.38l.36-.14a4.11,4.11,0,0,0,1.14-.71,4.51,4.51,0,0,0,.81-.93,4.32,4.32,0,0,0,.36-.67,2.09,2.09,0,0,0,.08-.23A3.22,3.22,0,0,0,177,130a4.64,4.64,0,0,1,.14,1.12v.07a4.43,4.43,0,0,1-.26,1.38l-.09.23a5.32,5.32,0,0,1-.35.67,4.51,4.51,0,0,1-.81.93A4.26,4.26,0,0,1,174.46,135.12Z" style="fill:#d42c90"/></g><path d="M174.49,132.09a1.4,1.4,0,1,1-1-1.56A1.33,1.33,0,0,1,174.49,132.09Z" style="fill:#ff85f5;opacity:0.30000000000000004;mix-blend-mode:screen"/><path d="M175.34,130.88a.42.42,0,0,1-.81-.22.42.42,0,0,1,.81.22Z" style="fill:#ff85f5;opacity:0.30000000000000004;mix-blend-mode:screen"/></g></g></g></g></svg>