<svg xmlns="http://www.w3.org/2000/svg" viewBox="0 0 151.05 157.5"><title>Asset 4</title><g id="Layer_2" data-name="Layer 2"><g id="Layer_1-2" data-name="Layer 1"><path d="M76,144.11a3.35,3.35,0,0,1-3.35-3.35V111.12a3.35,3.35,0,1,1,6.69,0v29.64A3.34,3.34,0,0,1,76,144.11Z" style="fill:#fff"/><path d="M76,24.39A3.35,3.35,0,0,1,72.63,21v-4.3a3.35,3.35,0,1,1,6.69,0V21A3.34,3.34,0,0,1,76,24.39Z" style="fill:#fff"/><path d="M76,20.09a10,10,0,1,1,10-10A10.06,10.06,0,0,1,76,20.09ZM76,6.7a3.35,3.35,0,1,0,3.34,3.35A3.35,3.35,0,0,0,76,6.7Z" style="fill:#fff"/><path d="M76,157.5a10,10,0,1,1,10-10A10.05,10.05,0,0,1,76,157.5Zm0-13.39a3.35,3.35,0,1,0,3.34,3.35A3.35,3.35,0,0,0,76,144.11Z" style="fill:#fff"/><path d="M56.85,55.67a3.36,3.36,0,0,1-2.71-1.38l-17.42-24a3.35,3.35,0,1,1,5.42-3.94l17.42,24a3.35,3.35,0,0,1-2.71,5.32Z" style="fill:#fff"/><path d="M112.33,132a3.33,3.33,0,0,1-2.71-1.38l-2.53-3.48a3.35,3.35,0,0,1,5.42-3.93L115,126.7a3.35,3.35,0,0,1-2.7,5.32Z" style="fill:#fff"/><path d="M116.27,144.13a10,10,0,0,1-8.14-4.14h0a10.07,10.07,0,1,1,8.14,4.14Zm-2.72-8.07a3.35,3.35,0,1,0,.74-4.68,3.36,3.36,0,0,0-.74,4.68Z" style="fill:#fff"/><path d="M35.51,33a10,10,0,1,1,5.89-1.91A10,10,0,0,1,35.51,33Zm0-13.39a3.47,3.47,0,1,0,.53.05A3.27,3.27,0,0,0,35.49,19.57Z" style="fill:#fff"/><path d="M134.63,100.88a3.43,3.43,0,0,1-1-.17l-28.18-9.16a3.34,3.34,0,1,1,2.06-6.36l28.19,9.15a3.35,3.35,0,0,1-1,6.54Z" style="fill:#fff"/><path d="M20.77,63.88a3.46,3.46,0,0,1-1-.16l-4.09-1.33A3.35,3.35,0,0,1,17.71,56l4.09,1.33a3.35,3.35,0,0,1-1,6.53Z" style="fill:#fff"/><path d="M10.3,67.18a10,10,0,1,1,3.11-19.6h0a10,10,0,0,1-3.11,19.6Zm0-13.39a3.34,3.34,0,1,0,1,.16A3.46,3.46,0,0,0,10.31,53.79Z" style="fill:#fff"/><path d="M141,109.65a10.13,10.13,0,0,1-3.12-.5A10,10,0,0,1,144.1,90h0A10.05,10.05,0,0,1,141,109.65Zm0-13.4a3.34,3.34,0,0,0-3.18,2.31,3.4,3.4,0,0,0,.2,2.56,3.36,3.36,0,0,0,4.51,1.46,3.34,3.34,0,0,0,1.66-2,3.28,3.28,0,0,0-.2-2.55A3.35,3.35,0,0,0,142,96.41h0A3.37,3.37,0,0,0,141,96.25Z" style="fill:#fff"/><path d="M16.42,100.9a3.35,3.35,0,0,1-1-6.54L43.57,85.2a3.35,3.35,0,1,1,2.07,6.37l-28.19,9.16A3.37,3.37,0,0,1,16.42,100.9Z" style="fill:#fff"/><path d="M130.27,63.9a3.35,3.35,0,0,1-1-6.53L133.33,56a3.35,3.35,0,1,1,2.07,6.37l-4.09,1.33A3.37,3.37,0,0,1,130.27,63.9Z" style="fill:#fff"/><path d="M140.72,67.2a10.06,10.06,0,1,1,9-5.49,9.93,9.93,0,0,1-5.84,5A10.12,10.12,0,0,1,140.72,67.2Zm0-13.4a3.39,3.39,0,0,0-3,1.83,3.31,3.31,0,0,0-.2,2.56,3.34,3.34,0,0,0,4.22,2.15h0a3.35,3.35,0,0,0-1-6.54Z" style="fill:#fff"/><path d="M10.05,109.66a10,10,0,1,1,3.1-.49h0A10.13,10.13,0,0,1,10.05,109.66ZM12.12,106Zm-2.07-9.72a3.41,3.41,0,0,0-1,.16,3.36,3.36,0,1,0,1-.16Z" style="fill:#fff"/><path d="M94.21,55.71a3.34,3.34,0,0,1-2.7-5.31l17.42-24a3.35,3.35,0,0,1,5.42,3.94l-17.43,24A3.31,3.31,0,0,1,94.21,55.71Z" style="fill:#fff"/><path d="M38.74,132.07A3.35,3.35,0,0,1,36,126.75l2.53-3.48A3.35,3.35,0,0,1,44,127.21l-2.53,3.48A3.36,3.36,0,0,1,38.74,132.07Z" style="fill:#fff"/><path d="M34.79,144.18a10,10,0,0,1-8.11-16h0a10.06,10.06,0,0,1,14-2.22,10,10,0,0,1-5.92,18.17Zm0-13.39a3.23,3.23,0,0,0-.53,0,3.33,3.33,0,0,0-2.18,1.34h0a3.35,3.35,0,0,0,.74,4.68,3.35,3.35,0,1,0,2-6.06Zm-5.42-.59Z" style="fill:#fff"/><path d="M115.56,33a10,10,0,1,1,8.14-4.13A10,10,0,0,1,115.56,33Zm0-13.39a3.35,3.35,0,1,0,2.7,5.32,3.3,3.3,0,0,0,.6-2.49,3.35,3.35,0,0,0-3.3-2.83Z" style="fill:#fff"/><path d="M77.93,31l9.91,31.33,32.85-.26a2,2,0,0,1,1.21,3.71L95.17,84.9l10.39,31.17a2,2,0,0,1-3.15,2.29L76,98.84,49.54,118.36a2,2,0,0,1-3.15-2.29L56.78,84.9,30.05,65.79a2,2,0,0,1,1.21-3.71l32.85.26L74,31A2,2,0,0,1,77.93,31Z" style="fill:#e93396"/><path d="M137.61,39.33a3.35,3.35,0,0,1-.49-6.66l10.08-1.49a3.35,3.35,0,1,1,1,6.62L138.1,39.3Z" style="fill:#fff"/><path d="M134.33,31.63a3.36,3.36,0,0,1-2.69-5.35l6.08-8.18a3.35,3.35,0,1,1,5.38,4L137,30.27A3.33,3.33,0,0,1,134.33,31.63Z" style="fill:#fff"/><path d="M3.34,126.36a3.35,3.35,0,0,1-.48-6.66l10.08-1.49a3.35,3.35,0,1,1,1,6.62l-10.09,1.5A4.19,4.19,0,0,1,3.34,126.36Z" style="fill:#fff"/><path d="M10.63,140.76a3.3,3.3,0,0,1-2-.66A3.35,3.35,0,0,1,8,135.42L14,127.23a3.35,3.35,0,1,1,5.38,4l-6.07,8.19A3.37,3.37,0,0,1,10.63,140.76Z" style="fill:#fff"/></g></g></svg>