<svg xmlns="http://www.w3.org/2000/svg" viewBox="0 0 102.45 145.41"><title>Asset 1</title><g id="Layer_2" data-name="Layer 2"><g id="Layer_1-2" data-name="Layer 1"><path d="M53.36,1.56,64.22,35.87l36-.28a2.24,2.24,0,0,1,1.32,4.06L72.24,60.57,83.62,94.7a2.24,2.24,0,0,1-3.45,2.51L51.23,75.84,22.29,97.21a2.24,2.24,0,0,1-3.46-2.51L30.21,60.57.94,39.65a2.24,2.24,0,0,1,1.32-4.06l36,.28L49.09,1.56A2.24,2.24,0,0,1,53.36,1.56Z" style="fill:#e93396"/><path d="M80.86,145.41H21.6a5.54,5.54,0,0,1-5.53-5.53v-7.36A5.54,5.54,0,0,1,21.6,127H80.86a5.54,5.54,0,0,1,5.53,5.53v7.36A5.54,5.54,0,0,1,80.86,145.41Zm-58.47-6.32H80.07v-5.78H22.39Zm58.47-5.78Z" style="fill:#fff"/><path d="M72.62,133.31H29.83a3.15,3.15,0,0,1-3.07-3.87l8.3-35.77a3.16,3.16,0,0,1,6.16,1.43L33.81,127H68.64L61.24,95.1a3.16,3.16,0,1,1,6.15-1.43l8.31,35.77a3.16,3.16,0,0,1-3.08,3.87Z" style="fill:#fff"/><path d="M51.23,96.35a3.15,3.15,0,0,1-3.16-3.16V87a3.16,3.16,0,1,1,6.32,0v6.18A3.16,3.16,0,0,1,51.23,96.35Z" style="fill:#fff"/><path d="M51.23,120.82a3.16,3.16,0,0,1-3.16-3.16V105.25a3.16,3.16,0,0,1,6.32,0v12.41A3.17,3.17,0,0,1,51.23,120.82Z" style="fill:#fff"/><path d="M71.91,25.57a3.11,3.11,0,0,1-.67-.07,3.17,3.17,0,0,1-2.43-3.75l2-9.41A3.16,3.16,0,0,1,77,13.66l-2,9.41A3.17,3.17,0,0,1,71.91,25.57Z" style="fill:#fff"/><path d="M79,29.12a3.16,3.16,0,0,1-1.72-5.81l8.08-5.23a3.16,3.16,0,1,1,3.43,5.3l-8.08,5.23A3.08,3.08,0,0,1,79,29.12Z" style="fill:#fff"/><path d="M30.55,25.57a3.16,3.16,0,0,1-3.09-2.5l-2-9.41a3.16,3.16,0,0,1,6.18-1.32l2,9.41a3.16,3.16,0,0,1-2.43,3.75A3,3,0,0,1,30.55,25.57Z" style="fill:#fff"/><path d="M23.49,29.12a3.11,3.11,0,0,1-1.72-.51l-8.08-5.23a3.16,3.16,0,1,1,3.44-5.3l8.08,5.23a3.16,3.16,0,0,1-1.72,5.81Z" style="fill:#fff"/></g></g></svg>