<svg xmlns="http://www.w3.org/2000/svg" viewBox="0 0 647.76 514.26"><title>fire-stone</title><g style="isolation:isolate"><g id="Layer_2" data-name="Layer 2"><g id="Layer_1-2" data-name="Layer 1"><path d="M399,331.34a10.33,10.33,0,0,1-13.75-15.43c4.26-3.8,255.35-199.3,255.49-199.15S403.25,327.54,399,331.34Z" style="fill:#ff009a;opacity:0.30000000000000004"/><circle cx="392.12" cy="323.62" r="10.34" style="fill:#ff009a"/><path d="M465,109a5.25,5.25,0,1,1-7-7.84C460.17,99.26,587.76-.08,587.84,0S467.16,107.1,465,109Z" style="fill:#ff009a;opacity:0.30000000000000004"/><circle cx="461.5" cy="105.11" r="5.25" style="fill:#ff009a"/><path d="M312.61,151.11a3.69,3.69,0,1,1-4.91-5.51c1.52-1.36,91.23-71.2,91.28-71.15S314.13,149.76,312.61,151.11Z" style="fill:#ff009a;opacity:0.30000000000000004"/><circle cx="310.16" cy="148.36" r="3.69" style="fill:#ff009a"/><g id="Asteroid"><ellipse cx="151.37" cy="351.11" rx="124.24" ry="183.87" transform="translate(-189.19 177.29) rotate(-39.64)" style="fill:#ffc3ff;opacity:0.15"/><ellipse cx="157.74" cy="347.49" rx="95.96" ry="142.02" transform="translate(-185.41 180.52) rotate(-39.64)" style="fill:#ffc3ff;opacity:0.30000000000000004"/><path d="M338.11,365.65l-.29,0Z" style="fill:#ffa9ff"/><path d="M647.76,66.77l-49.53,39.29c-19.66,5.86-22.19,24.9-44.41,32.45-37.17,12.63-79,43.78-87.59,53.39-20.89,23.39-30.08,25.89-6.69,22.55,20.41-2.91,31.27-8.37,33.72-9.71-3.59,2.1-24.35,14.25-31.21,18.07C454.53,227,435.32,227,435.32,227s9.19,5-14.21,9.19-36.75,7.52-36.75,7.52S328,265.64,293.51,290.2c-8.68,6.19-16,12.54-20.63,18.74-5.67,7.57-7.42,14.93-3,21.51a71.34,71.34,0,0,0,22.37,20.95c14.42,8.77,29.85,12.17,38.71,13.48,3.37.49,5.79.68,6.84.75-1-.05-3.39-.17-6.68-.27h0c-8-.26-21.4-.48-34.56.32a140,140,0,0,0-24.36,3.24c-12.09,3-18.5,8.39-9.84,17.63q1,1.08,2.1,2.1a64.87,64.87,0,0,0,10.15,7.76,109.18,109.18,0,0,0,18.79,9.19c3.08,1.19,6.2,2.27,9.31,3.25a240.2,240.2,0,0,0,39.94,8.62c4.64.6,7.43.83,7.43.83l-7.32.29c-8.31.33-23,.86-40.32,1.3l-8.27.2c-7.41.16-15.16.31-23,.41l-5.33.07h-1.39c-5.33.05-10.67.08-15.93.08h0c-6.44,0-12.76,0-18.84-.13-20-.3-37.29-1.19-46.67-3.07a201.1,201.1,0,0,1-29.56-8h0a122.68,122.68,0,0,1-12.28-5.22,88.47,88.47,0,0,1-22-15,75.51,75.51,0,0,1-13.85-17.71c-.3-.53-.6-1.06-.89-1.6h0C88.18,340.37,86,311.35,92.34,285.81q1.22-4.94,2.83-9.68a123.08,123.08,0,0,1,8.34-19,129.91,129.91,0,0,1,21-28.51c1.75-1.79,3.54-3.58,5.36-5.35,7.88-7.69,16.3-15.1,24.48-21.89,7.65-6.35,15.1-12.14,21.69-17.11,7.08-5.31,13.18-9.67,17.52-12.7s7-4.77,7-4.77-2.59,2.1-6.59,5.63-9,8.14-14.47,13.62a191.87,191.87,0,0,0-16.74,19,95.27,95.27,0,0,0-6.89,10.4h0a41.24,41.24,0,0,0-5,12.9c-.9,5.18,0,9.83,3.47,13.53a18.17,18.17,0,0,0,4.46,3.42c5.47,3.09,15.21,2.88,27.62.39a240,240,0,0,0,27.41-7.54h0c8.32-2.75,17.12-6,26.15-9.52,62.16-24.35,135.2-63.53,135.2-63.53s20.88-37.59,31.74-34.25,15,5,15,5-23.39,0-15,6.69,32.58-8.36,32.58-8.36L583.71,90.69Z" style="fill:#ffa9ff"/><path d="M584.57,99.23c-12.82,5.65-18.38,23.18-39.29,32.45-61,27-137.51,73.48-148,79.5-17.17,9.87-30.23,17.9-41.59,26.71S284.55,257,287.45,267s26.63-7,3.34,15.87c-.33.33-.84.77-1.49,1.31-3.74,3.11-12.38,9.48-21.62,16.18l-7.42,5.35a56.82,56.82,0,0,0-6.3,13.45c-2,6.61-2,13.48,2.58,18.85a105.38,105.38,0,0,0,10.39,10.82h0c5.49,4.83,8,5.33,8,5.33s-2.36.79-5.74,2c-8.32,3-22.83,8.44-23.23,10.82-.55,3.35-4.45,12.26-9.46,15.6s-14.49,3.9-10,6.68,15,6.13,15,6.13-29,12.81-49.57,7.24c-12.27-3.32-30.86-13.55-44.37-21.87h0c-6.82-4.2-12.34-7.91-15.09-10h0a13.28,13.28,0,0,1-1.81-1.54,24.39,24.39,0,0,1-1.46-2.4h0c-2.88-5.1-8.9-16.92-13.62-27.26-3.71-8.1-6.63-15.3-6.63-17.67,0-6.13,7.8-40.1,9.47-44,1-2.25,6.4-11.21,10.81-18.36,3.22-5.22,5.9-9.49,5.9-9.49a26.94,26.94,0,0,0,.55,5c.68,3.19,2.2,6.74,5.58,6.74,6.12,0,18.93-2.79,23.95-2.79,4.06,0,23.51-4.76,30.72-6.55h0l2.69-.69,1.26.45h0l17.66,6.24.41-.17h0c3.86-1.63,7.87-3.35,11.93-5.13,8.09-3.53,16.41-7.26,24.23-10.78,20.15-9.05,37-16.71,38.41-16.08,3.41,1.54-9.32,17.92,8.78,10.52s68-35.27,77.63-45.69c5.48-5.92,73.1-41.89,130.38-71.79Z" style="fill:#fa2dab"/><path d="M221.45,275.31s20.88-10,30.91-13.36,12.53-10.86,21.72-10.86,25.06-7.52,25.06-7.52-34.25,22.56-31.74,27.57,14.2,8.35,14.2,8.35l-48.46,25.9Z" style="fill:#ff3ba7"/><path d="M255.28,306.09c-1.67,8.35-6.68,22.27-13.36,27.29s-13.37,17.82-15,26.17c-.33,1.65-1.74,3.74-3.8,6.05-.56.63-1.18,1.27-1.83,1.93-9.11,9.16-26.12,20.43-27.79,20.43-2.23,0-34.53-2.79-37.87-4.46s-13.37-3.9-17.27-6.68-18.93-22.28-19.49-23.95-3.34-12.81-3.34-12.81l1.11-8.35s-1.11-35.09,2.79-37.32c2.74-1.57,10.17-12.23,17.25-19.39,3-3,5.89-5.41,8.37-6.23s7.06-2.4,12.76-4.32c14.35-4.81,35.2-11.59,42.37-12.39,10-1.11,37.88,17.27,41.78,25.62S257,297.73,255.28,306.09Z" style="fill:#860051"/><path d="M241.5,295.78c-1.25,0-8.77-2.92-12.12-3.34-2.18-.27-6.33-5.91-8.95-9.78-1.38-2-2.32-3.59-2.32-3.59l5.84-2.5a61.66,61.66,0,0,0,6.27,2.5c1.67.42,4.59,5,7.52,7.11a11.07,11.07,0,0,1,3.16,4.8C241.85,293.42,242.2,295.78,241.5,295.78Z" style="fill:#15171d"/><path d="M221.25,367.53c-9.11,9.16-26.12,20.43-27.79,20.43-2.23,0-34.53-2.79-37.87-4.46s-13.37-3.9-17.27-6.68-18.93-22.28-19.49-23.95-3.34-12.81-3.34-12.81l1.11-8.35s-1.11-35.09,2.79-37.32c2.74-1.57,10.17-12.23,17.25-19.39,1.36,1.89,3,3.56,4.47,3.8,3.62.55,20.33-.84,20.33-.84l3.34,2.51L145,294.67s12.25,4.18,16.7,2.78,18.66-10.3,18.66-10.3,2.23.7,4.77,1.55c-4.77,2-7.81,5.44-6.92,7.86,1,2.6,6.07,3.11,11.4,1.14.39-.14.77-.29,1.13-.45-1.35,1.45-1.95,3-1.48,4.23.79,2.14,4.39,2.86,8.61,2,.54,1.42.87,2.37.87,2.37s0,1.39-2.78,1.95-5.85,1.67-5.29,3.62,1.11,7,3.9,7.52,9.46-2.79,10.58-.28,2,5,2,5l-2.23,3.06s5.29,15.32,8.07,15.6a7,7,0,0,0,5-2s.19.89.48,2.35a12.53,12.53,0,0,0-4,.81c-3.59,1.32-6,3.81-5.34,5.56s4.09,2.09,7.68.77a12.91,12.91,0,0,0,2.73-1.38,125.24,125.24,0,0,1,2,15.28A17.86,17.86,0,0,1,221.25,367.53Z" style="fill:#ff3ba7"/><path d="M241.5,295.78c-1.25,0-8.77-2.92-12.12-3.34-2.18-.27-6.33-5.91-8.95-9.78l5.57-2.38a63.14,63.14,0,0,0,6.26,2.51c1.67.42,4.6,5,7.52,7.1A5.73,5.73,0,0,1,240.9,291C241.85,293.42,242.2,295.78,241.5,295.78Z" style="fill:#791a55"/><path d="M178.62,284.27a13.21,13.21,0,0,1-1.59,2.88c-1.11,1.39-12.81,7-20.33,7-3.28,0-5.92.11-7.86.23-2.51.15-3.83.33-3.83.33l.55-1.11a11.34,11.34,0,0,1,4.18-3.63c2.51-1.11,6.22-6.77,7.89-7.05s10-2,11.7-2.6,7.14,1.3,9.09,1C179.56,281.14,179.28,282.68,178.62,284.27Z" style="fill:#15171d"/><path d="M178.62,284.27a13.21,13.21,0,0,1-1.59,2.88c-1.11,1.39-12.81,7-20.33,7-3.28,0-5.92.11-7.86.23a8.79,8.79,0,0,1,2.2-1.43c2.51-1.12,6.22-6.78,7.89-7.06s10-2,11.7-2.6C172.05,282.78,176.21,284,178.62,284.27Z" style="fill:#791a55"/><path d="M216,340.9c-4.18,2.22-9.47,2.5-14.2,2.22a19.32,19.32,0,0,1-6.78-1.9,23.18,23.18,0,0,1-2.69-1.44l-.28-2.23s10.3-11.13,14.76-12.25,15.59-2.23,16.71,2.51a6.41,6.41,0,0,1,.15,1.07C224,333.43,219.89,338.83,216,340.9Z" style="fill:#15171d"/><path d="M216,340.9c-4.18,2.22-9.47,2.5-14.2,2.22a19.32,19.32,0,0,1-6.78-1.9c2.3-2.71,10.06-11.63,13.83-12.58,3.52-.87,11.19-1.75,14.82.24C224,333.43,219.89,338.83,216,340.9Z" style="fill:#791a55"/><path d="M147.85,375.41l-.06,0c-1.67.28-10.58-9.47-12-10.86s-3.34-6.69-3.34-8.91c0-.32,0-.67,0-1.06.17-2.34.79-5.63.79-5.63s7.15,3.25,9.1,5.76,5.94,12.34,6.22,14S149.45,375,147.85,375.41Z" style="fill:#15171d"/><path d="M147.85,375.41l-.06,0c-1.67.28-10.58-9.47-12-10.86s-3.34-6.69-3.34-8.91c0-.32,0-.67,0-1.06,1,.47,7.17,3.4,9,5.7,2,2.5,5.94,12.34,6.22,14C147.74,374.6,147.8,375,147.85,375.41Z" style="fill:#791a55"/><path d="M255.25,306.09c-1.67,8.35-6.68,22.27-13.37,27.29s-13.36,17.82-15,26.17c-.33,1.65-1.74,3.74-3.8,6.05,2.13-8.88-1.22-13.87-1.22-18.86,0-5.84,15-7.51,4.6-49.7-7-28.07-44.39-32.66-68.69-32.59,14.35-4.81,35.2-11.59,42.37-12.39,10-1.11,37.88,17.27,41.77,25.62S256.92,297.73,255.25,306.09Z" style="fill:#ff65ce;opacity:0.5;mix-blend-mode:multiply"/><path d="M170.72,318.82c-1.11,3.05-3.8,6.6-7.6,9.65-6.52,5.22-13.8,7-16.27,3.88a4,4,0,0,1-.83-2.62c0-3.45,3.13-8.38,8.16-12.42,6.52-5.22,13.8-7,16.28-3.89C171.49,314.71,171.52,316.64,170.72,318.82Z" style="fill:#15171d"/><path d="M170.72,318.82c-1.11,3.05-3.8,6.6-7.6,9.65-6.52,5.22-13.8,7-16.27,3.88a4,4,0,0,1-.83-2.62c1.11-3,3.81-6.59,7.6-9.63,6.52-5.23,13.81-7,16.28-3.89A4,4,0,0,1,170.72,318.82Z" style="fill:#860051"/><path d="M140.59,307.9a29.1,29.1,0,0,1-2.11,7.24c-3.32,7.67-8.94,12.62-12.57,11.05-1.39-.59-2.28-2.06-2.67-4.09-.62-3.24.07-7.9,2.12-12.63,3.31-7.67,8.94-12.62,12.56-11.05C140.37,299.48,141.27,303.22,140.59,307.9Z" style="fill:#15171d"/><path d="M140.59,307.9a29.1,29.1,0,0,1-2.11,7.24c-3.32,7.67-8.94,12.62-12.57,11.05-1.39-.59-2.28-2.06-2.67-4.09a29.21,29.21,0,0,1,2.12-7.25c3.31-7.67,8.94-12.62,12.56-11.05C139.31,304.4,140.21,305.88,140.59,307.9Z" style="fill:#860051"/><path d="M178.76,377.12c-.8,3.06-3.91,5.46-7.77,5.72-4.18.27-7.82-2.07-8.71-5.41a5.61,5.61,0,0,1-.19-1.17c-.26-3.94,3.3-7.38,8-7.69s8.65,2.64,8.91,6.58A5.63,5.63,0,0,1,178.76,377.12Z" style="fill:#15171d"/><path d="M178.76,377.12c-.8,3.06-3.91,5.46-7.77,5.72-4.18.27-7.82-2.07-8.71-5.41.82-3.05,3.92-5.45,7.77-5.7C174.23,371.45,177.87,373.79,178.76,377.12Z" style="fill:#860051"/><path d="M202.62,365.42a11.19,11.19,0,0,1-5.25.73,2.82,2.82,0,0,1-2.43-1.49c-.64-1.75,1.75-4.24,5.34-5.57,3.31-1.22,6.49-1,7.47.39a1.38,1.38,0,0,1,.2.38C208.6,361.61,206.21,364.1,202.62,365.42Z" style="fill:#15171d"/><path d="M202.62,365.42a11.19,11.19,0,0,1-5.25.73,2,2,0,0,1-.2-.38c-.65-1.75,1.74-4.24,5.34-5.56a11,11,0,0,1,5.24-.73,1.38,1.38,0,0,1,.2.38C208.6,361.61,206.21,364.1,202.62,365.42Z" style="fill:#860051"/><path d="M559.5,114.6c-3.72,1.21-8,2.64-12.76,4.24-28.61,9.71-71.32,25.65-79,36.58-11.7,16.71-57.65,27.57-58.48,30.08s-71,34.25-71,34.25,66-42.6,71.84-45.11,66.84-35.09,91.07-44.28a379.53,379.53,0,0,0,35-15.76Z" style="fill:#ff3ba7"/><path d="M104.49,370.14s-18.38-30.5-17.55-56,5-35.92,9.61-39.26a27.31,27.31,0,0,1,10.86-4.18s-13.78,15.87-11.28,25.06,7.52,16.71,6.27,20.89-9.19,10.86-5.85,14.2,8.36,7.52,7.52,12.11-3.34,13.79-2.09,18S104.49,370.14,104.49,370.14Z" style="fill:#fff"/><path d="M151.27,409.4S185.6,420,206.91,421.09s45.21,1.72,47.89-3.44,2.61-19.46,2.61-19.46.17,5.9-11.78,11.28-15.13,0-22.51,2.09-21.51,4.31-22.75,4.17,1.35-8.26-8.89-6.89S151.27,409.4,151.27,409.4Z" style="fill:#fff"/><path d="M44.34,272.39l9.19-7.1s-7.94,15.46-6.27,28,5,28.4,4.6,33.41-.84,17.13,1.25,18,15.45-.84,18.38,20.88,5.43,34.67,5.43,34.67-28-43-34.67-68.5S44.34,272.39,44.34,272.39Z" style="fill:#fff"/><path d="M100.31,426.94s17.55-2.08,20.47,3.35,4.59,10.86,5.85,11.27,20.88,5.44,23.81,9.61S168,460.36,168,460.36s-8.35,3.34-15.45,1.67-31.75-19.63-42.61-25.9S100.31,426.94,100.31,426.94Z" style="fill:#fff"/><path d="M232.31,466.21s22.14-8.77,29.66-23.81S265.31,419,265.31,419,259.88,430.7,249,432.79c-7.17,1.38-6.69,11.7-6.69,11.7s-2.5,2.09-1.25,9.61-10.86,12.11-10.86,12.11Z" style="fill:#fff"/><path d="M33.2,397.57,45.45,384.2s-7.8,18.38,0,23.39,10.58,3.34,11.7,11.14,7.79,23.39,7.79,23.39S37.1,411.49,34.31,405.36,33.2,397.57,33.2,397.57Z" style="fill:#fff;opacity:0.65"/><path d="M169.09,507.84s14.49-2.23,20-2.78,20.61-3.34,22.28-.56,10-15,18.38-13.92,36.2-6.69,36.2-6.69-13.22,21.56-29.51,26.18C199.17,520.65,169.09,507.84,169.09,507.84Z" style="fill:#fff;opacity:0.65"/></g></g></g></g></svg>