<svg xmlns="http://www.w3.org/2000/svg" viewBox="0 0 136.92 136.92"><title>ball2</title><g style="isolation:isolate"><g id="Layer_2" data-name="Layer 2"><g id="Layer_1-2" data-name="Layer 1"><g id="Planet_3" data-name="Planet 3"><circle cx="68.46" cy="68.46" r="68.46" transform="translate(-13.9 119.36) rotate(-76.72)" style="fill:#ffb5ff;opacity:0.1"/><path d="M122.54,68.46a54.06,54.06,0,0,1-54.08,54.08h-.75a54.08,54.08,0,1,1,54.83-54.07Z" style="fill:#ffb2f3"/><path d="M122.54,68.46a53.81,53.81,0,0,1-10.37,31.86C101,90.44,91.07,79.09,90.86,70.1,90.53,56.5,102.75,42.67,110.92,35A53.86,53.86,0,0,1,122.54,68.46Z" style="fill:#ff7be2"/><path d="M67.71,122.53A54.08,54.08,0,0,1,16.87,84.75C29.08,82.59,54.35,82.67,65.73,116,66.51,118.27,67.17,120.46,67.71,122.53Z" style="fill:#ff7be2"/><path d="M66.58,75.44s13.11-1.94,17.48,9.71-1.46,16.51-5.34,16.51S61.24,92,61.24,92s-1.46-4.37,0-7.28S66.58,75.44,66.58,75.44Z" style="fill:#ff7be2"/><path d="M122.54,68.46a54.08,54.08,0,0,1-100.33,28A54.09,54.09,0,0,0,94,20.76,54.05,54.05,0,0,1,122.54,68.46Z" style="fill:#ff8ce2;mix-blend-mode:multiply"/><path d="M85.94,17.28a52.44,52.44,0,0,1-22.76,6.21,78.67,78.67,0,0,1-20.55-2.55,54.13,54.13,0,0,1,43.31-3.66Z" style="fill:#ff7be2"/><path d="M35.51,37.57S54,35.63,58.33,41s.48,19.42-3.4,23.79S36.48,70.59,33.08,66.7s-6.8-10.68-5.34-16S35.51,37.57,35.51,37.57Z" style="fill:#ff7be2"/><path d="M72.89,39s0,9.71,4.86,11.16,17-6.79,17.48-9.22-1.94-10.2-6.8-10.68-12.14-1.46-14.08,0S72.89,39,72.89,39Z" style="fill:#ff7be2"/><ellipse cx="46.38" cy="48.88" rx="21.73" ry="17.35" transform="translate(-20.88 44.85) rotate(-43.08)" style="fill:#ffbdff;opacity:0.5;mix-blend-mode:screen"/><ellipse cx="77.1" cy="56.57" rx="6.71" ry="5.35" transform="translate(-17.84 67.96) rotate(-43.11)" style="fill:#ffbdff;opacity:0.5;mix-blend-mode:screen"/></g></g></g></g></svg>