<svg xmlns="http://www.w3.org/2000/svg" viewBox="0 0 309.5 70.73"><title>main-logo-header</title><g id="Layer_2" data-name="Layer 2"><g id="Layer_1-2" data-name="Layer 1"><rect x="11.35" y="22.93" width="75.15" height="24.88" transform="translate(108.52 25.78) rotate(135)" style="fill:#414042"></rect><rect x="11.35" y="22.93" width="75.15" height="24.88" transform="translate(58.51 94.97) rotate(-135)" style="fill:#414042"></rect><path d="M260.84,31.29a4.28,4.28,0,0,0-2.85-1c-1,0-2,.35-2,1.32s1.27,1,2.53,1.11S262,33,262,35.05c0,1.8-1.59,2.52-3.44,2.52a5.73,5.73,0,0,1-4-1.59l.62-.7a4.9,4.9,0,0,0,3.45,1.41c1.31,0,2.4-.47,2.4-1.51s-1.18-1.33-2.49-1.43c-1.67-.1-3.56-.22-3.56-2s1.69-2.29,3.07-2.29a5.62,5.62,0,0,1,3.44,1.12Z" style="fill:#fff"></path><path d="M271.66,29.66v5c0,1.87-1.45,2.94-3.39,2.94s-3.38-1.07-3.38-2.94v-5h1v5a2.09,2.09,0,0,0,2.37,2c1.34,0,2.37-.72,2.37-2v-5Z" style="fill:#fff"></path><path d="M282.19,37.36V31.52h-.06l-2.78,4.69h-.22l-2.78-4.69h-.06v5.84h-1v-7.7h1.09l2.88,4.85h0l2.88-4.85h1v7.7Z" style="fill:#fff"></path><path d="M293.9,37.36V31.52h-.06l-2.79,4.69h-.21l-2.78-4.69H288v5.84h-1v-7.7h1.08L291,34.51h0l2.88-4.85h1v7.7Z" style="fill:#fff"></path><path d="M298.72,37.36v-7.7h1v7.7Z" style="fill:#fff"></path><path d="M302.49,29.66h7v.91h-3v6.79h-1V30.57h-3Z" style="fill:#fff"></path><path d="M109,46V22.25h.33V46Zm1,0V22.25h.33V46Zm1,0V22.25h.34V46Zm1,0V22.25h.34V46Zm1,0V22.25h.34V46Zm1,0V22.25h.34V46Zm1,0V22.25h.33V46Zm1,0V22.25h.33V46Zm1,0V22.35l.34.07V46Zm1,0V22.59l.34.06V46Zm1-.14V22.92l.34.17V45.75Zm1-.3v-22l.34.23V45.38Zm1-.54V24.27l.33.34v20.2Zm1-12V25.55l.33.51v6.41Zm0,11.22V33.51l.33.34V44Zm1-1v-8.6l.34.47v7.66Zm1-1.82V36.51a6.65,6.65,0,0,1,.34,1.28V40A8.32,8.32,0,0,1,124.14,41.37Z" style="fill:#ff009a"></path><path d="M128.62,41.23v-19H129V42Zm1,1.89V22.25H130V43.59Zm1,1.18v-22H131V44.57Zm1,.71V22.25H132v23Zm1,.51V22.25H133V45.68Zm1,.37V22.25H134V46Zm1,.2V22.25H135V46.09Zm1.05,0V22.25h.34V46.09Zm1-.1V22.25h.34V45.89Zm1-.31V22.25h.34V45.52Zm1-.43v-23h.34V45Zm1-.68V22.25h.33v22Zm1-1V22.25h.33V43.12Zm1-1.58V22.25h.34v19Z" style="fill:#ff009a"></path><path d="M147,22.75v-.33h4.59v.33Zm0,1v-.34h4.59v.34Zm0,1v-.34h4.59v.34Zm0,1v-.34h4.59v.34Zm0,1v-.34h4.59v.34Zm0,1v-.33h4.59v.33Zm0,1v-.33h4.59v.33Zm0,1V29.5h4.59v.34Zm0,1v-.34h4.59v.34Zm0,1v-.34h4.59v.34Zm0,1v-.34h4.59v.34Zm0,1v-.34h4.59v.34Zm0,1v-.33h4.59v.33Zm0,1v-.34h4.59v.34Zm0,1v-.34h4.59v.34Zm0,1v-.34h4.59v.34Zm0,1V38.6h4.59v.34Zm0,1v-.34h4.59V40Zm0,1v-.33h4.59V41Zm0,1v-.34h4.59V42Zm0,1v-.34h4.59V43Zm0,1v-.34h4.59V44Zm0,1v-.34h4.59V45Zm0,1v-.34h4.59V46Z" style="fill:#ff009a"></path><path d="M156.44,46V22.21h.34V46Zm1,0V22.21h.34V46Zm1,0V22.21h.34V46Zm1,0V22.21h.33V46Zm1,0V22.21h.34V46Zm1,0V22.21h.34V46Zm1,0V22.21h.34V46Zm1,0V22.21h.34V46Zm1,0V22.21h.34V46Zm1,0V22.21h.33V46Zm1,0V22.21h.34V46Zm1.35,0h-.34V41.33h.34Zm1,0h-.34V41.33h.34Zm1,0h-.34V41.33h.34Zm1,0h-.34V41.33h.34Zm1,0h-.33V41.33H172Z" style="fill:#ff009a"></path><path d="M175.36,22.15h.34V46.06h-.34Zm1,0h.34V46.06h-.34Zm1,0h.34V46.06h-.34Zm1,0h.34V46.06h-.34Zm1,0h.34V46l-.34,0Zm1,.07.33.07v23.5l-.33.07Zm1,.2.33.1V45.62l-.33.1Zm1,.27.34.14V45.31l-.34.1Zm1,.41.34.16V44.88l-.34.16Zm1,.5.34.24V44.34l-.34.2Zm1,.68.34.26v19l-.34.27Zm1,.8.33.38V42.72l-.33.3Zm1,1.12.33.4V41.54l-.33.4Zm1,1.41.34.68V39.88l-.34.58Zm1,2.26.34,1.32V37l-.34,1.39Z" style="fill:#ff009a"></path><path d="M193.67,22.89v-.34h15.54v.34Zm0,.91v-.34h15.54v.34Zm0,1v-.34h15.54v.34Zm0,1v-.33h15.54v.33Zm0,1V26.5h15.54v.33Zm0,1.12v-.34h9.71V28Zm0,1v-.34h9.71V29Zm0,1v-.34h9.71V30Zm0,1v-.34h9.71V31Zm0,1.25v-.34h9.71v.34Zm0,1V32.9h9.71v.34Zm0,1v-.33h9.71v.33Zm0,1v-.33h9.71v.33Zm0,1v-.34h9.71v.34Zm0,1.28v-.34h9.71v.34Zm0,1v-.34h9.71v.34Zm0,1v-.34h9.71v.34Zm0,1v-.33h9.71v.33Zm0,1.12v-.34h15.51v.34Zm0,.91v-.34h15.51v.34Zm0,1v-.34h15.51v.34Zm0,1V44.3h15.51v.34Zm0,1v-.34h15.51v.34Z" style="fill:#ff009a"></path><path d="M213.7,46V22.25H214V46Zm1,0V22.25H215V46Zm1,0V22.25h.34V46Zm1,0V22.25h.34V46Zm1,0V22.25h.34V46Zm1,0V22.25h.34V46Zm1,0V22.25h.33V46Zm1-9.61V22.25h.33V36.38Zm0,9.61v-8.9l.33.33V46Zm1-9.68v-14l.34.07V36.24Zm0,9.68V38.1l.34.33V46Zm1-9.88V22.59l.34.06V36Zm0,9.88V39.11l.34.34V46Zm1-10.29V22.92l.34.17V35.57Zm0,10.29V40.12l.34.34V46Zm1-10.83V23.5l.34.23v11.2Zm0,10.83V41.13l.34.34V46Zm1-11.67v-10l.33.34V34Zm0,11.67V42.14l.33.34V46Zm1-13V25.55l.33.51v6.41Zm0,13V43.16l.33.33V46Zm1,0V44.17l.34.33V46Zm1,0v-.81l.34.34V46Z" style="fill:#ff009a"></path><path d="M231.6,27.1v4.32l-.34-1.28V28.52Zm1-2v8.26l-.34-.44V25.62Zm1-1V34.59l-.33-.34V24.34Zm1-.77v12l-.34-.24V23.53Zm1-.51V35.91l-.34-.21V23Zm1-.3V36.21l-.34-.1V22.62Zm1-.14v14l-.34-.07v-14Zm.67,23.54V22.25h.34V45.92Zm1-.07V31.79l.33.07v14Zm1-.13V32l.33.1V45.62Zm1-.31V32.3l.34.2V45.25Zm1-.53v-12l.34.23v11.6Zm1-.78V33.58l.34.34v9.94Zm1-1.05V34.76l.34.47v7.35Zm1-1.95V36.78l.33,1.28v1.62Z" style="fill:#ff009a"></path><path d="M0,45.89V22.15H.37V45.89Zm1,0V22.15h.33V45.89Zm1,0V22.15h.33V45.89Zm1,0V22.15h.34V45.89Zm1,0V22.15h.34V45.89Zm1,0V22.15h.34V45.89Zm1,0V22.15h.34V45.89Zm1,0V22.15h.33V45.89Zm1,0V22.25l.33.07V45.89Zm1,0V22.48l.34.07V45.89Zm1-.14V22.82l.34.17V45.65Zm1-.3V23.4l.34.23V45.28Zm1-.54V24.17l.34.34v20.2Zm1-12V25.45l.34.51v6.4Zm0,11.23V33.41l.34.34V43.9Zm1-1v-8.6l.33.47v7.66Zm1-1.82V36.41a7.61,7.61,0,0,1,.34,1.28v2.16A8.32,8.32,0,0,1,15.21,41.27Z" style="fill:#ff009a"></path><path d="M19.62,45.89V22.15H20V45.89Zm1,0V22.15H21V45.89Zm1,0V22.15H22V45.89Zm1,0V22.15H23V45.89Zm1,0V22.15H24V45.89Zm1,0V22.15H25V45.89Zm1,0V22.15H26V45.89Zm1-9.61V22.15H27V36.28Zm0,9.61V37l.33.34v8.57Zm1-9.68v-14l.33.07V36.14Zm0,9.68V38l.33.33v7.56Zm1-9.88V22.48l.34.07V35.91Zm0,9.88V39l.34.34v6.54Zm1-10.29V22.82l.34.17V35.47Zm0,10.29V40l.34.34v5.53Zm1-10.83V23.4l.34.23v11.2Zm0,10.83V41l.34.34v4.52Zm1-11.67v-10l.34.34v9.37Zm0,11.67V42l.34.34v3.51Zm1-13V25.45l.33.51v6.4Zm0,13V43.05l.33.34v2.5Zm1,0V44.07l.33.33v1.49Zm1,0v-.81l.34.33v.48Z" style="fill:#ff009a"></path><path d="M38.57,41.13l.17-.33H58.5l.14.33Zm.51-1,.17-.34H58l.17.34Zm.51-1,.16-.34H57.49l.17.34Zm.5-1,.17-.34H57l.16.34Zm.51-1,.17-.34H56.48l.17.34Zm.5-1,.17-.33H56l.17.33Zm.48-1,.16-.33H55.47l.17.33Zm.5-1,.17-.34H55l.17.34Zm.51-1,.17-.34h11.7l.17.34Zm.5-1,.17-.34H54l.17.34Zm.51-1,.17-.34h9.68l.16.34Zm.5-1,.14-.33h8.7l.17.33Zm.51-1,.17-.33h7.65l.17.33Zm.51-1,.16-.34h6.65l.17.34Zm.5-1,.17-.34h5.63l.17.34Zm.51-1,.17-.34h4.62l.16.34Zm.5-1,.17-.34h3.61l.17.34Zm.51-1,.17-.33H49.9l.17.33Zm.51-1,.16-.33H49.4l.17.33Zm.5-1,.17-.34h.57l.17.34Z" style="fill:#ff009a"></path><path d="M63.56,45.89V22.15h.34V45.89Zm1,0V22.15h.34V45.89Zm1,0V22.15h.34V45.89Zm1,0V22.15h.34V45.89Zm1,0V22.15h.33V45.89Zm1,0V22.15H69V45.89Zm1,0V22.15H70V45.89Zm1,0V22.15H71V45.89Zm1,0V22.15H72V45.89Zm1,0V22.15H73V45.89Zm1,0V22.15H74V45.89Zm1,0V22.15H75V45.89Zm1,0V22.15H76V45.89Zm1,0V22.15h.34V45.89Z" style="fill:#ff009a"></path><path d="M81.94,22.05h.33V46h-.33Zm1,0h.33V46H83Zm1,0h.34V46H84Zm1,0h.34V46H85Zm1,0h.34V45.89l-.34,0Zm1,.07.34.06V45.72l-.34.07Zm1,.2.33.1V45.52l-.33.1Zm1,.27.33.13V45.21l-.33.1Zm1,.4.34.17V44.77l-.34.17Zm1,.51.34.24V44.23l-.34.21Zm1,.67.34.27v19l-.34.27Zm1,.81.34.37V42.62l-.34.3Zm1,1.12.33.4V41.44l-.33.4Zm1,1.41.33.68V39.78l-.33.58Zm1,2.26.34,1.32v5.76l-.34,1.39Z" style="fill:#ff009a"></path><path d="M9.68,45.92H0V41.23H8.67A2.4,2.4,0,0,0,11,38.77a2.35,2.35,0,0,0-2.33-2.39H4.89V31.56H7.15a2.4,2.4,0,0,0,2.46-2.4A2.32,2.32,0,0,0,7.35,26.8H0V22.11H7.15a7.09,7.09,0,0,1,7.22,7.05,7.18,7.18,0,0,1-1.25,4.05A7.26,7.26,0,0,1,9.68,45.92Z" style="fill:#fff"></path><path d="M29.13,45.92l-9.54-9.54V31.56h7.15a2.42,2.42,0,0,0,2.46-2.4,2.32,2.32,0,0,0-2.26-2.36H19.59V22.11h7.15A7.09,7.09,0,0,1,34,29.16a7.23,7.23,0,0,1-7.22,7.22h-.51l9.55,9.54Z" style="fill:#fff"></path><path d="M55.81,45.89,48.62,31.52,41.37,45.89H36.08l12.48-25s0-.07,0-.1L61,45.89Z" style="fill:#fff"></path><path d="M63.39,22.11h5.43l8.33,14.57v9.24Z" style="fill:#fff"></path><path d="M96.84,34A11.58,11.58,0,0,1,85,46l-3.13,0V41.27h2.86A7.21,7.21,0,0,0,92.19,34,7.09,7.09,0,0,0,84.9,26.7h-3V22h3.51C92.15,22,96.84,27.37,96.84,34Z" style="fill:#fff"></path><path d="M118.61,46h-9.68V41.33h8.67a2.4,2.4,0,0,0,2.29-2.46,2.34,2.34,0,0,0-2.32-2.39h-3.75V31.66h2.26a2.4,2.4,0,0,0,2.46-2.4,2.32,2.32,0,0,0-2.26-2.36h-7.35V22.21h7.15a7.09,7.09,0,0,1,7.22,7.05,7.18,7.18,0,0,1-1.25,4.05,7.34,7.34,0,0,1,2.6,5.56A7.25,7.25,0,0,1,118.61,46Z" style="fill:#fff"></path><path d="M135.4,46.19A7.23,7.23,0,0,1,128.19,39V22.21h4.68V39.08a2.5,2.5,0,0,0,5-.11h0V22.21h4.68V39A7.2,7.2,0,0,1,135.4,46.19Z" style="fill:#fff"></path><path d="M147,46V22.21h4.68V46Z" style="fill:#fff"></path><path d="M156.37,46V41.3h15.92V46Z" style="fill:#fff"></path><path d="M190.3,34.12a11.58,11.58,0,0,1-11.84,12c-1.05,0-2.09,0-3.14,0V41.37h2.87a7.21,7.21,0,0,0,7.45-7.29,7.09,7.09,0,0,0-7.28-7.28h-3V22.11h3.51C185.61,22.11,190.3,27.48,190.3,34.12Z" style="fill:#fff"></path><path d="M193.6,26.94V22.21h15.65v4.73Zm0,9.54V31.66h9.78v4.82Zm0,9.54V41.3h15.58V46Z" style="fill:#fff"></path><path d="M223.17,46l-9.54-9.54V31.66h7.15a2.42,2.42,0,0,0,2.46-2.4A2.32,2.32,0,0,0,221,26.9h-7.35V22.21h7.15A7.08,7.08,0,0,1,228,29.26a7.22,7.22,0,0,1-7.21,7.22h-.51L229.81,46Z" style="fill:#fff"></path><path d="M238.68,46.09h-.4V41.33A2.54,2.54,0,0,0,241,38.87a2.42,2.42,0,0,0-2.46-2.36,9.5,9.5,0,0,1-2.43-.4,7.14,7.14,0,0,1-5-6.85c0-4.31,3.4-7,7.55-7V26.9h-.2a2.39,2.39,0,0,0-2.6,2.36,2.61,2.61,0,0,0,2.7,2.43,8.4,8.4,0,0,1,2.06.3,7.2,7.2,0,0,1-2,14.1Z" style="fill:#fff"></path></g></g></svg>