<svg xmlns="http://www.w3.org/2000/svg" id="uuid-9214848e-b1ea-4416-8749-f5a8d859c0c0" viewBox="0 0 508.31 229.38"><defs><style>.uuid-3768768d-0ce0-4916-8dcf-b7956b590780{fill:#bcbec0;}</style></defs><g id="uuid-61ad00ed-3810-4546-a939-a0bd7bb3ec1e"><path class="uuid-3768768d-0ce0-4916-8dcf-b7956b590780" d="M44.63,229.02c-20.36-2.17-31.45-15.73-37.22-34.06-9.62-30.57-10.74-122.82,1.78-151.97,7.88-18.33,20.96-22.53,39.98-21.96,3.82.11,30.25,3.46,31.41,5.03.56.76-5.98,13.95-6.74,17.65-7.93,39.04,28.04,72.07,66.72,63.47,4.15-.92,16.49-7.54,17.44-7.49,2.3.13,6.24,22.28,6.47,25.36,4.75,63.35-39.83,99.81-99.87,103.95-5.44.38-14.68.56-19.98,0ZM33.65,179.28h35.46c2.85,0,12.55-4.79,15.21-6.74,25.54-18.71,13.16-66.89-20.21-66.89h-28.97l-1.5,1.49v72.13ZM120.55,158.38h36.46c2.14,0,1.6-8.52,1.38-10.34-3.41-28.26-45.25-30.31-53.13-4.39-8.14,26.81,15.96,44.85,40.5,34.37,3.2-1.37,14.15-10.28,11.75-13.66-.73-1.02-10.65-1.32-12.55-1.06-5.73.77-6.58,6.88-16.7,4.79-3.43-.71-10.44-7.01-7.72-9.72Z"/><path class="uuid-3768768d-0ce0-4916-8dcf-b7956b590780" d="M157.47,95.73c-.73-.5-12.82,6.2-16.29,7.1-44.04,11.32-75.79-30.17-58.78-71.48.49-1.19,1.99-2.25,2.18-2.81,1-2.92-4.14.39-2.82-3.8,1.98-6.31,18.22-17.83,24.55-20.32,61.22-24.08,105.76,56.55,52.69,94.26l-1.53-2.94ZM156.52,94.7c1.81,1.35,11.46-9.69,12.8-11.61,26.86-38.26-8.85-88.15-53.8-77.47-11.53,2.74-25.12,11.44-29.94,22.41,27.99,7.76,51.48,28.73,65.44,53.72,1.36,2.42,4.93,12.53,5.49,12.95Z"/><path class="uuid-3768768d-0ce0-4916-8dcf-b7956b590780" d="M259.89,184.25c1.21.36,2.37,3.75,4.19,4.78,11.55,6.6,21.66-5.05,18.27-16.72-1.54.32-1.49,2.03-3.21,3.25-17.22,12.23-35.53-2.74-35.52-21.67,0-22.59,20.23-37.67,38.25-20.4l.63-4.33,1.5-1.49,12.85-.14,2.06.93c-1.12,16.67,3.9,43.8-1.77,59.05-7.54,20.3-50.23,20.63-51.73-3.28h14.48ZM268.09,140.68c-11.59,2.58-10.9,28.2,4.51,26.48,16.58-1.86,13.25-30.44-4.51-26.48Z"/><path class="uuid-3768768d-0ce0-4916-8dcf-b7956b590780" d="M455.16,127.54l11.49,36.82,11.49-36.82h14.48l1.1,2.06c-1.56,3.11-2.07,6.57-3.14,9.84-4.35,13.31-14.1,43-20.64,54.06-4.87,8.25-14.19,9.83-23.32,8.7-6.12-.75-2.58-8.1-3.45-12.99,7.67.08,14.75,1.44,14.01-8.44-.62-8.33-11.28-29.73-14.46-39.35-1.45-4.37-3.14-9.31-3.54-13.89h15.98Z"/><path class="uuid-3768768d-0ce0-4916-8dcf-b7956b590780" d="M325.31,127.54v6.96c2.2-1.72,2.87-4.18,5.65-5.81,7.66-4.51,22.88-3.39,27.16,5.47,3.64,7.54,4.21,33.08,3.2,41.69-.12,1-.46,3.43-1.55,3.43h-15.48v-31.34c0-9.77-18.98-9.45-18.98,1.99v29.35h-15.98v-51.74h15.98Z"/><path class="uuid-3768768d-0ce0-4916-8dcf-b7956b590780" d="M194.46,142.46c-.58-.39.43-6.99-7.33-6.67-3.8.16-7.22,4.44-5.2,7.68,2.84,4.55,25.69,3.04,28.28,15.63,5.53,26.86-38.11,26.4-44.61,10.62-4.03-9.78,6.83-5.71,13.22-6.21,1.54.53,2.11,3.14,3.67,4.3,7.25,5.42,16.56-2.08,10.39-6.38-7.6-5.3-26.55-.88-27.43-17.52-1.31-24.72,42.54-22.61,44.81-5.68.17,1.24.17,4.22-1.32,4.22h-14.48Z"/><path class="uuid-3768768d-0ce0-4916-8dcf-b7956b590780" d="M420.2,161.86c1.49,7.01,10.92,3.08,12.55,5.41v11.07s-2.06.93-2.06.93c-6.45-.42-13.36,1.28-19.37-1.6-11.26-5.39-7.36-26.91-8.09-37.21h-5.5s-2.06-.93-2.06-.93l-.5-10.54,1.27-1.77,6.79-.68v-12.44s.93-2.05.93-2.05h15.11s.94,2.05.94,2.05v12.44s9.35.13,9.35.13l1.2.79.44,13h-10.99c.9,6.2-1.22,15.65,0,21.39Z"/><rect class="uuid-3768768d-0ce0-4916-8dcf-b7956b590780" x="219.43" y="127.54" width="15.98" height="51.74"/><polygon class="uuid-3768768d-0ce0-4916-8dcf-b7956b590780" points="386.24 127.54 386.24 179.28 370.26 179.28 370.26 129.03 371.76 127.54 386.24 127.54"/><ellipse class="uuid-3768768d-0ce0-4916-8dcf-b7956b590780" cx="378.61" cy="113.24" rx="10.11" ry="10.07"/><ellipse class="uuid-3768768d-0ce0-4916-8dcf-b7956b590780" cx="227.57" cy="113.25" rx="10.06" ry="10.02"/><path class="uuid-3768768d-0ce0-4916-8dcf-b7956b590780" d="M493.12,184.25l9.07,1.66.66,2.66c-2.13,3.45-2.04,5.3.26,8.62l-3.85-.15c-1.1-5.13-3.71-5.9-3.15.16h-2.99s0-12.94,0-12.94ZM496.11,187.24v2.99h4v-2.99h-4Z"/><path class="uuid-3768768d-0ce0-4916-8dcf-b7956b590780" d="M508.31,191.07c0,5.84-4.75,10.57-10.62,10.57s-10.62-4.73-10.62-10.57,4.75-10.57,10.62-10.57,10.62,4.73,10.62,10.57ZM493.12,184.25c-9.32,6.52-.76,18.93,7.78,15.17,1.3-.57,1.58-1.73,2.21-2.23.93-.74,2.36.85,2.91-3.55,1.07-8.65-5.44-14.59-12.89-9.38Z"/><path class="uuid-3768768d-0ce0-4916-8dcf-b7956b590780" d="M50.63,121.07l2.5-1.49c15.63-.99,27.82,6.65,27.54,23.39-.3,18.07-13.48,24.29-30.04,22.37v-44.27Z"/><path class="uuid-3768768d-0ce0-4916-8dcf-b7956b590780" d="M121.05,148.43l-1.11-2.06c1.59-5.51,6.05-10.02,12.05-9.9,8.54.17,12.48,11.96,9.03,11.96h-19.98Z"/></g></svg>