<svg xmlns="http://www.w3.org/2000/svg" id="uuid-0515d313-cb54-4fc1-82ca-72a449ee5250" viewBox="0 0 840 300"><defs><style>.uuid-7abe7a00-9fba-43e3-a28c-e6fb6e7df6ab{fill:#bcbec0;fill-rule:evenodd;}</style></defs><g id="uuid-b0d7b9ca-2774-4501-a794-0970f34da738"><g id="uuid-7b9964a1-bc2a-435e-9ffc-0f26863c03d5"><g id="uuid-a1ba6a50-fcd8-4351-928c-a56093f5fe89"><g id="uuid-c80c3f0e-8c06-47fa-8165-e0e62a733c9c"><path id="uuid-4d0b6d26-7273-4eba-9e96-e35442c963dd" class="uuid-7abe7a00-9fba-43e3-a28c-e6fb6e7df6ab" d="M244.11,166.23c3.11,3.16,7.07,4.74,11.87,4.74s8.76-1.58,11.92-4.74c3.15-3.15,4.74-7.21,4.74-12.16s-1.58-9.01-4.74-12.16c-3.16-3.16-7.13-4.74-11.92-4.74s-8.75,1.58-11.87,4.74c-3.12,3.15-4.68,7.21-4.68,12.16s1.56,9.01,4.68,12.16M258.85,122.42c8.07,0,14.96,3.06,20.68,9.17,5.71,6.11,8.57,13.61,8.57,22.47s-2.86,16.36-8.57,22.47c-5.72,6.11-12.61,9.17-20.68,9.17s-14.86-2.92-19.42-8.75v7.07h-15.46v-83.9h15.46v31.04c4.56-5.83,11.03-8.75,19.42-8.75"/><path id="uuid-3e3822dd-b836-4fa3-b047-b5897c6c9a6e" class="uuid-7abe7a00-9fba-43e3-a28c-e6fb6e7df6ab" d="M315.83,134.41c1.44-3.84,3.82-6.71,7.13-8.63,3.31-1.92,7.01-2.88,11.08-2.88v17.26c-4.71-.56-8.92.4-12.64,2.87-3.72,2.48-5.57,6.59-5.57,12.35v28.64h-15.46v-59.93h15.46v10.31Z"/><path id="uuid-0640af99-0b00-48e9-b035-3b0c3a7e5bda" class="uuid-7abe7a00-9fba-43e3-a28c-e6fb6e7df6ab" d="M360.58,166.23c3.12,3.16,7.07,4.74,11.87,4.74s8.76-1.58,11.92-4.74c3.16-3.15,4.74-7.21,4.74-12.16s-1.58-9.01-4.74-12.16c-3.16-3.16-7.13-4.74-11.92-4.74s-8.75,1.58-11.87,4.74c-3.11,3.15-4.68,7.21-4.68,12.16s1.56,9.01,4.68,12.16h0ZM389.11,124.11h15.46v59.93h-15.46v-7.07c-4.64,5.83-11.15,8.75-19.54,8.75s-14.85-3.05-20.56-9.17c-5.71-6.12-8.57-13.61-8.57-22.47s2.86-16.36,8.57-22.47c5.71-6.11,12.57-9.17,20.56-9.17,8.39,0,14.9,2.92,19.54,8.75v-7.07Z"/><polygon id="uuid-b9817341-b4ec-4f1e-a1c5-3bac07c90d1c" class="uuid-7abe7a00-9fba-43e3-a28c-e6fb6e7df6ab" points="458.93 124.11 475.95 124.11 453.18 184.03 435.56 184.03 412.79 124.11 429.81 124.11 444.33 166.05 458.93 124.11"/><path id="uuid-24bfa96d-0c45-457b-b498-99b70c681aa4" class="uuid-7abe7a00-9fba-43e3-a28c-e6fb6e7df6ab" d="M496.23,148.44h30.57c-.88-4.07-2.7-7.11-5.45-9.11-2.76-1.99-5.9-2.99-9.41-2.99-4.15,0-7.59,1.06-10.31,3.17-2.72,2.12-4.52,5.09-5.39,8.93h0ZM496.47,160.42c2.07,7.51,7.71,11.27,16.9,11.27,5.91,0,10.39-2,13.42-6l12.47,7.19c-5.92,8.55-14.63,12.83-26.13,12.83-9.91,0-17.86-3-23.85-8.99-5.99-5.99-8.99-13.55-8.99-22.65s2.96-16.56,8.87-22.6c5.91-6.03,13.51-9.05,22.77-9.05,8.79,0,16.04,3.04,21.76,9.11,5.71,6.07,8.57,13.59,8.57,22.54,0,1.99-.2,4.11-.6,6.35h-45.19Z"/><path id="uuid-b048c2cf-0a13-4d2c-a8a1-1e26d44bc3ab" class="uuid-7abe7a00-9fba-43e3-a28c-e6fb6e7df6ab" d="M620.03,122.37c6.87,0,12.36,2.24,16.48,6.71,4.12,4.47,6.17,10.47,6.17,17.97v36.92h-15.46v-35.84c0-3.6-.88-6.39-2.64-8.39-1.76-2-4.24-3-7.43-3-3.52,0-6.25,1.16-8.21,3.48-1.96,2.32-2.94,5.68-2.94,10.07v33.68h-15.46v-35.84c0-3.6-.88-6.39-2.64-8.39-1.76-2-4.23-3-7.43-3-3.44,0-6.17,1.16-8.21,3.48-2.04,2.32-3.06,5.68-3.06,10.07v33.68h-15.46v-59.93h15.46v6.35c3.6-5.35,9.15-8.03,16.66-8.03s12.78,2.88,16.3,8.63c4-5.75,9.95-8.63,17.86-8.63"/><path id="uuid-9660bd1a-0ccd-46ba-b2f6-930f4c9a9197" class="uuid-7abe7a00-9fba-43e3-a28c-e6fb6e7df6ab" d="M673.44,166.18c3.12,3.16,7.07,4.74,11.87,4.74s8.77-1.58,11.92-4.74c3.16-3.15,4.74-7.21,4.74-12.16s-1.58-9.01-4.74-12.16c-3.15-3.16-7.13-4.74-11.92-4.74s-8.75,1.58-11.87,4.74c-3.12,3.15-4.68,7.21-4.68,12.16s1.56,9.01,4.68,12.16h0ZM701.96,124.05h15.46v59.93h-15.46v-7.07c-4.64,5.84-11.14,8.75-19.54,8.75s-14.85-3.05-20.56-9.17c-5.71-6.12-8.57-13.61-8.57-22.47s2.86-16.36,8.57-22.47c5.71-6.11,12.57-9.17,20.56-9.17,8.39,0,14.9,2.92,19.54,8.75v-7.07Z"/><path id="uuid-8244917b-ee24-47c7-8768-0c00d19be9cc" class="uuid-7abe7a00-9fba-43e3-a28c-e6fb6e7df6ab" d="M747.73,134.36c1.44-3.84,3.82-6.71,7.13-8.63,3.31-1.92,7.01-2.88,11.08-2.88v17.26c-4.71-.56-8.92.4-12.64,2.87-3.72,2.48-5.57,6.59-5.57,12.35v28.64h-15.46v-59.93h15.46v10.31Z"/><polygon id="uuid-31865a5e-9978-464e-813b-86110457699f" class="uuid-7abe7a00-9fba-43e3-a28c-e6fb6e7df6ab" points="833.11 184.03 815.13 184.03 793.32 156.8 793.32 184.03 777.86 184.03 777.86 100.13 793.32 100.13 793.32 150.57 813.94 124.1 832.39 124.1 808.31 153.71 833.11 184.03"/></g><g id="uuid-eec7a6cf-df34-444c-bb3e-436581d56af7"><path id="uuid-4885b572-6a88-4a66-b3f9-8010df9f1ae0" class="uuid-7abe7a00-9fba-43e3-a28c-e6fb6e7df6ab" d="M82.01,80.41c1.8,0,4.44.03,7.16.07h.86s.86.03.86.03c2.85.05,5.6.12,7.33.21,1.12.06,1.85.59,1.77,1.25-1.61,11.42-7.01,16.83-7.97,27.22-.12,1.29,2.31,1.63,3.28.44.75-.93,1.54-1.87,2.38-2.85,7.29-8.48,13.54-17.78,18.31-21.95.84-.74,2.29-1.13,3.18-.87,5.11,1.54,12.34,4.5,16.12,6.89.53.33.35,1.04-.38,1.69-8.43,7.45-19.02,17.65-26.39,26.55-1.06,1.29.87,2.27,2.36,1.19,1.78-1.29,3.7-2.64,5.76-4.02,8.67-5.84,18.45-11.56,26.11-15.95,1.04-.6,2.18-.69,2.54-.2,2.1,2.88,3.79,6.09,5.16,9.57.21.55-.36,1.4-1.3,1.94-9.62,5.56-20.58,12.35-29.14,18.85.53.81,1.01,1.66,1.49,2.5,5.71-2.42,11.42-4.29,16.55-5.55,5.56-1.37,10.79-2.21,15.25-2.67.43.23.75.41,1.18.64.65,4.12,1.17,8.37,1.53,12.73.07.9-1.2,1.89-2.32,1.81-5.39-.36-16.68.26-27.81,5.05.11,1.64.03,3.28-.34,4.82,3.14-.43,6.23-.74,9.23-.78,5.45-.08,10.63.51,15.4,1.89,2.21.64,4.23,1.45,6.06,2.34.33.16.52.46.53.81.12,5.95.11,11.97.2,18,.02,1.22-1.77,1.78-2.53.81-2.47-3.13-6.49-6.86-12.69-8.87-6.7-2.16-14.77-1.95-23.45.02-.78,1.26-1.61,2.57-2.57,4.02-.13.69-.24,1.37-.36,2.06.63,3.25.95,5.61,1.24,7.92l.13,1.04c.16,1.28.33,2.58.55,4.04-.17.64-.33,1.26-.5,1.91-.04.04-.08.08-.12.12-4.06,4.4-13.05,4.84-19.35,1.14-2.5-1.48-5.17-3.06-8.47-5.09-1.57-.96-1.61-3.06-.12-4,4.24-2.66,7.43-4.85,11.4-7.84.46-.34.89-.65,1.37-1.02.84-.65,1.17-1.85.82-2.94-1.82-5.44-3.17-9.13-5.14-14.55-.49-1.34.17-2.85,1.43-3.35,6.85-2.69,10.5-4.18,15.9-6.37-1.75-2.89-2.82-4.39-4.6-6.75-.5-.65-1.31-1.02-2.09-.94-2.74.27-5.17.53-7.59.82-7.63.9-12.77,8.47-10.53,16.26,1.01,3.5,2.04,7.19,3.25,11.59.33,1.15-.28,2.55-1.34,3.04-3.49,1.6-5.87,2.59-9.91,4.34-4.12-1.75-6.51-2.73-9.99-4.34-1.07-.5-1.66-1.9-1.34-3.07,1.25-4.39,2.28-8.08,3.28-11.57,2.23-7.79-2.92-15.36-10.54-16.26-2.45-.29-4.89-.55-7.67-.83-.7-.07-1.55.28-2.02.92-1.74,2.37-2.79,3.88-4.62,6.78,1.8.73,3.42,1.39,5.02,2.04l.69.28c2.98,1.2,6.02,2.41,10.22,4.07,1.24.5,1.88,1.99,1.4,3.32-1.96,5.41-3.22,9.09-5.11,14.48-.36,1.03.01,2.43.82,3.04.44.34.82.61,1.24.93,4.02,3.03,7.22,5.23,11.5,7.91,1.49.93,1.45,3.02-.1,3.99-3.27,2.03-5.93,3.62-8.44,5.08-6.68,3.92-15.22,3.6-19.33-1.13-.03-.03-.07-.07-.1-.1-.19-.71-.37-1.38-.56-2.1.65-4.44.84-7.29,1.93-12.61-.11-.68-.27-1.67-.39-2.36-.93-1.42-1.73-2.71-2.5-3.95-8.64-1.94-16.69-2.15-23.36,0-6.24,2.02-10.26,5.76-12.73,8.91-.77.97-2.56.42-2.54-.8.09-6.04.09-12.08.21-18.03,0-.35.19-.64.52-.81,1.85-.91,3.88-1.71,6.11-2.36,4.76-1.38,9.94-1.97,15.4-1.89,2.99.03,6.06.34,9.18.77-.37-1.55-.43-3.19-.33-4.84-11.14-4.79-22.44-5.39-27.81-5.02-1.13.07-2.4-.92-2.33-1.82.37-4.37.89-8.61,1.53-12.73.43-.24.76-.41,1.19-.64,4.47.45,9.71,1.3,15.29,2.67,5.08,1.25,10.74,3.1,16.41,5.49.48-.85.97-1.71,1.51-2.53-8.55-6.5-19.47-13.26-29.05-18.79-.94-.54-1.52-1.39-1.3-1.94,1.37-3.49,3.06-6.69,5.16-9.57.36-.49,1.51-.4,2.54.2,7.66,4.38,17.46,10.11,26.15,15.96,2.07,1.39,3.98,2.72,5.76,4.02,1.49,1.08,3.42.1,2.35-1.18-7.37-8.92-17.98-19.13-26.4-26.57-.74-.65-.91-1.36-.39-1.69,3.8-2.38,12.33-5.74,17.44-7.28.89-.27,2.35.13,3.19.87,4.76,4.16,9.72,13.87,17.02,22.35.84.97,1.63,1.92,2.39,2.85.96,1.19,3.39.85,3.27-.44-.96-10.4-6.35-15.8-7.95-27.23-.09-.65.65-1.19,1.77-1.25,1.89-.1,5.01-.17,8.15-.22h.86c2.85-.05,5.62-.08,7.41-.08h.28ZM80.14,186.02c.98-.51,2.21-.51,3.19,0,3.89,2.04,8.16,4.64,13.03,8.1,1.98,1.52,3.03,3.22,2.8,5.18-.28,2.42-2.06,3.94-5.18,5.25-3.54,1.32-7.29,2.2-11.07,3.12-.76.18-1.59.18-2.35,0-3.79-.92-7.54-1.8-11.07-3.12-3.11-1.31-4.89-2.83-5.18-5.25-.22-1.97.82-3.66,2.81-5.19,4.87-3.46,9.13-6.07,13.03-8.1h0Z"/></g></g></g></g></svg>