<svg xmlns="http://www.w3.org/2000/svg" id="uuid-9f787c02-0103-4650-86e5-911f1eba7542" viewBox="0 0 485.19 140.87"><defs><style>.uuid-cdbddab9-34b4-42f8-b0b0-c1e7204d9a5c{fill:#bcbec0;}</style></defs><g id="uuid-07cca759-25dc-4559-b4bc-7046de5d0e33"><g id="uuid-48e0940a-9698-43ce-a1ec-ef6200650fc4"><path class="uuid-cdbddab9-34b4-42f8-b0b0-c1e7204d9a5c" d="M0,.19c14.92-1.74,30.61,8.67,37.99,21.19,1.45,2.46,5.37,11.13,5.37,13.38v106.06c-22.32,1.11-40.94-18.31-43.36-39.85V.19Z"/><path class="uuid-cdbddab9-34b4-42f8-b0b0-c1e7204d9a5c" d="M485.19,79.88v49.22c-20.88-2.73-12.33-29.31-14.04-43.97-1.62-13.9-19.95-8.78-19.95-2.32v46.29c-25.53-1.55-7.64-34.47-16.38-48.66-4.77-7.75-18.78-3.39-18.78,2.37v46.29c-5.35-.69-11.3-3.01-13.13-8.54-1.73-5.23-1.68-32.49-.65-38.65,3.09-18.45,30.2-27.49,41.33-10.26,12.65-16.56,34.91-9.54,41.6,8.22Z"/><path class="uuid-cdbddab9-34b4-42f8-b0b0-c1e7204d9a5c" d="M55.08,140.83V43.55c61.11,4.81,61.23,93.15,0,97.27Z"/><path class="uuid-cdbddab9-34b4-42f8-b0b0-c1e7204d9a5c" d="M155.87,70.51c29.38-24.26,69.7,9.04,52.95,42.99-15.79,32-67.01,18.03-67.01-14.27v-55.67c4.21-2.22,14.06,5.6,14.06,8.79v18.17ZM197.71,97.11c0-11.48-9.3-20.78-20.78-20.78s-20.78,9.3-20.78,20.78,9.3,20.78,20.78,20.78,20.78-9.3,20.78-20.78Z"/><path class="uuid-cdbddab9-34b4-42f8-b0b0-c1e7204d9a5c" d="M314.74,97.19c0,19.24-15.6,34.83-34.83,34.83s-34.83-15.6-34.83-34.83,15.6-34.83,34.83-34.83,34.83,15.6,34.83,34.83ZM302.25,97.15c0-11.49-9.32-20.81-20.81-20.81s-20.81,9.32-20.81,20.81,9.32,20.81,20.81,20.81,20.81-9.32,20.81-20.81Z"/><path class="uuid-cdbddab9-34b4-42f8-b0b0-c1e7204d9a5c" d="M392.35,97.27c0,19.24-15.59,34.83-34.83,34.83s-34.83-15.59-34.83-34.83,15.59-34.83,34.83-34.83,34.83,15.59,34.83,34.83ZM378.33,97.1c0-11.49-9.31-20.8-20.8-20.8s-20.8,9.31-20.8,20.8,9.31,20.8,20.8,20.8,20.8-9.31,20.8-20.8Z"/><path class="uuid-cdbddab9-34b4-42f8-b0b0-c1e7204d9a5c" d="M235.56,127.93c-4.21,2.22-14.06-5.6-14.06-8.79V43.55c4.81-1.56,14.06,7.57,14.06,11.13v73.25Z"/></g></g></svg>