<svg xmlns="http://www.w3.org/2000/svg" viewBox="0 0 337.59 304.89"><title>monocular</title><g id="Layer_2" data-name="Layer 2"><g id="Layer_1-2" data-name="Layer 1"><path d="M234.43,304.89a1.12,1.12,0,0,1-1.12-1.12V269a1.12,1.12,0,0,1,2.24,0v34.79A1.12,1.12,0,0,1,234.43,304.89Z" style="fill:#fff"/><path d="M251.82,287.49H217a1.12,1.12,0,1,1,0-2.23h34.79a1.12,1.12,0,1,1,0,2.23Z" style="fill:#fff"/><path d="M241.39,294.45a1.14,1.14,0,0,1-.79-.32L226.67,280.2a1.12,1.12,0,1,1,1.59-1.58l13.92,13.93a1.11,1.11,0,0,1,0,1.58A1.14,1.14,0,0,1,241.39,294.45Z" style="fill:#fff"/><path d="M227.46,294.45a1.16,1.16,0,0,1-.79-.32,1.13,1.13,0,0,1,0-1.58l13.93-13.93a1.12,1.12,0,1,1,1.58,1.58l-13.92,13.93A1.16,1.16,0,0,1,227.46,294.45Z" style="fill:#fff"/><polygon points="95.07 162.65 84.89 169.73 88.48 157.86 78.6 150.36 91 150.11 95.07 138.39 99.15 150.11 111.55 150.36 101.66 157.86 105.26 169.73 95.07 162.65" style="fill:#fff"/><path d="M105.26,170.85a1.13,1.13,0,0,1-.64-.2L95.07,164l-9.54,6.64a1.12,1.12,0,0,1-1.71-1.24l3.37-11.13-9.27-7a1.12,1.12,0,0,1,.65-2L90.2,149,94,138a1.12,1.12,0,0,1,1-.75,1.14,1.14,0,0,1,1.06.75L100,149l11.62.23a1.12,1.12,0,0,1,.66,2l-9.27,7,3.37,11.13a1.13,1.13,0,0,1-.42,1.23A1.1,1.1,0,0,1,105.26,170.85Zm-10.19-9.32a1.06,1.06,0,0,1,.64.2l7.55,5.25-2.67-8.8A1.12,1.12,0,0,1,101,157l7.32-5.56-9.19-.18a1.12,1.12,0,0,1-1-.75l-3-8.68-3,8.68a1.13,1.13,0,0,1-1,.75l-9.18.18L89.16,157a1.1,1.1,0,0,1,.39,1.21L86.89,167l7.55-5.25A1,1,0,0,1,95.07,161.53Z" style="fill:#fff"/><circle cx="149.61" cy="136.47" r="12.15" style="fill:#fff"/><path d="M149.59,149.74a13.3,13.3,0,1,1,1.62-.1A12.69,12.69,0,0,1,149.59,149.74Zm0-24.31a10.43,10.43,0,0,0-1.35.09,10.82,10.82,0,1,0,1.35-.09Z" style="fill:#fff"/><circle cx="227.32" cy="119.4" r="4.56" style="fill:#fff"/><path d="M227.31,125.08a5.68,5.68,0,1,1,5.65-6.36h0a5.7,5.7,0,0,1-5,6.32C227.77,125.06,227.54,125.08,227.31,125.08Zm0-9.12a3,3,0,0,0-.42,0,3.45,3.45,0,1,0,3.84,3h0A3.45,3.45,0,0,0,227.32,116Z" style="fill:#fff"/><circle cx="84.54" cy="108.92" r="4.56" style="fill:#fff"/><path d="M84.54,114.6a5.68,5.68,0,1,1,5.64-6.36h0a5.69,5.69,0,0,1-5,6.32A5.27,5.27,0,0,1,84.54,114.6Zm0-9.12-.41,0a3.45,3.45,0,1,0,3.83,3h0A3.44,3.44,0,0,0,84.54,105.48Z" style="fill:#fff"/><circle cx="202.74" cy="65.88" r="4.56" style="fill:#fff"/><path d="M202.73,71.56a5.68,5.68,0,1,1,5.65-6.36h0a5.7,5.7,0,0,1-5,6.32C203.19,71.54,203,71.56,202.73,71.56Zm0-9.12a3,3,0,0,0-.42,0,3.5,3.5,0,1,0,.42,0Z" style="fill:#fff"/><circle cx="330.46" cy="96.51" r="6.01" style="fill:#fff"/><path d="M330.45,103.63a7.09,7.09,0,1,1,.87,0A6.44,6.44,0,0,1,330.45,103.63Zm0-12a4,4,0,0,0-.6,0,4.89,4.89,0,1,0,1.18,9.7,4.89,4.89,0,0,0-.58-9.74Z" style="fill:#fff"/><circle cx="7.13" cy="132.14" r="6.01" style="fill:#fff"/><path d="M7.11,139.27A7.13,7.13,0,0,1,.05,133a7.14,7.14,0,0,1,6.22-7.93,7.14,7.14,0,0,1,7.93,6.22h0A7.14,7.14,0,0,1,8,139.22,8.46,8.46,0,0,1,7.11,139.27Zm0-12a5.83,5.83,0,0,0-.59,0A4.89,4.89,0,1,0,11,135.16a4.83,4.83,0,0,0,1-3.6h0A4.9,4.9,0,0,0,7.13,127.26Z" style="fill:#fff"/><circle cx="22.18" cy="180.58" r="4.56" style="fill:#fff"/><path d="M22.17,186.26a5.68,5.68,0,1,1,5.65-6.36h0a5.68,5.68,0,0,1-4.95,6.32A5.58,5.58,0,0,1,22.17,186.26Zm0-9.12-.42,0a3.44,3.44,0,1,0,3.83,3h0A3.44,3.44,0,0,0,22.19,177.14Z" style="fill:#fff"/><circle cx="120.7" cy="298.89" r="4.56" style="fill:#fff"/><path d="M120.7,304.57a5.68,5.68,0,1,1,5.68-5.68A5.68,5.68,0,0,1,120.7,304.57Zm0-9.12a3.45,3.45,0,1,0,3.45,3.44A3.45,3.45,0,0,0,120.7,295.45Z" style="fill:#fff"/><path d="M312.42,41.62a1.12,1.12,0,0,1-1.06-.79l-.56-1.78a1.12,1.12,0,1,1,2.13-.67l.56,1.78a1.11,1.11,0,0,1-.73,1.4A1,1,0,0,1,312.42,41.62Z" style="fill:#e93396"/><path d="M317.52,57.84a1.12,1.12,0,0,1-1.07-.78l-3.67-11.7a1.12,1.12,0,1,1,2.13-.67l3.68,11.7a1.12,1.12,0,0,1-.73,1.4A1,1,0,0,1,317.52,57.84Z" style="fill:#e93396"/><path d="M324.34,79.56a1.13,1.13,0,0,1-1.07-.78l-3.67-11.7a1.12,1.12,0,1,1,2.13-.67l3.68,11.7a1.13,1.13,0,0,1-.73,1.4A1.4,1.4,0,0,1,324.34,79.56Z" style="fill:#e93396"/><path d="M319.24,63.33a1.12,1.12,0,0,1-1.06-.78l-.56-1.79a1.12,1.12,0,0,1,2.13-.67l.56,1.79a1.11,1.11,0,0,1-.73,1.4A1.33,1.33,0,0,1,319.24,63.33Z" style="fill:#e93396"/><path d="M326.72,86a1.11,1.11,0,0,1-1.07-.78l-.56-1.79a1.12,1.12,0,0,1,2.13-.67l.56,1.79a1.11,1.11,0,0,1-.73,1.4A1,1,0,0,1,326.72,86Z" style="fill:#e93396"/><path d="M234.43,52.79a1.12,1.12,0,0,1-.41-2.16l1.91-.74a1.12,1.12,0,0,1,.81,2.08l-1.91.74A1,1,0,0,1,234.43,52.79Z" style="fill:#e93396"/><path d="M218.18,59.12a1.12,1.12,0,0,1-.41-2.16l11.43-4.45a1.12,1.12,0,1,1,.81,2.08l-11.43,4.46A1.12,1.12,0,0,1,218.18,59.12Z" style="fill:#e93396"/><path d="M212,61.53a1.12,1.12,0,0,1-.41-2.16l1.75-.68a1.12,1.12,0,1,1,.81,2.08l-1.74.68A1.24,1.24,0,0,1,212,61.53Z" style="fill:#e93396"/><path d="M255.8,44.46a1.12,1.12,0,0,1-.41-2.16l1.75-.68A1.12,1.12,0,1,1,258,43.7l-1.74.68A1,1,0,0,1,255.8,44.46Z" style="fill:#e93396"/><path d="M240.76,50.32a1.12,1.12,0,0,1-.4-2.16l10.35-4a1.12,1.12,0,0,1,.81,2.08l-10.35,4A1,1,0,0,1,240.76,50.32Z" style="fill:#e93396"/><path d="M262,42.06a1.12,1.12,0,0,1-.41-2.16L273,35.44a1.12,1.12,0,0,1,.81,2.09L262.38,42A1.24,1.24,0,0,1,262,42.06Z" style="fill:#e93396"/><path d="M283.18,33.79a1.13,1.13,0,0,1-1.05-.71,1.12,1.12,0,0,1,.64-1.45l11.42-4.45a1.12,1.12,0,1,1,.82,2.08l-11.43,4.45A1.14,1.14,0,0,1,283.18,33.79Z" style="fill:#e93396"/><path d="M277,36.19A1.12,1.12,0,0,1,276.6,34l1.75-.68a1.12,1.12,0,0,1,.81,2.09l-1.75.68A1.12,1.12,0,0,1,277,36.19Z" style="fill:#e93396"/><path d="M132.39,93.92a1.14,1.14,0,0,1-1-.74,1.12,1.12,0,0,1,.67-1.43l1.92-.7a1.12,1.12,0,0,1,.77,2.1l-1.92.7A1.34,1.34,0,0,1,132.39,93.92Z" style="fill:#e93396"/><path d="M116,99.89a1.12,1.12,0,0,1-.38-2.17l11.52-4.2a1.12,1.12,0,0,1,.76,2.1l-11.52,4.2A1,1,0,0,1,116,99.89Z" style="fill:#e93396"/><path d="M109.79,102.16a1.1,1.1,0,0,1-1.05-.74,1.12,1.12,0,0,1,.67-1.43l1.76-.64a1.12,1.12,0,0,1,.76,2.1l-1.76.64A1,1,0,0,1,109.79,102.16Z" style="fill:#e93396"/><path d="M94.63,107.69a1.12,1.12,0,0,1-.39-2.17l10.44-3.81a1.12,1.12,0,0,1,.77,2.11L95,107.62A1.06,1.06,0,0,1,94.63,107.69Z" style="fill:#e93396"/><path d="M154,86.06a1.12,1.12,0,0,1-.39-2.17l1.76-.64a1.12,1.12,0,1,1,.77,2.1l-1.76.64A1.06,1.06,0,0,1,154,86.06Z" style="fill:#e93396"/><path d="M138.78,91.59a1.14,1.14,0,0,1-1.05-.74,1.12,1.12,0,0,1,.67-1.43l10.44-3.81a1.12,1.12,0,1,1,.76,2.1l-10.43,3.81A1.34,1.34,0,0,1,138.78,91.59Z" style="fill:#e93396"/><path d="M160.17,83.79a1.12,1.12,0,0,1-.39-2.17l11.52-4.2a1.13,1.13,0,0,1,1.44.67,1.12,1.12,0,0,1-.67,1.43l-11.52,4.2A1.06,1.06,0,0,1,160.17,83.79Z" style="fill:#e93396"/><path d="M181.55,76a1.11,1.11,0,0,1-1.05-.73,1.12,1.12,0,0,1,.66-1.44l11.53-4.2a1.12,1.12,0,1,1,.76,2.1l-11.52,4.2A1.06,1.06,0,0,1,181.55,76Z" style="fill:#e93396"/><path d="M175.33,78.26a1.12,1.12,0,0,1-.39-2.17l1.76-.64a1.12,1.12,0,1,1,.77,2.1l-1.76.64A1.06,1.06,0,0,1,175.33,78.26Z" style="fill:#e93396"/><path d="M34.53,125.47a1.11,1.11,0,0,1-.33-2.18l1.79-.55a1.12,1.12,0,1,1,.65,2.14l-1.79.54A.93.93,0,0,1,34.53,125.47Z" style="fill:#e93396"/><path d="M19.09,130.2a1.12,1.12,0,0,1-.32-2.19l10.62-3.25A1.12,1.12,0,0,1,30,126.9l-10.62,3.25A1.26,1.26,0,0,1,19.09,130.2Z" style="fill:#e93396"/><path d="M40.86,123.53a1.11,1.11,0,0,1-.33-2.18l11.72-3.59a1.12,1.12,0,1,1,.66,2.14l-11.73,3.59A1.22,1.22,0,0,1,40.86,123.53Z" style="fill:#e93396"/><path d="M62.62,116.87a1.12,1.12,0,0,1-.33-2.19L74,111.09a1.12,1.12,0,0,1,.65,2.14L63,116.82A1.26,1.26,0,0,1,62.62,116.87Z" style="fill:#e93396"/><path d="M56.29,118.81a1.12,1.12,0,0,1-.33-2.19l1.79-.55a1.13,1.13,0,0,1,1.4.75,1.11,1.11,0,0,1-.74,1.39l-1.79.55A1.26,1.26,0,0,1,56.29,118.81Z" style="fill:#e93396"/><path d="M17.79,173.75a1.11,1.11,0,0,1-1.09-.88l-2.17-10a1.12,1.12,0,1,1,2.18-.47l2.17,10a1.12,1.12,0,0,1-.85,1.33Z" style="fill:#e93396"/><path d="M14.61,159.17a1.12,1.12,0,0,1-1.09-.88l-.4-1.84a1.12,1.12,0,1,1,2.19-.47l.4,1.83a1.13,1.13,0,0,1-.86,1.33A1,1,0,0,1,14.61,159.17Z" style="fill:#e93396"/><path d="M13.14,152.42a1.13,1.13,0,0,1-1.09-.88L10.2,143a1.12,1.12,0,0,1,2.18-.48l1.86,8.53a1.11,1.11,0,0,1-.86,1.33A1,1,0,0,1,13.14,152.42Z" style="fill:#e93396"/><path d="M254.79,115.05a1.12,1.12,0,0,1-.23-2.21l2-.42a1.11,1.11,0,1,1,.46,2.18l-2,.42Z" style="fill:#e93396"/><path d="M237.72,118.63a1.12,1.12,0,0,1-.23-2.21l12-2.52a1.12,1.12,0,1,1,.46,2.19l-12,2.52Z" style="fill:#e93396"/><path d="M277.24,110.33a1.12,1.12,0,0,1-.23-2.21l1.83-.38a1.12,1.12,0,1,1,.46,2.19l-1.83.38A.93.93,0,0,1,277.24,110.33Z" style="fill:#e93396"/><path d="M261.44,113.65a1.12,1.12,0,0,1-.22-2.21l10.87-2.28a1.11,1.11,0,1,1,.45,2.18l-10.87,2.29Z" style="fill:#e93396"/><path d="M283.72,109a1.12,1.12,0,0,1-.23-2.21l12-2.52a1.12,1.12,0,0,1,.46,2.19L284,109A.93.93,0,0,1,283.72,109Z" style="fill:#e93396"/><path d="M306,104.3a1.12,1.12,0,0,1-.23-2.21l12-2.52a1.11,1.11,0,1,1,.46,2.18l-12,2.52A.85.85,0,0,1,306,104.3Z" style="fill:#e93396"/><path d="M299.51,105.66a1.12,1.12,0,0,1-.23-2.21l1.84-.39a1.12,1.12,0,0,1,.46,2.19l-1.84.38A.85.85,0,0,1,299.51,105.66Z" style="fill:#e93396"/><path d="M169.66,177.94a1.12,1.12,0,0,1-1-.57l-1-1.79a1.12,1.12,0,1,1,2-1.08l1,1.78a1.12,1.12,0,0,1-.44,1.52A1.06,1.06,0,0,1,169.66,177.94Z" style="fill:#e93396"/><path d="M166.16,171.63a1.13,1.13,0,0,1-1-.58l-5.94-10.72a1.12,1.12,0,0,1,.44-1.52,1.1,1.1,0,0,1,1.51.43L167.14,170a1.12,1.12,0,0,1-.44,1.52A1.17,1.17,0,0,1,166.16,171.63Z" style="fill:#e93396"/><path d="M157.92,156.75a1.11,1.11,0,0,1-1-.58l-.91-1.64a1.12,1.12,0,1,1,2-1.08l.9,1.64a1.12,1.12,0,0,1-.43,1.52A1.17,1.17,0,0,1,157.92,156.75Z" style="fill:#e93396"/><path d="M180.7,197.86a1.11,1.11,0,0,1-1-.58l-.91-1.63a1.12,1.12,0,0,1,1.95-1.09l.91,1.64a1.12,1.12,0,0,1-.43,1.52A1.09,1.09,0,0,1,180.7,197.86Z" style="fill:#e93396"/><path d="M177.35,191.82a1.12,1.12,0,0,1-1-.58L171,181.53a1.12,1.12,0,1,1,1.95-1.09l5.39,9.72a1.12,1.12,0,0,1-.44,1.52A1.06,1.06,0,0,1,177.35,191.82Z" style="fill:#e93396"/><path d="M188.94,212.74a1.13,1.13,0,0,1-1-.58L182,201.44a1.12,1.12,0,1,1,1.95-1.09l5.95,10.73a1.12,1.12,0,0,1-.44,1.52A1.17,1.17,0,0,1,188.94,212.74Z" style="fill:#e93396"/><path d="M200,232.65a1.13,1.13,0,0,1-1-.58l-5.94-10.73a1.1,1.1,0,0,1,.43-1.51,1.12,1.12,0,0,1,1.52.43L201,231a1.12,1.12,0,0,1-.44,1.52A1.17,1.17,0,0,1,200,232.65Z" style="fill:#e93396"/><path d="M191.73,217.77a1.11,1.11,0,0,1-1-.58l-.91-1.64a1.12,1.12,0,1,1,2-1.08l.9,1.64a1.12,1.12,0,0,1-.43,1.52A1.17,1.17,0,0,1,191.73,217.77Z" style="fill:#e93396"/><path d="M215.13,260.05a1.11,1.11,0,0,1-1-.57l-1-1.79a1.12,1.12,0,0,1,.44-1.52,1.11,1.11,0,0,1,1.51.44l1,1.78a1.13,1.13,0,0,1-.44,1.52A1.06,1.06,0,0,1,215.13,260.05Z" style="fill:#e93396"/><path d="M211.63,253.74a1.12,1.12,0,0,1-1-.58l-5.94-10.73a1.1,1.1,0,0,1,.43-1.51,1.12,1.12,0,0,1,1.52.43l6,10.73a1.12,1.12,0,0,1-.44,1.52A1.17,1.17,0,0,1,211.63,253.74Z" style="fill:#e93396"/><path d="M203.39,238.86a1.11,1.11,0,0,1-1-.58l-.91-1.64a1.11,1.11,0,1,1,1.95-1.08l.91,1.64a1.12,1.12,0,0,1-.43,1.52A1.21,1.21,0,0,1,203.39,238.86Z" style="fill:#e93396"/><path d="M222.82,273.93a1.11,1.11,0,0,1-1-.58l-5.38-9.71a1.12,1.12,0,0,1,1.95-1.09l5.38,9.72a1.12,1.12,0,0,1-.43,1.52A1.17,1.17,0,0,1,222.82,273.93Z" style="fill:#e93396"/><path d="M141.83,180.6l-.2,0a1.12,1.12,0,0,1-.9-1.3l.35-2a1.12,1.12,0,1,1,2.2.39l-.35,2A1.13,1.13,0,0,1,141.83,180.6Z" style="fill:#e93396"/><path d="M143.08,173.48h-.2a1.12,1.12,0,0,1-.9-1.3l2.12-12.08a1.12,1.12,0,0,1,1.3-.9,1.1,1.1,0,0,1,.9,1.29l-2.12,12.08A1.12,1.12,0,0,1,143.08,173.48Z" style="fill:#e93396"/><path d="M146,156.73a.68.68,0,0,1-.2,0,1.1,1.1,0,0,1-.9-1.29l.32-1.85a1.12,1.12,0,0,1,1.3-.9,1.11,1.11,0,0,1,.9,1.29l-.32,1.85A1.12,1.12,0,0,1,146,156.73Z" style="fill:#e93396"/><path d="M137.88,203l-.19,0a1.11,1.11,0,0,1-.91-1.29l.32-1.85a1.12,1.12,0,0,1,2.21.39L139,202.1A1.12,1.12,0,0,1,137.88,203Z" style="fill:#e93396"/><path d="M139.08,196.22l-.2,0a1.11,1.11,0,0,1-.9-1.29L139.9,184a1.12,1.12,0,1,1,2.2.39l-1.92,10.93A1.12,1.12,0,0,1,139.08,196.22Z" style="fill:#e93396"/><path d="M134.93,219.77a.62.62,0,0,1-.19,0,1.11,1.11,0,0,1-.91-1.29L136,206.38a1.12,1.12,0,0,1,2.2.39L136,218.85A1.11,1.11,0,0,1,134.93,219.77Z" style="fill:#e93396"/><path d="M131,242.19l-.2,0a1.12,1.12,0,0,1-.91-1.29L132,228.8a1.12,1.12,0,1,1,2.2.39l-2.12,12.07A1.12,1.12,0,0,1,131,242.19Z" style="fill:#e93396"/><path d="M133.94,225.43h-.2a1.13,1.13,0,0,1-.91-1.3l.33-1.84a1.12,1.12,0,1,1,2.2.39l-.32,1.84A1.12,1.12,0,0,1,133.94,225.43Z" style="fill:#e93396"/><path d="M125.54,273l-.2,0a1.12,1.12,0,0,1-.91-1.29l.36-2a1.12,1.12,0,0,1,2.2.39l-.36,2A1.1,1.1,0,0,1,125.54,273Z" style="fill:#e93396"/><path d="M126.79,265.92l-.2,0a1.13,1.13,0,0,1-.91-1.3l2.13-12.07a1.12,1.12,0,1,1,2.2.38L127.89,265A1.13,1.13,0,0,1,126.79,265.92Z" style="fill:#e93396"/><path d="M129.74,249.16h-.2a1.13,1.13,0,0,1-.91-1.3L129,246a1.12,1.12,0,1,1,2.2.38l-.32,1.85A1.12,1.12,0,0,1,129.74,249.16Z" style="fill:#e93396"/><path d="M122.79,288.65a.68.68,0,0,1-.2,0,1.11,1.11,0,0,1-.91-1.29l1.93-10.94a1.12,1.12,0,1,1,2.2.39l-1.93,10.94A1.1,1.1,0,0,1,122.79,288.65Z" style="fill:#e93396"/><path d="M91.72,135.06a1.12,1.12,0,0,1-1.07-.81l-.52-1.8a1.12,1.12,0,0,1,2.15-.61l.52,1.8A1.11,1.11,0,0,1,92,135,1.06,1.06,0,0,1,91.72,135.06Z" style="fill:#e93396"/><path d="M89.82,128.43a1.11,1.11,0,0,1-1.07-.81l-2.53-8.8a1.12,1.12,0,0,1,2.15-.62L90.9,127a1.14,1.14,0,0,1-1.08,1.43Z" style="fill:#e93396"/><path d="M208.72,78a1.12,1.12,0,0,1-1-.69L207,75.54a1.12,1.12,0,0,1,2.06-.86l.73,1.73a1.13,1.13,0,0,1-.6,1.46A1.15,1.15,0,0,1,208.72,78Z" style="fill:#e93396"/><path d="M215.29,93.65a1.13,1.13,0,0,1-1-.68l-4.73-11.32a1.12,1.12,0,0,1,2.07-.86l4.73,11.31a1.13,1.13,0,0,1-.6,1.47A1.09,1.09,0,0,1,215.29,93.65Z" style="fill:#e93396"/><path d="M222.79,111.6a1.11,1.11,0,0,1-1-.69l-3.46-8.26a1.12,1.12,0,0,1,2.07-.86l3.45,8.26a1.12,1.12,0,0,1-1,1.55Z" style="fill:#e93396"/><path d="M217.5,99a1.12,1.12,0,0,1-1-.69l-.72-1.73a1.12,1.12,0,0,1,2.06-.86l.72,1.73a1.11,1.11,0,0,1-.6,1.46A1.07,1.07,0,0,1,217.5,99Z" style="fill:#e93396"/><path d="M45.47,175.18a1.1,1.1,0,0,1-1-.74,1.12,1.12,0,0,1,.67-1.43l1.76-.64a1.12,1.12,0,0,1,.76,2.1l-1.76.64A1,1,0,0,1,45.47,175.18Z" style="fill:#e93396"/><path d="M32.22,180a1.1,1.1,0,0,1-1-.74,1.12,1.12,0,0,1,.67-1.43l8.52-3.09a1.12,1.12,0,1,1,.76,2.1l-8.52,3.09A1,1,0,0,1,32.22,180Z" style="fill:#e93396"/><path d="M51.69,172.92a1.12,1.12,0,0,1-.38-2.17l11.53-4.18a1.12,1.12,0,1,1,.76,2.1l-11.53,4.19A1.21,1.21,0,0,1,51.69,172.92Z" style="fill:#e93396"/><path d="M73.09,165.16a1.1,1.1,0,0,1-1-.74,1.12,1.12,0,0,1,.67-1.43l8.73-3.17a1.12,1.12,0,1,1,.77,2.1l-8.74,3.17A1.06,1.06,0,0,1,73.09,165.16Z" style="fill:#e93396"/><path d="M66.86,167.42a1.12,1.12,0,0,1-.38-2.17l1.76-.64a1.12,1.12,0,1,1,.77,2.1l-1.76.64A1.07,1.07,0,0,1,66.86,167.42Z" style="fill:#e93396"/><path d="M114.87,148.19a1.12,1.12,0,0,1-.34-2.19l11.66-3.76a1.11,1.11,0,1,1,.69,2.12l-11.67,3.77A1,1,0,0,1,114.87,148.19Z" style="fill:#e93396"/><path d="M130.23,143.23a1.12,1.12,0,0,1-.35-2.19l1.79-.57a1.11,1.11,0,1,1,.68,2.12l-1.78.58A1,1,0,0,1,130.23,143.23Z" style="fill:#e93396"/><path d="M180.51,131a1.12,1.12,0,0,1-.24-2.21l1.83-.4a1.12,1.12,0,0,1,.48,2.18l-1.83.4A1,1,0,0,1,180.51,131Z" style="fill:#e93396"/><path d="M167.29,134a1.12,1.12,0,0,1-.24-2.21l8.31-1.84a1.12,1.12,0,0,1,.48,2.19l-8.31,1.83A1,1,0,0,1,167.29,134Z" style="fill:#e93396"/><path d="M187,129.6a1.12,1.12,0,0,1-.24-2.21l12-2.64a1.12,1.12,0,0,1,.48,2.19l-12,2.64A1,1,0,0,1,187,129.6Z" style="fill:#e93396"/><path d="M209.2,124.7a1.12,1.12,0,0,1-.24-2.21l8.47-1.87a1.12,1.12,0,0,1,.48,2.19l-8.46,1.87Z" style="fill:#e93396"/><path d="M202.74,126.13a1.12,1.12,0,0,1-.24-2.21l1.83-.41a1.12,1.12,0,0,1,.48,2.19l-1.83.4A1,1,0,0,1,202.74,126.13Z" style="fill:#e93396"/><path d="M310,31.7,291.56,44.9a.49.49,0,0,1-.7-.66l11.61-18.85L287.86,10.48a.49.49,0,0,1,.52-.8l16.37,6.11L309.54.35a.49.49,0,0,1,.94,0l4.79,15.44,16.37-6.11a.49.49,0,0,1,.52.8L317.54,25.39l11.62,18.85a.49.49,0,0,1-.7.66Z" style="fill:#fff"/></g></g></svg>