<svg xmlns="http://www.w3.org/2000/svg" viewBox="0 0 91.96 95.89"><title>box-5-icon</title><g id="Layer_2" data-name="Layer 2"><g id="Layer_1-2" data-name="Layer 1"><path d="M46.25,87.73a2,2,0,0,1-2-2v-18a2,2,0,1,1,4.07,0v18A2,2,0,0,1,46.25,87.73Z"/><path d="M46.25,14.85a2,2,0,0,1-2-2V10.19a2,2,0,1,1,4.07,0v2.62A2,2,0,0,1,46.25,14.85Z"/><path d="M46.25,12.23a6.12,6.12,0,1,1,6.12-6.11A6.12,6.12,0,0,1,46.25,12.23Zm0-8.15a2,2,0,1,0,2,2A2,2,0,0,0,46.25,4.08Z"/><path d="M46.25,95.89a6.12,6.12,0,1,1,6.12-6.12A6.12,6.12,0,0,1,46.25,95.89Zm0-8.16a2,2,0,1,0,2,2A2,2,0,0,0,46.25,87.73Z"/><path d="M34.61,33.89A2,2,0,0,1,33,33.05l-10.6-14.6a2,2,0,1,1,3.29-2.39L36.26,30.65a2,2,0,0,1-1.65,3.24Z"/><path d="M68.39,80.38a2.06,2.06,0,0,1-1.66-.85L65.2,77.42A2,2,0,1,1,68.49,75L70,77.14a2,2,0,0,1-1.64,3.24Z"/><path d="M70.79,87.75a6.14,6.14,0,0,1-5-2.52h0a6.12,6.12,0,1,1,5,2.52Zm-1.66-4.92A2,2,0,1,0,69.58,80a2,2,0,0,0-.45,2.84Z"/><path d="M21.62,20.07A6.11,6.11,0,0,1,18,9a6.11,6.11,0,1,1,3.61,11.06Zm0-8.15a2,2,0,0,0-1.19.39,2,2,0,1,0,2.85.45,2.07,2.07,0,0,0-1.33-.82A1.83,1.83,0,0,0,21.6,11.92Z"/><path d="M82,61.42a2,2,0,0,1-.63-.11L64.17,55.74a2,2,0,0,1,1.26-3.88l17.16,5.58a2,2,0,0,1-.63,4Z"/><path d="M12.64,38.89a2,2,0,0,1-.63-.1L9.52,38a2,2,0,0,1,1.26-3.87l2.49.8a2,2,0,0,1-.63,4Z"/><path d="M6.27,40.9A6.12,6.12,0,1,1,8.17,29h0A6.12,6.12,0,0,1,6.27,40.9Zm0-8.15a2,2,0,1,0,.63.1A2,2,0,0,0,6.28,32.75Z"/><path d="M85.85,66.75a6.18,6.18,0,0,1-1.9-.3,6.11,6.11,0,0,1,3.78-11.63h0a6.12,6.12,0,0,1-1.88,11.93Zm0-8.15a2,2,0,0,0-.93.22A2,2,0,0,0,84,61.56a2,2,0,0,0,2.74.89,2,2,0,0,0-.29-3.75h0A2,2,0,0,0,85.84,58.6Z"/><path d="M10,61.43a2,2,0,0,1-.63-4l17.17-5.58a2,2,0,0,1,1.25,3.88L10.62,61.33A2.24,2.24,0,0,1,10,61.43Z"/><path d="M79.31,38.9a2,2,0,0,1-.63-4l2.49-.81A2,2,0,1,1,82.43,38l-2.49.81A2,2,0,0,1,79.31,38.9Z"/><path d="M85.67,40.91a6.12,6.12,0,1,1,1.9-.3A6.18,6.18,0,0,1,85.67,40.91Zm0-8.15a2,2,0,0,0-.63.1,2,2,0,0,0-.3,3.75,2,2,0,0,0,1.56.12h0a2,2,0,0,0,1.19-1A2,2,0,0,0,86.6,33,2,2,0,0,0,85.68,32.76Z"/><path d="M6.12,66.76A6.11,6.11,0,1,1,8,66.46H8A5.92,5.92,0,0,1,6.12,66.76Zm1.26-2.24ZM6.12,58.61a2,2,0,0,0-.63.1,2,2,0,1,0,.63-.1Z"/><path d="M57.36,33.92a2,2,0,0,1-1.65-3.24L66.32,16.09a2,2,0,1,1,3.29,2.39L59,33.08A2,2,0,0,1,57.36,33.92Z"/><path d="M23.58,80.4a2,2,0,0,1-1.64-3.23l1.53-2.12a2,2,0,1,1,3.3,2.4l-1.54,2.11A2,2,0,0,1,23.58,80.4Z"/><path d="M21.18,87.78a6.12,6.12,0,0,1-4.94-9.71h0a6.12,6.12,0,1,1,4.94,9.71Zm0-8.15a1.77,1.77,0,0,0-.32,0,2,2,0,0,0-1.33.82h0A2,2,0,0,0,20,83.31,2,2,0,1,0,22.39,80,2,2,0,0,0,21.19,79.63Zm-3.3-.36Z"/><path d="M70.35,20.1a6.05,6.05,0,0,1-3.58-1.17A6.11,6.11,0,1,1,74,9a6.12,6.12,0,0,1,1.35,8.54A6.13,6.13,0,0,1,70.35,20.1Zm0-8.15A2,2,0,1,0,72,15.18,2,2,0,0,0,70.36,12Z"/><path d="M47.44,18.88l6,19.07,20-.15a1.24,1.24,0,0,1,.73,2.26L57.94,51.69l6.33,19a1.25,1.25,0,0,1-1.92,1.4L46.25,60.18,30.16,72.06a1.25,1.25,0,0,1-1.92-1.4l6.33-19L18.3,40.06A1.24,1.24,0,0,1,19,37.8L39,38l6-19.07A1.24,1.24,0,0,1,47.44,18.88Z" style="fill:#e93396"/><path d="M83.78,24a2,2,0,0,1-.3-4.06L89.62,19a2,2,0,0,1,.6,4l-6.14.91A1.6,1.6,0,0,1,83.78,24Z"/><path d="M81.78,19.26A2,2,0,0,1,80.15,16l3.69-5a2,2,0,1,1,3.28,2.43l-3.7,5A2,2,0,0,1,81.78,19.26Z"/><path d="M2,76.93a2,2,0,0,1-.3-4.06L7.88,72a2,2,0,1,1,.6,4l-6.14.91Z"/><path d="M6.47,85.7a2,2,0,0,1-1.63-3.26l3.7-5a2,2,0,1,1,3.27,2.43l-3.7,5A2,2,0,0,1,6.47,85.7Z"/></g></g></svg>