<svg xmlns="http://www.w3.org/2000/svg" id="uuid-3560beb1-8a3f-492d-bc32-2f432c4cd0ef" viewBox="0 0 848.49 807.99"><defs><style>.uuid-2cf75303-813e-41e1-8734-900ee12690c7{fill:#ff009d;}.uuid-f5b3dd4b-bd5a-44aa-a5e2-48ef4b40771b{fill:#282628;}.uuid-6416d577-0c55-461f-b920-44529de86f36{fill:#fefefe;}.uuid-f51c344d-fc25-4b53-96c8-38e9913298bc{fill:#1e1819;}</style></defs><g id="uuid-13ee0bd5-e058-4e0e-a107-337f8b85f13d"><g id="uuid-e58a9599-d180-4fc6-971d-84fa66c1d138"><path class="uuid-f5b3dd4b-bd5a-44aa-a5e2-48ef4b40771b" d="M215.98,279.43c-3.79-8.77-9.66-16.15-13.49-25.01-1.41-3.27-2.63-13.2-4.41-15.29-.86-1-6.97-2.25-9.41-3.82-18.98-12.23-17.48-57.01-.68-71.28,2.56-2.17,7.4-3.22,8.48-4.51,1.24-1.47,2.87-10.45,4.35-13.64,25.74-55.48,97.05-82.04,154.56-66.29,84.7,23.19,106.71,120.95,68.4,192.84,19.77,3.83,39.67,7.52,59.34,12.1,38.08,8.88,110.65,22.97,136.45,52.36,18.71,21.31,23.17,48.7,22.13,76.28l22.84,15.11c-3.3-82.21-74.89-134.1-100.16-210.02-21.54-64.71-10.73-146.91,43.76-192.55,55.11-46.16,160.24-31.31,157.37,53.82,60.06,35.26,85.24,112.7,35.86,169.39-5.65,6.49-22.88,23.17-31.41,22.58-18.5-1.28-8.17-29.24-7.48-39.49,2.08-30.83-13.54-55.22-40.81-69.15-16.59-8.47-33.36-7.57-50.1-14.84-5.67-2.46-22.1-15.47-23.51-15.47-14.92-.03-3.14,51.43-.19,60.16,34.65,102.61,160.98,182.38,167.58,296.97.37,6.41-1.91,30.99-1.05,33.79.2.65,7.42,6.76,9.39,9.82,11.74,18.15,16.55,35.73,16.64,57.39.01,3.56-2.28,11.39-1.79,13.82,1.2,5.92,11.14,8.2,9.73,25.07-2.78,33.19-74.18,107.31-106.13,115.66-24.99,6.53-43.25-17.46-56.96-34.59l-21.06,5.31c-4.3,33.69-58.75,90.53-92.03,92-28.04,1.24-47.29-32.3-63.18-50.79-70.08,5.5-141.07,3.83-210.13-9.66-57.36-11.2-115.32-34.78-170.57-54.21-29.08-10.22-90.73-48.91-91.14-83.7-.03-2.65,2.68-6.47,1.85-8.29-.42-.92-12.51-9.88-15.34-13.16-6.54-7.58-20.04-28.65-10.45-37.44,1.7-1.55,5.56-.75,4.95-3.02-13.52-11.64-31.52-47.62-2.99-51.48-12.04-24.42,11.87-36.35,32.97-34.96-11.43-13.66-35.85-45.9-15.91-60.42-7.69-12.67-21.65-44.26.93-48.46-12.58-39.59,11.38-50.34,40.96-25.48,16.22,13.63,29.88,33.2,43.45,49.44l32.99-36.99c-6.93-29.88,14.47-59.9,45.93-59.9h19.48ZM718.89,325.99c-29.62-40.41-112.72-141.86-86.49-194.09,12.84-25.57,28.09-2.88,42.45,3.85s29.96,6.89,44.32,12.63c19.98,7.98,35.24,25.22,47.78,42.12,4.39-6.05,43.58-40.78,43.31-44.18-.64-8.28-28.59-39.52-35.81-46.22-3.32-3.09-19.64-14.39-20.46-16.5-1.67-4.27.06-12.43-.55-17.43-6.28-51.6-71.22-62.67-112.13-46.24-66.73,26.8-85.46,117.32-69.38,180.8,20.67,81.6,139.17,182.36,96.81,267.22-.44.87-5.11,10.21-6.71,7.32l.79-31.76-21.94-16.09c-6.05,7.14-5.63,18.11-15.61,23.04-7.43,3.67-11.49.82-15.94,1.97-2.09.54-4.54,5.1-9.31,5.77-8.38,1.19-11.94-4.59-15.06-4.76-1.66-.09-4.16,2.82-6.3,3.35-14.91,3.68-20.1-12.69-19.02-24.5-21.43,14.95-34.96-6.03-29.03-26.89l-56.46-10.01-1.3,3.31,16.92,74.49c32.05.37,64.33-5.2,96.31-5.97,42.9-1.04,63.16,2.83,88.79,38.28,27.22,37.64,46.83,83.79,76.02,120.56,19.9-20.85,46.2-39.99,76.49-28.93,3.95-21.13-3.58-44.7-16.96-60.94,1.36,6.77-25.32,56.46-31.98,49.94,9.11-22.08,20.44-41.37,23.72-65.68,10.59-78.5-40.75-136.45-83.26-194.45ZM406.79,129.57c-47.78-67.59-167.17-48.45-195.77,27.57l1.55,2.29c2.22-1.08,10.54,3.59,12.73,5.28,21.93,16.96,18.08,70.81-12.4,78.4,14.74,59.51,98.78,68.47,149.3,62.16,18-2.25,42.79-9.29,47.59-28.82-43.99,25.09-129.37,13.62-151.02-37.29-11.72-27.55-6.56-61.95,12.2-85.06,31.33-38.61,92.73-48.55,135.83-24.52ZM348.66,128.88c-94.25,5.3-121.14,123.4-22.79,145.06,65.82,14.5,108.86-12.17,102.88-82.9-3.65-43.11-39.37-64.45-80.09-62.16ZM206,232.47c28.22-4.83,28.69-59.09.5-63.94,11.18,12.63,14.9,34.98,8.66,50.64-2.32,5.82-6.5,8.23-9.16,13.3ZM587.62,423.79c.86-8.35-.63-17.97,0-26.47l4.81.19c8.26,8.91-1.25,43.33,1.68,48.77,1.4,2.6,4.46,1.72,6.44.46,8.95-5.68,10.63-34.14,10.05-43.92l1.63-2.38c6.91-3.23,6.53,18.56,6.34,22.34-.15,2.97-3.6,18.76-2.96,19.51,18.37-9.34,16.05-42.62,12.67-60.14-8.17-42.34-38.38-55.4-75.63-67.23-42.22-13.41-86.45-20.53-129.6-30.27-4.77,4.49-6.7,10.11-11.73,14.8-34.11,31.81-137.18,21.31-175.83-2.9-41.5,15.62-86.6,55.71-111.22,92.48-18.14,27.09-23.52,42.39-2.15,69.71,10.11,12.92,24.56,26.68,36.92,37.49,1.54-28.84,29.9-47.27,55.94-51.95,1.34-1.89-30.21-29.82-32.01-33.4-8.51-16.91,18.74-.28,21.54,4.24,12.4-10.73,23.31-23.31,35.41-34.31,2.61-2.37,11.75-11.33,13.53-12.44,4.88-3.04,9.27-2.27,8.45,4.39-1.09,8.8-26.2,26.06-30.94,35.12,3.52,15.71,4.87,33.23,11.96,47.66l2.52,1.36c23.47-13.39,47.18-27,65.98-46.6,1.68-4.9-12.95-45.08-12.52-54.46.72-15.58,31.7-15.41,42.49-16.43,18.88-1.78,50.14-5.65,67.96-5.03,6.23.22,11.44,1.73,14.23,7.72,3.4,7.31,18.08,71.47,17.92,78.99-.21,10.05-10.34,12.07-18.23,13.18-32.66,4.6-68.61,4.37-101.66,7.23-16.66,15.66-36.23,27.65-57.19,36.72l-1.33,2.34c14.14,17.93,15.75,32.51,15.13,54.43-.04,1.41-1.43,3.58,1.2,3.21,12.05-29.36,44.72-45.61,72.93-55.97,37.96-13.94,84.36-22.62,124.39-14.98-5.62-27.45-11.41-55.06-19.48-81.91-3.9-12.97-17.95-43.03-19.25-52.71-.73-5.46,1.69-9.6,7.34-6.3,6.77,3.94,15.96,35.64,20.44,43.49l58.4,15.53c-1.31-17.38-1.4-33.7,10-47.98,1.6-2.01,10.11-11.19,12.49-8.98-7.81,18.26-20.66,38.44-8.49,57.91l6.49-5.97c3.02,9.26-12.89,45.7,2.49,46.05,12.63.29,13.7-21.12,16.21-29.83,4.47-4.23,5.07,1.17,5.98,4.55,2.42,8.99-.6,40.2,3.23,43.72,1.68,1.55,3.12,1.92,5.32,1.26,5.54-1.55,9.2-17.26,9.72-22.3ZM212.98,291.43c-26.7-1.6-53.23,7.46-50.94,38.94.84,1.05,3.92-2.29,4.52-2.97,4.43-4.99,13.74-13.77,19.24-17.96,8.62-6.55,18.85-11.04,27.18-18.02ZM133.06,487.21c-26.07-26.2-45.76-45.18-30.14-84.57,1.64-4.14,8.89-14.07,7.7-17.27-11.84-13.04-44.65-58.1-62.1-58.95-8.6-.42-7.89,8.92-7.1,15.19,1.59,12.59,11.4,22.46,13.72,34.72-5.04.3-19.35-19.76-21.69-10.25-4.04,16.42,15.26,37.81,22.69,51.21-5.76,1.94-14.91-10.74-18.91-5.4-6.39,8.55,19.66,45.06,28.16,50.61,24.05,3.86,46.39,13.34,67.68,24.72ZM429.77,420.28l-16.92-72.49-96.53,6.54,17.69,73.81,95.76-7.86ZM264.78,539c10.08-23.09-4.66-45.81-18.86-63.24-5.19-6.37-17.35-21.38-25.43-21.59-15.73-.43-40.15,14.5-47.89,28.14-12.26,21.6-2.52,20.71,5.96,36.84,3.65,6.94,5.85,15.34,9.64,22.33,2.77,5.1,13.21,24.03,20.82,19.2,7.73-4.91-9.5-39.43-3.51-47.48,7.15-1.54,13.34,38.49,15.41,43.51,2.06,5,4.82,8.48,10.63,5.5,9.18-6.96-6.76-50.53-4.57-53.01,5.43-.18,7.94,7.56,9.75,11.72,4.65,10.74,6.18,22.66,7.23,34.23,8.2,1.94,9.64-7.47,9.9-13.66.55-12.85-5.13-26.55-5.9-39.29,5.06-1.25,7.43,6.37,9.16,10.31,3.46,7.88,5.88,18.04,4.82,26.64l2.84-.16ZM187.36,560.8c-8.15-9.79-13.35-28.1-20.28-36.16-21.99-25.59-98.53-58.72-131.72-49.7-32.2,8.74,16.58,39.65,23.78,50.24-16.59-1.51-29.07-13.84-44.46-18.07-7.54,7.56,3.11,22.75,8.53,29.54,10.79,13.53,25.66,22.66,39.92,32.01-14.08,1.89-25.62-8.21-38.29-12.4l-2.24,2.87c-2.94,8.79,12.71,25.6,19.09,30.96,15.27,12.84,36.55,21.89,55.41,28.02l-1.48,1.99c-16.69,1.04-31.25-5.49-46.47-10.98,11.46,41.76,61.55,69.14,101.11,79.2,53.21,13.53,132.83,8.62,167.84-39.53,29.53-40.62,1.52-92.67-44.91-98.37-13.68-1.68-7.48,6.26-16.32,12.17-6.33,4.22-10.53,1.1-14.91,3.07-2.77,1.24-3.43,7.69-11.48,8.53-8.61.89-11.76-4.85-14.98-4.97s-6.69,3.6-13.54,2.51c-4.04-.64-11.91-7.7-14.59-10.91ZM717.49,598.11c-16.2-26.23-31.27-55.47-48.54-80.83-40.03-58.74-98.76-33.33-160.71-32.01-20.16.43-20.56-2.16-37.51-6.54-38.06-9.85-112.78,10.28-146.88,29.95-13.96,8.05-27.26,18.2-32.98,33.94,15.03,6.37,26.62,16.69,37.51,28.51,2.47,2.68,5,8.8,7.53,10.45,6.75,4.39,45.3,9.34,58.41,14.52,34.04,13.43,49.83,49.8,69.6,78.26,12.38,17.82,25.05,35.44,38.29,52.63l9.31-21.64c7-11.58,17.17-20.8,27.22-29.72l25.88-13.04c-22.08-31.1-35.22-69.89-55.12-101.73-20.26-32.42-43.45-39.17-79.53-45.35-5.76-.99-35.41-2.27-36.11-6.92,4.99-9.72,23.78-6.28,33.39-5.35,7.57.73,31,7.28,35.05,6.89,3.62-.34,5.95-7.83,10.42-6.91l-1.99,9.96c24.24,7.16,40.59,27.54,52.94,48.48,31.55-.58,49.82-9.17,72.33,17.59,20.71,24.62,37.9,54.23,59.07,78.8l9.06-19.89c11.79-19.02,30.29-36.82,53.37-40.05ZM608,614.71c-6.45-8.49-20.4-30.77-27.68-35.77-14.39-9.87-34.34-6.8-50.64-4.79l60.95,112.88c25.63-17.65,63.61-18.25,72.92,16.99l10.97-3.01c-22.7-28.37-44.55-57.38-66.53-86.3ZM405.45,620.45c-17.54-11.34-43.51-14.6-63.59-19.34,8.57,75.78-78.34,106.26-139.86,105.88,94.31,36.83,197.9,47.59,298.7,38.96-14.2-19.84-29.2-39.29-43.26-59.2-15.72-22.26-28.38-51.04-51.99-66.31ZM832.37,614.12c-18.21-13.88-37.05-9.39-54.68,2.74-6.61,4.55-21.71,22.47-27.7,22.3-8.92-.25-19.66-24.9-25.97-31.15-30.23,2.62-53.87,30.35-61.22,58.37,3.36,7.61,59.19,71.82,65.66,65.61.26-3.49,1.3-7.7,2.55-10.94,12.55-32.41,54.25-88.51,86.69-102.13,4.81-2.02,9.97-2.69,14.65-4.8ZM836.38,626.08c-3.06-.11-6.01-.12-9.04.46-25.88,4.9-64.26,55.25-77.29,77.56-5.31,9.1-10.74,18.31-12.57,28.88,7.94-.63,15.86-5.73,22.29-10.17,19.06-13.17,72.12-67.8,76.18-89.66.44-2.37.62-4.67.44-7.06ZM573.64,710c-.74-6.96,5.62-10.7,8.57-16.02l-11.58-19.48c-31.02,2.97-53.03,32.27-61.67,60.16,6.6,12.41,42.03,59.41,55.2,59.27l4.73-15.24c14.68-33.46,42.42-73.23,81.68-77.68-10.5-18.6-28.67-17.44-45.99-9.51-11.6,5.31-18.9,16.81-30.93,18.51ZM651.4,714.15c-18.59-4.16-37.55,15.4-48.81,28.32-12.64,14.51-24.76,32.12-27.95,51.45,3,2.73,20.03-7.06,23.27-9.18,15.53-10.18,49.35-44.82,53.21-63.67.47-2.27.83-4.61.29-6.91Z"/><path class="uuid-2cf75303-813e-41e1-8734-900ee12690c7" d="M718.89,325.99c42.51,58,93.85,115.95,83.26,194.45-3.28,24.31-14.6,43.61-23.72,65.68,6.66,6.51,33.34-43.18,31.98-49.94,13.38,16.24,20.91,39.81,16.96,60.94-30.29-11.06-56.58,8.07-76.49,28.93-29.19-36.77-48.8-82.92-76.02-120.56-25.63-35.45-45.89-39.32-88.79-38.28-31.98.78-64.27,6.34-96.31,5.97l-16.92-74.49,1.3-3.31,56.46,10.01c-5.93,20.86,7.6,41.83,29.03,26.89-1.08,11.82,4.11,28.19,19.02,24.5,2.15-.53,4.64-3.44,6.3-3.35,3.12.17,6.68,5.94,15.06,4.76,4.77-.68,7.22-5.23,9.31-5.77,4.45-1.15,8.51,1.71,15.94-1.97,9.98-4.93,9.56-15.91,15.61-23.04l21.94,16.09-.79,31.76c1.6,2.89,6.27-6.44,6.71-7.32,42.35-84.86-76.15-185.62-96.81-267.22-16.07-63.48,2.65-154,69.38-180.8,40.91-16.43,105.85-5.35,112.13,46.24.61,5-1.11,13.16.55,17.43.82,2.11,17.14,13.42,20.46,16.5,7.22,6.7,35.17,37.94,35.81,46.22.26,3.41-38.92,38.14-43.31,44.18-12.53-16.9-27.8-34.14-47.78-42.12-14.36-5.74-30.16-5.99-44.32-12.63s-29.61-29.42-42.45-3.85c-26.23,52.23,56.88,153.68,86.49,194.09ZM718.96,79.27c0-16.6-13.46-30.06-30.06-30.06s-30.06,13.46-30.06,30.06,13.46,30.06,30.06,30.06,30.06-13.46,30.06-30.06Z"/><path class="uuid-6416d577-0c55-461f-b920-44529de86f36" d="M587.62,423.79c-.52,5.04-4.19,20.74-9.72,22.3-2.2.66-3.64.28-5.32-1.26-3.83-3.52-.81-34.73-3.23-43.72-.91-3.37-1.51-8.78-5.98-4.55-2.52,8.71-3.59,30.12-16.21,29.83-15.38-.35.53-36.8-2.49-46.05l-6.49,5.97c-12.17-19.47.68-39.65,8.49-57.91-2.38-2.21-10.89,6.97-12.49,8.98-11.4,14.28-11.31,30.59-10,47.98l-58.4-15.53c-4.48-7.85-13.68-39.55-20.44-43.49-5.66-3.3-8.07.84-7.34,6.3,1.3,9.69,15.35,39.75,19.25,52.71,8.07,26.84,13.86,54.46,19.48,81.91-40.02-7.64-86.43,1.03-124.39,14.98-28.21,10.36-60.87,26.6-72.93,55.97-2.63.37-1.24-1.79-1.2-3.21.62-21.92-1-36.51-15.13-54.43l1.33-2.34c20.96-9.07,40.53-21.06,57.19-36.72,33.05-2.86,69-2.63,101.66-7.23,7.89-1.11,18.03-3.14,18.23-13.18.15-7.52-14.52-71.69-17.92-78.99-2.79-5.99-8-7.5-14.23-7.72-17.82-.62-49.08,3.26-67.96,5.03-10.79,1.02-41.77.85-42.49,16.43-.43,9.37,14.2,49.56,12.52,54.46-18.8,19.6-42.51,33.21-65.98,46.6l-2.52-1.36c-7.09-14.42-8.43-31.95-11.96-47.66,4.74-9.06,29.85-26.32,30.94-35.12.83-6.65-3.57-7.43-8.45-4.39-1.78,1.11-10.92,10.07-13.53,12.44-12.1,11-23.01,23.58-35.41,34.31-2.8-4.52-30.05-21.15-21.54-4.24,1.8,3.58,33.35,31.51,32.01,33.4-26.05,4.68-54.41,23.12-55.94,51.95-12.36-10.81-26.81-24.57-36.92-37.49-21.37-27.32-15.99-42.62,2.15-69.71,24.62-36.77,69.72-76.86,111.22-92.48,38.65,24.21,141.72,34.72,175.83,2.9,5.03-4.7,6.96-10.31,11.73-14.8,43.15,9.75,87.39,16.86,129.6,30.27,37.25,11.83,67.46,24.89,75.63,67.23,3.38,17.52,5.7,50.8-12.67,60.14-.64-.75,2.81-16.53,2.96-19.51.2-3.77.57-25.57-6.34-22.34l-1.63,2.38c.57,9.77-1.11,38.24-10.05,43.92-1.98,1.25-5.03,2.13-6.44-.46-2.93-5.43,6.58-39.85-1.68-48.77l-4.81-.19c-.63,8.5.86,18.12,0,26.47Z"/><path class="uuid-6416d577-0c55-461f-b920-44529de86f36" d="M717.49,598.11c-23.08,3.23-41.57,21.03-53.37,40.05l-9.06,19.89c-21.17-24.57-38.36-54.19-59.07-78.8-22.51-26.76-40.77-18.17-72.33-17.59-12.36-20.94-28.71-41.32-52.94-48.48l1.99-9.96c-4.47-.92-6.8,6.56-10.42,6.91-4.05.39-27.48-6.16-35.05-6.89-9.61-.93-28.4-4.37-33.39,5.35.69,4.64,30.34,5.93,36.11,6.92,36.08,6.19,59.27,12.93,79.53,45.35,19.9,31.84,33.05,70.63,55.12,101.73l-25.88,13.04c-10.05,8.92-20.22,18.14-27.22,29.72l-9.31,21.64c-13.24-17.19-25.91-34.81-38.29-52.63-19.77-28.46-35.55-64.83-69.6-78.26-13.11-5.17-51.66-10.13-58.41-14.52-2.54-1.65-5.07-7.77-7.53-10.45-10.89-11.82-22.47-22.14-37.51-28.51,5.72-15.74,19.02-25.89,32.98-33.94,34.1-19.67,108.81-39.8,146.88-29.95,16.95,4.39,17.35,6.97,37.51,6.54,61.95-1.32,120.68-26.73,160.71,32.01,17.28,25.35,32.34,54.6,48.54,80.83Z"/><path class="uuid-2cf75303-813e-41e1-8734-900ee12690c7" d="M187.36,560.8c2.68,3.22,10.55,10.28,14.59,10.91,6.86,1.08,10.29-2.64,13.54-2.51s6.37,5.86,14.98,4.97c8.05-.83,8.71-7.28,11.48-8.53,4.38-1.97,8.59,1.16,14.91-3.07,8.84-5.9,2.64-13.84,16.32-12.17,46.43,5.7,74.45,57.75,44.91,98.37-35.01,48.15-114.63,53.06-167.84,39.53-39.56-10.06-89.65-37.44-101.11-79.2,15.22,5.49,29.77,12.03,46.47,10.98l1.48-1.99c-18.86-6.13-40.14-15.18-55.41-28.02-6.38-5.37-22.02-22.18-19.09-30.96l2.24-2.87c12.67,4.19,24.21,14.29,38.29,12.4-14.26-9.35-29.13-18.48-39.92-32.01-5.42-6.79-16.06-21.98-8.53-29.54,15.38,4.24,27.86,16.56,44.46,18.07-7.2-10.59-55.98-41.5-23.78-50.24,33.19-9.01,109.73,24.12,131.72,49.7,6.93,8.07,12.14,26.38,20.28,36.16Z"/><path class="uuid-2cf75303-813e-41e1-8734-900ee12690c7" d="M405.45,620.45c23.6,15.27,36.27,44.05,51.99,66.31,14.06,19.91,29.06,39.35,43.26,59.2-100.8,8.63-204.39-2.13-298.7-38.96,61.52.38,148.43-30.1,139.86-105.88,20.08,4.74,46.05,7.99,63.59,19.34Z"/><path class="uuid-2cf75303-813e-41e1-8734-900ee12690c7" d="M348.66,128.88c40.72-2.29,76.44,19.05,80.09,62.16,5.98,70.73-37.06,97.39-102.88,82.9-98.35-21.66-71.46-139.76,22.79-145.06Z"/><path class="uuid-6416d577-0c55-461f-b920-44529de86f36" d="M406.79,129.57c-43.1-24.03-104.49-14.09-135.83,24.52-18.76,23.11-23.92,57.51-12.2,85.06,21.65,50.91,107.03,62.39,151.02,37.29-4.79,19.53-29.59,26.57-47.59,28.82-50.51,6.31-134.56-2.65-149.3-62.16,30.49-7.59,34.33-61.43,12.4-78.4-2.19-1.69-10.51-6.36-12.73-5.28l-1.55-2.29c28.61-76.01,147.99-95.15,195.77-27.57Z"/><path class="uuid-6416d577-0c55-461f-b920-44529de86f36" d="M832.37,614.12c-4.68,2.11-9.85,2.79-14.65,4.8-32.44,13.62-74.14,69.72-86.69,102.13-1.26,3.24-2.29,7.45-2.55,10.94-6.47,6.21-62.3-58-65.66-65.61,7.35-28.02,30.99-55.75,61.22-58.37,6.31,6.25,17.05,30.9,25.97,31.15,5.99.17,21.09-17.75,27.7-22.3,17.63-12.13,36.46-16.63,54.68-2.74Z"/><path class="uuid-6416d577-0c55-461f-b920-44529de86f36" d="M573.64,710c12.04-1.7,19.34-13.19,30.93-18.51,17.31-7.93,35.49-9.09,45.99,9.51-39.26,4.45-67,44.22-81.68,77.68l-4.73,15.24c-13.17.14-48.6-46.86-55.2-59.27,8.64-27.89,30.64-57.19,61.67-60.16l11.58,19.48c-2.95,5.32-9.31,9.06-8.57,16.02Z"/><path class="uuid-2cf75303-813e-41e1-8734-900ee12690c7" d="M133.06,487.21c-21.29-11.38-43.63-20.86-67.68-24.72-8.49-5.55-34.55-42.06-28.16-50.61,4-5.34,13.15,7.34,18.91,5.4-7.44-13.4-26.74-34.79-22.69-51.21,2.34-9.5,16.65,10.55,21.69,10.25-2.32-12.26-12.12-22.13-13.72-34.72-.79-6.27-1.5-15.6,7.1-15.19,17.45.85,50.26,45.9,62.1,58.95,1.19,3.2-6.05,13.13-7.7,17.27-15.62,39.39,4.07,58.38,30.14,84.57Z"/><path class="uuid-6416d577-0c55-461f-b920-44529de86f36" d="M264.78,539l-2.84.16c1.06-8.61-1.36-18.76-4.82-26.64-1.73-3.95-4.1-11.57-9.16-10.31.77,12.74,6.45,26.44,5.9,39.29-.27,6.18-1.71,15.6-9.9,13.66-1.05-11.57-2.58-23.49-7.23-34.23-1.8-4.16-4.32-11.9-9.75-11.72-2.19,2.48,13.74,46.05,4.57,53.01-5.81,2.98-8.57-.5-10.63-5.5-2.06-5.02-8.26-45.05-15.41-43.51-5.99,8.05,11.24,42.57,3.51,47.48-7.61,4.83-18.06-14.1-20.82-19.2-3.79-6.99-5.99-15.39-9.64-22.33-8.47-16.13-18.22-15.24-5.96-36.84,7.74-13.64,32.15-28.56,47.89-28.14,8.08.22,20.24,15.23,25.43,21.59,14.2,17.43,28.94,40.15,18.86,63.24Z"/><path class="uuid-2cf75303-813e-41e1-8734-900ee12690c7" d="M608,614.71c21.98,28.92,43.83,57.93,66.53,86.3l-10.97,3.01c-9.31-35.24-47.3-34.63-72.92-16.99l-60.95-112.88c16.3-2,36.25-5.08,50.64,4.79,7.28,4.99,21.23,27.28,27.68,35.77Z"/><path class="uuid-6416d577-0c55-461f-b920-44529de86f36" d="M429.77,420.28l-95.76,7.86-17.69-73.81,96.53-6.54,16.92,72.49Z"/><path class="uuid-6416d577-0c55-461f-b920-44529de86f36" d="M836.38,626.08c.18,2.4,0,4.7-.44,7.06-4.06,21.86-57.12,76.49-76.18,89.66-6.43,4.44-14.34,9.55-22.29,10.17,1.83-10.57,7.26-19.78,12.57-28.88,13.03-22.3,51.41-72.66,77.29-77.56,3.04-.57,5.98-.57,9.04-.46Z"/><path class="uuid-6416d577-0c55-461f-b920-44529de86f36" d="M651.4,714.15c.54,2.3.18,4.64-.29,6.91-3.86,18.85-37.67,53.49-53.21,63.67-3.24,2.13-20.27,11.92-23.27,9.18,3.2-19.33,15.31-36.94,27.95-51.45,11.26-12.92,30.22-32.48,48.81-28.32Z"/><path class="uuid-6416d577-0c55-461f-b920-44529de86f36" d="M212.98,291.43c-8.33,6.98-18.56,11.47-27.18,18.02-5.51,4.18-14.81,12.96-19.24,17.96-.6.67-3.67,4.02-4.52,2.97-2.28-31.48,24.25-40.55,50.94-38.94Z"/><path class="uuid-6416d577-0c55-461f-b920-44529de86f36" d="M206,232.47c2.66-5.07,6.85-7.49,9.16-13.3,6.24-15.66,2.52-38.01-8.66-50.64,28.19,4.86,27.72,59.11-.5,63.94Z"/><path class="uuid-6416d577-0c55-461f-b920-44529de86f36" d="M718.96,79.27c0,16.6-13.46,30.06-30.06,30.06s-30.06-13.46-30.06-30.06,13.46-30.06,30.06-30.06,30.06,13.46,30.06,30.06ZM688.3,66.83c-16.35,1.84-14.47,27.99,3.66,24.71,14.28-2.58,11.55-26.43-3.66-24.71Z"/><path class="uuid-f5b3dd4b-bd5a-44aa-a5e2-48ef4b40771b" d="M688.3,66.83c15.21-1.71,17.94,22.14,3.66,24.71-18.12,3.27-20-22.87-3.66-24.71Z"/></g><path class="uuid-2cf75303-813e-41e1-8734-900ee12690c7" d="M400.14,371.26l9.67-11.33-12.16,5.31-5.04-10.41s-.03,0-.04,0l-1.95,10.91-13.44-3.49,12.72,9.74-7.06,14.11,12.76-10.49,15.51,8.48-10.97-12.82Z"/><path class="uuid-2cf75303-813e-41e1-8734-900ee12690c7" d="M339.04,406.24l.4-1.38c.29.19.66.37,1.07.35.55-.03.81-.4.67-.98l-1.1-4.45,1.74-.09,1.1,4.48c.41,1.69-.41,2.52-1.88,2.59-.68.04-1.39-.09-2-.52Z"/><path class="uuid-2cf75303-813e-41e1-8734-900ee12690c7" d="M343.78,403.69l-1-4.06,1.77-.09.98,4c.2.81.83,1.36,1.77,1.31s1.27-.66,1.07-1.46l-.98-4,1.76-.09.99,4.05c.42,1.7-.3,2.94-2.47,3.06s-3.49-1.04-3.9-2.71Z"/><path class="uuid-2cf75303-813e-41e1-8734-900ee12690c7" d="M351.07,405.13l.58-1.42c.61.47,1.45.83,2.39.79.59-.03.9-.25.82-.59-.22-.9-3.85.05-4.5-2.58-.28-1.14.42-2.22,2.15-2.31,1.08-.06,2.1.22,2.97.81l-.63,1.37c-.68-.45-1.48-.65-2.15-.61-.51.03-.69.21-.61.51.21.84,3.86,0,4.49,2.54.34,1.37-.44,2.33-2.25,2.43-1.37.07-2.42-.32-3.26-.93Z"/><path class="uuid-2cf75303-813e-41e1-8734-900ee12690c7" d="M359.34,405.67l-1.3-5.28-1.89.1-.38-1.53,5.51-.29.38,1.53-1.88.1,1.3,5.28-1.74.09Z"/><path class="uuid-f51c344d-fc25-4b53-96c8-38e9913298bc" d="M341.07,412.49c-.51-2.09.66-3.6,2.6-3.71,1.19-.06,2.16.47,2.89,1.21l-.6.44c-.53-.56-1.34-.93-2.1-.89-1.48.08-2.32,1.27-1.92,2.91s1.8,2.71,3.28,2.63c.77-.04,1.37-.5,1.62-1.09l.8.35c-.37.82-1.04,1.43-2.24,1.49-1.94.1-3.82-1.25-4.34-3.34Z"/><path class="uuid-f51c344d-fc25-4b53-96c8-38e9913298bc" d="M354.67,415.23l-1.68-6.82,4.42-.23.19.76-3.58.19.54,2.2,3.51-.18.19.76-3.51.18.58,2.35,3.58-.19.19.76-4.42.23Z"/><path class="uuid-f51c344d-fc25-4b53-96c8-38e9913298bc" d="M365.09,414.68l-.97-1.49-3.36.18-.22,1.55-.96.05,1.05-6.96,1.04-.05,4.39,6.67-.96.05ZM361.35,408.85l-.52,3.75,2.86-.15-2.34-3.6Z"/><path class="uuid-f51c344d-fc25-4b53-96c8-38e9913298bc" d="M367.29,414.57l-1.49-6.06-2.13.11-.19-.76,5.12-.27.19.76-2.14.11,1.49,6.06-.84.04Z"/><path class="uuid-f51c344d-fc25-4b53-96c8-38e9913298bc" d="M371.14,414.36l-1.68-6.82.84-.04,1.68,6.82-.84.04Z"/><path class="uuid-f51c344d-fc25-4b53-96c8-38e9913298bc" d="M375.47,414.14l-4.4-6.67.96-.05,3.72,5.77.83-6,.96-.05-1.04,6.96-1.04.05Z"/><path class="uuid-f51c344d-fc25-4b53-96c8-38e9913298bc" d="M379.85,413.91l-1.68-6.82,4.42-.23.19.76-3.58.19.54,2.2,3.51-.18.19.76-3.51.18.58,2.35,3.58-.19.19.76-4.42.23Z"/><path class="uuid-2cf75303-813e-41e1-8734-900ee12690c7" d="M362.55,398.78l.33,1.35h-.19s-.33-1.34-.33-1.34l-.43.02-.04-.18,1.05-.06.04.18-.43.02ZM364.85,400.03l-.31-1.27-.21,1.3h-.06s-.83-1.24-.83-1.24l.31,1.27h-.19s-.38-1.52-.38-1.52l.3-.02.72,1.09.17-1.14.3-.02.38,1.53h-.19Z"/><path class="uuid-f51c344d-fc25-4b53-96c8-38e9913298bc" d="M351.32,412.59c.9-.13,1.57-.85,1.27-2.07s-1.39-2.01-2.63-1.94l-2.71.14,1.68,6.82.84-.04-.55-2.22-.12-.48-.18-.75-.04-.16-.6-2.45,1.77-.09c.8-.04,1.48.45,1.67,1.23s-.23,1.34-1.03,1.38l-.41.02-.47.02,3.03,3.34.99-.05-2.5-2.68Z"/></g></svg>