<svg xmlns="http://www.w3.org/2000/svg" id="uuid-c1ceff94-c0a6-4986-ae01-21fc7f0203d3" viewBox="0 0 729.47 157.18"><defs><style>.uuid-217c77fd-3779-49f2-b45f-aad4db996831{opacity:.25;}.uuid-217c77fd-3779-49f2-b45f-aad4db996831,.uuid-0037d62d-c2f7-4695-a877-f69277208118{fill:#bcbec0;}</style></defs><g id="uuid-b7267091-04e9-445c-b94a-2e07bfa0d23a"><polygon class="uuid-217c77fd-3779-49f2-b45f-aad4db996831" points="145.21 0 92.99 52.21 40.24 104.97 92.45 157.18 145.21 104.43 197.97 157.18 250.18 104.97 197.42 52.21 145.21 0"/><path class="uuid-0037d62d-c2f7-4695-a877-f69277208118" d="M323.43,99.57V29.11h1v70.46h-1ZM326.43,99.57V29.11h1v70.46h-1ZM329.44,99.57V29.11h1v70.46h-1ZM332.44,99.57V29.11h1v70.46h-1ZM335.44,99.57V29.11h1v70.46h-1ZM338.45,99.57V29.11h1v70.46h-1ZM341.45,99.57V29.11h1v70.46h-1ZM344.45,99.57V29.11h1v70.46h-1ZM347.45,99.57V29.41l1,.2v69.96h-1ZM350.46,99.57V30.11l1,.2v69.26h-1ZM353.46,99.17V31.11l1,.5v67.26l-1,.3ZM356.46,98.27V32.81l1,.7v64.26l-1,.5ZM359.46,96.67v-61.56l1,1v59.95l-1,.6ZM362.47,61.03v-22.12l1,1.5v19.02l-1,1.6ZM362.47,94.37v-31.83l1,1v30.13l-1,.7ZM365.47,91.26v-25.52l1,1.4v22.72l-1,1.4ZM368.47,85.86v-14.41s.7,1.8,1,3.8v6.41c-.1,1.5-1,4.2-1,4.2Z"/><path class="uuid-0037d62d-c2f7-4695-a877-f69277208118" d="M381.78,85.46V29.11h1v58.65l-1-2.3ZM384.78,91.06V29.11h1v63.36l-1-1.4ZM387.79,94.56V29.11h1v66.26l-1-.8ZM390.79,96.67V29.11h1v68.26l-1-.7ZM393.79,98.17V29.11h1v69.56l-1-.5ZM396.79,99.27V29.11h1v70.46l-1-.3ZM399.8,99.87V29.11h1v70.76h-1ZM402.9,99.87V29.11h1v70.76h-1ZM405.9,99.57V29.11h1v70.16l-1,.3ZM408.91,98.67V29.11h1v69.06l-1,.5ZM411.91,97.37V29.11h1v67.56l-1,.7ZM414.91,95.37V29.11h1v65.46l-1,.8ZM417.91,92.46V29.11h1v61.96l-1,1.4ZM420.92,87.76V29.11h1v56.35l-1,2.3Z"/><path class="uuid-0037d62d-c2f7-4695-a877-f69277208118" d="M436.43,30.61v-1h13.61v1h-13.61ZM436.43,33.61v-1h13.61v1h-13.61ZM436.43,36.61v-1h13.61v1h-13.61ZM436.43,39.62v-1h13.61v1h-13.61ZM436.43,42.62v-1h13.61v1h-13.61ZM436.43,45.62v-1h13.61v1h-13.61ZM436.43,48.62v-1h13.61v1h-13.61ZM436.43,51.63v-1h13.61v1h-13.61ZM436.43,54.63v-1h13.61v1h-13.61ZM436.43,57.63v-1h13.61v1h-13.61ZM436.43,60.63v-1h13.61v1h-13.61ZM436.43,63.64v-1h13.61v1h-13.61ZM436.43,66.64v-1h13.61v1h-13.61ZM436.43,69.64v-1h13.61v1h-13.61ZM436.43,72.65v-1h13.61v1h-13.61ZM436.43,75.65v-1h13.61v1h-13.61ZM436.43,78.65v-1h13.61v1h-13.61ZM436.43,81.65v-1h13.61v1h-13.61ZM436.43,84.66v-1h13.61v1h-13.61ZM436.43,87.66v-1h13.61v1h-13.61ZM436.43,90.66v-1h13.61v1h-13.61ZM436.43,93.66v-1h13.61v1h-13.61ZM436.43,96.67v-1h13.61v1h-13.61ZM436.43,99.67v-1h13.61v1h-13.61Z"/><path class="uuid-0037d62d-c2f7-4695-a877-f69277208118" d="M464.35,99.57V29.01h1v70.56h-1ZM467.35,99.57V29.01h1v70.56h-1ZM470.35,99.57V29.01h1v70.56h-1ZM473.36,99.57V29.01h1v70.56h-1ZM476.36,99.57V29.01h1v70.56h-1ZM479.36,99.57V29.01h1v70.56h-1ZM482.36,99.57V29.01h1v70.56h-1ZM485.37,99.57V29.01h1v70.56h-1ZM488.37,99.57V29.01h1v70.56h-1ZM491.37,99.57V29.01h1v70.56h-1ZM494.38,99.57V29.01h1v70.56h-1ZM498.38,99.57h-1v-13.81h1v13.81ZM501.38,99.57h-1v-13.81h1v13.81ZM504.38,99.57h-1v-13.81h1v13.81ZM507.39,99.57h-1v-13.81h1v13.81ZM510.39,99.57h-1v-13.81h1v13.81Z"/><path class="uuid-0037d62d-c2f7-4695-a877-f69277208118" d="M520.5,28.81h1v70.96h-1V28.81ZM523.5,28.81h1v70.96h-1V28.81ZM526.5,28.81h1v70.96h-1V28.81ZM529.5,28.81h1v70.96h-1V28.81ZM532.51,28.91h1v70.66l-1,.1V28.91ZM535.51,29.11l1,.2v69.76l-1,.2V29.11ZM538.51,29.71l1,.3v68.46l-1,.3V29.71ZM541.51,30.51l1,.4v66.66l-1,.3V30.51ZM544.52,31.71l1,.5v64.06l-1,.5V31.71ZM547.52,33.21l1,.7v60.75l-1,.6v-62.06ZM550.52,35.21l1,.8v56.45l-1,.8v-58.05ZM553.53,37.61l1,1.1v51.15l-1,.9v-53.15ZM556.53,40.92l1,1.2v44.24l-1,1.2v-46.64ZM559.53,45.12l1,2v34.33l-1,1.7v-38.03ZM562.53,51.83l1,3.9v17.12l-1,4.1v-25.12Z"/><path class="uuid-0037d62d-c2f7-4695-a877-f69277208118" d="M574.84,31.01v-1h46.14v1h-46.14ZM574.84,33.71v-1h46.14v1h-46.14ZM574.84,36.71v-1h46.14v1h-46.14ZM574.84,39.72v-1h46.14v1h-46.14ZM574.84,42.72v-1h46.14v1h-46.14ZM574.84,46.02v-1h28.83v1h-28.83ZM574.84,49.02v-1h28.83v1h-28.83ZM574.84,52.03v-1h28.83v1h-28.83ZM574.84,55.03v-1h28.83v1h-28.83ZM574.84,58.73v-1h28.83v1h-28.83ZM574.84,61.74v-1h28.83v1h-28.83ZM574.84,64.74v-1h28.83v1h-28.83ZM574.84,67.74v-1h28.83v1h-28.83ZM574.84,70.74v-1h28.83v1h-28.83ZM574.84,74.55v-1h28.83v1h-28.83ZM574.84,77.55v-1h28.83v1h-28.83ZM574.84,80.55v-1h28.83v1h-28.83ZM574.84,83.56v-1h28.83v1h-28.83ZM574.84,86.86v-1h46.04v1h-46.04ZM574.84,89.56v-1h46.04v1h-46.04ZM574.84,92.56v-1h46.04v1h-46.04ZM574.84,95.57v-1h46.04v1h-46.04ZM574.84,98.57v-1h46.04v1h-46.04Z"/><path class="uuid-0037d62d-c2f7-4695-a877-f69277208118" d="M634.29,99.57V29.11h1v70.46h-1ZM637.29,99.57V29.11h1v70.46h-1ZM640.29,99.57V29.11h1v70.46h-1ZM643.3,99.57V29.11h1v70.46h-1ZM646.3,99.57V29.11h1v70.46h-1ZM649.3,99.57V29.11h1v70.46h-1ZM652.3,99.57V29.11h1v70.46h-1ZM655.31,71.04V29.11h1v41.94h-1ZM655.31,99.57v-26.42l1,1v25.42h-1ZM658.31,70.84V29.41l1,.2v41.04l-1,.2ZM658.31,99.57v-23.42l1,1v22.42h-1ZM661.31,70.24V30.11l1,.2v39.63l-1,.3ZM661.31,99.57v-20.42l1,1v19.42h-1ZM664.32,69.04V31.11l1,.5v37.03l-1,.4ZM664.32,99.57v-17.42l1,1v16.41h-1ZM667.32,67.44v-34.63l1,.7v33.23l-1,.7ZM667.32,99.57v-14.41l1,1v13.41h-1ZM670.32,64.94v-29.83l1,1v27.83l-1,1ZM670.32,99.57v-11.41l1,1v10.41h-1ZM673.32,61.03v-22.12l1,1.5v19.02l-1,1.6ZM673.32,99.57v-8.41l1,1v7.41h-1ZM676.33,99.57v-5.4l1,1v4.4h-1ZM679.33,99.57v-2.4l1,1v1.4h-1Z"/><path class="uuid-0037d62d-c2f7-4695-a877-f69277208118" d="M687.43,43.52v12.81l-1-3.8v-4.8l1-4.2ZM690.44,37.71v24.52l-1-1.3v-21.82l1-1.4ZM693.44,34.61v31.13l-1-1v-29.43l1-.7ZM696.44,32.31v35.73l-1-.7v-34.43l1-.6ZM699.44,30.81v38.83l-1-.6V31.31l1-.5ZM702.45,29.91v40.64l-1-.3V30.21l1-.3ZM705.45,29.51v41.64l-1-.2V29.51h1ZM707.45,99.37V29.11h1v70.26h-1ZM710.45,99.17v-41.74l1,.2v41.54h-1ZM713.46,98.77v-40.74l1,.3v40.14l-1,.3ZM716.46,97.87v-38.94l1,.6v37.83l-1,.5ZM719.46,96.27v-35.73l1,.7v34.43l-1,.6ZM722.46,93.96v-31.23l1,1v29.53l-1,.7ZM725.47,90.86v-24.62l1,1.4v21.82l-1,1.4ZM728.47,85.06v-12.81l1,3.8v4.8l-1,4.2Z"/><path class="uuid-0037d62d-c2f7-4695-a877-f69277208118" d="M.1,99.27V28.81h1v70.46H.1ZM3.1,99.27V28.81h1v70.46h-1ZM6.11,99.27V28.81h1v70.46h-1ZM9.11,99.27V28.81h1v70.46h-1ZM12.11,99.27V28.81h1v70.46h-1ZM15.11,99.27V28.81h1v70.46h-1ZM18.12,99.27V28.81h1v70.46h-1ZM21.12,99.27V28.81h1v70.46h-1ZM24.12,99.27V29.11l1,.2v69.96h-1ZM27.12,99.27V29.81l1,.2v69.26h-1ZM30.13,98.87V30.81l1,.5v67.26l-1,.3ZM33.13,97.97V32.51l1,.7v64.26l-1,.5ZM36.13,96.37v-61.56l1,1v59.95l-1,.6ZM39.14,60.73v-22.12l1,1.5v19.02l-1,1.6ZM39.14,94.07v-31.83l1,1v30.13l-1,.7ZM42.14,90.96v-25.52l1,1.4v22.72l-1,1.4ZM45.14,85.56v-14.41s.7,1.8,1,3.8v6.41c-.1,1.5-1,4.2-1,4.2Z"/><path class="uuid-0037d62d-c2f7-4695-a877-f69277208118" d="M58.25,99.27V28.81h1v70.46h-1ZM61.25,99.27V28.81h1v70.46h-1ZM64.25,99.27V28.81h1v70.46h-1ZM67.26,99.27V28.81h1v70.46h-1ZM70.26,99.27V28.81h1v70.46h-1ZM73.26,99.27V28.81h1v70.46h-1ZM76.26,99.27V28.81h1v70.46h-1ZM79.27,70.74V28.81h1v41.94h-1ZM79.27,99.27v-26.42l1,1v25.42h-1ZM82.27,70.54V29.11l1,.2v41.04l-1,.2ZM82.27,99.27v-23.42l1,1v22.42h-1ZM85.27,69.94V29.81l1,.2v39.63l-1,.3ZM85.27,99.27v-20.42l1,1v19.42h-1ZM88.28,68.74V30.81l1,.5v37.03l-1,.4ZM88.28,99.27v-17.42l1,1v16.41h-1ZM91.28,67.14v-34.63l1,.7v33.23l-1,.7ZM91.28,99.27v-14.41l1,1v13.41h-1ZM94.28,64.64v-29.83l1,1v27.83l-1,1ZM94.28,99.27v-11.41l1,1v10.41h-1ZM97.28,60.73v-22.12l1,1.5v19.02l-1,1.6ZM97.28,99.27v-8.41l1,1v7.41h-1ZM100.29,99.27v-5.4l1,1v4.4h-1ZM103.29,99.27v-2.4l1,1v1.4h-1Z"/><path class="uuid-0037d62d-c2f7-4695-a877-f69277208118" d="M114.5,85.16l.5-1h58.65l.4,1h-59.55ZM116,82.15l.5-1h55.65l.5,1h-56.65ZM117.5,79.15l.5-1h52.65l.5,1h-53.65ZM119,76.15l.5-1h49.64l.5,1h-50.65ZM120.5,73.15l.5-1h46.64l.5,1h-47.64ZM122,70.14l.5-1h43.64l.5,1h-44.64ZM123.4,67.14l.5-1h40.74l.5,1h-41.74ZM124.91,64.14l.5-1h37.73l.5,1h-38.73ZM126.41,61.14l.5-1h34.73l.5,1h-35.73ZM127.91,58.13l.5-1h31.73l.5,1h-32.73ZM129.41,55.13l.5-1h28.73l.5,1h-29.73ZM130.91,52.13l.4-1h25.82l.5,1h-26.72ZM132.41,49.12l.5-1h22.72l.5,1h-23.72ZM133.91,46.12l.5-1h19.72l.5,1h-20.72ZM135.41,43.12l.5-1h16.72l.5,1h-17.72ZM136.92,40.12l.5-1h13.71l.5,1h-14.71ZM138.42,37.11l.5-1h10.71l.5,1h-11.71ZM139.92,34.11l.5-1h7.71l.5,1h-8.71ZM141.42,31.11l.5-1h4.7l.5,1h-5.7ZM142.92,28.11l.5-1h1.7l.5,1h-2.7Z"/><path class="uuid-0037d62d-c2f7-4695-a877-f69277208118" d="M188.66,99.27V28.81h1v70.46h-1ZM191.66,99.27V28.81h1v70.46h-1ZM194.66,99.27V28.81h1v70.46h-1ZM197.66,99.27V28.81h1v70.46h-1ZM200.67,99.27V28.81h1v70.46h-1ZM203.67,99.27V28.81h1v70.46h-1ZM206.67,99.27V28.81h1v70.46h-1ZM209.68,99.27V28.81h1v70.46h-1ZM212.68,99.27V28.81h1v70.46h-1ZM215.68,99.27V28.81h1v70.46h-1ZM218.68,99.27V28.81h1v70.46h-1ZM221.69,99.27V28.81h1v70.46h-1ZM224.69,99.27V28.81h1v70.46h-1ZM227.69,99.27V28.81h1v70.46h-1Z"/><path class="uuid-0037d62d-c2f7-4695-a877-f69277208118" d="M243.2,28.51h1v70.96h-1V28.51ZM246.2,28.51h1v70.96h-1V28.51ZM249.21,28.51h1v70.96h-1V28.51ZM252.21,28.51h1v70.96h-1V28.51ZM255.21,28.61h1v70.66l-1,.1V28.61ZM258.22,28.81l1,.2v69.76l-1,.2V28.81ZM261.22,29.41l1,.3v68.46l-1,.3V29.41ZM264.22,30.21l1,.4v66.66l-1,.3V30.21ZM267.22,31.41l1,.5v64.06l-1,.5V31.41ZM270.23,32.91l1,.7v60.75l-1,.6v-62.06ZM273.23,34.91l1,.8v56.45l-1,.8v-58.05ZM276.23,37.31l1,1.1v51.15l-1,.9v-53.15ZM279.23,40.62l1,1.2v44.24l-1,1.2v-46.64ZM282.24,44.82l1,2v34.33l-1,1.7v-38.03ZM285.24,51.53l1,3.9v17.12l-1,4.1v-25.12Z"/><path class="uuid-0037d62d-c2f7-4695-a877-f69277208118" d="M28.73,99.37H0v-13.91h25.72c3.9,0,6.81-3.5,6.81-7.31s-3-7.11-6.91-7.11h-11.11v-14.31h6.71c4,0,7.31-3,7.31-7.11,0-3.7-2.9-7.01-6.71-7.01H0v-13.91h21.22c11.71,0,21.42,9.01,21.42,20.92,0,4.3-1.3,8.51-3.7,12.01,4.8,4.1,7.71,10.11,7.71,16.51,0,10.51-7.61,19.52-17.92,21.22Z"/><path class="uuid-0037d62d-c2f7-4695-a877-f69277208118" d="M86.47,99.37l-28.33-28.33v-14.31h21.22c4,0,7.31-3.1,7.31-7.11,0-3.7-2.9-7.01-6.71-7.01h-21.82v-13.91h21.22c11.71,0,21.42,9.01,21.42,20.92s-9.61,21.42-21.42,21.42h-1.5l28.33,28.33h-19.72Z"/><path class="uuid-0037d62d-c2f7-4695-a877-f69277208118" d="M165.64,99.27l-21.32-42.64-21.52,42.64h-15.71l37.03-74.17c0-.1.1-.2.1-.3l36.93,74.47h-15.51Z"/><path class="uuid-0037d62d-c2f7-4695-a877-f69277208118" d="M188.16,28.71h16.11l24.72,43.24v27.42l-40.84-70.66Z"/><path class="uuid-0037d62d-c2f7-4695-a877-f69277208118" d="M287.44,64.04c0,20.32-14.71,35.63-35.13,35.63-3.1,0-6.21-.1-9.31-.1v-14.01h8.51c12.41,0,22.12-9.11,22.12-21.62s-9.21-21.62-21.62-21.62h-9.01v-13.91h10.41c20.12,0,34.03,15.91,34.03,35.63Z"/><path class="uuid-0037d62d-c2f7-4695-a877-f69277208118" d="M352.06,99.67h-28.73v-13.91h25.72c3.9,0,6.81-3.5,6.81-7.31s-3-7.11-6.91-7.11h-11.11v-14.31h6.71c4,0,7.31-3,7.31-7.11,0-3.7-2.9-7.01-6.71-7.01h-21.82v-13.91h21.22c11.71,0,21.42,9.01,21.42,20.92,0,4.3-1.3,8.51-3.7,12.01,4.8,4.1,7.71,10.11,7.71,16.52,0,10.51-7.61,19.52-17.92,21.22Z"/><path class="uuid-0037d62d-c2f7-4695-a877-f69277208118" d="M401.9,100.17c-11.61,0-21.42-9.51-21.42-21.22V29.01h13.91v50.05c0,4,3.7,7.01,7.51,7.01,4,0,7.31-3.3,7.31-7.31h.1V29.01h13.91v49.74c0,11.81-9.51,21.42-21.32,21.42Z"/><path class="uuid-0037d62d-c2f7-4695-a877-f69277208118" d="M436.23,99.67V29.01h13.91v70.66h-13.91Z"/><path class="uuid-0037d62d-c2f7-4695-a877-f69277208118" d="M464.15,99.67v-14.01h47.24v14.01h-47.24Z"/><path class="uuid-0037d62d-c2f7-4695-a877-f69277208118" d="M564.84,64.34c0,20.32-14.71,35.63-35.13,35.63-3.1,0-6.21-.1-9.31-.1v-14.01h8.51c12.41,0,22.12-9.11,22.12-21.62s-9.21-21.62-21.62-21.62h-9.01v-13.91h10.41c20.12,0,34.03,15.91,34.03,35.63Z"/><path class="uuid-0037d62d-c2f7-4695-a877-f69277208118" d="M574.64,43.02v-14.01h46.44v14.01h-46.44ZM574.64,71.34v-14.31h29.03v14.31h-29.03ZM574.64,99.67v-14.01h46.24v14.01h-46.24Z"/><path class="uuid-0037d62d-c2f7-4695-a877-f69277208118" d="M662.41,99.67l-28.33-28.33v-14.31h21.22c4,0,7.31-3.1,7.31-7.11,0-3.7-2.9-7.01-6.71-7.01h-21.82v-13.91h21.22c11.71,0,21.42,9.01,21.42,20.92s-9.61,21.42-21.42,21.42h-1.5l28.33,28.33h-19.72Z"/><path class="uuid-0037d62d-c2f7-4695-a877-f69277208118" d="M708.45,99.87h-1.2v-14.11c4.3,0,8.11-2.8,8.11-7.31,0-4.2-3.4-6.81-7.31-7.01-2.5-.2-4.8-.4-7.21-1.2-8.91-2.9-14.81-10.91-14.81-20.32,0-12.81,10.11-20.92,22.42-20.92v13.91h-.6c-4.1-.2-7.71,2.7-7.71,7.01s4,7.01,8.01,7.21c2.1.1,4.1.3,6.11.9,9.01,2.8,15.21,11.01,15.21,20.42,0,11.51-9.41,21.42-21.02,21.42Z"/><path class="uuid-0037d62d-c2f7-4695-a877-f69277208118" d="M534.05,149.85l-2.24-5.62h-12.84l-2.24,5.62h-3.49l10.18-25.34h3.91l10.22,25.34h-3.49ZM525.39,127.32l-5.51,14.09h10.98l-5.47-14.09Z"/><path class="uuid-0037d62d-c2f7-4695-a877-f69277208118" d="M546.17,149.85v-25.34h3.15v22.53h11.78v2.81h-14.93Z"/><path class="uuid-0037d62d-c2f7-4695-a877-f69277208118" d="M570.86,149.85v-25.34h3.15v22.53h11.78v2.81h-14.93Z"/><path class="uuid-0037d62d-c2f7-4695-a877-f69277208118" d="M595.55,149.85v-25.34h3.15v25.34h-3.15Z"/><path class="uuid-0037d62d-c2f7-4695-a877-f69277208118" d="M628.15,149.85l-2.24-5.62h-12.84l-2.24,5.62h-3.49l10.18-25.34h3.91l10.22,25.34h-3.49ZM619.49,127.32l-5.51,14.09h10.98l-5.47-14.09Z"/><path class="uuid-0037d62d-c2f7-4695-a877-f69277208118" d="M658.19,149.85l-14.78-20.44v20.44h-3.15v-25.34h3.23l14.59,20.02v-20.02h3.15v25.34h-3.04Z"/><path class="uuid-0037d62d-c2f7-4695-a877-f69277208118" d="M671.45,137.2c0-7.79,5.74-13.11,12.92-13.11,4.6,0,7.71,2.17,9.72,5.01l-2.66,1.48c-1.44-2.13-4.07-3.69-7.07-3.69-5.43,0-9.65,4.25-9.65,10.29s4.22,10.29,9.65,10.29c3,0,5.62-1.52,7.07-3.69l2.7,1.48c-2.13,2.89-5.17,5.01-9.76,5.01-7.18,0-12.92-5.32-12.92-13.11Z"/><path class="uuid-0037d62d-c2f7-4695-a877-f69277208118" d="M703.47,149.85v-25.34h16.6v2.81h-13.45v8.17h13.18v2.81h-13.18v8.74h13.45v2.81h-16.6Z"/></g></svg>