<svg xmlns="http://www.w3.org/2000/svg" viewBox="0 0 338.55 193.33"><title>galaxy</title><g style="isolation:isolate"><g id="Layer_2" data-name="Layer 2"><g id="Layer_1-2" data-name="Layer 1"><g id="Black_Hole" data-name="Black Hole"><ellipse cx="169.27" cy="96.66" rx="148.38" ry="82.89" transform="translate(-10.65 21.67) rotate(-7.1)" style="fill:#a67d8f;opacity:0.15"/><ellipse cx="169.27" cy="96.66" rx="170.16" ry="95.05" transform="translate(-10.65 21.67) rotate(-7.1)" style="fill:#a67d8f;opacity:0.05"/><ellipse cx="169.27" cy="96.66" rx="129.68" ry="72.44" transform="translate(-10.65 21.67) rotate(-7.1)" style="fill:#a67d8f;opacity:0.15"/><ellipse cx="169.27" cy="96.66" rx="105.74" ry="59.07" transform="translate(-10.65 21.67) rotate(-7.1)" style="fill:#a67d8f;opacity:0.2"/><path d="M247.77,55.81c-11.9-10.44-34.8-15.92-60.68-16.48.6.15-23.68-.49-57.11,11.83a212.6,212.6,0,0,1,61.85-5.55c26.1,1.59,43.32,10.12,48.74,22.45,3,9-1.1,19.59-15.19,29a71.35,71.35,0,0,1-27.49,11.07,36.19,36.19,0,0,1-4.23.4c-4.22.15-8.23-.53-6.67-3.25,6.89-5.46,14.33-11,15.95-17a9,9,0,0,0-1.16-8.3c-3-4.23-9.69-7.26-18.43-8.88-16.06-2.87-36.09-.06-54.28,6.13-23,8-39.33,20.25-44.78,32.67-4.72,10.39-2.14,20.07,6.32,27.73,11.9,10.45,34.79,15.92,60.67,16.48a182.34,182.34,0,0,0,57.12-11.83c-42,10.05-87.8,7.43-105.54-9.07-12.87-12.39-5.13-33.09,26.25-44.7,4.64-1.87,11.12-3.62,16.26-3.71A11.75,11.75,0,0,1,151.51,86c1.36,1.07-1.12,2.93-2.55,4.3-8.59,5.54-14.22,11.55-14.14,17.45a11.31,11.31,0,0,0,2.08,6c2.94,4.21,8.91,7.33,17.58,8.72,16.6,2.75,36.69.2,54.83-6.25,12.26-4.41,23.15-9.9,31-16.36A53.8,53.8,0,0,0,250.65,89.1C260.05,76.39,257.65,64.79,247.77,55.81ZM152.25,92.4c5-4.21,18.18-5.91,29.4-3.8s16.24,7.21,11.22,11.42-18.19,5.91-29.41,3.8S147.22,96.61,152.25,92.4Z" style="fill:#ff9af7"/><path d="M276.08,60.56c3.18,9.83.21,20.4-8.95,31.44-11.88,14.56-35.15,26.64-62.34,33.62-19.66,4.6-40,5.86-54.69,1.37-7.94-2.39-13.24-5.86-13.76-11.13a5.32,5.32,0,0,1,.56-2.12c1.08-2.22,3.8-4.63,8.91-4.69,9,1.91,18,4.07,29.82,3a81,81,0,0,0,18-3.53,70.64,70.64,0,0,0,23.86-12.67c11.19-9.58,12-19.43,5.25-27.18-8.88-9.72-28.77-14.48-52.58-13.31a194.61,194.61,0,0,0-59.25,12.54c-25.45,9.84-44.29,24-54,38.07.5-.37-8.79,14.17,5.56,26.82C55.67,113.47,76.16,88,116,73c29.79-11,69.9-13.66,83.48-.61,2.33,1.88,3.82,4.79,2.29,7.53a9.55,9.55,0,0,1-4.54,3.69c-2.64,1.09-5.65.37-8,0-8.59-2.79-19.12-3.84-31.31-1.86a104.91,104.91,0,0,0-12.55,2.94c-9.87,3-18.5,7.28-24.34,12.5-11.13,9.84-12.51,19.81-5.2,27.44,5.07,5.13,12.78,9.18,23.52,11.26a108.44,108.44,0,0,0,18.75,2c23.09.87,47.8-4.25,69.56-12.52,25.45-9.84,44.29-24,54-38.07C281.13,87.75,290.46,74.48,276.08,60.56Zm-94.43,28c11.22,2.1,16.24,7.21,11.22,11.42s-18.19,5.91-29.41,3.8-16.24-7.21-11.21-11.42S170.43,86.49,181.65,88.6Z" style="fill:#ff4dbd"/><path d="M195,95.16c.1.74.16,1.46.19,2.19a5.31,5.31,0,0,1-1.88,2.66c-5.12,4.24-18.51,6-29.91,3.89-6.58-1.21-11-3.43-12.67-5.91a4,4,0,0,1-.58-1.24c0-.08,0-.16,0-.24a19.55,19.55,0,0,1,.25-2l0-.21a22.67,22.67,0,0,1,39.44-10.66,22.17,22.17,0,0,1,4.92,10C194.86,94.13,195,94.64,195,95.16Z" style="fill:#4c0030"/><path d="M195,95.16c.1.74.16,1.46.19,2.19a5.31,5.31,0,0,1-1.88,2.66c-5.12,4.24-18.51,6-29.91,3.89-6.58-1.21-11-3.43-12.67-5.91,12.72,1.2,34.11,2.53,38.49-1.57,3.64-3.41-1.31-11.71-6.16-18.13a22.42,22.42,0,0,1,6.76,5.33,22.17,22.17,0,0,1,4.92,10C194.86,94.13,195,94.64,195,95.16Z" style="fill:#4c0030;opacity:0.5;mix-blend-mode:multiply"/></g></g></g></g></svg>