<svg xmlns="http://www.w3.org/2000/svg" id="uuid-3c950c09-5103-4657-bcdb-654dd13e9390" viewBox="0 0 745.22 99.93"><defs><style>.uuid-d4170271-b2d0-47b8-8dfc-632634205fa0{fill:#bcbec0;}</style></defs><g id="uuid-48a413e4-4210-4e16-a01d-9015be1669db"><g id="uuid-225dcb81-6710-4dab-9180-27cdfd2cc519"><path class="uuid-d4170271-b2d0-47b8-8dfc-632634205fa0" d="M100.22,49.96c0,27.59-22.44,49.96-50.11,49.96S0,77.56,0,49.96,22.44,0,50.11,0s50.11,22.37,50.11,49.96ZM80.52,16.86C61.38-2.12,26.74,2.65,12.56,25.17c3.58-.06,7.18.09,10.76.02,1.19-.02,2.25-.56,3.48-.48,3.54.22,3.24,3.37-.47,3.92-1.02.15-3.83-.49-3.68.68l16.44,47.88,9.67-29.07-6.87-19.4c-1.55-.11-6.44.09-6.52-2,.49-3.4,4.09-1.59,6.33-1.52,4.84.15,10.09.11,14.95,0,1.97-.04,6.38-1.74,6.38,1.51,0,2.64-4.28,1.77-5.97,1.96-.6.07-.79-.22-.6.6l16.61,47.48c2.57-13.43,11.36-24.93,5.34-38.76-2.46-5.65-8.75-11.24-4.39-17.78,1.42-2.13,3.85-3.75,6.5-3.36ZM72.63,88.56c.36.36,6.11-3.82,6.78-4.38,16.31-13.64,20.33-36.67,10.75-55.5l-.48,9.34-1.49,6.39-15.56,44.15ZM30.54,90.3L8.62,31.73c-9.61,21.4.24,49.15,21.92,58.57ZM65.17,92.49l-14.46-38.46-13.6,38.9c9.25,2.85,18.85,2.1,28.06-.43Z"/><path class="uuid-d4170271-b2d0-47b8-8dfc-632634205fa0" d="M137.52,17.74l11.41,46.77c.86.85,1.49-2.51,1.62-2.96,4.27-14.36,7.15-29.19,11.47-43.55l11.18-.29,12.55,47.24,12.27-47.21h12.28l-18.24,63.85-11.36-.45-12.71-44.17-1.08,1.11-12.33,43.44-11.78.02-17.99-63.81h12.72Z"/><path class="uuid-d4170271-b2d0-47b8-8dfc-632634205fa0" d="M688.22,41.78c1.03.21.7-.13.98-.56.67-1.04,1.04-2.24,1.9-3.33,6.31-7.92,20.88-5.99,24.08,3.9.89-.02,2.37-3.2,3.27-4.17,8.64-9.34,26.76-3.71,26.76,9.63v34.32h-11.4v-32.57c0-.33-.95-2.68-1.22-3.15-2.45-4.23-10.39-4.19-13.53-.85-.85.9-2.34,4.18-2.34,5.31v31.26h-10.96v-32.57c0-.23-.75-2.15-.95-2.55-3.11-6.29-13.33-4.5-15.42,1.97-.13.4-.74,3.01-.74,3.2v29.95h-10.96v-48.09h10.52v8.31Z"/><path class="uuid-d4170271-b2d0-47b8-8dfc-632634205fa0" d="M333.95,17.74v63.83h-10.96v-7.43c-.85-.2-.84.31-1.24.73-4.73,5.17-6.51,8.27-14.71,7.52-18.95-1.73-22.68-27.3-14.22-40.73,6.74-10.7,23.78-12.24,29.29.13.16.13.87-.57.87-.65v-23.39h10.96ZM310.16,42.34c-14.35,1.96-13.01,31.49,1.64,30.95,15.87-.58,15.09-33.24-1.64-30.95Z"/><path class="uuid-d4170271-b2d0-47b8-8dfc-632634205fa0" d="M354.55,60.14v21.42h-11.4V17.74h27.4c10.98,0,19.28,10.37,19.35,20.84.14,20.71-18.97,22.73-35.35,21.57ZM354.55,50.53h13.81c.68,0,4.25-1.48,5.06-1.95,6.64-3.91,6.12-16.73-1.03-19.98-.66-.3-3.52-1.24-4.02-1.24h-13.81v23.17Z"/><path class="uuid-d4170271-b2d0-47b8-8dfc-632634205fa0" d="M433.91,60.58c-1.16,13.2,16.8,18.55,22.63,6.96l10.25,1.35c-3.1,11.82-15.84,15.2-26.75,12.9-27.6-5.83-21.21-54.58,10.55-48.11,7.84,1.6,16.64,9.57,16.64,17.95v8.96h-33.32ZM456.71,53.15c-.55-15.6-21.86-14.79-22.8,0h22.8Z"/><path class="uuid-d4170271-b2d0-47b8-8dfc-632634205fa0" d="M646.04,33.17c34.27-3.39,34.5,51.72.8,49.21-28.25-2.1-28.01-46.52-.8-49.21ZM647.79,41.9c-13.87,1.3-13.46,27.6-2.86,31.02,19.59,6.32,20.81-32.71,2.86-31.02Z"/><path class="uuid-d4170271-b2d0-47b8-8dfc-632634205fa0" d="M229.51,33.17c33.67-2.61,33.49,51.92-.12,49.26-28.16-2.23-27.99-47.08.12-49.26ZM231.27,41.89c-17.51.68-14.17,38.46,4.9,30.72,10.49-4.26,9.61-31.28-4.9-30.72Z"/><path class="uuid-d4170271-b2d0-47b8-8dfc-632634205fa0" d="M554.93,46.59l-9.79.83c-1.8-2.56-2.25-4.39-5.54-5.44-9.78-3.09-17.84,6.57-6.78,10.26,8.57,2.86,23.41,2.08,23.26,15.03-.23,19.62-38.81,20.6-41.05,1.17l10.67-.89c2.07,6.58,9.64,8.06,15.5,5.34,4.07-1.89,4.58-6.82.54-8.99-7.33-3.94-23.13-1.55-25.19-13.36-3.75-21.55,35.75-23.76,38.39-3.96Z"/><path class="uuid-d4170271-b2d0-47b8-8dfc-632634205fa0" d="M500.16,47.43c-.7-8.68-19.43-7.34-16.85.84,1.57,4.98,13.5,5.36,18.11,6.87,9.22,3.01,13.55,11.29,7.65,19.83-8.04,11.65-36.79,10.02-38.33-6.51l10.67-.89c1.71,6.11,8.26,7.73,13.88,5.92,5.03-1.62,7.12-6.78,1.78-9.64-7.1-3.8-22.96-1.67-24.91-13.2-3.65-21.56,34.57-23.7,38.43-4.74-.19.51-.56.61-1.05.69-2.91.48-6.41.35-9.39.84Z"/><path class="uuid-d4170271-b2d0-47b8-8dfc-632634205fa0" d="M622.89,50.09h-10.96c-1.46-6.32-5.9-8.88-12.3-7.67-12.63,2.39-11.99,29.15.71,30.8,5.55.72,10.55-2.21,11.58-7.83h10.96c-2.96,22.7-36.07,22.45-42.41,1.84-3.35-10.88-.79-24.7,9.39-31.05,12.06-7.52,31.91-1.69,33.02,13.9Z"/><path class="uuid-d4170271-b2d0-47b8-8dfc-632634205fa0" d="M422.08,33.48v10.05c-4.83-.88-10.64-.8-14.02,3.29-.54.66-2.2,3.28-2.2,3.92v30.82h-11.4v-47.65h10.96v7.87c1.02.18.7-.07.98-.56.87-1.54,1.39-3.32,2.74-4.7,3.36-3.43,8.45-3.99,12.95-3.04Z"/><path class="uuid-d4170271-b2d0-47b8-8dfc-632634205fa0" d="M287.47,33.48v10.05c-5.1-1.24-12-.2-14.84,4.66-.52.89-1.38,4.28-1.38,5.18v28.2h-10.96v-47.65h10.96v7.87c1.39-.96,1.63-2.82,2.63-4.15,3.14-4.18,8.68-5.32,13.59-4.15Z"/><ellipse class="uuid-d4170271-b2d0-47b8-8dfc-632634205fa0" cx="568.23" cy="75.44" rx="6.78" ry="6.76"/></g></g></svg>