<svg xmlns="http://www.w3.org/2000/svg" id="uuid-ee748df9-d1c2-40db-8aae-b87838f582ce" viewBox="0 0 57.16 16.52"><defs><style>.uuid-0d386d22-8948-4c0d-bd2b-3fc3f20a3079{fill:#bcbec0;}</style></defs><path class="uuid-0d386d22-8948-4c0d-bd2b-3fc3f20a3079" d="M18.84,5.08h-1.02s-.06.01-.06.06v6.22s.01.06.06.06h1.02s.06-.01.06-.06v-6.22s-.01-.06-.06-.06Z"/><polygon class="uuid-0d386d22-8948-4c0d-bd2b-3fc3f20a3079" points="42.97 9.2 43.66 9.2 43.33 6.79 42.97 9.2"/><path class="uuid-0d386d22-8948-4c0d-bd2b-3fc3f20a3079" d="M54.98,0H2.18C.98,0,0,.98,0,2.18v12.16c0,1.2.98,2.18,2.18,2.18h52.8c1.2,0,2.18-.98,2.18-2.18V2.18C57.16.98,56.18,0,54.98,0ZM6.44,12.53c0,.07-.04.1-.1.1h-2.42c-.08,0-.1-.06-.1-.1V3.98c0-.06.04-.1.1-.1h1.12c.06,0,.1.04.1.1v7.39h1.2c.06,0,.1.05.1.1v1.06ZM10.9,11.48c0,.77-.27,1.22-1.25,1.22h-1.26c-1,0-1.29-.45-1.29-1.2v-6.45c0-.77.34-1.22,1.26-1.22h1.28c.93,0,1.26.45,1.26,1.21v6.44ZM15.58,6.19c0,.06-.04.09-.1.09h-1.12s-.1-.02-.1-.09v-1.05s-.01-.06-.06-.06h-1.02s-.06.01-.06.06v6.22s.01.06.06.06h1.02s.06-.01.06-.06v-2.09h-.43c-.08,0-.1-.06-.1-.1v-1.06s.04-.09.1-.09h1.65c.06,0,.1.03.1.09h0v3.36c0,.77-.27,1.22-1.25,1.22h-1.26c-1,0-1.29-.45-1.29-1.2v-6.45c0-.77.34-1.22,1.26-1.22h1.28c.93,0,1.26.45,1.26,1.21v1.16ZM20.22,11.48c0,.77-.27,1.22-1.25,1.22h-1.26c-1,0-1.29-.45-1.29-1.2v-6.45c0-.77.34-1.22,1.26-1.22h1.28c.93,0,1.26.45,1.26,1.21v6.44ZM26.84,7.53c0,.78-.27,1.29-1.25,1.29h-1.04v3.71c0,.07-.04.1-.1.1h-1.12c-.08,0-.1-.06-.1-.1V3.98c0-.06.04-.1.1-.1h2.25c.92,0,1.26.45,1.26,1.21v2.44ZM31.27,12.63h-1.17s-.1-.04-.1-.1l-.29-2.09h-1.04l-.31,2.09c0,.06-.04.1-.1.1h-1.18c-.06,0-.1-.04-.1-.1l1.49-8.55s.03-.1.1-.1h1.29c.07,0,.1.06.1.1l1.41,8.55c0,.06-.04.1-.1.1ZM35.78,11.46c0,.77-.27,1.22-1.25,1.22h-1.26c-1,0-1.29-.45-1.29-1.2v-6.45c0-.77.34-1.22,1.26-1.22h1.28c.93,0,1.26.45,1.26,1.21v1.16c0,.06-.04.09-.1.09h-1.12s-.1-.02-.1-.09v-1.05s-.01-.06-.06-.06h0s-1.02.01-1.02.01c0,0-.06.01-.06.06v6.22s.01.06.06.06h1.02s.06-.01.06-.06v-1.16c0-.06.05-.09.1-.09h1.12c.06,0,.1.03.1.09v1.26ZM40.64,4.01l-1.24,3.65c.86.11,1.06.58,1.06,1.44v3.43c0,.06-.04.1-.09.1h-1.14s-.1-.04-.1-.1v-3.59s-.01-.06-.06-.06h-1.09v3.65c0,.07-.04.1-.1.1h-1.12c-.08,0-.1-.06-.1-.1V3.98c0-.06.04-.1.1-.1h1.12c.06,0,.1.04.1.1v3.7l1.24-3.7s.05-.1.13-.1h1.23c.06,0,.09.06.06.13ZM45.38,12.63h-1.17s-.1-.04-.1-.1l-.29-2.09h-1.04l-.31,2.09c0,.06-.04.1-.1.1h-1.18c-.06,0-.1-.04-.1-.1l1.49-8.55s.03-.1.1-.1h1.29c.07,0,.1.06.1.1l1.41,8.55c0,.06-.04.1-.1.1ZM49.9,6.19c0,.06-.04.09-.1.09h-1.12s-.1-.02-.1-.09v-1.05s-.01-.06-.06-.06h-1.02s-.06.01-.06.06v6.22s.01.06.06.06h1.02s.06-.01.06-.06v-2.09h-.43c-.08,0-.1-.06-.1-.1v-1.06s.04-.09.1-.09h1.65c.06,0,.1.03.1.09h0v3.36c0,.77-.27,1.22-1.25,1.22h-1.26c-1,0-1.29-.45-1.29-1.2v-6.45c0-.77.34-1.22,1.26-1.22h1.28c.93,0,1.26.45,1.26,1.21v1.16ZM53.33,5.04c0,.06-.05.09-.1.09h-1.1v2.43h1.1s.1.04.1.1v1.06c0,.08-.05.1-.1.1h-1.1v2.55h1.1s.1.04.1.09v1.07c0,.07-.05.1-.1.1h-2.32c-.08,0-.1-.06-.1-.1V3.98c0-.06.04-.1.1-.1h2.32s.1.04.1.1v1.06Z"/><path class="uuid-0d386d22-8948-4c0d-bd2b-3fc3f20a3079" d="M25.45,5.15h-.9v2.41h.9s.06,0,.06-.06v-2.29s-.01-.06-.06-.06Z"/><polygon class="uuid-0d386d22-8948-4c0d-bd2b-3fc3f20a3079" points="28.85 9.2 29.54 9.2 29.21 6.79 28.85 9.2"/><path class="uuid-0d386d22-8948-4c0d-bd2b-3fc3f20a3079" d="M9.51,5.08h-1.02s-.06.01-.06.06v6.22s.01.06.06.06h1.02s.06-.01.06-.06v-6.22s-.01-.06-.06-.06Z"/></svg>