<svg xmlns="http://www.w3.org/2000/svg" viewBox="0 0 153.18 119.7"><title>stone-1-1</title><g style="isolation:isolate"><g id="Layer_2" data-name="Layer 2"><g id="Layer_1-2" data-name="Layer 1"><polygon points="153.13 29.96 122.47 93.63 109.92 119.7 72.87 116.89 48.78 92.07 24.47 89.22 0 35.41 33.95 34.2 74.65 32.76 119.36 31.17 153.13 29.96" style="fill:#ff009a"/><path d="M74.65,32.76l-1.78,84.12L48.78,92.07l-7-35.85S35.56,41,34,34.2Z" style="fill:#80004d;opacity:0.65;mix-blend-mode:multiply"/><polygon points="153.13 29.96 122.47 93.63 119.36 31.17 153.13 29.96" style="fill:#80004d;opacity:0.65;mix-blend-mode:multiply"/><path d="M153.18,30l-.05,0c-.25-.1-1,.18-2.17.75-8.85,4.4-41.14,26.12-51.62,28-11.85,2.08-24.89-1.39-31.92-.78S3.67,36.87,0,35.41c0,0,0-.37.08-1,.3-3.51,1.45-15,3.67-17,2.63-2.35,12.43-3.55,18-9S69-1.7,83.34.6c13.84,2.22,67.87,28.25,69.8,29.34C153.16,30,153.18,30,153.18,30Z" style="fill:#e18dbe"/><path d="M89.39,50.72c4.56-.38,50.94-16.33,61.57-20-8.85,4.4-41.14,26.12-51.62,28-11.85,2.08-24.89-1.39-31.92-.78S3.67,36.87,0,35.41c0,0,0-.37.08-1L37,44.67S84.23,51.15,89.39,50.72Z" style="fill:#ffbdff"/><path d="M153.18,30l-.05,0v0S153.18,30,153.18,30Z" style="fill:#e18dbe"/></g></g></g></svg>