<svg xmlns="http://www.w3.org/2000/svg" viewBox="0 0 345.42 432.14"><title>astronaut</title><g id="Layer_2" data-name="Layer 2"><g id="Layer_1-2" data-name="Layer 1"><g id="Astronout"><path d="M2229.19-1172.19c3.2,8.82,12.47,13.55,20.72,10.56s12.35-12.56,9.15-21.38-12.47-13.55-20.72-10.56S2226-1181,2229.19-1172.19Z" transform="translate(-2059.99 1206.58)" style="fill:#c6c6c6"></path><path d="M2129.57-1136.11c3.19,8.82,12.47,13.55,20.72,10.56s12.34-12.56,9.15-21.38-12.47-13.55-20.72-10.56S2126.38-1144.94,2129.57-1136.11Z" transform="translate(-2059.99 1206.58)" style="fill:#c6c6c6"></path><path d="M2191.79-961a6.52,6.52,0,0,0,8.34,3.91l113-40.94a6.49,6.49,0,0,0,3.9-8.33l-49.86-137.68a6.51,6.51,0,0,0-8.33-3.91l-113,40.94a6.51,6.51,0,0,0-3.9,8.33Z" transform="translate(-2059.99 1206.58)" style="fill:#706f6f"></path><path d="M2175.91-1201.86c.61-.24,1.23-.48,1.85-.7,29-10.52,59.61.35,68.27,24.27,5.89,16.25.15,34.34-13.23,47.57l-27.52,10Z" transform="translate(-2059.99 1206.58)" style="fill:#dadada"></path><path d="M2181.49-1112.14c-18.75-1.6-34.74-11.82-40.62-28.07-8.48-23.4,7.16-50.63,35-61.65l29.37,81.1Z" transform="translate(-2059.99 1206.58)" style="fill:#c6c6c6"></path><path d="M2153.8-1157.58a36,36,0,0,1,5.51-12.59,43.82,43.82,0,0,1,3.91-4.91,49.86,49.86,0,0,1,19.71-12.91l.46-.15c21.79-7.67,44.45.15,50.78,17.61s-6.25,38.27-28.18,46.22-44.87.12-51.24-17.46A28.41,28.41,0,0,1,2153.8-1157.58Z" transform="translate(-2059.99 1206.58)" style="fill:#bf0074"></path><path d="M2211.15-1149.18a11.52,11.52,0,0,1-16.24,1.25l-31.69-27.15a49.86,49.86,0,0,1,19.71-12.91l.46-.15,26.51,22.71A11.53,11.53,0,0,1,2211.15-1149.18Z" transform="translate(-2059.99 1206.58)" style="fill:#f6f6f6;opacity:0.5"></path><path d="M2159.31-1170.17l14.7,12.59a6.56,6.56,0,0,1,.71,9.27,6.56,6.56,0,0,1-9.26.72l-11.66-10A36,36,0,0,1,2159.31-1170.17Z" transform="translate(-2059.99 1206.58)" style="fill:#f6f6f6;opacity:0.5"></path><path d="M2232.8-1130.72l3.76-1.37a6.74,6.74,0,0,1,8.62,4l.56,1.54a6.73,6.73,0,0,1-.92,6.3L2210-1107.62l-2.78-7.67-2-5.47Z" transform="translate(-2059.99 1206.58)" style="fill:#9d9d9c"></path><path d="M2210.42-1106.56l-.38-1.06,34.78-12.59a6.67,6.67,0,0,1-3.12,2.32Z" transform="translate(-2059.99 1206.58)" style="fill:#dadada"></path><path d="M2267.45-1066.55l29.62,81.8a7,7,0,0,1-4.19,9l-31,11.24-34.39-95,31-11.24A7,7,0,0,1,2267.45-1066.55Z" transform="translate(-2059.99 1206.58)" style="fill:#ededed"></path><path d="M2175.42-1109.94l6.07-2.2,23.79-8.62,2,5.47,2.78,7.67-33.36,12.08a6.72,6.72,0,0,1-4.74-4.24l-.56-1.55A6.73,6.73,0,0,1,2175.42-1109.94Z" transform="translate(-2059.99 1206.58)" style="fill:#878787"></path><path d="M2258.49-1070.75l-31,11.24-17-47,31.28-11.33a6.67,6.67,0,0,0,3.12-2.32l13.34-4.83a7.25,7.25,0,0,1,.76-.22,72.53,72.53,0,0,1,12.59-3.08c14.38-2.18,36-.89,57.39,17.58l.19.17c1.35,1.18,3.26,2.93,5.57,5.31,7.42,7.61,18.91,21.54,29.12,42.83q1.62,3.38,3.18,7a209.07,209.07,0,0,1,8.38,23,19.62,19.62,0,0,1-12.1,24.08c-.34.13-.7.24-1.06.35a19.62,19.62,0,0,1-24.43-13.15,169.59,169.59,0,0,0-6.48-18c-1-2.45-2.09-4.78-3.16-7a127,127,0,0,0-18.55-28.55,72.84,72.84,0,0,0-5.39-5.54l-.93-.84c-7.85-6.78-15.92-9.61-24.66-8.63l-.45.06,42.47,117.27.86,2.37,13.78,38,2.54,7,18,49.8,2.54,7,7.51,20.74,18.38-6.66a15.79,15.79,0,0,1,20.23,9.47,15.79,15.79,0,0,1-9.47,20.23l-37.95,13.74a16.06,16.06,0,0,1-20.12-9.2l-.06-.14-12.93-35.72-2.54-7-18-49.8-2.54-7-11.49-31.72-20,7.25-7.46-20.6,31-11.24a7,7,0,0,0,4.19-9l-29.62-81.8A7,7,0,0,0,2258.49-1070.75Z" transform="translate(-2059.99 1206.58)" style="fill:#dadada"></path><path d="M2233.51-954.3a7,7,0,0,1-9-4.19l-29.62-81.8a7,7,0,0,1,4.19-9l28.34-10.26,34.39,95Z" transform="translate(-2059.99 1206.58)" style="fill:#dadada"></path><path d="M2334.66-1105.28l-25.1,30.59a72.84,72.84,0,0,0-5.39-5.54l24.92-30.36C2330.44-1109.41,2332.35-1107.66,2334.66-1105.28Z" transform="translate(-2059.99 1206.58)" style="fill:#706f6f"></path><path d="M2367-1055.46l-35.69,16.32c-1-2.45-2.09-4.78-3.16-7l35.67-16.31Q2365.4-1059.07,2367-1055.46Z" transform="translate(-2059.99 1206.58)" style="fill:#706f6f"></path><path d="M2182.63-827.83a19.52,19.52,0,0,1,9.23-10.24,112.88,112.88,0,0,0,25.29-18.64,52.82,52.82,0,0,0,5-5.84,30.76,30.76,0,0,0,2.81-4.69c4.73-10.09,5.11-21,3.65-30.83-.38-2.53-.88-5-1.46-7.36a97.38,97.38,0,0,0-9.61-24.32l.05.07,0,0a6.54,6.54,0,0,1-1.33-2.22l-43.55-120.24-33.24,12.05-1.15.44a51.38,51.38,0,0,1-16.6,3,44.79,44.79,0,0,1-7.51-.54,40.9,40.9,0,0,1-9.92-2.89c-7.32-3.19-17.22-10.2-22.77-25.51-2.73-7.56-6.06-16.89-9.24-25.83-.84-2.38-1.68-4.74-2.49-7-4.77-13.48-8.65-24.54-8.72-24.74a19.61,19.61,0,0,1,11.83-24.94l.18-.07a19.61,19.61,0,0,1,25,12c.07.2,3.89,11.08,8.6,24.37l2.49,7c3.17,8.93,6.51,18.28,9.24,25.83a7.87,7.87,0,0,0,1.54,2.89,6.73,6.73,0,0,0,2.91,0,11.13,11.13,0,0,0,2-.48l.33-.15.51-.17,5.37-2,33-12a6.82,6.82,0,0,1,1.45-.74l11-4,33.36-12.08.38,1.06,17,47-28.34,10.26a7,7,0,0,0-4.19,9l29.62,81.8a7,7,0,0,0,9,4.19l28.34-10.26,7.46,20.6-12.67,4.59a136.87,136.87,0,0,1,10,31c.45,2.4.84,4.86,1.15,7.38,1.92,15.54.82,33.16-7.25,50.39a61,61,0,0,1-2.91,5.47,73.79,73.79,0,0,1-4.17,6.25c-8.34,11.24-19.57,20.33-28.58,26.55L2235-800.52a15.8,15.8,0,0,1-1.68,22.27,15.78,15.78,0,0,1-22.27-1.68l-20.9-24.3a19.49,19.49,0,0,1-6.69-7.4,19.53,19.53,0,0,1-1.25-3A16.33,16.33,0,0,1,2182.63-827.83Z" transform="translate(-2059.99 1206.58)" style="fill:#c6c6c6"></path><path d="M2106.73-1111.84l2.49,7-36.9,13.36c-.84-2.38-1.68-4.74-2.49-7Z" transform="translate(-2059.99 1206.58)" style="fill:#706f6f"></path><path d="M2124.94-1076.55l.33-.15.51-.17,5.37-2-9.39,42.14a44.79,44.79,0,0,1-7.51-.54l8.66-38.85A11.13,11.13,0,0,0,2124.94-1076.55Z" transform="translate(-2059.99 1206.58)" style="fill:#706f6f"></path><rect x="2301.01" y="-925.94" width="36.59" height="7.45" transform="translate(-1607.36 1941.22) rotate(-19.91)" style="fill:#706f6f"></rect><rect x="2321.58" y="-869.14" width="36.59" height="7.45" transform="translate(-1625.55 1951.52) rotate(-19.91)" style="fill:#706f6f"></rect><path d="M2227.15-905.43l39.45-2.94c.45,2.4.84,4.86,1.15,7.38l-39.14,2.92C2228.23-900.6,2227.73-903.07,2227.15-905.43Z" transform="translate(-2059.99 1206.58)" style="fill:#706f6f"></path><path d="M2222.15-862.55l35.44,17.42a73.79,73.79,0,0,1-4.17,6.25l-36.27-17.83A52.82,52.82,0,0,0,2222.15-862.55Z" transform="translate(-2059.99 1206.58)" style="fill:#706f6f"></path></g></g></g></svg>