<svg xmlns="http://www.w3.org/2000/svg" viewBox="0 0 226.03 168.26"><defs><style>.b228df77-92d8-43b5-a8e9-1f572c1d64d1{isolation:isolate;}.b02745b6-58c2-4d93-9e03-5779f1ceb22e,.b391471f-43ea-4169-8fe5-bedc50825177,.f6747e17-d5de-4259-bac1-bf0058ffc7f9{fill:#d929aa;}.b02745b6-58c2-4d93-9e03-5779f1ceb22e{opacity:0.45;}.b02745b6-58c2-4d93-9e03-5779f1ceb22e,.f6747e17-d5de-4259-bac1-bf0058ffc7f9{mix-blend-mode:multiply;}.f6747e17-d5de-4259-bac1-bf0058ffc7f9{opacity:0.6;}</style></defs><title>3 stones</title><g class="b228df77-92d8-43b5-a8e9-1f572c1d64d1"><g id="eaa4ca6b-508c-4153-a2ff-73c690dcaa13" data-name="Layer 2"><g id="ed7e3058-f305-46ec-b3f2-023a56f4fd65" data-name="Layer 1"><g id="f9728cae-aefa-4cfb-866f-77ca63319176" data-name="Stone 2"><path class="b391471f-43ea-4169-8fe5-bedc50825177" d="M159.28,107.62c-9.25-1.57-7.68-10.83-5.13-14.93.5-.82.28-2.93-.43-5.82-2.83-11.69-13.36-36.22-14.13-40.35a6.58,6.58,0,0,1-.09-1.41c0-3.35,1.48-9.55,3.82-16,2.43-6.63,5.82-13.46,9.6-17.54,8-8.67,16.82-10,25.62-11.39S217.2,4.48,217.2,4.48a21.38,21.38,0,0,1,7.88,8.68c3,6.06-1.85,20.08-5.84,40a123.75,123.75,0,0,1-9.24,28,95.4,95.4,0,0,1-11.73,19.27C190.11,110.45,168.54,109.19,159.28,107.62Z"/><path class="b02745b6-58c2-4d93-9e03-5779f1ceb22e" d="M153.72,86.87c-2.83-11.69-13.36-36.22-14.13-40.35-.52-2.72,1-9.92,3.73-17.38,5.63,3.1,11.94,7.11,13.55,10.29,3.06,6.07,11.07,13.31,7.08,25.24C161.64,71.59,157.22,80.26,153.72,86.87Z"/><path class="b02745b6-58c2-4d93-9e03-5779f1ceb22e" d="M198.74,16.53s11.39,17.67,6.11,20.08-18.45-3.86-19.62-6.86-1.29-17.47.86-17.28S198.74,16.53,198.74,16.53Z"/><path class="f6747e17-d5de-4259-bac1-bf0058ffc7f9" d="M159.28,107.62c-9.25-1.57-7.68-10.83-5.13-14.93.5-.82.28-2.93-.43-5.82-2.83-11.69-13.36-36.22-14.13-40.35a6.58,6.58,0,0,1-.09-1.41,39.47,39.47,0,0,0,2.69,4.55c8.34,11.61,16.07,37.62,22.91,41.87s13.69.53,31.42-3.63A33.25,33.25,0,0,0,210,81.08a95.4,95.4,0,0,1-11.73,19.27C190.11,110.45,168.54,109.19,159.28,107.62Z"/><path class="b391471f-43ea-4169-8fe5-bedc50825177" d="M48.16,46.53c1.94,2.73-.79,4.66-2.47,5.06-.33.08-.81.66-1.36,1.57-2.23,3.66-5.76,12.5-6.6,13.73a2.27,2.27,0,0,1-.34.38,20.07,20.07,0,0,1-5,3.06,19.89,19.89,0,0,1-6.84,2c-4.2.16-6.77-1.72-9.33-3.59S7.57,57.93,7.57,57.93a7.55,7.55,0,0,1,.2-4.17c.75-2.3,5.52-4.6,11.54-8.6a43.89,43.89,0,0,1,9.38-4.72,34.27,34.27,0,0,1,7.81-1.91C41.1,38,46.22,43.8,48.16,46.53Z"/><path class="b02745b6-58c2-4d93-9e03-5779f1ceb22e" d="M44.33,53.16c-2.23,3.66-5.76,12.5-6.6,13.73-.56.82-2.76,2.25-5.33,3.44-.64-2.2-1.21-4.8-.82-6,.76-2.3.57-6.15,4.58-8.15A59.33,59.33,0,0,1,44.33,53.16Z"/><path class="b02745b6-58c2-4d93-9e03-5779f1ceb22e" d="M15.25,59.55s1.59-7.33,3.53-6.61,3.67,5.63,3.21,6.68-4.08,4.73-4.57,4.13A44.68,44.68,0,0,1,15.25,59.55Z"/><path class="f6747e17-d5de-4259-bac1-bf0058ffc7f9" d="M48.16,46.53c1.94,2.73-.79,4.66-2.47,5.06-.33.08-.81.66-1.36,1.57-2.23,3.66-5.76,12.5-6.6,13.73a2.27,2.27,0,0,1-.34.38,13.68,13.68,0,0,0,.47-1.82c.82-5,5.43-13.54,4.78-16.33s-3.32-3.58-8.84-7a11.75,11.75,0,0,0-5.11-1.67,34.27,34.27,0,0,1,7.81-1.91C41.1,38,46.22,43.8,48.16,46.53Z"/><path class="b391471f-43ea-4169-8fe5-bedc50825177" d="M25.82,167.59c-2.73,1.94-4.67-.79-5.06-2.47-.08-.33-.67-.81-1.58-1.36-3.66-2.23-12.49-5.76-13.73-6.61a2.52,2.52,0,0,1-.38-.33,20.68,20.68,0,0,1-3.06-5A19.86,19.86,0,0,1,0,145c-.16-4.21,1.71-6.77,3.59-9.33S14.42,127,14.42,127a7.55,7.55,0,0,1,4.17.2c2.3.75,4.6,5.52,8.6,11.54a44.05,44.05,0,0,1,4.72,9.37,33.87,33.87,0,0,1,1.9,7.82C34.3,160.53,28.55,165.65,25.82,167.59Z"/><path class="b02745b6-58c2-4d93-9e03-5779f1ceb22e" d="M19.18,163.76c-3.66-2.23-12.49-5.76-13.73-6.61-.81-.55-2.24-2.75-3.44-5.32,2.2-.64,4.81-1.22,6-.82,2.3.76,6.15.57,8.15,4.58A58,58,0,0,1,19.18,163.76Z"/><path class="b02745b6-58c2-4d93-9e03-5779f1ceb22e" d="M12.8,134.68s7.33,1.59,6.6,3.53-5.62,3.67-6.67,3.21S8,137.34,8.59,136.85A45.91,45.91,0,0,1,12.8,134.68Z"/><path class="f6747e17-d5de-4259-bac1-bf0058ffc7f9" d="M25.82,167.59c-2.73,1.94-4.67-.79-5.06-2.47-.08-.33-.67-.81-1.58-1.36-3.66-2.23-12.49-5.76-13.73-6.61a2.52,2.52,0,0,1-.38-.33,14.16,14.16,0,0,0,1.83.47c5,.82,13.53,5.43,16.33,4.78s3.58-3.32,7-8.84a11.63,11.63,0,0,0,1.68-5.12,33.87,33.87,0,0,1,1.9,7.82C34.3,160.53,28.55,165.65,25.82,167.59Z"/></g></g></g></g></svg>