<svg xmlns="http://www.w3.org/2000/svg" viewBox="0 0 95.81 95.81"><title>box-4-icon</title><g id="Layer_2" data-name="Layer 2"><g id="Layer_1-2" data-name="Layer 1"><path d="M86.27,56.84a2,2,0,0,1-.43,0l-6.07-1.3a2,2,0,1,1,.85-4l6.07,1.3a2,2,0,0,1-.42,4Z"/><path d="M81.28,65.31a2,2,0,0,1-1.71-.94l-3.38-5.21A2,2,0,1,1,79.62,57L83,62.16a2,2,0,0,1-1.71,3.15Z"/><path d="M42.66,18.34a2,2,0,0,1-2-1.95l-.27-6.2A2,2,0,0,1,44.43,10l.27,6.2a2,2,0,0,1-2,2.12Z"/><path d="M37.79,19.83a2,2,0,0,1-1.38-.53l-4.58-4.2a2,2,0,0,1,2.76-3l4.57,4.19a2,2,0,0,1-1.37,3.54Z"/><path d="M52.86,44.23l-7,13.51L56.69,68.42A1,1,0,0,1,55.87,70l-15-2.5-6.8,13.62a1,1,0,0,1-1.79-.29L30,65.81,15,63.55a1,1,0,0,1-.29-1.79L28.28,55l-2.5-15a1,1,0,0,1,1.61-.82L38.07,50l13.51-7A1,1,0,0,1,52.86,44.23Z" style="fill:#e93396"/><path d="M21.23,54.78h-.06L2,54.27A2,2,0,0,1,.6,50.79L17.85,33.54a19.65,19.65,0,0,1,13.53-5.77l11.34-.23a2,2,0,1,1,.09,4.07l-11.35.24a15.58,15.58,0,0,0-10.73,4.57L6.83,50.32l14.45.39a2,2,0,0,1-.05,4.07Z"/><path d="M43.57,95.81a2.17,2.17,0,0,1-.75-.14,2,2,0,0,1-1.28-1.84L41,74.64a2,2,0,0,1,2-2.09h.06a2,2,0,0,1,2,2L45.49,89l13.9-13.9A15.58,15.58,0,0,0,64,64.35L64.2,53a2,2,0,1,1,4.07.08L68,64.43A19.65,19.65,0,0,1,62.27,78L45,95.21A2,2,0,0,1,43.57,95.81Z"/><path d="M57.91,62.88a2,2,0,0,1-1.44-.59,2,2,0,0,1,0-2.89L78.55,37.33a45,45,0,0,0,13.18-32V4.08H90.31A45,45,0,0,0,58.48,17.26L36.41,39.34a2,2,0,0,1-2.89-2.88L55.6,14.38A49.06,49.06,0,0,1,90.31,0h3.46a2,2,0,0,1,2,2V5.31a49,49,0,0,1-3.7,18.89,48.71,48.71,0,0,1-10.68,16L59.35,62.29A2,2,0,0,1,57.91,62.88Z"/><path d="M18.69,92.14a2,2,0,0,1-1.44-3.48l7.59-7.6A2,2,0,1,1,27.73,84l-7.6,7.59A2,2,0,0,1,18.69,92.14Z"/><path d="M5.71,79.16a2,2,0,0,1-1.44-3.48l7.6-7.6A2,2,0,0,1,14.75,71l-7.6,7.59A2,2,0,0,1,5.71,79.16Z"/><path d="M17,80.89a2,2,0,0,1-1.44-3.48l7-7a2,2,0,0,1,2.88,2.88l-7,7A2,2,0,0,1,17,80.89Z"/><path d="M73.61,30.36a2,2,0,0,1,0-4.08,4.08,4.08,0,1,0-4.08-4.08,2,2,0,0,1-4.08,0,8.16,8.16,0,1,1,8.16,8.16Z"/></g></g></svg>