<svg xmlns="http://www.w3.org/2000/svg" xmlns:xlink="http://www.w3.org/1999/xlink" id="uuid-5f255f1f-a771-4b08-aeb8-bd8b8478131f" viewBox="0 0 372 75.37"><g id="flagGroup"><path class="uuid-69149bf7-5262-425c-a9e8-91bc2e76c610" d="M181.17,69.8c-60.39-19.3-120.78,19.3-181.17,0V16.19c60.39,19.3,120.78-19.3,181.17,0,0,17.87,0,35.74,0,53.6Z" id="flag"/><path class="uuid-b3126852-0993-4a64-ad6f-f6fab9f198bc" d="M15.36,30.26c10.94,2.45,21.88,2.95,32.81,2.35.1,2.08.21,4.17.31,6.26-8.61.49-17.21.3-25.82-.97.1,2.01.2,4.01.3,6.02,7.77,1.13,15.54,1.38,23.3,1.04.1,2.09.21,4.17.31,6.26-7.77.35-15.54.12-23.3-.98.21,4.18.41,8.36.62,12.53-2.33-.32-4.66-.71-7-1.2-.52-10.43-1.03-20.86-1.55-31.3Z"/><path class="uuid-b3126852-0993-4a64-ad6f-f6fab9f198bc" d="M53.1,32.26c8.95-.75,17.9-2.15,26.85-3.75,1.61-.29,3.05-.24,4.33.15,1.28.39,2.28,1.09,3.02,2.11.73,1.02,1.13,2.26,1.21,3.73.07,1.32.13,2.64.2,3.96.08,1.6-.17,3.05-.75,4.36-.58,1.31-1.46,2.41-2.64,3.28-1.18.87-2.61,1.47-4.29,1.77-6.65,1.19-13.3,2.3-19.95,3.11.19,3.78.38,7.56.57,11.34-2.33.29-4.66.55-7,.76-.52-10.28-1.03-20.55-1.55-30.83ZM81.15,40.9c.45-.54.66-1.19.62-1.94-.03-.65-.07-1.31-.1-1.96-.02-.5-.15-.91-.39-1.26-.23-.35-.56-.59-.98-.71-.42-.12-.89-.13-1.42-.04-6.16,1.09-12.32,2.07-18.48,2.81.12,2.32.23,4.65.35,6.97,6.16-.75,12.32-1.74,18.48-2.83.82-.15,1.46-.49,1.91-1.03ZM72.5,46.34c2.64-.58,5.27-1.18,7.91-1.8,3.25,4.37,6.51,8.72,9.76,13.07-2.61.49-5.22.97-7.83,1.45-3.28-4.21-6.56-8.45-9.83-12.72Z"/><path class="uuid-b3126852-0993-4a64-ad6f-f6fab9f198bc" d="M94.34,25.86c10.99-2.04,21.97-4.01,32.96-5.02.1,2.08.21,4.16.31,6.24-8.66.79-17.31,2.17-25.97,3.71.1,1.93.19,3.85.29,5.78,7.72-1.38,15.44-2.61,23.16-3.42.1,2.08.21,4.16.31,6.24-7.72.79-15.44,2.02-23.16,3.39.1,2.09.21,4.18.31,6.27,8.66-1.54,17.31-2.89,25.97-3.63.1,2.08.21,4.16.31,6.25-10.99.93-21.97,2.84-32.96,4.87-.51-10.23-1.03-20.46-1.55-30.68Z"/><path class="uuid-b3126852-0993-4a64-ad6f-f6fab9f198bc" d="M132.23,20.44c10.99-.72,21.97-.37,32.96,1.91.1,2.11.21,4.23.31,6.34-8.66-1.82-17.31-2.45-25.97-2.29.1,1.94.19,3.88.29,5.82,7.72-.13,15.44.37,23.16,1.79.1,2.11.21,4.22.31,6.33-7.72-1.45-15.44-1.97-23.16-1.86.11,2.11.21,4.21.32,6.32,8.65-.1,17.31.59,25.97,2.5.1,2.11.21,4.23.31,6.34-10.99-2.46-21.97-2.95-32.96-2.34-.52-10.29-1.03-20.59-1.55-30.88Z"/><path class="uuid-35f8f760-def3-4686-84b5-6ed9d858659f" d="M283.18,28.23c-34.73-2.5-69.47,6.02-104.2,3.53-.01-.32-.03-.64-.04-.96,34.73,2.5,69.47-6.02,104.2-3.53.01.32.03.64.04.96Z"/><path class="uuid-22245fe5-2391-49c8-a1e3-8989f8d10313" d="M322.64,47.87c-48.04-2.87-96.08,7.1-144.11,4.23.01.34.02.67.03,1.01,48.04,2.87,96.08-7.1,144.11-4.23-.01-.34-.02-.67-.03-1.01Z"/></g><defs><style>.uuid-09bc8e88-163e-4354-843a-d76ed2197a88{fill:none;}.uuid-a2b41b54-fdd5-4f5d-a042-19ac33232cf8{fill:#cdbcc9;}.uuid-f399c445-1ba0-48a4-9dad-8ad73100b139{fill:#f3eef4;}.uuid-0594d1ab-fe0d-4b2a-984f-05721679151e{fill:#80174d;}.uuid-7d9ed2ad-8880-4645-b109-c3a633b088ac{clip-path:url(#uuid-31b3651b-092e-4e2f-8b94-94e18bbd735b);}.uuid-a3239b12-2633-4d83-9a83-163b83dd65fd{fill:#978595;}.uuid-204bb702-817c-4097-918c-e32465752a18{fill:#931e4d;}.uuid-d87f1a7b-69fa-4793-96d5-183daf7d3443{fill:#963074;}.uuid-c97b5954-5211-4868-b90b-25d74a0ce4f5,.uuid-d204c2b3-9536-4f50-bec4-9ba436aa4b32,.uuid-e843fd83-8dee-4624-8bd4-e419726e031d,.uuid-e7b06165-f658-46cb-8e7d-46f12e30919d{isolation:isolate;}.uuid-e29aceec-edd7-4c50-87ad-43f86cb619e2{fill:#68113c;}.uuid-77577701-cc55-4f9c-8c0a-bdd533264101{fill:#f2acdd;}.uuid-54fa8df9-7eb7-4522-8761-a8226b2c37b0{fill:#981e77;}.uuid-69149bf7-5262-425c-a9e8-91bc2e76c610{fill:url(#uuid-fe4f1b75-eb01-463d-a91f-53048960a3ac);}.uuid-20b73fe4-c807-42e1-9d7b-87da560209cb{fill:#1e1d1e;}.uuid-24cca96d-7866-4dc6-b1a1-85976bff4066{fill:#ba27a9;}.uuid-5a07430d-2766-4b76-90ae-04f376afc753{fill:#c65296;}.uuid-b3126852-0993-4a64-ad6f-f6fab9f198bc,.uuid-e7b06165-f658-46cb-8e7d-46f12e30919d{fill:#fff;}.uuid-dc125f9a-dda1-4739-8990-5a570d4920f6{fill:#c32966;}.uuid-8b0e5155-3613-4396-9855-0e5757b157bc{fill:#d22eb7;}.uuid-88f29c24-9bf0-4bad-b199-9fd552f664f2{fill:#b72987;}.uuid-35f8f760-def3-4686-84b5-6ed9d858659f{fill:url(#uuid-a70c20d6-069f-49e6-8e24-e6032b4ab5b6);}.uuid-22245fe5-2391-49c8-a1e3-8989f8d10313{fill:url(#uuid-4d476c7a-d64b-48af-a235-4bab527f7637);}.uuid-edb03287-41c7-415b-a832-90c3b46e4257{fill:#897381;}.uuid-545e6e0e-790f-4e9c-b6b9-6304c5de3bab{fill:#e943ef;}.uuid-371af6c6-dc73-4fc4-9188-3e066928cc27{fill:#dd36dc;}.uuid-d204c2b3-9536-4f50-bec4-9ba436aa4b32{opacity:.3;}.uuid-d204c2b3-9536-4f50-bec4-9ba436aa4b32,.uuid-e843fd83-8dee-4624-8bd4-e419726e031d{fill:#ea517a;mix-blend-mode:multiply;}.uuid-e843fd83-8dee-4624-8bd4-e419726e031d,.uuid-e7b06165-f658-46cb-8e7d-46f12e30919d{opacity:.5;}.uuid-c840a07d-cba5-442b-b893-75c698948f36{fill:#410715;}</style><linearGradient gradientUnits="userSpaceOnUse" id="uuid-a70c20d6-069f-49e6-8e24-e6032b4ab5b6" x1="178.94" x2="283.18" y1="29.52" y2="29.52"><stop offset="0" stop-color="#ea339a"/><stop offset=".51" stop-color="#8c1b4e"/><stop offset="1" stop-color="#ff009a"/></linearGradient><linearGradient id="uuid-4d476c7a-d64b-48af-a235-4bab527f7637" x1="178.52" x2="322.67" xlink:href="#uuid-a70c20d6-069f-49e6-8e24-e6032b4ab5b6" y1="50.49" y2="50.49"/><linearGradient id="uuid-fe4f1b75-eb01-463d-a91f-53048960a3ac" x1="0" x2="181.17" xlink:href="#uuid-a70c20d6-069f-49e6-8e24-e6032b4ab5b6" y1="42.99" y2="42.99"/><clipPath id="uuid-31b3651b-092e-4e2f-8b94-94e18bbd735b"><path class="uuid-09bc8e88-163e-4354-843a-d76ed2197a88" d="M331.2,28.6c6.33,3.12,12.17,6.44,17.37,9.8,2.18-5.3,1.61-11.18-1.12-16.09-1.95-3.51-5.02-6.53-8.98-8.48-9.51-4.68-20.7-1.53-25.61,6.98,5.83,2.06,12.03,4.65,18.36,7.76l-.02.02Z"/></clipPath></defs><g id="uuid-7c56c6c8-1861-41f7-9966-472a9d3b04cf"><g class="uuid-c97b5954-5211-4868-b90b-25d74a0ce4f5"><g id="uuid-47ed5a86-d3b5-4469-ae01-bea5ca592655"><g id="uuid-883ee2ff-1c43-4e71-8c60-18c66b0c0a68"><g id="uuid-485dc9b0-129c-48f2-80b8-1c25181fc266"><path class="uuid-0594d1ab-fe0d-4b2a-984f-05721679151e" d="M322.38,4.96c-.53-2.15.79-4.32,2.95-4.85,2.15-.53,4.32.79,4.85,2.95.48,2-.61,3.99-2.48,4.69l1.17,4.79-1.14.28-1.17-4.82c-1.92.12-3.69-1.12-4.16-3.06l-.02.02Z"/><path class="uuid-77577701-cc55-4f9c-8c0a-bdd533264101" d="M348.07,39.51c-2.56,5.19-7.33,8.6-12.77,9.76-4.32.94-9.04.44-13.42-1.71-6.87-3.38-11.05-9.98-11.43-16.8-.16-2.99.41-6.02,1.81-8.85.16-.31.31-.61.48-.9,4.86-8.64,16.15-11.85,25.7-7.14,3.96,1.95,7.03,4.96,8.98,8.48,2.93,5.24,3.38,11.6.64,17.18Z"/><path class="uuid-d204c2b3-9536-4f50-bec4-9ba436aa4b32" d="M348.07,39.51c-2.56,5.19-7.33,8.6-12.77,9.76l-24.85-18.52c-.16-2.99.41-6.02,1.81-8.85.16-.31.31-.61.48-.9,2.14.55,4.58,1.26,7.4,2.17,16.74,5.38,24.29,1.78,27.29-.83,2.93,5.24,3.38,11.6.64,17.18h-.02Z"/><path class="uuid-0594d1ab-fe0d-4b2a-984f-05721679151e" d="M371.51,65.42c-3.73,7.56-25.72-.87-51.71-13.66-17.91-8.81-33.03-17.38-39.48-24.32-2.9-3.13-4.05-5.94-2.9-8.29,3.73-7.56,27.79-3.34,53.78,9.45,14.12,6.94,25.89,14.98,33.11,22.07,6.06,5.97,8.9,11.29,7.2,14.75Z"/><path class="uuid-371af6c6-dc73-4fc4-9188-3e066928cc27" d="M362.97,61.94c-.51,1.03-1.76,1.47-2.79.95-1.03-.51-1.47-1.76-.95-2.79.51-1.03,1.76-1.47,2.79-.95,1.03.51,1.47,1.76.95,2.79Z"/><path class="uuid-371af6c6-dc73-4fc4-9188-3e066928cc27" d="M285.28,23.73c-.51,1.03-1.76,1.47-2.79.95s-1.47-1.76-.95-2.79,1.76-1.47,2.79-.95,1.47,1.76.95,2.79Z"/><path class="uuid-371af6c6-dc73-4fc4-9188-3e066928cc27" d="M323.75,48.47c-.51,1.03-1.76,1.47-2.79.95s-1.47-1.76-.95-2.79c.51-1.03,1.76-1.47,2.79-.95,1.03.51,1.47,1.76.95,2.79Z"/><g class="uuid-7d9ed2ad-8880-4645-b109-c3a633b088ac"><path class="uuid-20b73fe4-c807-42e1-9d7b-87da560209cb" d="M333.49,16.06l.06.03h.06c.65.41,1.28.94,1.95,1.29.09.08.11.09.22.16.03.02.08.02.09.03.16.11.31.22.47.31,0,0,.02.03.03.03.16.11.31.22.47.31,0,.09.02.05.06.06h.03s.03.03.06.03c.95.67,2,1.28,2.93,1.98.5.37.06.41-.2.61s-.55.58-.84.81c-.45.36-1.01.7-1.61.55-.33.83-.7,1.62-1.06,2.42-.09.2-.25.75-.37.89-.06.08-.17.08-.23.11-.02,0,.02.11-.06,0-.19-.22-.44-.55-.33-.84l-.53-2.04.72-1.32s.05-.09.06-.12l.09-.19s.06-.03.09-.03c.06,0,.11-.02.16-.03.58-.17,1.15-.31,1.73-.44.09-.02.06.05.06.11,0,.11-.05.23-.06.33-.03.12-.23.84-.19.89.23.02.59-.05.79-.19.03-.03.14-.17.19-.19.2-.11.2-.08.41-.25.11-.09.23-.11.28-.14s.02-.11.03-.14c0-.02.08-.03.12-.06.09-.08.25-.23.25-.36,0-.06-.05-.06-.06-.08,0-.02,0-.05-.03-.08-.17-.2-1.39-.97-1.65-1.03-.25-.06-.39.09-.5.3,0-.02-.05-.08-.06-.09-.08-.28.26-.31-.03-.56,0,0-.05-.02-.06-.03-.12-.11-.22-.12-.31-.19,0,0,0-.05-.02-.06-.14-.09-.26-.2-.42-.25-.33-.34-.41-.28-.69.03-.25.28-.47.58-.76.83-.06,0-.11.05-.12.09-.03.02-.06.05-.09.06-.02.02-.08.02-.09.03v.06c-.14.06-.3.09-.44.16-.34.08-.67.02-.98-.14-.11-.06-.2-.16-.31-.2-.02-.03-.05-.05-.06-.06-.06-.09-.12-.17-.19-.25,0-.08-.11-.22-.12-.28,0-.03-.03-.26-.03-.28,0-.16.14-.86.2-1.01.06-.19.28-.5.39-.69.08-.11.36-.48.36-.58,0-.11-.09-.3.12-.28l.03-.02ZM332.95,17.58c-.06.12-.08.16-.12.28,0,.02-.06,0-.06.12,0,.3.5.48.72.59,0,.03-.02.05.02.09.08.08.36.19.47.25.2.11.34.3.64.25.09,0,.08-.08.11-.09.2-.16.31-.28.47-.47.28-.34.51-.44.11-.83-.08-.08-.19-.12-.26-.19-.28-.22-.55-.44-.86-.61-.14-.09-.47-.31-.62-.25-.14.06-.51.67-.61.83l.02.02Z"/><path class="uuid-20b73fe4-c807-42e1-9d7b-87da560209cb" d="M333.56,16.64c.16,0,.58-.11.25-.23-.14-.05-.28.22-.25.23Z"/><path class="uuid-20b73fe4-c807-42e1-9d7b-87da560209cb" d="M339.95,20.52s-.19-.08-.22-.09v.37s.26-.2.22-.28Z"/><path class="uuid-dc125f9a-dda1-4739-8990-5a570d4920f6" d="M327.76,24.79c.72.55,1.48,1.06,2.17,1.62.03.03.08.06.09.11-.02,0-.08,0-.11-.03-.08-.03-.59-.41-.64-.36-.02.25.09.5.09.75l.95-.12c-.06-.09-.23-.12-.25-.25.06.03.12.08.17.12.02,0,0-.03,0-.03.14.06.17.25.22.37-.11.08.11.92.02.92l-.14-1.09-.87.16c0,.28-.02.56,0,.83,0,.08.06.16.06.22,0,.11-.23.59-.19.64.09,0,.17-.03.26-.03.03,0,.12-.02.11.03-.11.02-.23.05-.34.06-.03-.05-.12-.03-.17-.03-.16,0-.39.05-.55.06.12-.28.28-.56.28-.87,0-.2-.08-.2-.12-.34-.05-.12-.06-.31-.09-.45.23-.05.47-.08.69-.12,0-.06-.11-.03-.14-.03-.47.03-1.01.23-1.47.25h-.03c0-.09-.06-.19-.09-.26-.36-.76-.83-1.84-1.26-2.54,0-.06.09.02.11.03.33.2.65.39.98.56.12.03.23-.06.26-.19v.03Z"/><path class="uuid-204bb702-817c-4097-918c-e32465752a18" d="M329.24,21.49s-.03.08.06.06v.03c.05.16.53.95.64,1.14.03.05.03.09.11.09,0,0,.02.03.03.06l.03.03v.06c-.06.05-.05.08.03.06.36.98.86,1.79,1.34,2.71-.02.81.08,1.7,0,2.49-.05-.03-.06-.08-.08-.12-.2-.47-.78-1.7-.86-2.1,0-.09.03-.22.02-.33-.02-.25-.08-.5-.09-.75-.02-.23-.03-.47-.06-.69,0-.08.03-.22-.05-.25-.06-.02-.41.05-.51.06-.08,0-.14.08-.19-.03-.28-.9-.42-1.87-.69-2.77.11.02.19.16.25.25l.02-.02Z"/><path class="uuid-f399c445-1ba0-48a4-9dad-8ad73100b139" d="M319.43,26.21s.02,0,.03.02c.06.05.12.08.19.11.58-.26,1.15-.55,1.71-.83.58-.05,1.26-.26,1.82-.26.06-.05.16-.03.22-.06.36-.14.79-.45,1.17-.62.03,0,.05-.05.09-.06.05-.02.06-.02.09-.03.06-.02.12-.02.19-.03,0,0,0-.02.06-.03h.19s.02-.03.03-.03c.08,0,.12-.03.22-.03l.06-.03h.25c-.06-.06-.19-.03-.28-.03h-1.06c.2.06.45.02.67.03.03,0,.12-.03.11.03-.67.03-1.34.11-2.01.19-.08,0-.12-.03-.14-.03s-.06.03-.09.03c-.5.06-.84.17-1.29.37-.7.31-1.45.83-2.1,1.23-.03.02-.08.08-.12.09v-.02Z"/><path class="uuid-a2b41b54-fdd5-4f5d-a042-19ac33232cf8" d="M334.79,20.99c.11.03.26.06.37.09,0,.12.23.14.34.19v.06c-.11-.02-.06.08-.06.16l-.72,1.32c-.61-.7-1.37-1.32-1.89-2.1-.06-.08-.11-.2-.16-.28.22-.09.44.09.59.14.5.16,1.01.26,1.51.42Z"/><path class="uuid-5a07430d-2766-4b76-90ae-04f376afc753" d="M331,17.42c-.09-.02-.06.05-.06.11-.02.39-.06.78-.09,1.18.14.03.76.31.84.25-.09-.14-.17-.3-.25-.44h.03c.12.2.28.37.37.59-.08-.05-.12-.08-.22-.06v2.4s.3.09.34.09v.06c-.11,0-.2-.06-.3-.09-.02,0,0,.03,0,.03-.25-.08-.48-.14-.75-.19t-.05.05l.78,2c.37.16.78.26,1.18.37.02-.02-.22-.48-.25-.53v-.03s.06.12.12.06c.08.19.14.37.22.56-.17.03-1.18-.39-1.23-.34v.06c-.09-.08-.14-.06-.26-.06-.2,0-.69.08-.89.12-.03,0-.08.02-.08.05,0,.06.48.92.56,1.04.05.08.12.17.16.23,0,0,0,.08.03.11.05.08.31.56.34.58.36,0,.73-.08,1.09-.09.02,0,.05-.02.05-.05.02-.06-.37-.73-.45-.84-.02-.03-.05-.05-.06-.05-.08-.14-.5-.95-.5-1.04.08.06.11.16.16.23.31.48.56,1.04.86,1.53h.08c.03-.44.06-.86.09-1.28,0-.06,0-.12.06-.14,0,.03.02.06.03.09-.03.08-.05.22-.06.3-.05.44-.05.87-.06,1.31,0,.03-.03.11-.03.19-.03,1.12.06,2.24.03,3.37-.06-.03-.09,0-.09,0-.28-.14-.55-.36-.83-.5,0,0,.09,0,.14.03.06.05.65.41.69.37v-3.49l-1.2.12c0,.9-.02,1.82.03,2.73,0,.02.28.16.33.17.03.02.02.06.02.06-.05-.03-.34-.19-.37-.19-.05,0-.08.03-.11.06-.69.73-1.4,1.42-2.12,2.1-.26.25-.5.55-.79.76h-.03s.08-.11.12-.16c.41-.41.83-.79,1.23-1.2.08-.08.5-.45.5-.48,0-.06-.11-.08-.14-.14-.05-.08-.06-.25-.11-.34.16.06.3.03.45.03.08,0,.17.06.23.02.03-.02.03-.08.03-.08.17-.16.42-.31.56-.5t.03-.06c.03-.08.02-.09.03-.16,0-.02.03-.05.03-.09.06-.79-.03-1.68,0-2.49-.48-.92-.98-1.73-1.34-2.71,0-.03-.03-.05-.03-.06v-.06s-.03-.03-.03-.03c0-.03-.03-.05-.03-.06-.2-.58-.22-.67-.64-1.14-.03-.05-.05-.09-.12-.08v-.03c0-.06.03-.08-.06-.06-.06-.09-.14-.23-.25-.25v-.09s.48,0,.5-.03v-.2s.06-.02.06-.02l.03.06s-.03.11-.03.14.08,0,.06.05c-.11-.03-.03.14,0,.22.2.7.55,1.37.75,2.09l.05.03c.05-.41.14-.83.22-1.23.03-.17.06-.33.09-.48,0-.06-.03-.12.06-.11-.02.2-.06.5-.09.69,0,0-.05.03-.06.08-.06.39-.14.78-.2,1.17l1.14-.16s-.11-.3-.12-.34c-.19-.48-.36-1.08-.59-1.54-.03-.06,0-.09-.08-.03v-.19h-.09l.09-.08v-2.37c-.02-.25-.33-.23-.51-.3s-.34-.16-.53-.19c0-.03.03-.05.03-.06l1.01.31c.05-.41.08-.79.12-1.2v-.19c.09.03.08.12.09.16l.05-.02ZM330.84,18.81v2.28l.72-2.04-.72-.22v-.02ZM331.58,21.43v-2.17l-.7,2.03s.59.11.7.14Z"/><path class="uuid-a2b41b54-fdd5-4f5d-a042-19ac33232cf8" d="M333.06,14.91c.44-.06.9-.08,1.34-.16.09,0,.09.05.14.09.25.2.55.48.83.65v.03s-.11.03-.16.03v-.03l-.06.03c-.31.03-.64.08-.95.12-.06,0-.11.03-.12.03-.81.12-1.62.26-2.43.41l1.42-1.23v.02Z"/><path class="uuid-f399c445-1ba0-48a4-9dad-8ad73100b139" d="M333.06,14.91l-1.42,1.23h-.03c-.08.03-.05.09-.06.12,0,0-.02,0-.06.06-.12.2-.22.44-.36.62-.03.05-.03.09-.11.09,0-.34.11-.72.12-1.08-.22.3-.45.59-.62.92-.22.37-.53.97-.69,1.36,0,.03-.02.06-.03.09,0,0-.03.03-.03.06v.12h-.03l-.05.06-.65,2.38c.09-.92.26-1.84.42-2.74.75-1.67,1.67-3.04,3.62-3.34l-.02.02Z"/><path class="uuid-f399c445-1ba0-48a4-9dad-8ad73100b139" d="M331.53,16.39c-.11.62-.11,1.29-.19,1.92v.03c-.09-.17-.09-.41-.12-.59v-.19l.25-1.23.06.06Z"/><path class="uuid-5a07430d-2766-4b76-90ae-04f376afc753" d="M326.34,23.7c.69.19,1.37.51,2.03.75.64.72,1.26,1.43,1.87,2.17v.03s-.11-.09-.17-.12h-.03s-.06-.08-.09-.11c-.69-.56-1.45-1.09-2.17-1.62-.48-.36-.95-.73-1.42-1.11l-.02.02Z"/><path class="uuid-204bb702-817c-4097-918c-e32465752a18" d="M332.92,23.86s.02.03.03.06c-.08.02-.06.08-.06.14-.03.42-.06.84-.09,1.26h-.08c-.31-.47-.56-1.03-.86-1.51-.05-.08-.09-.17-.16-.23v-.06s1.06.37,1.23.34h-.02Z"/><path class="uuid-204bb702-817c-4097-918c-e32465752a18" d="M333.8,26.24l-.28-.16c-.2-.17-.44-.34-.65-.47,0-.44.02-.86.06-1.31,0-.09.02-.22.06-.3.3.73.61,1.48.83,2.24l-.02-.02Z"/><path class="uuid-f399c445-1ba0-48a4-9dad-8ad73100b139" d="M326.34,23.7l-3.18.31c-.2.08-.42.11-.62.16l-.06-.03c.78-.22,1.54-.47,2.32-.69.51.09,1.06.11,1.56.25h-.02Z"/><path class="uuid-dc125f9a-dda1-4739-8990-5a570d4920f6" d="M334.09,29.72h-.19l-.03-3.27s.06.08.08.12c.08.25.26.86.26,1.08,0,.25-.05.59-.06.84,0,.41,0,.83-.06,1.22v.02Z"/><path class="uuid-dc125f9a-dda1-4739-8990-5a570d4920f6" d="M331.86,19.13c.11.08.2.3.28.41,0,0-.05.03-.06.03-.06-.09-.14-.2-.22-.28l.12,2.28s-.34-.08-.34-.09v-2.4c.09,0,.14,0,.22.06Z"/><path class="uuid-a2b41b54-fdd5-4f5d-a042-19ac33232cf8" d="M329.7,18.59s.03.11.03.19c-.14-.02-.03.14-.03.19v.16c-.14-.02-.03.12-.03.16v.22c-.14-.02-.03.12-.03.16v.19c-.14-.02-.03.14-.03.19v.16c-.14-.02-.03.14-.03.19v.19c-.14-.02-.03.09-.03.12v.19s-.06,0-.06.02v.2s-.44.03-.5.03v-.06l.03-.06v-.03l.65-2.38.05-.06v.06l-.02.02Z"/><path class="uuid-d87f1a7b-69fa-4793-96d5-183daf7d3443" d="M323.16,24.08c-.05.14-.16.3-.19.44-.5.06-.84.17-1.29.37-.05-.16-.14-.33-.25-.44.14-.08.28-.06.41-.09.23-.06.47-.14.69-.19.22-.05.42-.09.62-.16v.06h.02Z"/><path class="uuid-e29aceec-edd7-4c50-87ad-43f86cb619e2" d="M321.43,24.45c.12.12.22.28.25.44-.7.31-1.45.83-2.1,1.23l-.03-.03c.37-.33,1.29-1,1.51-1.36.19-.11.16-.11.28-.22.02-.02.06-.05.09-.06Z"/><path class="uuid-a3239b12-2633-4d83-9a83-163b83dd65fd" d="M332.54,19.51c.06.14.12.28.22.39.08.11.28.33.37.41.28.26,1.08.42,1.48.56.05.02.17.03.16.11-.5-.16-1.01-.26-1.51-.42-.17-.05-.37-.23-.59-.14-.14-.2-.3-.41-.44-.59-.06-.09-.11-.17-.16-.25.03,0,.05-.03.06-.03.12,0,.28,0,.41-.03Z"/><path class="uuid-5a07430d-2766-4b76-90ae-04f376afc753" d="M329.67,24.01c.05.11.11.05.19.03,0,.12.22.08.3.09.09.03.16.12.28.09.03.23.05.47.06.69-.14.02-.23.05-.37,0v.12c-.16-.34-.33-.69-.44-1.04l-.02.02Z"/><path class="uuid-dc125f9a-dda1-4739-8990-5a570d4920f6" d="M336.24,15.94c.14.12.45.39.53.53-.05.26-.02.55-.06.83-.06,0-.06-.03-.09-.08-.25-.39-.33-.42-.37-.92,0-.11-.02-.25,0-.36Z"/><path class="uuid-204bb702-817c-4097-918c-e32465752a18" d="M331.98,21.61c.06.34.56,1.28.72,1.67-.06.06-.08,0-.12-.06-.11-.22-.22-.47-.37-.65-.19-.33-.37-.65-.53-1.01v-.03c.09.03.19.11.3.09h.02Z"/><path class="uuid-5a07430d-2766-4b76-90ae-04f376afc753" d="M334.54,14.85s.09,0,.12.02c.7.31,1.01.58,1.57,1.09-.25-.14-.55-.22-.79-.37-.03-.02-.06-.05-.09-.06-.26-.19-.56-.45-.83-.65l.02-.02Z"/><path class="uuid-d87f1a7b-69fa-4793-96d5-183daf7d3443" d="M330.56,28.11s.02-.02.03-.03c0,0-.02.03-.03.03Z"/><path class="uuid-d87f1a7b-69fa-4793-96d5-183daf7d3443" d="M330.59,28.08s.02-.02.03-.03c0,0-.02.02-.03.03Z"/><path class="uuid-d87f1a7b-69fa-4793-96d5-183daf7d3443" d="M330.62,28.05s0-.03.03-.06c0,.05-.02.05-.03.06Z"/><path class="uuid-d87f1a7b-69fa-4793-96d5-183daf7d3443" d="M330.25,28.55v.09h-.06c.03-.06.05-.08.06-.09Z"/><path class="uuid-d87f1a7b-69fa-4793-96d5-183daf7d3443" d="M330.5,28.21s.03-.02.03-.03c0,0-.03.02-.03.03Z"/><path class="uuid-d87f1a7b-69fa-4793-96d5-183daf7d3443" d="M330.47,28.27s.03-.05.03-.06c0,0,0,.03-.03.06Z"/><path class="uuid-d87f1a7b-69fa-4793-96d5-183daf7d3443" d="M330.53,28.18v-.06h.03s0,.03-.03.06Z"/><path class="uuid-d87f1a7b-69fa-4793-96d5-183daf7d3443" d="M330.05,28.83s.03-.02.03-.03c0,0-.02.02-.03.03Z"/><path class="uuid-d87f1a7b-69fa-4793-96d5-183daf7d3443" d="M330.44,28.3s.03-.02.03-.03c0,0-.03.02-.03.03Z"/><path class="uuid-d87f1a7b-69fa-4793-96d5-183daf7d3443" d="M330.05,28.83s-.05.11-.02.12l.9-.31-.89.34.48.06h.3s0,.06-.03.08c-.06.05-.16-.02-.23-.02-.16,0-.3.05-.45-.03.05.09.06.26.11.34.03.06.16.08.14.14,0,.05-.44.42-.5.48v-.83c-.12-.03-.08.08-.16.08.03-.22.2-.34.34-.48v.02Z"/><path class="uuid-d87f1a7b-69fa-4793-96d5-183daf7d3443" d="M330.5,24.92c.03.25.08.5.09.75,0,.12-.03.23-.02.33.06.42.65,1.65.86,2.1.02.05.03.09.08.12,0,.05-.03.08-.03.09l-.76-1.82-.03.3c0,.28.09.92.03,1.17,0,.03-.06,0-.06.02.02-.12,0-.28,0-.41,0-.31.05-1,0-1.26-.08-.36-.5-.9-.53-1.25v-.12c.14.05.23.02.37,0v-.02Z"/><path class="uuid-d87f1a7b-69fa-4793-96d5-183daf7d3443" d="M330.41,28.36s0-.05.03-.06c0,0-.02.05-.03.06Z"/><path class="uuid-d87f1a7b-69fa-4793-96d5-183daf7d3443" d="M330.41,28.36l-.06.06c.05-.06.06-.06.06-.06Z"/><path class="uuid-d87f1a7b-69fa-4793-96d5-183daf7d3443" d="M330.34,28.42s.02.02-.06.09c.03-.03.03-.06.06-.09Z"/><path class="uuid-d87f1a7b-69fa-4793-96d5-183daf7d3443" d="M330.25,28.55s.03-.02.03-.03l-.03.03Z"/><path class="uuid-d87f1a7b-69fa-4793-96d5-183daf7d3443" d="M330.09,28.8s-.02-.08.09-.16c-.05.09,0,.06-.09.16Z"/><path class="uuid-204bb702-817c-4097-918c-e32465752a18" d="M337.02,18.34s-.05-.03-.06-.03c.06-.03,0-.11,0-.14-.03-.16-.11-.47-.19-.58,0-.3-.05-.61.06-.89.12.51.16,1.11.19,1.64Z"/><path class="uuid-5a07430d-2766-4b76-90ae-04f376afc753" d="M333.8,26.24s.11.09.06.19l.03,3.27s-.06-.02-.09-.03c.06-.08.03-.23.03-.34v-2.95c-.03-.12-.19-.17-.26-.23-.02-.02-.03-.05-.05-.06,0,0,.28.16.28.16Z"/><path class="uuid-204bb702-817c-4097-918c-e32465752a18" d="M331.47,28.33s0,.08-.03.16h-.06l.03.06c-.14.19-.39.34-.56.5h-.3l-.48-.06.89-.34-.9.31s0-.09.02-.12c0,0,.02-.02.03-.03.09-.09.05-.06.09-.16h.06s0-.08,0-.09c0,0,.02-.02.03-.03.08-.08.03-.03.06-.09,0,0,.02,0,.06-.06,0-.02.02-.05.03-.06,0,0,.03-.02.03-.03.02-.03.02-.05.03-.06,0,0,.02-.02.03-.03.02-.03.03-.05.03-.06,0,0,.02-.02.03-.03,0,0,.03-.02.03-.03s.03-.02.03-.06c0,0,.06.02.06-.02.06-.25-.02-.89-.03-1.17l.03-.3.76,1.82h-.02Z"/><path class="uuid-204bb702-817c-4097-918c-e32465752a18" d="M331.28,28.52s-.14.03-.22.06c-.05.02-.08-.02-.06.08l.28-.12v-.02Z"/><path class="uuid-204bb702-817c-4097-918c-e32465752a18" d="M329.36,28.74c.11-.02.23-.05.34-.06,0-.05-.08-.03-.11-.03-.09,0-.17.05-.26.03-.05-.05.19-.53.19-.64,0-.06-.05-.14-.06-.22-.02-.28,0-.56,0-.83l.87-.16.14,1.09c.09,0-.12-.84-.02-.92.06.19.08.39.19.56,0,.12.02.3,0,.41-.03.03-.03.06-.03.06,0,0-.02.02-.03.03,0,0-.02.02-.03.03h-.03v-.19l-.03.03c0,.06-.03.16.03.19v.03s-.03.02-.03.03l-.03.06s-.02.02-.03.03c-.02.03-.02.05-.03.06,0,0-.02,0-.06.06-.03.03-.05.06-.06.09,0,0-.03.02-.03.03s-.03.03-.06.09c-.11.08-.06.08-.09.16,0,0-.03.02-.03.03-.14.16-.31.28-.34.48.08,0,.05-.12.16-.08v.83c-.41.41-.83.79-1.23,1.2h-.12c.06-.42.17-.86.28-1.28-.09-.06-.17-.12-.25-.2-.03-.03-.09-.03-.05-.09.12-.05.31-.09.44-.12.11-.03.23-.06.34-.11-.08-.03-.19,0-.26.03-.05,0-.08.05-.08.06h-.06c-.03-.26.23-.34.33-.47.05-.06.08-.23.11-.31h.03l.03-.02Z"/><path class="uuid-204bb702-817c-4097-918c-e32465752a18" d="M329.69,29.36s-.08.09-.06.12c.03-.03.08-.09.06-.12Z"/><path class="uuid-204bb702-817c-4097-918c-e32465752a18" d="M329.6,29.53v.03s.02-.02,0-.03Z"/><path class="uuid-5a07430d-2766-4b76-90ae-04f376afc753" d="M336.83,16.7c-.11.28-.05.59-.06.89,0-.02-.03-.06-.05-.06-.09.09-.17.22-.23.33-.03.05-.03.09-.09.08,0,0-.02-.03-.03-.03.19-.2.31-.33.34-.59s.02-.55.06-.83c.05.09.05.14.06.22Z"/><path class="uuid-5a07430d-2766-4b76-90ae-04f376afc753" d="M332.67,20.41s.11.2.16.28l-.25-.28-.36-.61c.14.2.3.39.44.59l.02.02Z"/><path class="uuid-a2b41b54-fdd5-4f5d-a042-19ac33232cf8" d="M322.46,24.14l.06.03c-.23.05-.47.14-.69.19l.28-.14c.11-.03.23-.05.34-.08Z"/><path class="uuid-f399c445-1ba0-48a4-9dad-8ad73100b139" d="M328.99,21.08l.03-.06-.03.06Z"/><path class="uuid-f399c445-1ba0-48a4-9dad-8ad73100b139" d="M335.63,18.62s.14-.03.22,0c.11.03.65.26.7.33.03.03.03.08.05.11.09.11.22.28.31.37.02.02.03.03.06.02,0,.08.08.17.14.25h.05s.05.08.06.09c.03.03.05.12.08.19.12.2.25.42.36.62-.02,0-.06.06-.09.06-.58.14-1.17.26-1.73.44-.03-.06-.12.02-.16.03-.03,0-.06.03-.09.03-.65-.25-1.31-.51-1.95-.79l.47-.3c.14-.16.34-.22.44-.39.05-.02.08,0,.09-.09.03-.02.08-.05.09-.06.05-.03.08-.06.12-.09.28-.23.5-.55.76-.83l.02.02Z"/><path class="uuid-d87f1a7b-69fa-4793-96d5-183daf7d3443" d="M339.42,20.62c-.17.26-.41.47-.62.69-.02-.05-.06-.08-.11-.11-.2-.14-.65-.45-.86-.56-.05-.02-.08-.05-.14-.03-.11-.22-.23-.42-.36-.62-.03-.06-.05-.16-.08-.19.11-.2.25-.34.5-.3.26.06,1.47.83,1.65,1.03.02.03.02.06.03.08l-.02.02Z"/><path class="uuid-88f29c24-9bf0-4bad-b199-9fd552f664f2" d="M336.24,15.94c-.02.11,0,.25,0,.36.05.48.12.53.37.92.03.05.03.09.09.08-.05.26-.16.41-.34.59-.16-.11-.31-.22-.47-.31l-.44-2.01c.25.16.53.23.79.37h-.02Z"/><path class="uuid-88f29c24-9bf0-4bad-b199-9fd552f664f2" d="M335.04,17.61s-.08.06-.11.09c-.25.14-.56.26-.83.39h-.09c0-.14.03-.31-.14-.31-.05,0-.08.05-.16.06h-.34s-.03-.16-.06-.19c-.03-.05-.28-.05-.34-.06.09-.16.47-.76.61-.83s.47.16.62.25c.3.19.58.39.86.61l-.02-.02ZM334.02,17.29c.05.11.05.2.17.22l-.05-.19.12.03s-.06-.19-.11-.22c-.02-.02-.08-.02-.12-.05,0,0-.02-.03-.03-.03-.09-.05-.12,0-.16,0,0,0,0-.05-.05-.08-.06-.05-.17-.11-.25-.12,0,.11.37.44.44.42l.03.02Z"/><path class="uuid-e29aceec-edd7-4c50-87ad-43f86cb619e2" d="M332.32,18.62c.03.09.05.23.09.34.05.11.11.14.16.22.06.08.12.17.19.25-.08,0-.16.05-.22.06-.12.02-.28.02-.41.03-.08-.12-.17-.33-.28-.41-.09-.22-.26-.39-.37-.59-.03-.05,0-.16-.12-.16v-.06l.98-1.2c-.03.23-.19,1.11-.14,1.26.02.09.11.17.14.25h-.02Z"/><path class="uuid-f399c445-1ba0-48a4-9dad-8ad73100b139" d="M333.37,16.36c0,.08-.3.45-.36.58-.11.19-.33.5-.39.69-.05.16-.2.86-.2,1.01h-.09s-.12-.17-.14-.25c-.05-.16.11-1.03.14-1.26.02-.12.05-.25.06-.37s.08-.25.06-.37c.05-.05.65.17.73.16.03,0,.08-.12.08-.16h.09l.02-.02Z"/><path class="uuid-5a07430d-2766-4b76-90ae-04f376afc753" d="M335.19,18.62s-.11,0-.17-.03c-.23-.09-.51-.19-.72-.28-.09-.05-.22-.08-.2-.22.26-.12.58-.25.83-.39.05-.02.09-.03.11-.09.08.06.19.11.26.19.41.37.17.48-.11.83Z"/><path class="uuid-d87f1a7b-69fa-4793-96d5-183daf7d3443" d="M334.09,18.09c-.02.12.12.17.2.22.22.09.5.2.72.28.06.02.11.05.17.03-.16.19-.26.33-.47.47l-.17-.03c-.33-.26-.73-.39-1.09-.59v-.09c.12,0,.2-.09.25-.12.16-.06.19-.11.28-.16h.11Z"/><path class="uuid-545e6e0e-790f-4e9c-b6b9-6304c5de3bab" d="M335.44,15.56l.44,2.01s-.06,0-.09-.03c-.05-.11-.14-.11-.22-.16-.3-.23-.61-.42-.92-.64-.05-.03-.08-.06-.08-.12.33.06.73.05,1.08.06.05-.05-.28-1.01-.28-1.17v-.03s.06.05.09.06l-.02.02Z"/><path class="uuid-e29aceec-edd7-4c50-87ad-43f86cb619e2" d="M338.78,21.3s-.08.03,0,.06c-.2.17-.22.14-.41.25,0-.06-.03-.06-.08-.09-.22-.14-.47-.31-.72-.41.02-.11.05-.23.06-.33,0-.06.03-.12-.06-.11.03,0,.08-.06.09-.06.06,0,.09,0,.14.03.2.09.67.41.86.56.05.03.08.05.11.11v-.02Z"/><path class="uuid-c840a07d-cba5-442b-b893-75c698948f36" d="M337.59,21.11c.23.09.5.26.72.41.05.03.09.03.08.09-.03.02-.14.17-.19.19-.2.14-.56.2-.79.19-.03-.03.17-.76.19-.89v.02Z"/><path class="uuid-edb03287-41c7-415b-a832-90c3b46e4257" d="M332.76,19.45s.05.03.06.06c.12.2.2.44.34.62.16.22.25.16.47.25.65.26,1.29.53,1.95.79l-.09.19v-.09c-.02-.11-.23-.16-.34-.19-.11-.03-.26-.06-.37-.09.02-.08-.11-.09-.16-.11-.41-.14-1.2-.3-1.48-.56-.09-.09-.3-.31-.37-.41-.09-.11-.17-.26-.22-.39.06,0,.16-.06.22-.06v-.02Z"/><path class="uuid-54fa8df9-7eb7-4522-8761-a8226b2c37b0" d="M332.95,17.58s.31.03.34.06c.02.03,0,.17.06.19s.28,0,.34,0,.11-.06.16-.06c.19,0,.16.17.14.31-.09.05-.14.09-.28.16-.25-.17-.59-.31-.89-.37.05-.12.06-.16.12-.28Z"/><path class="uuid-a2b41b54-fdd5-4f5d-a042-19ac33232cf8" d="M334.66,19.6c-.02.11-.05.08-.09.09-.11.17-.3.25-.44.39l-.47.3c-.22-.09-.31-.03-.47-.25.06-.14.14,0,.23,0,.17-.02.55-.2.72-.28.14-.06.3-.09.44-.16v-.06s.06-.02.09-.03h-.02Z"/><path class="uuid-e29aceec-edd7-4c50-87ad-43f86cb619e2" d="M334.72,19.09s-.03.08-.11.09c-.28.05-.44-.12-.64-.25-.11-.06-.39-.17-.47-.25-.05-.05,0-.06-.02-.09,0-.05-.03-.09-.03-.12.36.2.76.34,1.09.59,0,0,.17.03.17.03Z"/><path class="uuid-a3239b12-2633-4d83-9a83-163b83dd65fd" d="M334.12,19.85c-.17.06-.55.26-.72.28-.09,0-.17-.14-.23,0-.14-.19-.22-.44-.34-.62.12.05.2.14.31.2.3.17.64.22.98.14Z"/><path class="uuid-dc125f9a-dda1-4739-8990-5a570d4920f6" d="M336.77,17.58c.08.12.16.44.19.58,0,.05.05.12,0,.14h-.03s-.03-.05-.06-.06c-.16-.09-.31-.2-.47-.31.06,0,.06-.03.09-.08.06-.11.14-.23.23-.33,0,0,.03.05.05.06Z"/><path class="uuid-e29aceec-edd7-4c50-87ad-43f86cb619e2" d="M333.71,18.25s-.12.12-.25.12-.55-.33-.69-.37c0-.11.06-.11.06-.12.3.06.64.2.89.37h-.02Z"/><path class="uuid-a2b41b54-fdd5-4f5d-a042-19ac33232cf8" d="M336.33,18.59c.12.14.22.31.36.44l.08-.12c.09.06.19.08.31.19-.08.08-.09.23-.09.34-.03,0-.05,0-.06-.02-.09-.09-.22-.26-.31-.37-.03-.03-.02-.08-.05-.11-.06-.06-.61-.3-.7-.33-.08-.02-.14-.05-.22,0,.28-.31.37-.37.69-.03v.02Z"/><path class="uuid-c840a07d-cba5-442b-b893-75c698948f36" d="M333.46,18.37v.09s.02.09.03.12c-.23-.11-.73-.3-.72-.59.16.06.56.37.69.37Z"/><path class="uuid-edb03287-41c7-415b-a832-90c3b46e4257" d="M339.42,20.62s.06,0,.06.08c0,.12-.16.28-.25.36-.03.03-.11.03-.12.06-.02.03,0,.09-.03.14-.05.05-.17.05-.28.14-.08-.03-.02-.05,0-.06.22-.22.45-.44.62-.69v-.03Z"/><path class="uuid-edb03287-41c7-415b-a832-90c3b46e4257" d="M337.17,19.7h-.05c-.06-.08-.14-.16-.14-.25.09-.02.17-.23.16-.31.3.26-.05.28.03.56Z"/><path class="uuid-d87f1a7b-69fa-4793-96d5-183daf7d3443" d="M336.33,18.59c.16.05.28.16.42.25.03.02.02.06.02.06l-.08.12c-.14-.12-.23-.31-.36-.44Z"/><path class="uuid-8b0e5155-3613-4396-9855-0e5757b157bc" d="M333.56,16.64s.11-.28.25-.23c.33.12-.09.23-.25.23Z"/><path class="uuid-5a07430d-2766-4b76-90ae-04f376afc753" d="M339.95,20.52s-.19.33-.22.28v-.37s.22.09.22.09Z"/><path class="uuid-a2b41b54-fdd5-4f5d-a042-19ac33232cf8" d="M333.62,16.06v.03h-.06s0-.03-.06-.03c-.22,0-.12.17-.12.28h-.09v-.2s.11-.17.12-.17c.09-.05.16.06.22.09Z"/><path class="uuid-a2b41b54-fdd5-4f5d-a042-19ac33232cf8" d="M332.42,18.62s.03.25.03.28l-.03.06c-.05-.11-.06-.25-.09-.34h.09Z"/><path class="uuid-a3239b12-2633-4d83-9a83-163b83dd65fd" d="M333.62,16.06c.23.12.44.28.65.41.03.02.06.05.09.06.08.05.05.06.19.09,0,.06.03.09.08.12.31.22.64.41.92.64-.67-.36-1.29-.89-1.95-1.29v-.03h.02Z"/><path class="uuid-edb03287-41c7-415b-a832-90c3b46e4257" d="M335.78,17.54c-.11-.06-.12-.08-.22-.16.08.05.17.05.22.16Z"/><path class="uuid-edb03287-41c7-415b-a832-90c3b46e4257" d="M332.57,19.2c-.06-.08-.11-.11-.16-.22l.03-.06s.11.2.12.28Z"/><path class="uuid-a3239b12-2633-4d83-9a83-163b83dd65fd" d="M335.5,21.33v.03s0,.09-.06.12c0-.08-.03-.19.06-.16Z"/><path class="uuid-e29aceec-edd7-4c50-87ad-43f86cb619e2" d="M335.85,21.11s-.09.05-.16.03c.03,0,.12-.09.16-.03Z"/><path class="uuid-c840a07d-cba5-442b-b893-75c698948f36" d="M336.92,18.31s-.08.03-.06-.06c.03.02.05.03.06.06Z"/><path class="uuid-a2b41b54-fdd5-4f5d-a042-19ac33232cf8" d="M334.88,19.45s-.08.06-.12.09c.03-.06.06-.09.12-.09Z"/><path class="uuid-a3239b12-2633-4d83-9a83-163b83dd65fd" d="M333.56,16.09l-.06-.03.06.03Z"/><path class="uuid-88f29c24-9bf0-4bad-b199-9fd552f664f2" d="M326.34,23.7c.47.36.94.75,1.42,1.11-.03.11-.14.22-.26.19-.34-.17-.65-.36-.98-.56-.02,0-.09-.09-.11-.03,0-.02-.05-.05-.06-.06s0-.09-.05-.09h-.83l-2.12-.19h-.08v.19l-.09-.16v-.06l3.18-.31-.02-.02Z"/><path class="uuid-88f29c24-9bf0-4bad-b199-9fd552f664f2" d="M328.71,27.1c.03.14.05.33.09.45.06.16.12.14.12.34,0,.31-.17.59-.28.87-.25.03-.5.14-.76.12-.02-.19,0-.42,0-.61-.02-.33-.09-.7-.09-1.03.3-.08.61-.11.92-.16Z"/><path class="uuid-204bb702-817c-4097-918c-e32465752a18" d="M330.02,26.54h.03c.03.12.19.16.25.25l-.95.12c0-.25-.11-.5-.09-.75.05-.05.56.31.64.36.05.02.09,0,.11.03l.02-.02Z"/><path class="uuid-5a07430d-2766-4b76-90ae-04f376afc753" d="M326.4,24.39c.42.7.89,1.78,1.26,2.54.03.08.09.17.09.26-.03,0-.06-.03-.06-.03l-1.39-2.84h.03s.05.05.06.06Z"/><path class="uuid-5a07430d-2766-4b76-90ae-04f376afc753" d="M327.79,27.19c.45-.02,1-.22,1.47-.25.03,0,.14-.03.14.03-.23.05-.47.09-.69.12-.31.05-.61.08-.92.16v-.06Z"/><path class="uuid-5a07430d-2766-4b76-90ae-04f376afc753" d="M329.36,28.74h-.03c-.47.08-.92.16-1.39.22,0,0-.05.05-.06-.06.25,0,.51-.09.76-.12.16-.03.39-.05.55-.06.05,0,.14,0,.17.03Z"/><path class="uuid-d87f1a7b-69fa-4793-96d5-183daf7d3443" d="M329.3,21.58s.08.05.12.08c.42.47.44.58.64,1.14-.08,0-.08-.05-.11-.09-.12-.19-.61-.98-.64-1.14l-.02.02Z"/><path class="uuid-d87f1a7b-69fa-4793-96d5-183daf7d3443" d="M330.44,24.23c-.12.03-.19-.06-.28-.09-.08-.02-.3.02-.3-.09.11,0,.45-.08.51-.06.08.03.05.17.05.25h.02Z"/><path class="uuid-d87f1a7b-69fa-4793-96d5-183daf7d3443" d="M329.24,21.49c.09,0,.05,0,.06.06-.09.02-.05-.05-.06-.06Z"/><path class="uuid-d87f1a7b-69fa-4793-96d5-183daf7d3443" d="M330.16,23.03s-.09,0-.03-.06c0,0,.02.03.03.06Z"/><path class="uuid-d87f1a7b-69fa-4793-96d5-183daf7d3443" d="M330.13,22.91l-.03-.03s.02,0,.03.03Z"/><path class="uuid-8b0e5155-3613-4396-9855-0e5757b157bc" d="M325.78,24.29c.17,0,.39-.03.53.03l1.39,2.84c-.65-.08-1.06-.17-1.75-.16-.3,0-.61-.03-.9.03l-.28-2.59s.12-.02.19-.03c.05.06.08.05.06-.03h.19l.03-.03c.08,0,.12-.03.22-.03,0,0,.03.05.06.03v-.06h.26Z"/><path class="uuid-204bb702-817c-4097-918c-e32465752a18" d="M324.58,24.54c.09-.02.05.05.06.11.12.78.19,1.59.28,2.38-.08-.03-.19.03-.22.03h-.36c-.41.02-.81,0-1.22.06l.22-1.84.06-.11c.36-.14.79-.45,1.17-.62v-.02Z"/><path class="uuid-204bb702-817c-4097-918c-e32465752a18" d="M325.45,24.23c-.11,0-.26-.03-.34.03h-.12v-.03l-.03.03h-.69c-.39,0-.65-.05-1.01.09v-.12s.02-.11,0-.19h.08l2.12.19Z"/><path class="uuid-a2b41b54-fdd5-4f5d-a042-19ac33232cf8" d="M324.26,24.26s.11.05.12,0h.03c.2.06.45.02.67.03.03,0,.12-.03.11.03-.67.03-1.34.11-2.01.19-.08,0-.12-.03-.14-.03.05-.03.09-.06.12-.09.02,0,.05-.03.06-.03.36-.14.61-.09,1.01-.09h.02Z"/><path class="uuid-d87f1a7b-69fa-4793-96d5-183daf7d3443" d="M324.67,24.48s.05.14.06.2c.09.75.16,1.51.26,2.26.02.14-.19.11-.28.11.03,0,.14-.06.22-.03-.11-.79-.16-1.59-.28-2.38,0-.06.03-.12-.06-.11.03,0,.05-.05.09-.06l-.02.02Z"/><path class="uuid-e29aceec-edd7-4c50-87ad-43f86cb619e2" d="M323.25,24.23v.09s-.05.05-.06.06c-.03.03-.09.06-.12.09-.02,0-.06.03-.09.03.03-.16.14-.3.19-.44,0,0,.09.16.09.16Z"/><path class="uuid-a2b41b54-fdd5-4f5d-a042-19ac33232cf8" d="M325.48,24.23h.79s.03.08.05.09h-.03c-.16-.06-.37-.03-.53-.03-.06-.06-.19-.03-.28-.03,0,0,0-.03,0-.03Z"/><path class="uuid-edb03287-41c7-415b-a832-90c3b46e4257" d="M325.45,24.23h.03v.03h-.37c.08-.06.23-.03.34-.03Z"/><path class="uuid-5a07430d-2766-4b76-90ae-04f376afc753" d="M325.01,24.39s0,.09-.06.03c0,0,0-.02.06-.03Z"/><path class="uuid-5a07430d-2766-4b76-90ae-04f376afc753" d="M325.51,24.29v.06s-.06-.03-.06-.03c0,0,.06-.03.06-.03Z"/><path class="uuid-d87f1a7b-69fa-4793-96d5-183daf7d3443" d="M324.98,24.26h-.03v-.03l.03.03Z"/><path class="uuid-5a07430d-2766-4b76-90ae-04f376afc753" d="M325.2,24.39s.02-.03.03-.03l-.03.03Z"/><path class="uuid-a3239b12-2633-4d83-9a83-163b83dd65fd" d="M335.16,21.08c.11.03.33.08.34.19-.11-.06-.33-.06-.34-.19Z"/><path class="uuid-24cca96d-7866-4dc6-b1a1-85976bff4066" d="M331.95,28.67c.26.16.55.36.83.5-.61.73-1.14,1.53-1.73,2.28-.16,0-.23-.22-.31-.33-.05-.06-.14-.06-.14-.17l-.23-.22.19.26c.14.17.34.34.41.55h-.03c-.14.02-.34,0-.48,0-.05,0-.08-.03-.09-.03h-1.54s-.2-.06-.23-.06v-.03c.3-.22.53-.5.79-.76.72-.69,1.43-1.37,2.12-2.1.03-.02.08-.06.11-.06.02,0,.33.16.37.19h-.02Z"/><path class="uuid-24cca96d-7866-4dc6-b1a1-85976bff4066" d="M329.94,30.22v.03s.02-.02,0-.03Z"/><path class="uuid-24cca96d-7866-4dc6-b1a1-85976bff4066" d="M330.05,30.37s0-.06-.05-.09c0,.03.03.12.05.09Z"/><path class="uuid-24cca96d-7866-4dc6-b1a1-85976bff4066" d="M330.27,30.58s-.12-.22-.17-.17c-.03.03.19.22.19.26.11,0,0-.09-.02-.09Z"/><path class="uuid-8b0e5155-3613-4396-9855-0e5757b157bc" d="M331.95,28.67s0-.05-.02-.06c-.05-.03-.33-.16-.33-.17-.05-.9-.03-1.81-.03-2.73l1.2-.12v3.49s-.61-.34-.69-.37c-.05-.03-.12-.03-.14-.03Z"/><path class="uuid-54fa8df9-7eb7-4522-8761-a8226b2c37b0" d="M330.28,18.59c.17.06.48.05.5.3v2.37l-.09.08c-.2-.05-.41-.05-.61-.09-.14.23.23.79.39.97.05.05.08.06.16.05-.08.41-.17.81-.22,1.23l-.05-.03c-.2-.7-.55-1.39-.75-2.09-.02-.08-.11-.23,0-.22,0-.05-.06,0-.06-.05,0-.03.02-.11.03-.14.12-.31.41-.64.53-.97,0-.09,0-.05-.03,0-.05.09-.09.19-.12.28l-.06-.08.37-1.59.02-.02Z"/><path class="uuid-dc125f9a-dda1-4739-8990-5a570d4920f6" d="M332.57,23.25s.28.51.25.53c-.39-.11-.81-.22-1.18-.37l-.78-2s0-.05.05-.05c.26.05.5.11.75.19.16.34.36.67.53,1.01.12.23.25.47.37.69h.02Z"/><path class="uuid-24cca96d-7866-4dc6-b1a1-85976bff4066" d="M332.82,25.81l1.01,3.52c0,.11.03.26-.03.34-.25-.09-.67-.37-.95-.5.03-1.12-.06-2.24-.03-3.37Z"/><path class="uuid-88f29c24-9bf0-4bad-b199-9fd552f664f2" d="M333.52,26.09s.02.05.05.06c.08.06.25.11.26.23v2.95l-1.01-3.52c0-.08.03-.16.03-.19.23.14.45.3.65.47h.02Z"/><path class="uuid-54fa8df9-7eb7-4522-8761-a8226b2c37b0" d="M331.7,23.58c0,.09.42.89.5,1.04l-1.01.34s-.12-.16-.16-.23c-.08-.12-.58-.98-.56-1.04,0-.03.05-.05.08-.05.2-.05.67-.12.89-.12.12,0,.17,0,.26.06Z"/><path class="uuid-88f29c24-9bf0-4bad-b199-9fd552f664f2" d="M331.19,24.95l1.01-.34s.05.02.06.05c.06.12.47.78.45.84,0,.02-.03.03-.05.05-.36,0-.73.11-1.09.09-.03,0-.3-.5-.34-.58-.03-.05-.02-.09-.03-.11h-.02Z"/><path class="uuid-88f29c24-9bf0-4bad-b199-9fd552f664f2" d="M330.28,18.59l-.37,1.59.06.08c.03-.09.08-.19.12-.28.03-.05.03-.09.03,0-.12.33-.41.65-.53.97l-.03-.06v-.19s.03-.08.03-.12v-.19s.03-.12.03-.19v-.16s.03-.12.03-.19v-.19s.03-.11.03-.16v-.22s.03-.11.03-.16v-.16s.03-.12.03-.19c0-.08-.02-.12-.03-.19.12,0,.03-.05.03-.06v-.12c.19.03.36.12.53.19v-.02Z"/><polygon class="uuid-88f29c24-9bf0-4bad-b199-9fd552f664f2" points="330.84 18.81 331.58 19.03 330.84 21.08 330.84 18.81"/><path class="uuid-24cca96d-7866-4dc6-b1a1-85976bff4066" d="M330.69,22.35c.2.03.17.17.25.26.06.06.2.16.28.25.05.05.03.12.06.16,0,0,.14.08.16.08.02.06.16.31.12.34l-1.14.16c.05-.39.12-.78.2-1.17,0-.05.06-.08.06-.08Z"/><path class="uuid-8b0e5155-3613-4396-9855-0e5757b157bc" d="M331.58,21.43c-.09-.05-.69-.09-.7-.14l.7-2.03v2.17Z"/><path class="uuid-204bb702-817c-4097-918c-e32465752a18" d="M330.91,17.45c-.05.41-.08.79-.12,1.2l-1.01-.31s.02-.06.03-.09c.09-.03.19-.12.26-.19.11-.09.58-.55.65-.58.06-.03.12-.02.19-.02v-.02Z"/><path class="uuid-8b0e5155-3613-4396-9855-0e5757b157bc" d="M331,17.42c.05.11.12.25.22.31.03.19.03.42.12.59v.03c.02.09.06.11.09.16.08.16.16.3.25.44-.08.06-.72-.23-.84-.25.02-.39.08-.78.09-1.18,0-.06-.03-.12.06-.11v.02Z"/><path class="uuid-204bb702-817c-4097-918c-e32465752a18" d="M330.69,21.33h.09v.31c-.09-.02-.05.05-.06.11-.03.17-.06.33-.09.48-.08,0-.09,0-.16-.05-.17-.17-.55-.73-.39-.97.2.06.41.06.61.09v.02Z"/><path class="uuid-e29aceec-edd7-4c50-87ad-43f86cb619e2" d="M330.91,17.23v.22c-.06,0-.12,0-.19.02-.06.03-.55.48-.65.58-.08.06-.17.16-.26.19.16-.39.48-.98.69-1.36.17.06.26.25.41.34l.02.02Z"/><path class="uuid-88f29c24-9bf0-4bad-b199-9fd552f664f2" d="M331.44,23.09l-.16-.08s-.02-.11-.06-.16c-.08-.09-.23-.19-.28-.25-.08-.09-.05-.23-.25-.26.03-.19.08-.5.09-.69v-.12c.09-.06.05-.03.08.03.22.47.39,1.06.59,1.54l-.02-.02Z"/><path class="uuid-204bb702-817c-4097-918c-e32465752a18" d="M331,17.08c.02.23.19.33.22.47v.19c-.09-.06-.17-.22-.22-.31-.02-.05,0-.14-.09-.16v-.03c0-.06.03-.19.09-.16Z"/><path class="uuid-d87f1a7b-69fa-4793-96d5-183daf7d3443" d="M331.44,28.49s0,.03-.03.06l-.03-.08h.06v.02Z"/><path class="uuid-8b0e5155-3613-4396-9855-0e5757b157bc" d="M335.35,15.53c0,.16.33,1.12.28,1.17-.34-.02-.73,0-1.08-.06-.16-.03-.11-.05-.19-.09-.02-.25-.14-.47-.2-.7,0-.05-.05-.12,0-.16.31-.05.62-.09.95-.12h.06s.11,0,.16-.03h.02Z"/><path class="uuid-54fa8df9-7eb7-4522-8761-a8226b2c37b0" d="M334.05,15.72l.22.76c-.23-.14-.44-.3-.65-.41-.05-.03-.12-.14-.22-.09l-.12.17c-.02.06,0,.14,0,.2,0,.03-.05.14-.08.16-.08.02-.7-.2-.73-.16,0,.12-.05.25-.06.37-.12,0-.08.12-.16.19-.22-.26-.47-.48-.62-.79h.03c.81-.14,1.62-.28,2.43-.41h-.03Z"/><path class="uuid-5a07430d-2766-4b76-90ae-04f376afc753" d="M334.18,15.69s-.02.11,0,.16c.06.23.17.45.2.7-.03-.02-.06-.05-.09-.06l-.22-.76.12-.03h-.02Z"/><path class="uuid-545e6e0e-790f-4e9c-b6b9-6304c5de3bab" d="M335.19,15.56h-.06l.05-.03v.03h.02Z"/><path class="uuid-5a07430d-2766-4b76-90ae-04f376afc753" d="M331,17.05v.03c-.06-.03-.08.09-.09.16-.16-.09-.23-.3-.41-.34.19-.31.42-.62.62-.92-.02.34-.12.72-.12,1.08Z"/><path class="uuid-a2b41b54-fdd5-4f5d-a042-19ac33232cf8" d="M331.22,17.54c-.03-.14-.2-.25-.22-.47v-.03c.08,0,.08-.05.11-.09.14-.2.23-.42.36-.62l-.25,1.23v-.02Z"/><path class="uuid-a2b41b54-fdd5-4f5d-a042-19ac33232cf8" d="M331.53,16.27v.12l-.06-.06.06-.06Z"/><path class="uuid-5a07430d-2766-4b76-90ae-04f376afc753" d="M331.61,16.13c.17.3.41.53.62.79-.09.06-.14-.12-.17-.16-.08-.09-.2-.2-.28-.28-.06-.08-.09-.22-.23-.22,0-.03-.02-.09.06-.12v-.02Z"/><path class="uuid-5a07430d-2766-4b76-90ae-04f376afc753" d="M329.74,18.53s.09.08-.03.06v-.06h.03Z"/><path class="uuid-545e6e0e-790f-4e9c-b6b9-6304c5de3bab" d="M332.45,32.77l-1.36-1.25,1.78-2.28c.23.2.7.33.9.51.02.02.03.03.03.06,0,0-1.36,2.95-1.36,2.95Z"/><path class="uuid-5a07430d-2766-4b76-90ae-04f376afc753" d="M330.94,31.54c-.06-.22-.26-.37-.41-.55l-.19-.26.23.22c0,.11.11.12.14.17.09.11.17.31.31.33-.03.03-.05.08-.09.09Z"/><path class="uuid-5a07430d-2766-4b76-90ae-04f376afc753" d="M329.61,20.19s.02.14-.03.19c0-.05-.11-.22.03-.19Z"/><path class="uuid-5a07430d-2766-4b76-90ae-04f376afc753" d="M329.64,19.85s.02.14-.03.19c0-.05-.11-.22.03-.19Z"/><path class="uuid-5a07430d-2766-4b76-90ae-04f376afc753" d="M329.74,18.78s0,.14-.03.19c0-.05-.11-.22.03-.19Z"/><path class="uuid-5a07430d-2766-4b76-90ae-04f376afc753" d="M329.7,19.13s0,.11-.03.16c0-.03-.11-.17.03-.16Z"/><path class="uuid-5a07430d-2766-4b76-90ae-04f376afc753" d="M329.67,19.51s0,.11-.03.16c0-.03-.11-.17.03-.16Z"/><path class="uuid-5a07430d-2766-4b76-90ae-04f376afc753" d="M329.58,20.57s0,.09-.03.12c0-.03-.09-.14.03-.12Z"/><path class="uuid-88f29c24-9bf0-4bad-b199-9fd552f664f2" d="M332.57,23.22v.03c-.12-.23-.25-.47-.37-.69.16.19.26.44.37.65Z"/><path class="uuid-dc125f9a-dda1-4739-8990-5a570d4920f6" d="M330.53,28.11v.03c-.06-.03-.03-.12-.03-.19h.03v.16Z"/><polygon class="uuid-d87f1a7b-69fa-4793-96d5-183daf7d3443" points="330.53 27.94 330.5 27.94 330.52 27.91 330.53 27.94"/><path class="uuid-a2b41b54-fdd5-4f5d-a042-19ac33232cf8" d="M334.02,17.29s-.44-.31-.44-.42c.08.03.19.09.25.12.03.02.03.06.05.08.02,0,.06-.05.16,0l-.09.09.08.03.05-.09s.09.02.12.05c.03.03.06.17.11.22l-.12-.03.05.19c-.12-.02-.14-.11-.17-.22.12.09.16-.05.02-.03-.02,0,0,.03-.02.03l-.03-.02Z"/><path class="uuid-5a07430d-2766-4b76-90ae-04f376afc753" d="M334.02,17.08s.02.03.03.03l-.05.09-.08-.03s.09-.09.09-.09Z"/><path class="uuid-204bb702-817c-4097-918c-e32465752a18" d="M331.53,16.27c.14,0,.17.16.23.22.08.09.2.2.28.28.03.03.09.22.17.16s.05-.19.16-.19c-.02.12-.05.25-.06.37l-.98,1.2c.08-.64.09-1.29.19-1.92v-.12h.02ZM332.25,16.98s.02.05.03.06c.03-.02,0-.05-.03-.06Z"/><path class="uuid-204bb702-817c-4097-918c-e32465752a18" d="M331.47,18.53h-.03s-.08-.06-.09-.16c.11,0,.09.11.12.16Z"/><path class="uuid-88f29c24-9bf0-4bad-b199-9fd552f664f2" d="M329.33,28.74c-.03.08-.06.25-.11.31-.09.12-.36.22-.33.47-.09.03-.44.16-.5.12-.11-.19-.23-.37-.36-.55-.03-.05-.03-.09-.09-.08v-.06c.47-.06.92-.14,1.39-.22Z"/><path class="uuid-dc125f9a-dda1-4739-8990-5a570d4920f6" d="M328.5,29.69s0,.06.05.09c.08.08.16.14.25.2-.11.42-.22.84-.28,1.28h.12s-.09.11-.12.16h-.03c-.09,0-.06-.05-.06-.09.03-.22.33-1.22.26-1.32-.02-.03-.08-.03-.11-.05-.06-.06-.09-.16-.19-.2.03-.03.08-.05.12-.06h-.02Z"/><path class="uuid-dc125f9a-dda1-4739-8990-5a570d4920f6" d="M328.49,31.29v.03s.02-.02,0-.03Z"/><path class="uuid-88f29c24-9bf0-4bad-b199-9fd552f664f2" d="M328.96,29.53s.03-.05.08-.06c.08-.02.19-.05.26-.03-.11.05-.23.08-.34.11v-.03.02Z"/><path class="uuid-d87f1a7b-69fa-4793-96d5-183daf7d3443" d="M329.69,29.36s-.03.09-.06.12c0-.03.03-.09.06-.12Z"/><path class="uuid-d87f1a7b-69fa-4793-96d5-183daf7d3443" d="M329.6,29.53s.02.02,0,.03v-.03Z"/><path class="uuid-f399c445-1ba0-48a4-9dad-8ad73100b139" d="M324.39,24.26s-.11.05-.12,0h.12Z"/><path class="uuid-88f29c24-9bf0-4bad-b199-9fd552f664f2" d="M323.25,24.36s-.05.02-.06.03c.02-.02.03-.06.06-.06,0,0,0,.03,0,.03Z"/><path class="uuid-5a07430d-2766-4b76-90ae-04f376afc753" d="M330.27,30.58s.12.09.02.09c0-.05-.22-.25-.19-.26.05-.05.16.14.17.17Z"/><path class="uuid-5a07430d-2766-4b76-90ae-04f376afc753" d="M330.05,30.37s-.06-.06-.05-.09c.03.03.06.05.05.09Z"/><path class="uuid-5a07430d-2766-4b76-90ae-04f376afc753" d="M329.94,30.22s.02.02,0,.03v-.03Z"/><path class="uuid-d87f1a7b-69fa-4793-96d5-183daf7d3443" d="M331.28,28.52l-.28.12c0-.09.02-.05.06-.08.06-.03.14-.03.22-.06v.02Z"/><path class="uuid-5a07430d-2766-4b76-90ae-04f376afc753" d="M334.02,17.29s0-.03.02-.03c.14-.02.11.12-.02.03Z"/><path class="uuid-5a07430d-2766-4b76-90ae-04f376afc753" d="M332.25,16.98s.06.05.03.06c0-.02-.06-.05-.03-.06Z"/><path class="uuid-204bb702-817c-4097-918c-e32465752a18" d="M328.49,31.29s.02.02,0,.03v-.03Z"/></g><path class="uuid-e7b06165-f658-46cb-8e7d-46f12e30919d" d="M341.72,23.02c-.95,1.93-5.13,1.84-9.34-.23-4.19-2.07-6.83-5.32-5.88-7.25s5.13-1.84,9.34.23c4.19,2.07,6.83,5.32,5.88,7.25Z"/><path class="uuid-e843fd83-8dee-4624-8bd4-e419726e031d" d="M371.51,65.42c-3.73,7.56-25.72-.87-51.71-13.66-17.91-8.81-33.03-17.38-39.48-24.32,13.78,8.06,37.33,20.61,59.73,26.72,16.51,4.5,22.49,1.2,24.24-3.49,6.06,5.97,8.9,11.29,7.2,14.75h.02Z"/><path class="uuid-e7b06165-f658-46cb-8e7d-46f12e30919d" d="M325.71,18.92c-.25.51-1.45.45-2.68-.16-1.23-.61-2.01-1.51-1.76-2.03.25-.51,1.45-.45,2.68.16,1.23.61,2.01,1.51,1.76,2.03Z"/><path class="uuid-0594d1ab-fe0d-4b2a-984f-05721679151e" d="M353.27,20.16c2.03-.9,2.93-3.27,2.03-5.3-.9-2.03-3.27-2.93-5.3-2.04-1.87.83-2.79,2.91-2.2,4.83l-4.5,2,.48,1.08,4.52-2.01c1.06,1.59,3.15,2.24,4.96,1.43l.02.02Z"/></g></g></g></g></g></svg>