<svg xmlns="http://www.w3.org/2000/svg" id="uuid-d0139328-4731-4e1d-ac86-66af48f00a70" viewBox="0 0 597.92 137.96"><defs><style>.uuid-f68f412b-8eb7-4899-b856-bc03a7dd838e{fill:#bcbec0;}</style></defs><g id="uuid-0c0fd1aa-bc85-4c78-ad75-9d0bd716f657"><path class="uuid-f68f412b-8eb7-4899-b856-bc03a7dd838e" d="M55.09,137.96c3.41,0,6.17-2.76,6.17-6.17s-2.76-6.17-6.17-6.17-6.17,2.76-6.17,6.17,2.76,6.17,6.17,6.17Z"/><path class="uuid-f68f412b-8eb7-4899-b856-bc03a7dd838e" d="M158.32,26.99c20.68,0,40.89,12.19,40.89,39.35,0,2.16-.12,5.5-.36,7.85-.05.54-.51.95-1.06.95h-58c1.7,9.72,8.49,16.05,19.13,16.05,7.06,0,11.56-3.9,14.02-8.57.31-.59.98-.89,1.62-.75l21.69,4.73c.66.15,1.01.86.74,1.48-5.07,11.48-16.6,22.87-38.22,22.87-28.39,0-43.51-18.52-43.51-41.97s15.74-41.97,43.05-41.97h0ZM174.98,60.32c-1.08-9.26-7.25-14.19-16.2-14.19-11.73,0-16.66,6.02-18.52,14.19h34.72Z"/><path class="uuid-f68f412b-8eb7-4899-b856-bc03a7dd838e" d="M206.62,107.4V30.52c0-.59.47-1.06,1.06-1.06h22.56c.59,0,1.06.47,1.06,1.06v9.12c5.4-8.49,13.42-12.65,23.76-12.65,15.12,0,28.08,10.34,28.08,33.48v46.92c0,.59-.47,1.06-1.06,1.06h-22.56c-.59,0-1.06-.47-1.06-1.06v-43.38c0-10.34-5.4-16.05-13.27-16.05-8.49,0-13.89,5.56-13.89,18.21v41.22c0,.59-.47,1.06-1.06,1.06h-22.56c-.59,0-1.06-.47-1.06-1.06Z"/><path class="uuid-f68f412b-8eb7-4899-b856-bc03a7dd838e" d="M284.66,29.46h23.93c.47,0,.88.31,1.02.75l17.98,59.58,17.98-59.58c.13-.45.55-.75,1.02-.75h23.93c.73,0,1.25.73,1,1.42l-27.53,76.59c-.21.59-.77.99-1.4.99h-30c-.63,0-1.19-.39-1.4-.99l-27.53-76.59c-.25-.69.26-1.42,1-1.42h0Z"/><path class="uuid-f68f412b-8eb7-4899-b856-bc03a7dd838e" d="M423.87,107.4v-12.06c-3.86,8.02-12.5,15.59-25.92,15.59-15.59,0-27.16-9.87-27.16-23.76,0-14.66,9.72-25.61,31.01-25.61h12.35c6.79,0,8.64-4.94,8.02-8.18-.93-5.56-5.86-8.49-12.8-8.49-8.77,0-14.08,4.84-14.74,11.52-.06.61-.62,1.05-1.22.94l-20.93-3.49c-.58-.1-.98-.65-.87-1.23,3.41-18.21,20.68-25.64,38.4-25.64s37.34,4.32,37.34,37.03v43.38c0,.59-.47,1.06-1.06,1.06h-21.33c-.59,0-1.06-.47-1.06-1.06h-.02ZM405.2,93.03c9.87,0,16.66-7.4,17.43-16.66h-14.97c-9.1,0-12.35,3.7-12.19,8.79.16,5.4,4.47,7.87,9.72,7.87Z"/><path class="uuid-f68f412b-8eb7-4899-b856-bc03a7dd838e" d="M451.03,48.15v-17.63c0-.59.47-1.06,1.06-1.06h8.81c4.09,0,7.4-3.31,7.4-7.4v-13.75c0-.59.47-1.06,1.06-1.06h20.1c.59,0,1.06.47,1.06,1.06v21.16h16.22c.59,0,1.06.47,1.06,1.06v17.63c0,.59-.47,1.06-1.06,1.06h-16.22v28.55c0,9.3,7.91,13.09,16.16,10.16.55-.19,1.12.22,1.12.8v18.6c0,.68-.46,1.29-1.13,1.44-2.13.51-5.09.94-8.59.94-19.13,0-32.25-6.48-32.25-34.25v-26.23h-13.75c-.59,0-1.06-.47-1.06-1.06h0Z"/><path class="uuid-f68f412b-8eb7-4899-b856-bc03a7dd838e" d="M597.92,68.96c0,23.15-16.36,41.97-43.2,41.97s-43.2-18.82-43.2-41.97,16.36-41.97,43.2-41.97,43.2,18.82,43.2,41.97ZM573.24,68.96c0-11.42-6.33-20.98-18.52-20.98s-18.52,9.57-18.52,20.98,6.33,20.98,18.52,20.98,18.52-9.57,18.52-20.98Z"/><path class="uuid-f68f412b-8eb7-4899-b856-bc03a7dd838e" d="M90.54,89.77l-34.76,3.72c-.64.07-.96-.74-.46-1.14l34.02-26.49c2.21-1.81,3.62-4.62,3.01-7.63-.6-4.62-4.42-7.63-9.24-7.03l-36.96,5.41c-.65.1-1-.74-.48-1.14l36.64-27.97c7.23-5.62,7.83-16.67,1.21-23.09-6.02-6.02-15.67-5.83-21.69.2L2.78,64.66c-2.21,2.41-3.21,5.62-2.61,9.04,1,5.42,6.42,9.04,11.85,8.04l31.83-6.49c.69-.14,1.07.78.47,1.16l-35.31,22.6c-4.42,2.81-6.42,7.83-5.02,12.85,1.41,6.63,8.04,10.44,14.46,8.84l52.79-13c.59-.15,1.03.54.65,1.02l-8.25,10.17c-2.21,2.81,1.41,6.63,4.42,4.42l27.11-22.29c4.82-4.01,1.61-11.85-4.62-11.25h0Z"/></g></svg>