<svg xmlns="http://www.w3.org/2000/svg" id="uuid-e57086ac-e7ca-43fb-b543-e9ac5f223de0" viewBox="0 0 840 300"><defs><style>.uuid-6ea942ce-a552-43a0-ac36-27720214c872{fill:#bcbec0;}</style></defs><path class="uuid-6ea942ce-a552-43a0-ac36-27720214c872" d="M67.11,84.87c11.94,33.28,23.32,66.79,36,99.79,2.66,5.4,5.1,10.8,9.53,15.01h-32.42c.47-.71,1.04-1.24,1.41-2.04,2.6-5.58-1.45-17.35-3.23-23.21-6.27-20.68-14.11-40.99-21.11-61.42l9.45-28.12h.36Z"/><polygon class="uuid-6ea942ce-a552-43a0-ac36-27720214c872" points="754.81 113.94 761.18 143.01 767.56 113.94 778.85 113.94 778.85 168.8 770.47 168.8 770.47 131.38 763.52 161.13 758.67 161.19 751.53 131.01 751.53 168.8 743.52 168.8 743.52 113.94 754.81 113.94"/><polygon class="uuid-6ea942ce-a552-43a0-ac36-27720214c872" points="255.43 113.94 265.26 146.27 265.26 113.94 273.28 113.94 273.28 168.8 264.9 168.8 253.97 132.83 253.97 168.8 245.96 168.8 245.96 113.94 255.43 113.94"/><path class="uuid-6ea942ce-a552-43a0-ac36-27720214c872" d="M161.63,113.94c11.08,1.31,13.17,16.3,7.66,23.99l-3.47,2.16c7.44,2.02,7.95,11.19,7.24,17.59-.57,5.09-5.2,11.12-10.71,11.12h-15.48v-54.86c4.67.4,10.19-.54,14.75,0ZM155.26,136.46c5.4.29,8.05-.61,8.39-6.34.39-6.51-1.6-9.07-8.39-8.55v14.89ZM155.26,161.17c6.04.07,9.03-.03,9.49-6.7.53-7.68-1.19-10.95-9.49-10.37v17.07Z"/><path class="uuid-6ea942ce-a552-43a0-ac36-27720214c872" d="M207.35,168.8h-9.11l-6.25-22.65c-.68-1.14-2.77-.42-3.95-.6v23.25h-8.38v-54.86h15.12c2.57,0,7.04,2.82,8.5,4.96,3.18,4.67,3.15,16.12.35,20.94-1.15,1.98-2.65,2.73-3.87,4.36l7.58,24.59ZM188.04,137.92c5.92.09,8.7-.28,9.12-6.7.49-7.41-1.29-10.17-9.12-9.64v16.35Z"/><path class="uuid-6ea942ce-a552-43a0-ac36-27720214c872" d="M413.51,168.8h-9.11l-6.25-22.65c-.68-1.14-2.77-.42-3.95-.6v23.25h-8.38v-54.86h15.12c2.57,0,7.04,2.82,8.5,4.96,3.18,4.67,3.15,16.12.35,20.94-1.15,1.98-2.65,2.73-3.87,4.36l7.58,24.59ZM394.21,137.92c5.92.09,8.7-.28,9.12-6.7.49-7.41-1.29-10.17-9.12-9.64v16.35Z"/><path class="uuid-6ea942ce-a552-43a0-ac36-27720214c872" d="M282.02,168.8v-54.86h15.12c6.12,0,10.37,6.6,10.76,12.15.59,8.48.66,22.48,0,30.91-.43,5.4-4.89,11.79-10.76,11.79h-15.12ZM290.4,161.17c5.57.08,8.63-.16,9.12-6.34.57-7.27.51-19.24,0-26.55-.44-6.43-3.18-6.79-9.12-6.7v39.6Z"/><path class="uuid-6ea942ce-a552-43a0-ac36-27720214c872" d="M679.05,168.8v-54.86h15.12c6.12,0,10.37,6.6,10.76,12.15.59,8.48.66,22.48,0,30.91-.43,5.4-4.89,11.79-10.76,11.79h-15.12ZM687.42,161.17c5.57.08,8.63-.16,9.12-6.34.57-7.27.51-19.24,0-26.55-.44-6.43-3.18-6.79-9.12-6.7v39.6Z"/><path class="uuid-6ea942ce-a552-43a0-ac36-27720214c872" d="M524.97,130.29v-5.63c0-2.23-3.07-3.9-5.18-3.74-3.36.26-4.09,2.6-4.31,5.54-.59,8.04-.68,22.21,0,30.18.34,4,3.27,6.63,7.19,4.61,1.17-.6,2.29-3.05,2.29-4.26v-11.08h-4.74v-7.63h13.11v19.44c0,14.75-24.93,16.96-26.24.38-.86-10.86.66-22.82.02-33.79.87-14.1,22.8-15.27,25.76-1.73.47,2.14.94,5.87-.09,7.72h-7.83Z"/><path class="uuid-6ea942ce-a552-43a0-ac36-27720214c872" d="M239.76,168.8h-8.38l-1.84-12.33-9.05.02-1.86,12.31h-8.38l10-54.88c2.83.41,6.83-.47,9.48.02.42.08.74.12.85.61l9.17,54.25ZM228.47,148.81l-3.46-22.89-3.46,22.89h6.92Z"/><path class="uuid-6ea942ce-a552-43a0-ac36-27720214c872" d="M446.29,168.8h-8.38l-1.84-12.33-9.05.02-1.86,12.31h-8.38l10-54.88c2.83.41,6.83-.47,9.48.02.42.08.74.12.85.61l9.17,54.25ZM435,148.81l-3.46-22.89-3.46,22.89h6.92Z"/><path class="uuid-6ea942ce-a552-43a0-ac36-27720214c872" d="M609.11,168.8h-8.38l-1.84-12.33-9.05.02-1.86,12.31h-8.38l10-54.88c2.83.41,6.83-.47,9.48.02.42.08.74.12.85.61l9.17,54.25ZM597.82,148.81l-3.46-22.89-3.46,22.89h6.92Z"/><path class="uuid-6ea942ce-a552-43a0-ac36-27720214c872" d="M673.22,168.8h-8.38l-1.84-12.33-9.05.02-1.86,12.31h-8.38l10-54.88c2.83.41,6.83-.47,9.48.02.42.08.74.12.85.61l9.17,54.25ZM661.93,148.81l-3.46-22.89-3.46,22.89h6.92Z"/><path class="uuid-6ea942ce-a552-43a0-ac36-27720214c872" d="M335.56,158.08c.78,4.7,8.26,5.15,9.31.2,2.24-10.64-10.71-14.89-15.2-23.03-3.85-6.98-3.4-19.18,5.81-21.57,9.81-2.55,17.95,2.84,16.83,13.34l-8.02.73c.18-3.18-.18-6.84-4.19-6.84s-4.55,3.64-4.02,6.85c1.35,8.3,16.02,12.85,17.28,24.18.94,8.47-.9,16.69-10.71,17.58-10.98.99-16.18-5.04-15.13-15.76l8.04-.95c.19,1.62-.26,3.72,0,5.27Z"/><path class="uuid-6ea942ce-a552-43a0-ac36-27720214c872" d="M639.71,131.38l-8.01.36v-5.99c0-1.65-1.23-3.79-2.84-4.43-4.14-1.63-6.35,1.28-6.64,5.14-.76,10.09.47,21.27.18,31.46.42,3.85,5.62,5.23,8,2.49.45-.51,1.3-2.86,1.3-3.42v-7.81c.27-.1.44.36.55.36h7.47v9.63c0,4.85-5.24,9.47-9.82,10.19-8.64,1.36-15.43-2.56-16.06-11.63-.76-10.82.59-22.52.02-33.43.42-12.93,20.28-15.26,24.83-4.07.25.62,1.03,2.87,1.03,3.33v7.81Z"/><polygon class="uuid-6ea942ce-a552-43a0-ac36-27720214c872" points="500.93 113.94 500.93 121.57 485.63 121.57 485.63 137.19 498.02 137.19 498.02 144.82 485.63 144.82 485.63 161.17 500.93 161.17 500.93 168.8 477.25 168.8 477.25 113.94 500.93 113.94"/><polygon class="uuid-6ea942ce-a552-43a0-ac36-27720214c872" points="736.6 113.94 736.6 121.57 721.3 121.57 721.3 137.19 733.68 137.19 733.68 144.82 721.3 144.82 721.3 161.17 736.6 161.17 736.6 168.8 712.92 168.8 712.92 113.94 736.6 113.94"/><polygon class="uuid-6ea942ce-a552-43a0-ac36-27720214c872" points="543.91 113.94 551.01 132.83 557.39 113.94 566.13 113.94 554.84 143.91 554.84 168.8 546.46 168.8 546.46 143.91 534.8 113.94 543.91 113.94"/><polygon class="uuid-6ea942ce-a552-43a0-ac36-27720214c872" points="791.23 113.94 798.33 132.83 804.71 113.94 813.45 113.94 802.16 143.91 802.16 168.8 793.78 168.8 793.78 143.91 782.13 113.94 791.23 113.94"/><polygon class="uuid-6ea942ce-a552-43a0-ac36-27720214c872" points="472.52 113.94 472.52 121.39 471.97 121.93 463.41 121.93 463.41 168.8 455.03 168.8 455.03 121.93 446.47 121.93 445.93 121.39 445.93 113.94 472.52 113.94"/><polygon class="uuid-6ea942ce-a552-43a0-ac36-27720214c872" points="381.09 113.94 381.09 121.39 380.55 121.93 371.99 121.93 371.99 168.8 363.61 168.8 363.61 121.93 355.05 121.93 354.5 121.39 354.5 113.94 381.09 113.94"/><path class="uuid-6ea942ce-a552-43a0-ac36-27720214c872" d="M50.72,157.9l4.37-12.54c1.38-.7,3.24.45,3.57,1.9.79,3.47-3.36,8.37-3.2,12.09,3.82.09,8.03-.18,11.8.4,1.53.24,5.43,1.23,3.62,3.26-4.85-.79-9.79-1.03-14.69-.57,3.97,3.67,8.47,6.81,12.39,10.53,1.18,1.12,2.83,2.6,3.82,3.81.9,1.09,2.64,2.63.65,3.59l-1.33-.37-17.36-14.66-1.09-.18-5.98,19.29c-.87.7-2.63.51-2.39-.9l4.72-20.93c-3.69.34-7.4.22-11.1.37-5.98.23-13.47,1.27-19.33.74-5.05-.45-.73-3.79,2.02-2.92.26.31-1.01,1.19.18,1.09,8.44-.69,16.87-1.6,25.31-2.19-.24-.56-.83-1.04-1.29-1.44-2.46-2.15-8.82-7.67-11.4-8.97-1.8-.91-5.29-.78-4.36-3.86.76-2.52,5.09-.08,6.39.75,5.06,3.25,9.56,8.41,14.67,11.71Z"/></svg>