<svg xmlns="http://www.w3.org/2000/svg" viewBox="0 0 66.07 93.77"><title>box-1-icon</title><g id="Layer_2" data-name="Layer 2"><g id="Layer_1-2" data-name="Layer 1"><path d="M34.41,1l7,22.12L64.61,23a1.44,1.44,0,0,1,.85,2.62L46.59,39.06l7.34,22a1.45,1.45,0,0,1-2.23,1.62L33,48.91,14.37,62.69a1.45,1.45,0,0,1-2.23-1.62l7.34-22L.61,25.57A1.44,1.44,0,0,1,1.46,23l23.2.18L31.66,1A1.44,1.44,0,0,1,34.41,1Z" style="fill:#e93396"/><path d="M52.14,93.77H13.93a3.57,3.57,0,0,1-3.57-3.57V85.46a3.57,3.57,0,0,1,3.57-3.57H52.14a3.57,3.57,0,0,1,3.57,3.57V90.2A3.57,3.57,0,0,1,52.14,93.77ZM14.44,89.7H51.63V86H14.44ZM52.14,86Z"/><path d="M46.83,86H19.24a2,2,0,0,1-1.6-.77,2.06,2.06,0,0,1-.39-1.73l5.36-23.06a2,2,0,1,1,4,.92L21.81,81.89H44.26L39.49,61.33a2,2,0,1,1,4-.92l5.36,23.06a2.06,2.06,0,0,1-.39,1.73A2,2,0,0,1,46.83,86Z"/><path d="M33,62.14a2,2,0,0,1-2-2v-4a2,2,0,1,1,4.07,0v4A2,2,0,0,1,33,62.14Z"/><path d="M33,77.91a2,2,0,0,1-2-2v-8a2,2,0,0,1,4.07,0v8A2,2,0,0,1,33,77.91Z"/><path d="M46.37,16.49a1.63,1.63,0,0,1-.43,0A2,2,0,0,1,44.38,14L45.68,8a2,2,0,0,1,4,.86l-1.3,6.07A2,2,0,0,1,46.37,16.49Z"/><path d="M50.92,18.78A2,2,0,0,1,49.82,15L55,11.66a2,2,0,1,1,2.21,3.42L52,18.45A2.05,2.05,0,0,1,50.92,18.78Z"/><path d="M19.7,16.49a2,2,0,0,1-2-1.61l-1.3-6.07a2,2,0,0,1,4-.86L21.69,14a2,2,0,0,1-1.56,2.42A1.63,1.63,0,0,1,19.7,16.49Z"/><path d="M15.15,18.78A2.05,2.05,0,0,1,14,18.45L8.83,15.08A2,2,0,1,1,11,11.66L16.25,15a2,2,0,0,1-1.1,3.75Z"/></g></g></svg>