<svg xmlns="http://www.w3.org/2000/svg" xmlns:xlink="http://www.w3.org/1999/xlink" viewBox="0 0 561.07 94.23"><defs><clipPath id="clip-path" transform="translate(2.9 -31.14)"><polygon points="509.96 0 509.96 41.08 417.95 41.08 417.95 0 0 0 0 130.04 590.43 130.04 590.43 0 509.96 0" style="fill:none"/></clipPath></defs><title>line-around-brand</title><g id="Layer_2" data-name="Layer 2"><g id="Layer_1-2" data-name="Layer 1"><g style="clip-path:url(#clip-path)"><path d="M558.16,36.88c-.93-7.37-21.94-7.41-102.39-1.47,42.19-1.47,67.53.12,68.18,5.23,1.57,12.48-145.06,41.24-327.52,64.23-74.62,9.4-143.66,16.38-199.33,20.49,61-2.13,157-6.5,264.87-20.09C444.43,82.29,559.73,49.37,558.16,36.88Z" transform="translate(2.9 -31.14)" style="fill:#ff009a"/></g></g></g></svg>