<svg xmlns="http://www.w3.org/2000/svg" viewBox="0 0 85.96 95.77"><title>box-6-icon</title><g id="Layer_2" data-name="Layer 2"><g id="Layer_1-2" data-name="Layer 1"><path d="M43.59,17.11,46.71,27,57,26.87A.64.64,0,0,1,57.41,28L49,34l3.26,9.79a.64.64,0,0,1-1,.72L43,38.41l-8.3,6.13a.64.64,0,0,1-1-.72L37,34l-8.39-6a.64.64,0,0,1,.38-1.16L39.26,27l3.11-9.84A.64.64,0,0,1,43.59,17.11Z" style="fill:#e93396"/><path d="M33,80.25a2.1,2.1,0,0,1-.61-.09,2,2,0,0,1-1.34-2.56L37.48,57a2,2,0,0,1,3.9,1.21l-6.44,20.6A2,2,0,0,1,33,80.25Z"/><path d="M57.83,95.77H28.05a4.14,4.14,0,0,1-4.14-4.14V80.31a4.15,4.15,0,0,1,4.14-4.14H57.83A4.14,4.14,0,0,1,62,80.31V91.63A4.14,4.14,0,0,1,57.83,95.77ZM28.05,80.25a.06.06,0,0,0-.06.06V91.63a.05.05,0,0,0,.06.06H57.83a.05.05,0,0,0,.06-.06V80.31a.06.06,0,0,0-.06-.06Z"/><path d="M43,60a15.63,15.63,0,0,1-12.06-5.67,66.06,66.06,0,0,1-15.14-42V10a2,2,0,0,1,2-2H68.15a2,2,0,0,1,2,2v2.23A66,66,0,0,1,55,54.29,15.62,15.62,0,0,1,43,60ZM19.85,12.07v.19A62,62,0,0,0,34.06,51.69a11.59,11.59,0,0,0,17.84,0A62,62,0,0,0,66.11,12.26v-.19Z"/><path d="M53,80.25A2.05,2.05,0,0,1,51,78.82l-6.43-20.6A2,2,0,0,1,48.48,57L54.91,77.6a2,2,0,0,1-1.33,2.56A2.2,2.2,0,0,1,53,80.25Z"/><path d="M69.32,12.07H16.64A3.62,3.62,0,0,1,13,8.45V3.61A3.61,3.61,0,0,1,16.64,0H69.32a3.61,3.61,0,0,1,3.61,3.61V8.45A3.62,3.62,0,0,1,69.32,12.07ZM17.11,8H68.86V4.08H17.11ZM69.32,4.08Z"/><path d="M65.19,50.53a2,2,0,0,1-.85-3.9A30,30,0,0,0,81.89,19.32v-2H68.08a2,2,0,1,1,0-4.07H83.93a2,2,0,0,1,2,2v4.06A34.1,34.1,0,0,1,66,50.34,2,2,0,0,1,65.19,50.53Z"/><path d="M20.77,50.53a1.94,1.94,0,0,1-.84-.19A34.09,34.09,0,0,1,0,19.32V15.26a2,2,0,0,1,2-2H17.88a2,2,0,1,1,0,4.07H4.08v2A30,30,0,0,0,21.62,46.63a2,2,0,0,1-.85,3.9Z"/><path d="M52.62,88H33.26a2,2,0,0,1,0-4.08H52.62a2,2,0,1,1,0,4.08Z" style="fill:#e93396"/><path d="M67.39,62.78a2,2,0,0,1-.82-.17L61.06,60.2a2,2,0,1,1,1.63-3.73l5.51,2.41a2,2,0,0,1-.81,3.9Z"/><path d="M61,69.86a2.06,2.06,0,0,1-1.9-1.3L56.92,63a2,2,0,0,1,3.8-1.49l2.19,5.6a2,2,0,0,1-1.15,2.64A2,2,0,0,1,61,69.86Z"/><path d="M18.58,62.78a2,2,0,0,1-.82-3.9l5.51-2.41a2,2,0,1,1,1.64,3.73l-5.52,2.41A1.93,1.93,0,0,1,18.58,62.78Z"/><path d="M25,69.86a1.92,1.92,0,0,1-.74-.15,2,2,0,0,1-1.16-2.64l2.2-5.6A2,2,0,1,1,29,63l-2.19,5.6A2.06,2.06,0,0,1,25,69.86Z"/></g></g></svg>