<svg xmlns="http://www.w3.org/2000/svg" viewBox="0 0 157.38 150"><title>Asset 6</title><g id="Layer_2" data-name="Layer 2"><g id="Layer_1-2" data-name="Layer 1"><path d="M125.25,150a3.38,3.38,0,0,1-2-.65L78.69,116.43,34.11,149.35A3.35,3.35,0,0,1,29,145.59L46.48,93,1.4,60.81a3.35,3.35,0,0,1,2-6.07l55.41.42L75.5,2.34a3.34,3.34,0,0,1,6.38,0L95.29,44.72a3.35,3.35,0,1,1-6.38,2L78.69,14.45,64.42,59.54a3.34,3.34,0,0,1-3.19,2.34h0l-47.3-.36L52.38,89a3.33,3.33,0,0,1,1.23,3.78l-15,44.87L76.7,109.58a3.33,3.33,0,0,1,4,0l38.05,28.09-15-44.87A3.36,3.36,0,0,1,105,89l38.48-27.5-47.3.36h0a3.35,3.35,0,0,1,0-6.7L154,54.74h0A3.35,3.35,0,0,1,156,60.81L110.9,93l17.53,52.56a3.35,3.35,0,0,1-3.18,4.41Z" style="fill:#fff"/><path d="M80.45,39.23l9,28.36,29.74-.23a1.85,1.85,0,0,1,1.09,3.36L96.06,88l9.41,28.21a1.85,1.85,0,0,1-2.86,2.08L78.69,100.63,54.76,118.3a1.85,1.85,0,0,1-2.85-2.08L61.31,88,37.12,70.72a1.85,1.85,0,0,1,1.09-3.36L68,67.59l9-28.36A1.85,1.85,0,0,1,80.45,39.23Z" style="fill:#e93396"/><path d="M139.6,102.54a3.36,3.36,0,0,1-1.34-.28l-9.34-4.08A3.35,3.35,0,0,1,131.6,92L141,96.13a3.35,3.35,0,0,1-1.35,6.41Z" style="fill:#fff"/><path d="M128.8,114.53a3.36,3.36,0,0,1-3.12-2.12l-3.71-9.5a3.35,3.35,0,1,1,6.23-2.44l3.72,9.49a3.35,3.35,0,0,1-1.9,4.34A3.26,3.26,0,0,1,128.8,114.53Z" style="fill:#fff"/><path d="M29.64,97.9h0l-10.2-.11a3.35,3.35,0,0,1,0-6.69h0l10.19.1a3.35,3.35,0,0,1,0,6.7Z" style="fill:#fff"/><path d="M24.39,113.15a3.34,3.34,0,0,1-2.34-5.73l7.28-7.14A3.34,3.34,0,1,1,34,105.06l-7.28,7.14A3.32,3.32,0,0,1,24.39,113.15Z" style="fill:#fff"/></g></g></svg>