<svg xmlns="http://www.w3.org/2000/svg" viewBox="0 0 124.05 138.2"><title>cup-10</title><g id="Layer_2" data-name="Layer 2"><g id="Layer_1-2" data-name="Layer 1"><path d="M62.91,24.69l4.49,14.2,14.89-.12a.93.93,0,0,1,.55,1.68L70.73,49.11l4.71,14.13a.93.93,0,0,1-1.43,1L62,55.43l-12,8.85a.93.93,0,0,1-1.43-1l4.71-14.13L41.21,40.45a.93.93,0,0,1,.55-1.68l14.89.12,4.49-14.2A.93.93,0,0,1,62.91,24.69Z" style="fill:#fd0198"/><path d="M47.62,115.8a3,3,0,0,1-.88-.13A2.94,2.94,0,0,1,44.81,112l9.28-29.71A2.94,2.94,0,0,1,59.71,84l-9.29,29.72A2.93,2.93,0,0,1,47.62,115.8Z"/><path d="M83.46,138.2h-43a6,6,0,0,1-6-6V115.89a6,6,0,0,1,6-6h43a6,6,0,0,1,6,6v16.34A6,6,0,0,1,83.46,138.2Zm-43-22.4a.09.09,0,0,0-.08.09v16.34a.09.09,0,0,0,.08.09h43a.09.09,0,0,0,.09-.09V115.89a.09.09,0,0,0-.09-.09Z"/><path d="M62,86.52a22.51,22.51,0,0,1-17.4-8.18A95.23,95.23,0,0,1,22.77,17.69V14.47a2.93,2.93,0,0,1,2.94-2.94H98.35a2.94,2.94,0,0,1,2.94,2.94v3.22A95.29,95.29,0,0,1,79.43,78.34,22.53,22.53,0,0,1,62,86.52ZM28.65,17.41v.28a89.36,89.36,0,0,0,20.51,56.9,16.71,16.71,0,0,0,25.74,0,89.41,89.41,0,0,0,20.5-56.9v-.28Z"/><path d="M76.44,115.8a2.93,2.93,0,0,1-2.81-2.06L64.35,84A2.94,2.94,0,1,1,70,82.27L79.25,112a2.94,2.94,0,0,1-2.81,3.82Z"/><path d="M100,17.41H24A5.22,5.22,0,0,1,18.8,12.2v-7A5.22,5.22,0,0,1,24,0h76a5.22,5.22,0,0,1,5.22,5.21v7A5.22,5.22,0,0,1,100,17.41ZM24.69,11.53H99.36V5.88H24.69ZM100,5.88h0Z"/><path d="M94.08,72.91a2.94,2.94,0,0,1-1.23-5.61,43.38,43.38,0,0,0,25.32-39.41V25H98.24a2.95,2.95,0,0,1,0-5.89h22.87A2.94,2.94,0,0,1,124.05,22v5.87A49.19,49.19,0,0,1,95.3,72.65,2.94,2.94,0,0,1,94.08,72.91Z"/><path d="M30,72.91a2.91,2.91,0,0,1-1.22-.26A49.23,49.23,0,0,1,0,27.89V22a3,3,0,0,1,2.94-2.95H25.81a2.95,2.95,0,0,1,0,5.89H5.88v2.93A43.38,43.38,0,0,0,31.2,67.3,2.94,2.94,0,0,1,30,72.91Z"/><path d="M75.94,127H48a2.94,2.94,0,0,1,0-5.88H75.94a2.94,2.94,0,0,1,0,5.88Z" style="fill:#fd0198"/><path d="M97.24,90.6a2.87,2.87,0,0,1-1.17-.25l-8-3.47a2.95,2.95,0,1,1,2.36-5.4l8,3.48a2.94,2.94,0,0,1-1.18,5.64Z"/><path d="M88.05,100.81a2.93,2.93,0,0,1-2.74-1.87l-3.17-8.09a2.94,2.94,0,1,1,5.48-2.14l3.17,8.08a3,3,0,0,1-1.67,3.81A2.91,2.91,0,0,1,88.05,100.81Z"/><path d="M26.81,90.6A2.94,2.94,0,0,1,25.63,85l8-3.48a2.94,2.94,0,0,1,2.35,5.4L28,90.35A3,3,0,0,1,26.81,90.6Z"/><path d="M36,100.81a3,3,0,0,1-2.74-4l3.16-8.08a2.94,2.94,0,1,1,5.48,2.14l-3.16,8.09A3,3,0,0,1,36,100.81Z"/></g></g></svg>