<svg xmlns="http://www.w3.org/2000/svg" viewBox="0 0 252.26 249.36"><title>plane10</title><g id="Layer_2" data-name="Layer 2"><g id="Layer_1-2" data-name="Layer 1"><g id="Sputnik"><path d="M86.66,116.88a2.88,2.88,0,0,1-4.06.23L12.14,54.31a2.89,2.89,0,0,1-.23-4.06L55.85,1a2.87,2.87,0,0,1,4-.23l70.46,62.8a2.86,2.86,0,0,1,.23,4Z" style="fill:#502936"/><path d="M77.07,20.84h0l-13-11.58L61,6.51a2.89,2.89,0,0,0-4.06.23l-4.2,4.72L42.23,23.25,40,25.77a2.87,2.87,0,0,0,.23,4.05l3.68,3.27,9.45,8.43,2.95,2.63.19.15a2.85,2.85,0,0,0,3.86-.39l.4-.44L77.31,24.89A2.87,2.87,0,0,0,77.07,20.84Z" style="fill:#fc15b9"/><path d="M100.29,41.54l-4.8-4.29-11.27-10a2.88,2.88,0,0,0-4.06.23L67,42.26l-3.75,4.2a2.88,2.88,0,0,0,.23,4.06l11.09,9.87,5,4.45a2.87,2.87,0,0,0,4-.23L90,57.37l10.5-11.78A2.86,2.86,0,0,0,100.29,41.54Z" style="fill:#fc15b9"/><path d="M54.78,45.84l-1.11-1-2.4-2.14L41.09,33.64l-2.38-2.12a2.87,2.87,0,0,0-4.05.23l-3.4,3.81L21.1,47l-3.4,3.81a2.87,2.87,0,0,0,.23,4L34,69.15a2.87,2.87,0,0,0,4.05-.23l5-5.66L55,49.9A2.88,2.88,0,0,0,54.78,45.84Z" style="fill:#fc15b9"/><path d="M123.51,62.23l-3.09-2.76-13-11.57a2.88,2.88,0,0,0-3.83,0c-.07.07-.15.14-.23.23l-7.14,8-9.81,11a2.87,2.87,0,0,0,.23,4l16.08,14.33a2.87,2.87,0,0,0,4.05-.23l9.95-11.16,7-7.86A2.88,2.88,0,0,0,123.51,62.23Z" style="fill:#fc15b9"/><path d="M78,66.54l-6.28-5.6-9.79-8.73a2.87,2.87,0,0,0-4,.24L46.72,65l-5.8,6.51a2.87,2.87,0,0,0,.23,4l7.44,6.63,8.64,7.7a2.87,2.87,0,0,0,4.05-.24L72,77.57l6.23-7A2.87,2.87,0,0,0,78,66.54Z" style="fill:#fc15b9"/><path d="M101.22,87.24,85.15,72.91a2.86,2.86,0,0,0-4.05.23l-2.87,3.22L64.14,92.16a2.87,2.87,0,0,0-.29,3.43,2.81,2.81,0,0,0,.52.63l16.08,14.32a2.86,2.86,0,0,0,4-.23l17-19A2.87,2.87,0,0,0,101.22,87.24Z" style="fill:#fc15b9"/><path d="M49.35,26.24l27.71-5.41-13-11.58L52.74,11.46,42.23,23.25A6.92,6.92,0,0,0,49.35,26.24Z" style="fill:#ffa4ff"/><path d="M55,36.46a5.44,5.44,0,0,0-6.38-4.3l-4.75.93,9.45,8.43A5.42,5.42,0,0,0,55,36.46Z" style="fill:#ffa4ff"/><path d="M25.23,47.82l25.51-5a5.11,5.11,0,0,0,.53-.13L41.09,33.64l-9.83,1.92L21.1,47A5.43,5.43,0,0,0,25.23,47.82Z" style="fill:#ffa4ff"/><path d="M60.35,43.91l.4-.44-4.26.83A2.85,2.85,0,0,0,60.35,43.91Z" style="fill:#ffa4ff"/><path d="M100.29,41.54l-4.8-4.29a9.55,9.55,0,0,0-3.28.08L67,42.26l-3.75,4.2a2.88,2.88,0,0,0,.23,4.06l11.09,9.87,15.49-3,10.5-11.78A2.86,2.86,0,0,0,100.29,41.54Z" style="fill:#ffa4ff"/><path d="M103.61,47.91c-.07.07-.15.14-.23.23l-7.14,8A9.62,9.62,0,0,0,103.61,47.91Z" style="fill:#ffa4ff"/><path d="M54.78,45.84l-1.11-1-6.6,1.29a9.62,9.62,0,0,0-4,17.12L55,49.9A2.88,2.88,0,0,0,54.78,45.84Z" style="fill:#ffa4ff"/><path d="M57.88,52.45,46.72,65a9.63,9.63,0,0,0,4,.08l21-4.1-9.79-8.73A2.87,2.87,0,0,0,57.88,52.45Z" style="fill:#ffa4ff"/><path d="M123.51,62.23l-3.09-2.76-19,3.7a6.85,6.85,0,1,0,2.63,13.45l12.65-2.47,7-7.86A2.88,2.88,0,0,0,123.51,62.23Z" style="fill:#ffa4ff"/><path d="M57.23,89.85a2.87,2.87,0,0,0,4.05-.24L72,77.57,48.59,82.15Z" style="fill:#ffa4ff"/><path d="M63.85,95.59l19.74-3.85a8.06,8.06,0,1,0-3.08-15.82l-2.28.44L64.14,92.16A2.87,2.87,0,0,0,63.85,95.59Z" style="fill:#ffa4ff"/><path d="M207.59,225a2.87,2.87,0,0,1-4.05.24l-70.46-62.81a2.87,2.87,0,0,1-.23-4l43.94-49.29a2.87,2.87,0,0,1,4.05-.24l70.46,62.81a2.87,2.87,0,0,1,.23,4Z" style="fill:#502936"/><path d="M198,129h0l-13-11.59-3.08-2.73a2.87,2.87,0,0,0-4.05.23l-4.2,4.72-10.51,11.79-2.24,2.51a2.87,2.87,0,0,0,.23,4.05l3.67,3.28,9.46,8.43,2.94,2.62.19.16a2.89,2.89,0,0,0,3.87-.39l.39-.45L198.24,133A2.88,2.88,0,0,0,198,129Z" style="fill:#fc15b9"/><path d="M221.23,149.65l-4.81-4.28-11.27-10.05a2.87,2.87,0,0,0-4.05.24l-13.2,14.81-3.75,4.21a2.87,2.87,0,0,0,.23,4l11.08,9.88,5,4.45a2.89,2.89,0,0,0,4.06-.23l6.45-7.25,10.5-11.77A2.88,2.88,0,0,0,221.23,149.65Z" style="fill:#fc15b9"/><path d="M175.72,154l-1.12-1-2.4-2.14L162,141.75l-2.38-2.12a2.88,2.88,0,0,0-4.06.24l-3.39,3.8L142,155.07l-3.4,3.82a2.87,2.87,0,0,0,.23,4.05L155,177.27A2.87,2.87,0,0,0,159,177l5-5.65L176,158A2.87,2.87,0,0,0,175.72,154Z" style="fill:#fc15b9"/><path d="M244.45,170.35l-3.1-2.76-13-11.57a2.87,2.87,0,0,0-3.82,0,2.5,2.5,0,0,0-.23.23l-7.14,8-9.82,11a2.89,2.89,0,0,0,.24,4.06l16.07,14.32a2.88,2.88,0,0,0,4.06-.23l9.94-11.16,7-7.86A2.87,2.87,0,0,0,244.45,170.35Z" style="fill:#fc15b9"/><path d="M198.94,174.66l-6.28-5.6-9.79-8.73a2.88,2.88,0,0,0-4.06.23l-11.15,12.52-5.8,6.5a2.88,2.88,0,0,0,.23,4.06l7.44,6.62,8.63,7.7a2.88,2.88,0,0,0,4.06-.23l10.73-12,6.22-7A2.87,2.87,0,0,0,198.94,174.66Z" style="fill:#fc15b9"/><path d="M222.16,195.35,206.09,181a2.87,2.87,0,0,0-4.06.23l-2.87,3.22-14.08,15.8a2.87,2.87,0,0,0-.29,3.43,2.56,2.56,0,0,0,.52.62l16.07,14.33a2.88,2.88,0,0,0,4.06-.23l16.95-19A2.88,2.88,0,0,0,222.16,195.35Z" style="fill:#fc15b9"/><path d="M170.29,134.36,198,129l-13-11.59-11.33,2.22-10.51,11.79A7,7,0,0,0,170.29,134.36Z" style="fill:#ffa4ff"/><path d="M176,144.58a5.44,5.44,0,0,0-6.38-4.3l-4.76.93,9.46,8.43A5.42,5.42,0,0,0,176,144.58Z" style="fill:#ffa4ff"/><path d="M146.16,155.94l25.51-5,.53-.13L162,141.75l-9.83,1.92L142,155.07A5.38,5.38,0,0,0,146.16,155.94Z" style="fill:#ffa4ff"/><path d="M181.29,152l.39-.45-4.26.84A2.89,2.89,0,0,0,181.29,152Z" style="fill:#ffa4ff"/><path d="M221.23,149.65l-4.81-4.28a9.48,9.48,0,0,0-3.27.07l-25.25,4.93-3.75,4.21a2.87,2.87,0,0,0,.23,4l11.08,9.88,15.5-3,10.5-11.77A2.88,2.88,0,0,0,221.23,149.65Z" style="fill:#ffa4ff"/><path d="M224.55,156a2.5,2.5,0,0,0-.23.23l-7.14,8A9.62,9.62,0,0,0,224.55,156Z" style="fill:#ffa4ff"/><path d="M175.72,154l-1.12-1-6.6,1.28a9.63,9.63,0,0,0-4,17.13L176,158A2.87,2.87,0,0,0,175.72,154Z" style="fill:#ffa4ff"/><path d="M178.81,160.56l-11.15,12.52a9.58,9.58,0,0,0,4,.07l21-4.09-9.79-8.73A2.88,2.88,0,0,0,178.81,160.56Z" style="fill:#ffa4ff"/><path d="M244.45,170.35l-3.1-2.76-18.95,3.7A6.85,6.85,0,1,0,225,184.73l12.65-2.47,7-7.86A2.87,2.87,0,0,0,244.45,170.35Z" style="fill:#ffa4ff"/><path d="M178.16,198a2.88,2.88,0,0,0,4.06-.23l10.73-12-23.42,4.57Z" style="fill:#ffa4ff"/><path d="M184.79,203.71l19.74-3.85A8.06,8.06,0,1,0,201.44,184l-2.28.45-14.08,15.8A2.87,2.87,0,0,0,184.79,203.71Z" style="fill:#ffa4ff"/><path d="M99.48,167.6a2.87,2.87,0,0,1-4,.24L81.38,155.31a2.86,2.86,0,0,1-.23-4.05l1.93-2.17a2.87,2.87,0,0,1,4-.23l14.05,12.52a2.87,2.87,0,0,1,.24,4.05Z" style="fill:#380e1f"/><path d="M106.51,109a2.87,2.87,0,0,1-4.05.23l-2.88-2.56a2.87,2.87,0,0,1-.23-4l20.08-22.53a2.88,2.88,0,0,1,4.06-.24l2.87,2.56a2.88,2.88,0,0,1,.23,4.06Z" style="fill:#380e1f"/><path d="M145.7,144a2.87,2.87,0,0,1-4,.23l-2.87-2.56a2.87,2.87,0,0,1-.24-4.05L158.62,115a2.88,2.88,0,0,1,4.06-.24l2.87,2.57a2.87,2.87,0,0,1,.24,4Z" style="fill:#380e1f"/><path d="M178.78,86.86A17.09,17.09,0,0,0,173.07,73l-6.4-5.71a17.17,17.17,0,0,0-24.24,1.39L89.14,128.51a17.16,17.16,0,0,0,1.39,24.23l6.41,5.71a17.16,17.16,0,0,0,24.23-1.39l53.29-59.79A17.07,17.07,0,0,0,178.78,86.86Z" style="fill:#502936"/><path d="M173.07,73l-6.4-5.71a17.17,17.17,0,0,0-24.24,1.39L89.14,128.51a17.07,17.07,0,0,0-4.33,10.59l94-52.24A17.09,17.09,0,0,0,173.07,73Z" style="fill:#593643"/><path d="M186.25,98.46a4.52,4.52,0,0,1-6.38.37L140.26,63.52a4.51,4.51,0,0,1-.36-6.37l4.88-5.48a4.51,4.51,0,0,1,6.37-.37l39.61,35.31a4.51,4.51,0,0,1,.37,6.37Z" style="fill:#380e1f"/><path d="M89.47,160.39l-.57-.49A32.55,32.55,0,0,0,43.52,163l15.27,13.61,33.31,29.7A32.54,32.54,0,0,0,89.47,160.39Z" style="fill:#fc15b9"/><path d="M43.52,163l15.27,13.61L88.9,159.9A32.55,32.55,0,0,0,43.52,163Z" style="fill:#ff90ff"/></g><path d="M63.21,223.23a2.56,2.56,0,0,0-3.12-3.47c-.41.13-10.5,3-20.25-6.34-10.87-10.46-7.46-19.89-7.43-20a2.56,2.56,0,1,0-4.79-1.82c-.19.51-4.62,12.72,8.66,25.49,12,11.57,24.81,7.71,25.35,7.54A2.54,2.54,0,0,0,63.21,223.23Z" style="fill:#f4f4f4"/><path d="M75.34,245.78a2.56,2.56,0,0,0-3.25-3.42,41.3,41.3,0,0,1-14.7,1.78c-11.64-.51-22.51-5.06-32.32-13.52C-.85,208.28,5.91,185.86,6,185.64a2.57,2.57,0,0,0-4.89-1.56c-.08.27-2.08,6.7-.46,16.17,1.46,8.59,6.31,21.51,21.09,34.26,25.76,22.21,51.11,13,52.17,12.64A2.54,2.54,0,0,0,75.34,245.78Z" style="fill:#f4f4f4"/></g></g></svg>