<svg xmlns="http://www.w3.org/2000/svg" viewBox="0 0 157.38 157.38"><title>Asset 3</title><g id="Layer_2" data-name="Layer 2"><g id="Layer_1-2" data-name="Layer 1"><path d="M141.7,93.37a3.51,3.51,0,0,1-.71-.08l-10-2.13a3.35,3.35,0,0,1,1.41-6.55l10,2.13a3.35,3.35,0,0,1-.7,6.63Z" style="fill:#fff"/><path d="M133.51,107.27a3.35,3.35,0,0,1-2.82-1.53l-5.54-8.56a3.35,3.35,0,1,1,5.62-3.64l5.54,8.56a3.35,3.35,0,0,1-2.8,5.17Z" style="fill:#fff"/><path d="M70.07,30.12a3.35,3.35,0,0,1-3.35-3.2l-.44-10.19A3.35,3.35,0,1,1,73,16.44l.45,10.19a3.36,3.36,0,0,1-3.21,3.49Z" style="fill:#fff"/><path d="M62.07,32.58a3.36,3.36,0,0,1-2.27-.88l-7.51-6.89a3.35,3.35,0,0,1,4.53-4.94l7.51,6.89a3.35,3.35,0,0,1-2.26,5.82Z" style="fill:#fff"/><path d="M86.82,72.65,75.3,94.84l17.81,17.54A1.56,1.56,0,0,1,91.77,115l-24.67-4.1L55.93,133.29a1.56,1.56,0,0,1-2.94-.47L49.27,108.1l-24.72-3.72a1.56,1.56,0,0,1-.46-2.93L46.45,90.27l-4.1-24.66A1.56,1.56,0,0,1,45,64.26L62.53,82.08,84.72,70.55A1.56,1.56,0,0,1,86.82,72.65Z" style="fill:#e93396"/><path d="M34.87,90h-.09L3.26,89.15A3.35,3.35,0,0,1,1,83.43L29.32,55.09a32.24,32.24,0,0,1,22.22-9.47l18.63-.39a3.35,3.35,0,0,1,.14,6.7l-18.63.38a25.53,25.53,0,0,0-17.62,7.52L11.23,82.66,35,83.29A3.35,3.35,0,0,1,34.87,90Z" style="fill:#fff"/><path d="M71.57,157.38a3.41,3.41,0,0,1-1.24-.24,3.35,3.35,0,0,1-2.1-3l-.84-31.51a3.36,3.36,0,0,1,3.26-3.44h.09a3.35,3.35,0,0,1,3.35,3.26l.63,23.73,22.83-22.83a25.61,25.61,0,0,0,7.51-17.63l.39-18.63a3.35,3.35,0,0,1,6.69.14l-.38,18.63a32.21,32.21,0,0,1-9.48,22.22L73.94,156.39A3.35,3.35,0,0,1,71.57,157.38Z" style="fill:#fff"/><path d="M95.12,103.29a3.35,3.35,0,0,1-2.36-5.71L129,61.31A73.55,73.55,0,0,0,145.1,37.2a73.65,73.65,0,0,0,5.58-28.45v-2h-2.32A73.93,73.93,0,0,0,96.06,28.35L59.8,64.62a3.35,3.35,0,0,1-4.74-4.74L91.33,23.62A80.62,80.62,0,0,1,148.35,0h.3L154,0a3.34,3.34,0,0,1,3.33,3.34l0,5.37a80.15,80.15,0,0,1-6.08,31,80.25,80.25,0,0,1-17.53,26.3L97.49,102.31A3.35,3.35,0,0,1,95.12,103.29Z" style="fill:#fff"/><path d="M30.7,151.34a3.35,3.35,0,0,1-2.37-5.71l12.48-12.48a3.35,3.35,0,1,1,4.73,4.74L33.07,150.36A3.34,3.34,0,0,1,30.7,151.34Z" style="fill:#fff"/><path d="M9.38,130A3.35,3.35,0,0,1,7,124.31l12.48-12.48a3.35,3.35,0,1,1,4.73,4.74L11.75,129.05A3.36,3.36,0,0,1,9.38,130Z" style="fill:#fff"/><path d="M27.86,132.86a3.35,3.35,0,0,1-2.36-5.72l11.56-11.56a3.35,3.35,0,1,1,4.73,4.74L30.23,131.88A3.35,3.35,0,0,1,27.86,132.86Z" style="fill:#fff"/><path d="M120.9,49.87a3.35,3.35,0,0,1,0-6.7,6.7,6.7,0,1,0-6.69-6.7,3.35,3.35,0,0,1-6.7,0,13.4,13.4,0,1,1,13.39,13.4Z" style="fill:#fff"/></g></g></svg>