<svg xmlns="http://www.w3.org/2000/svg" viewBox="0 0 292 285.49"><title>compass</title><g id="Layer_2" data-name="Layer 2"><g id="Layer_1-2" data-name="Layer 1"><path d="M248.15,55.83a1,1,0,0,1-1-1v-37a1,1,0,1,1,1.94,0v37A1,1,0,0,1,248.15,55.83Z" style="fill:#fff"/><path d="M266.65,37.33h-37a1,1,0,1,1,0-1.93h37a1,1,0,0,1,0,1.93Z" style="fill:#fff"/><path d="M255.55,44.73a1,1,0,0,1-.68-.28l-14.8-14.81a1,1,0,0,1,1.36-1.36l14.81,14.8a1,1,0,0,1-.69,1.65Z" style="fill:#fff"/><path d="M240.75,44.73a.93.93,0,0,1-.68-.28,1,1,0,0,1,0-1.37l14.8-14.8a1,1,0,0,1,1.37,0,1,1,0,0,1,0,1.36L241.43,44.45A.94.94,0,0,1,240.75,44.73Z" style="fill:#fff"/><path d="M14.66,151.6a1,1,0,0,1-1-1V123.25a1,1,0,1,1,1.93,0v27.38A1,1,0,0,1,14.66,151.6Z" style="fill:#fff"/><path d="M28.35,137.91H1A1,1,0,0,1,1,136H28.35a1,1,0,0,1,0,1.94Z" style="fill:#fff"/><path d="M20.14,143.38a1,1,0,0,1-.69-.28l-11-11a1,1,0,1,1,1.37-1.36l11,10.95a1,1,0,0,1-.68,1.65Z" style="fill:#fff"/><path d="M9.18,143.38a1,1,0,0,1-.69-.28,1,1,0,0,1,0-1.37l11-10.95a1,1,0,0,1,1.37,0,1,1,0,0,1,0,1.36l-11,11A.94.94,0,0,1,9.18,143.38Z" style="fill:#fff"/><polygon points="79.29 209.4 72.36 214.22 74.81 206.14 68.08 201.04 76.52 200.87 79.29 192.9 82.06 200.87 90.5 201.04 83.78 206.14 86.22 214.22 79.29 209.4" style="fill:#fff"/><path d="M86.22,215.19a.93.93,0,0,1-.55-.18l-6.38-4.43L72.91,215a1,1,0,0,1-1.47-1.07l2.25-7.44-6.2-4.69a1,1,0,0,1,.57-1.74l7.77-.15,2.55-7.34a1,1,0,0,1,1.82,0l2.55,7.34,7.77.15a1,1,0,0,1,.57,1.74l-6.2,4.69,2.25,7.44a1,1,0,0,1-.35,1.06A1,1,0,0,1,86.22,215.19Zm-6.93-6.76a1,1,0,0,1,.55.17l4.65,3.24-1.64-5.42a1,1,0,0,1,.34-1L87.7,202,82,201.83a1,1,0,0,1-.89-.64l-1.86-5.35-1.86,5.35a1,1,0,0,1-.89.64l-5.66.12,4.51,3.42a1,1,0,0,1,.34,1l-1.64,5.42,4.65-3.24A1,1,0,0,1,79.29,208.43Z" style="fill:#fff"/><circle cx="215.82" cy="63.19" r="3.68" style="fill:#fff"/><path d="M215.81,67.83a4.65,4.65,0,1,1,3.66-1.78,4.59,4.59,0,0,1-3.1,1.75A5.12,5.12,0,0,1,215.81,67.83Zm0-7.35a1.83,1.83,0,0,0-.33,0A2.71,2.71,0,1,0,218,64.86a2.76,2.76,0,0,0,.56-2h0a2.7,2.7,0,0,0-2.69-2.38Z" style="fill:#fff"/><circle cx="287.35" cy="139.79" r="3.68" style="fill:#fff"/><path d="M287.34,144.43a4.66,4.66,0,0,1-4.6-4.08,4.64,4.64,0,1,1,5.17,4.05Zm0-7.35a1.77,1.77,0,0,0-.32,0,2.7,2.7,0,1,0,.32,0Z" style="fill:#fff"/><circle cx="119.22" cy="112.02" r="3.68" style="fill:#fff"/><path d="M119.21,116.67a4.57,4.57,0,0,1-2.85-1,4.64,4.64,0,1,1,7.47-4.21h0a4.62,4.62,0,0,1-4,5.16A3.64,3.64,0,0,1,119.21,116.67Zm0-7.36-.32,0a2.71,2.71,0,1,0,.65,5.38,2.62,2.62,0,0,0,1.8-1,2.67,2.67,0,0,0,.56-2h0A2.73,2.73,0,0,0,119.22,109.31Z" style="fill:#fff"/><circle cx="148.79" cy="280.85" r="3.68" style="fill:#fff"/><path d="M148.78,285.49a4.64,4.64,0,0,1-4.6-4.08,4.64,4.64,0,1,1,9.22-1.12,4.66,4.66,0,0,1-4.05,5.17A5.44,5.44,0,0,1,148.78,285.49Zm0-7.35a1.83,1.83,0,0,0-.33,0,2.71,2.71,0,0,0-2.36,3,2.71,2.71,0,0,0,3,2.37,2.72,2.72,0,0,0,2.37-3h0a2.72,2.72,0,0,0-2.69-2.38Z" style="fill:#fff"/><circle cx="52.9" cy="237.97" r="3.68" style="fill:#fff"/><path d="M52.9,242.61a4.61,4.61,0,1,1,.56,0A5.25,5.25,0,0,1,52.9,242.61Zm0-7.35-.33,0a2.7,2.7,0,1,0,.33,0Z" style="fill:#fff"/><circle cx="149.22" cy="4.64" r="3.68" style="fill:#fff"/><path d="M149.21,9.29a4.64,4.64,0,0,1-3.64-7.51A4.59,4.59,0,0,1,148.66,0a4.65,4.65,0,0,1,5.17,4.05h0a4.63,4.63,0,0,1-4.05,5.17A3.64,3.64,0,0,1,149.21,9.29Zm0-7.36-.33,0a2.72,2.72,0,0,0-1.81,1,2.76,2.76,0,0,0-.56,2,2.71,2.71,0,0,0,5.38-.65h0A2.7,2.7,0,0,0,149.23,1.93Z" style="fill:#fff"/><circle cx="51.03" cy="42.37" r="4.84" style="fill:#fff"/><path d="M51,48.18a5.81,5.81,0,0,1-.69-11.58,5.81,5.81,0,0,1,1.4,11.54C51.5,48.16,51.26,48.18,51,48.18Zm0-9.69a3.59,3.59,0,0,0-.47,0,3.86,3.86,0,1,0,.47,0Z" style="fill:#fff"/><circle cx="170.17" cy="164.08" r="4.84" style="fill:#fff"/><path d="M170.16,169.89a5.81,5.81,0,1,1,5.78-6.51,5.82,5.82,0,0,1-5.07,6.47A5.53,5.53,0,0,1,170.16,169.89Zm0-9.68-.47,0a3.87,3.87,0,0,0-3.38,4.32,3.83,3.83,0,0,0,1.45,2.58,3.87,3.87,0,0,0,6.24-3.51h0a3.87,3.87,0,0,0-3.84-3.41Z" style="fill:#fff"/><path d="M258.18,214a.89.89,0,0,1-.36-.07,1,1,0,0,1-.54-1.26l.55-1.36a1,1,0,0,1,1.8.72l-.56,1.37A1,1,0,0,1,258.18,214Z" style="fill:#e93396"/><path d="M253.42,225.73a1.15,1.15,0,0,1-.36-.07,1,1,0,0,1-.54-1.26l3.28-8.11a1,1,0,0,1,1.79.73l-3.27,8.1A1,1,0,0,1,253.42,225.73Z" style="fill:#e93396"/><path d="M260.13,209.12a.92.92,0,0,1-.36-.07,1,1,0,0,1-.54-1.26l3.62-8.94a1,1,0,1,1,1.79.72l-3.61,9A1,1,0,0,1,260.13,209.12Z" style="fill:#e93396"/><path d="M266.84,192.52a1.15,1.15,0,0,1-.36-.07,1,1,0,0,1-.54-1.26l3.62-8.95a1,1,0,0,1,1.79.73l-3.61,8.94A1,1,0,0,1,266.84,192.52Z" style="fill:#e93396"/><path d="M264.89,197.35a1.1,1.1,0,0,1-.36-.07A1,1,0,0,1,264,196l.55-1.37a1,1,0,0,1,1.8.73l-.56,1.36A1,1,0,0,1,264.89,197.35Z" style="fill:#e93396"/><path d="M279.1,162.22a.92.92,0,0,1-.36-.07,1,1,0,0,1-.53-1.26l.6-1.49a1,1,0,1,1,1.79.72l-.6,1.49A1,1,0,0,1,279.1,162.22Z" style="fill:#e93396"/><path d="M274,174.94a.92.92,0,0,1-.36-.07,1,1,0,0,1-.53-1.26l3.61-8.94a1,1,0,0,1,1.26-.54,1,1,0,0,1,.53,1.26l-3.61,9A1,1,0,0,1,274,174.94Z" style="fill:#e93396"/><path d="M272,179.77a.92.92,0,0,1-.36-.07,1,1,0,0,1-.54-1.26l.56-1.36a1,1,0,1,1,1.79.72l-.55,1.37A1,1,0,0,1,272,179.77Z" style="fill:#e93396"/><path d="M281.11,157.26a.92.92,0,0,1-.36-.07,1,1,0,0,1-.54-1.26l3.28-8.11a1,1,0,0,1,1.79.73l-3.27,8.1A1,1,0,0,1,281.11,157.26Z" style="fill:#e93396"/><path d="M261.7,62.78a1,1,0,0,1-.92-.65l-.52-1.53a1,1,0,0,1,1.83-.62l.52,1.52a1,1,0,0,1-.6,1.23A.87.87,0,0,1,261.7,62.78Z" style="fill:#e93396"/><path d="M259.87,57.4a1,1,0,0,1-.92-.65l-3.11-9.14a1,1,0,0,1,.61-1.22,1,1,0,0,1,1.22.6l3.11,9.14a1,1,0,0,1-.6,1.22A.87.87,0,0,1,259.87,57.4Z" style="fill:#e93396"/><path d="M267.47,79.74a1,1,0,0,1-.92-.65l-.47-1.4a1,1,0,0,1,1.83-.62l.47,1.4a1,1,0,0,1-.6,1.22A.84.84,0,0,1,267.47,79.74Z" style="fill:#e93396"/><path d="M265.72,74.6a1,1,0,0,1-.92-.65L262,65.67a1,1,0,1,1,1.83-.62l2.81,8.27a1,1,0,0,1-.6,1.23A1.12,1.12,0,0,1,265.72,74.6Z" style="fill:#e93396"/><path d="M271.78,92.42a1,1,0,0,1-.91-.66l-3.11-9.13a1,1,0,0,1,.6-1.23,1,1,0,0,1,1.23.6l3.11,9.14a1,1,0,0,1-.61,1.22A.85.85,0,0,1,271.78,92.42Z" style="fill:#e93396"/><path d="M277.55,109.37a1,1,0,0,1-.91-.65l-3.11-9.14a1,1,0,1,1,1.83-.62l3.11,9.13a1,1,0,0,1-.61,1.23A1.12,1.12,0,0,1,277.55,109.37Z" style="fill:#e93396"/><path d="M273.24,96.7a1,1,0,0,1-.92-.66l-.47-1.39a1,1,0,1,1,1.83-.62l.47,1.39a1,1,0,0,1-.6,1.23A1.12,1.12,0,0,1,273.24,96.7Z" style="fill:#e93396"/><path d="M285.47,132.71a1,1,0,0,1-.91-.66l-.52-1.52a1,1,0,1,1,1.83-.62l.52,1.52a1,1,0,0,1-.61,1.23A1.06,1.06,0,0,1,285.47,132.71Z" style="fill:#e93396"/><path d="M283.64,127.33a1,1,0,0,1-.91-.66l-3.11-9.13a1,1,0,1,1,1.83-.62l3.11,9.13a1,1,0,0,1-.61,1.23A1.06,1.06,0,0,1,283.64,127.33Z" style="fill:#e93396"/><path d="M279.33,114.66a1,1,0,0,1-.92-.66l-.47-1.39a1,1,0,1,1,1.83-.63l.48,1.4a1,1,0,0,1-.61,1.23A1.12,1.12,0,0,1,279.33,114.66Z" style="fill:#e93396"/><path d="M125.75,119.7a1,1,0,0,1-.69-.28l-1.13-1.15a1,1,0,0,1,1.38-1.36l1.13,1.15a1,1,0,0,1,0,1.37A1,1,0,0,1,125.75,119.7Z" style="fill:#e93396"/><path d="M138.32,132.47a1,1,0,0,1-.69-.29l-1-1.05a1,1,0,1,1,1.37-1.36l1,1.06a1,1,0,0,1-.69,1.64Z" style="fill:#e93396"/><path d="M134.51,128.6a1,1,0,0,1-.69-.29l-6.14-6.23a1,1,0,0,1,1.38-1.35L135.2,127a1,1,0,0,1,0,1.37A.92.92,0,0,1,134.51,128.6Z" style="fill:#e93396"/><path d="M147.71,142a1,1,0,0,1-.69-.29l-6.77-6.88a1,1,0,0,1,1.38-1.35l6.77,6.87a1,1,0,0,1,0,1.37A.94.94,0,0,1,147.71,142Z" style="fill:#e93396"/><path d="M160.28,154.77a1,1,0,0,1-.69-.29l-6.77-6.88a1,1,0,0,1,0-1.36,1,1,0,0,1,1.37,0l6.77,6.87a1,1,0,0,1,0,1.37A1,1,0,0,1,160.28,154.77Z" style="fill:#e93396"/><path d="M150.89,145.23a.94.94,0,0,1-.69-.29l-1-1.05a1,1,0,0,1,1.38-1.35l1,1.05a1,1,0,0,1,0,1.36A.92.92,0,0,1,150.89,145.23Z" style="fill:#e93396"/><path d="M164.18,158.76a1,1,0,0,1-.69-.29l-1-1.05a1,1,0,0,1,1.38-1.36l1,1.05a1,1,0,0,1,0,1.37A1,1,0,0,1,164.18,158.76Z" style="fill:#e93396"/><path d="M205.8,90.71a1.09,1.09,0,0,1-.39-.08,1,1,0,0,1-.5-1.27l.64-1.48a1,1,0,0,1,1.28-.5,1,1,0,0,1,.5,1.27l-.64,1.48A1,1,0,0,1,205.8,90.71Z" style="fill:#e93396"/><path d="M208.06,85.5a1,1,0,0,1-.38-.08,1,1,0,0,1-.5-1.28L211,75.29a1,1,0,0,1,1.78.77L209,84.91A1,1,0,0,1,208.06,85.5Z" style="fill:#e93396"/><path d="M213.4,73.22a1.09,1.09,0,0,1-.39-.08,1,1,0,0,1-.5-1.27l.59-1.36a1,1,0,0,1,1.27-.5,1,1,0,0,1,.5,1.28l-.59,1.35A1,1,0,0,1,213.4,73.22Z" style="fill:#e93396"/><path d="M198.66,107.14a.84.84,0,0,1-.38-.08,1,1,0,0,1-.51-1.27l.59-1.35a1,1,0,1,1,1.77.77l-.58,1.35A1,1,0,0,1,198.66,107.14Z" style="fill:#e93396"/><path d="M200.83,102.16a1.09,1.09,0,0,1-.39-.08,1,1,0,0,1-.5-1.27l3.48-8a1,1,0,0,1,1.77.77l-3.48,8A1,1,0,0,1,200.83,102.16Z" style="fill:#e93396"/><path d="M193.33,119.42a1.09,1.09,0,0,1-.39-.08,1,1,0,0,1-.5-1.27l3.85-8.85a1,1,0,0,1,1.27-.51,1,1,0,0,1,.5,1.28l-3.85,8.85A1,1,0,0,1,193.33,119.42Z" style="fill:#e93396"/><path d="M186.19,135.84a.84.84,0,0,1-.38-.08,1,1,0,0,1-.51-1.27l3.85-8.85a1,1,0,0,1,1.77.77l-3.84,8.85A1,1,0,0,1,186.19,135.84Z" style="fill:#e93396"/><path d="M191.52,123.57a1,1,0,0,1-.38-.08,1,1,0,0,1-.5-1.27l.59-1.36a1,1,0,0,1,1.77.77l-.59,1.36A1,1,0,0,1,191.52,123.57Z" style="fill:#e93396"/><path d="M176.35,158.44a.9.9,0,0,1-.38-.08,1,1,0,0,1-.5-1.27l.64-1.48a1,1,0,0,1,1.77.77l-.64,1.48A1,1,0,0,1,176.35,158.44Z" style="fill:#e93396"/><path d="M178.62,153.23a1.09,1.09,0,0,1-.39-.08,1,1,0,0,1-.5-1.27l3.85-8.85a1,1,0,0,1,1.77.77l-3.84,8.85A1,1,0,0,1,178.62,153.23Z" style="fill:#e93396"/><path d="M184,141a.84.84,0,0,1-.38-.08,1,1,0,0,1-.5-1.27l.58-1.35a1,1,0,0,1,1.78.77l-.59,1.35A1,1,0,0,1,184,141Z" style="fill:#e93396"/><path d="M109.26,133.43a.92.92,0,0,1-.36-.07,1,1,0,0,1-.54-1.25l.59-1.5a1,1,0,0,1,1.25-.54,1,1,0,0,1,.55,1.25l-.59,1.5A1,1,0,0,1,109.26,133.43Z" style="fill:#e93396"/><path d="M111.33,128.14a.91.91,0,0,1-.35-.07,1,1,0,0,1-.55-1.25l3.53-9a1,1,0,0,1,1.8.7l-3.53,9A1,1,0,0,1,111.33,128.14Z" style="fill:#e93396"/><path d="M102.71,150.11a.84.84,0,0,1-.35-.07,1,1,0,0,1-.55-1.25l.54-1.38a1,1,0,0,1,1.8.71l-.54,1.37A1,1,0,0,1,102.71,150.11Z" style="fill:#e93396"/><path d="M104.7,145.05a.92.92,0,0,1-.36-.07,1,1,0,0,1-.54-1.25l3.19-8.14a1,1,0,0,1,1.8.71l-3.19,8.14A1,1,0,0,1,104.7,145.05Z" style="fill:#e93396"/><path d="M97.82,162.57a.84.84,0,0,1-.35-.07,1,1,0,0,1-.55-1.25l3.53-9a1,1,0,0,1,1.8.71l-3.53,9A1,1,0,0,1,97.82,162.57Z" style="fill:#e93396"/><path d="M91.27,179.24a.91.91,0,0,1-.35-.07,1,1,0,0,1-.55-1.25l3.53-9a1,1,0,1,1,1.8.7l-3.53,9A1,1,0,0,1,91.27,179.24Z" style="fill:#e93396"/><path d="M96.17,166.78a.92.92,0,0,1-.36-.07,1,1,0,0,1-.54-1.25l.53-1.37a1,1,0,0,1,1.26-.55,1,1,0,0,1,.54,1.25l-.53,1.37A1,1,0,0,1,96.17,166.78Z" style="fill:#e93396"/><path d="M84.33,196.88a1,1,0,0,1-.35-.06,1,1,0,0,1-.55-1.26l3.52-9a1,1,0,1,1,1.8.71l-3.52,9A1,1,0,0,1,84.33,196.88Z" style="fill:#e93396"/><path d="M89.22,184.42a1,1,0,0,1-.35-.06,1,1,0,0,1-.55-1.26l.54-1.37a1,1,0,0,1,1.25-.55,1,1,0,0,1,.55,1.26l-.54,1.37A1,1,0,0,1,89.22,184.42Z" style="fill:#e93396"/><path d="M160.91,170.12a1,1,0,0,1-.41-1.85l1.46-.67a1,1,0,1,1,.82,1.75l-1.46.68A1,1,0,0,1,160.91,170.12Z" style="fill:#e93396"/><path d="M144.65,177.64a1,1,0,0,1-.88-.56,1,1,0,0,1,.47-1.28l1.34-.62a1,1,0,1,1,.81,1.75l-1.33.62A1,1,0,0,1,144.65,177.64Z" style="fill:#e93396"/><path d="M149.58,175.36a1,1,0,0,1-.88-.56,1,1,0,0,1,.48-1.29l7.93-3.67a1,1,0,0,1,.81,1.76L150,175.27A1,1,0,0,1,149.58,175.36Z" style="fill:#e93396"/><path d="M132.5,183.26a1,1,0,0,1-.4-1.84l8.75-4a1,1,0,1,1,.82,1.75l-8.76,4A1,1,0,0,1,132.5,183.26Z" style="fill:#e93396"/><path d="M116.25,190.78a1,1,0,0,1-.88-.56,1,1,0,0,1,.47-1.28l8.76-4.05a1,1,0,1,1,.81,1.75l-8.76,4.05A.93.93,0,0,1,116.25,190.78Z" style="fill:#e93396"/><path d="M128.4,185.16a1,1,0,0,1-.41-1.84l1.34-.62a1,1,0,1,1,.81,1.75l-1.34.62A1,1,0,0,1,128.4,185.16Z" style="fill:#e93396"/><path d="M93.88,201.12a1,1,0,0,1-.41-1.85l1.46-.67a1,1,0,1,1,.81,1.75l-1.46.68A1,1,0,0,1,93.88,201.12Z" style="fill:#e93396"/><path d="M99,198.73a1,1,0,0,1-.88-.56,1,1,0,0,1,.48-1.28l8.75-4.06a1,1,0,0,1,.82,1.76l-8.76,4A1,1,0,0,1,99,198.73Z" style="fill:#e93396"/><path d="M111.18,193.11a1,1,0,0,1-.41-1.85l1.34-.61a1,1,0,1,1,.81,1.75l-1.33.62A1,1,0,0,1,111.18,193.11Z" style="fill:#e93396"/><path d="M141.25,100.23a1,1,0,0,1-.87-.54,1,1,0,0,1,.44-1.29l1.45-.71a1,1,0,0,1,.85,1.74l-1.45.71A1,1,0,0,1,141.25,100.23Z" style="fill:#e93396"/><path d="M128.93,106.28a1,1,0,0,1-.43-1.84l8.66-4.25a1,1,0,0,1,.86,1.74l-8.67,4.25A1.07,1.07,0,0,1,128.93,106.28Z" style="fill:#e93396"/><path d="M124.25,108.57a1,1,0,0,1-.43-1.84l1.33-.64a1,1,0,1,1,.85,1.73l-1.33.65A.9.9,0,0,1,124.25,108.57Z" style="fill:#e93396"/><path d="M157.46,92.29a1,1,0,0,1-.43-1.84l1.32-.65a1,1,0,0,1,.86,1.74l-1.33.65A.92.92,0,0,1,157.46,92.29Z" style="fill:#e93396"/><path d="M146.05,97.88a1,1,0,0,1-.42-1.84l7.85-3.84a1,1,0,1,1,.85,1.73l-7.85,3.85A.94.94,0,0,1,146.05,97.88Z" style="fill:#e93396"/><path d="M162.13,90a.94.94,0,0,1-.86-.54,1,1,0,0,1,.44-1.29l8.66-4.25a1,1,0,1,1,.85,1.74l-8.66,4.25A1.07,1.07,0,0,1,162.13,90Z" style="fill:#e93396"/><path d="M178.22,82.11a1,1,0,0,1-.43-1.84L186.45,76a1,1,0,1,1,.85,1.73L178.64,82A.92.92,0,0,1,178.22,82.11Z" style="fill:#e93396"/><path d="M173.54,84.4a1,1,0,0,1-.87-.54,1,1,0,0,1,.44-1.29l1.33-.65a1,1,0,0,1,1.29.44,1,1,0,0,1-.44,1.3L174,84.3A.9.9,0,0,1,173.54,84.4Z" style="fill:#e93396"/><path d="M207.57,67.74a1,1,0,0,1-.87-.54,1,1,0,0,1,.45-1.3l1.44-.71a1,1,0,0,1,.85,1.74l-1.44.71A1.12,1.12,0,0,1,207.57,67.74Z" style="fill:#e93396"/><path d="M195.25,73.78a1,1,0,0,1-.43-1.84l8.67-4.25a1,1,0,0,1,1.29.45,1,1,0,0,1-.44,1.29l-8.67,4.25A.9.9,0,0,1,195.25,73.78Z" style="fill:#e93396"/><path d="M190.57,76.07a1,1,0,0,1-.42-1.83l1.32-.65a1,1,0,1,1,.85,1.73L191,76A1,1,0,0,1,190.57,76.07Z" style="fill:#e93396"/><path d="M224.9,24.76a1.15,1.15,0,0,1-.26,0l-1.42-.4a1,1,0,1,1,.53-1.87l1.41.41a1,1,0,0,1-.26,1.89Z" style="fill:#e93396"/><path d="M237.12,28.22a1.27,1.27,0,0,1-.26,0l-8.41-2.38a1,1,0,0,1-.67-1.19,1,1,0,0,1,1.19-.67l8.42,2.38a1,1,0,0,1,.66,1.19A1,1,0,0,1,237.12,28.22Z" style="fill:#e93396"/><path d="M219.89,23.35a1.26,1.26,0,0,1-.27,0l-9.28-2.62a1,1,0,0,1-.67-1.2,1,1,0,0,1,1.19-.66l9.29,2.62a1,1,0,0,1-.26,1.9Z" style="fill:#e93396"/><path d="M202.65,18.48a1.27,1.27,0,0,1-.26,0l-9.29-2.62a1,1,0,0,1-.66-1.2,1,1,0,0,1,1.19-.66l9.29,2.62a1,1,0,0,1,.66,1.19A1,1,0,0,1,202.65,18.48Z" style="fill:#e93396"/><path d="M207.67,19.89l-.27,0-1.42-.4a1,1,0,0,1,.53-1.87l1.42.41a1,1,0,0,1-.26,1.89Z" style="fill:#e93396"/><path d="M171.2,9.57a.82.82,0,0,1-.26,0l-1.55-.43a1,1,0,0,1-.67-1.2,1,1,0,0,1,1.2-.66l1.55.43a1,1,0,0,1-.27,1.9Z" style="fill:#e93396"/><path d="M184.41,13.3a1.09,1.09,0,0,1-.26,0l-9.29-2.63a1,1,0,1,1,.53-1.86l9.28,2.63a1,1,0,0,1,.67,1.19A1,1,0,0,1,184.41,13.3Z" style="fill:#e93396"/><path d="M189.42,14.72a.82.82,0,0,1-.26,0l-1.42-.4a1,1,0,1,1,.53-1.86l1.42.4a1,1,0,0,1-.27,1.9Z" style="fill:#e93396"/><path d="M166.05,8.12a1.27,1.27,0,0,1-.26,0L157.38,5.7a1,1,0,0,1-.67-1.19,1,1,0,0,1,1.2-.67l8.41,2.38a1,1,0,0,1-.27,1.9Z" style="fill:#e93396"/><path d="M122.42,14.88a1,1,0,0,1-.35-1.87l1.5-.58a1,1,0,1,1,.7,1.8l-1.5.58A.84.84,0,0,1,122.42,14.88Z" style="fill:#e93396"/><path d="M127.72,12.83a1,1,0,0,1-.35-1.87l9-3.48a1,1,0,1,1,.7,1.8l-9,3.48A.84.84,0,0,1,127.72,12.83Z" style="fill:#e93396"/><path d="M140.21,8a1,1,0,0,1-.91-.62,1,1,0,0,1,.56-1.25l1.37-.53a1,1,0,1,1,.7,1.8l-1.37.53A.91.91,0,0,1,140.21,8Z" style="fill:#e93396"/><path d="M105.71,21.34a1,1,0,0,1-.35-1.87l1.38-.53a1,1,0,1,1,.69,1.8l-1.37.53A.84.84,0,0,1,105.71,21.34Z" style="fill:#e93396"/><path d="M110.78,19.38a1,1,0,0,1-.9-.62,1,1,0,0,1,.55-1.25l8.15-3.15a1,1,0,1,1,.7,1.8l-8.15,3.15A.87.87,0,0,1,110.78,19.38Z" style="fill:#e93396"/><path d="M93.23,26.17a1,1,0,0,1-.91-.62,1,1,0,0,1,.56-1.25l9-3.48a1,1,0,0,1,1.25.55,1,1,0,0,1-.55,1.25l-9,3.48A1.15,1.15,0,0,1,93.23,26.17Z" style="fill:#e93396"/><path d="M76.52,32.62a1,1,0,0,1-.9-.61,1,1,0,0,1,.55-1.25l9-3.48a1,1,0,1,1,.7,1.8l-9,3.48A1,1,0,0,1,76.52,32.62Z" style="fill:#e93396"/><path d="M89,27.8a1,1,0,0,1-.91-.62,1,1,0,0,1,.56-1.25L90,25.4a1,1,0,0,1,.7,1.8l-1.37.53A.91.91,0,0,1,89,27.8Z" style="fill:#e93396"/><path d="M58.83,39.45a1,1,0,0,1-.9-.62,1,1,0,0,1,.55-1.25l9-3.48a1,1,0,1,1,.7,1.8l-9,3.48A1.09,1.09,0,0,1,58.83,39.45Z" style="fill:#e93396"/><path d="M71.31,34.62A1,1,0,0,1,71,32.75l1.38-.53A1,1,0,1,1,73,34l-1.38.53A.84.84,0,0,1,71.31,34.62Z" style="fill:#e93396"/><path d="M38.39,69.14a.92.92,0,0,1-.36-.07,1,1,0,0,1-.54-1.26l.6-1.49a1,1,0,0,1,1.8.73l-.6,1.49A1,1,0,0,1,38.39,69.14Z" style="fill:#e93396"/><path d="M40.52,63.87a1,1,0,0,1-.9-1.33l3.61-8.94a1,1,0,1,1,1.79.72l-3.61,9A1,1,0,0,1,40.52,63.87Z" style="fill:#e93396"/><path d="M45.53,51.46a1,1,0,0,1-.9-1.33l.55-1.37a1,1,0,0,1,1.8.73l-.56,1.37A1,1,0,0,1,45.53,51.46Z" style="fill:#e93396"/><path d="M31.68,85.76a1.15,1.15,0,0,1-.36-.07,1,1,0,0,1-.53-1.26l.55-1.37a1,1,0,0,1,1.79.72l-.55,1.37A1,1,0,0,1,31.68,85.76Z" style="fill:#e93396"/><path d="M33.72,80.72a.94.94,0,0,1-.37-.07,1,1,0,0,1-.53-1.26l3.27-8.11a1,1,0,1,1,1.79.73l-3.27,8.1A1,1,0,0,1,33.72,80.72Z" style="fill:#e93396"/><path d="M26.67,98.17a.92.92,0,0,1-.36-.07,1,1,0,0,1-.54-1.26l3.62-9a1,1,0,0,1,1.79.72l-3.61,9A1,1,0,0,1,26.67,98.17Z" style="fill:#e93396"/><path d="M20,114.78a1.21,1.21,0,0,1-.37-.07,1,1,0,0,1-.53-1.26l3.61-9a1,1,0,1,1,1.8.72l-3.62,9A1,1,0,0,1,20,114.78Z" style="fill:#e93396"/><path d="M25,102.36a.89.89,0,0,1-.36-.07,1,1,0,0,1-.54-1.26l.55-1.36a1,1,0,1,1,1.8.72l-.56,1.37A1,1,0,0,1,25,102.36Z" style="fill:#e93396"/><path d="M17.86,119.94a.92.92,0,0,1-.36-.07,1,1,0,0,1-.53-1.26l.55-1.37a1,1,0,0,1,1.79.73l-.55,1.37A1,1,0,0,1,17.86,119.94Z" style="fill:#e93396"/><path d="M22,169.24a1,1,0,0,1-.89-.57l-.65-1.47a1,1,0,1,1,1.77-.79l.65,1.47a1,1,0,0,1-.49,1.28A1.09,1.09,0,0,1,22,169.24Z" style="fill:#e93396"/><path d="M19.68,164.05a1,1,0,0,1-.89-.57l-3.92-8.82a1,1,0,0,1,.49-1.28,1,1,0,0,1,1.28.49l3.92,8.82a1,1,0,0,1-.49,1.28A1.09,1.09,0,0,1,19.68,164.05Z" style="fill:#e93396"/><path d="M29.27,185.61a1,1,0,0,1-.88-.57l-.6-1.35a1,1,0,1,1,1.76-.79l.6,1.35a1,1,0,0,1-.49,1.28A1.09,1.09,0,0,1,29.27,185.61Z" style="fill:#e93396"/><path d="M27.06,180.65a1,1,0,0,1-.88-.58l-3.56-8a1,1,0,0,1,.49-1.28,1,1,0,0,1,1.28.49l3.55,8a1,1,0,0,1-.49,1.27A.89.89,0,0,1,27.06,180.65Z" style="fill:#e93396"/><path d="M34.71,197.84a1,1,0,0,1-.88-.57l-3.93-8.82a1,1,0,0,1,1.77-.79l3.92,8.82a1,1,0,0,1-.49,1.28A1,1,0,0,1,34.71,197.84Z" style="fill:#e93396"/><path d="M42,214.2a1,1,0,0,1-.88-.57l-3.92-8.82A1,1,0,1,1,39,204l3.92,8.81a1,1,0,0,1-.49,1.28A.88.88,0,0,1,42,214.2Z" style="fill:#e93396"/><path d="M36.55,202a1,1,0,0,1-.88-.57l-.6-1.35a1,1,0,0,1,1.76-.78l.6,1.34a1,1,0,0,1-.49,1.28A.88.88,0,0,1,36.55,202Z" style="fill:#e93396"/><path d="M49.68,231.54a1,1,0,0,1-.88-.58l-3.92-8.81a1,1,0,0,1,.49-1.28,1,1,0,0,1,1.27.49l3.93,8.82a1,1,0,0,1-.89,1.36Z" style="fill:#e93396"/><path d="M44.24,219.31a1,1,0,0,1-.88-.58l-.6-1.34a1,1,0,1,1,1.77-.79l.6,1.35a1,1,0,0,1-.5,1.27A.89.89,0,0,1,44.24,219.31Z" style="fill:#e93396"/><path d="M78.68,252a.92.92,0,0,1-.39-.09l-1.47-.65a1,1,0,0,1-.5-1.27,1,1,0,0,1,1.28-.5l1.47.65a1,1,0,0,1-.39,1.86Z" style="fill:#e93396"/><path d="M73.48,249.7a.91.91,0,0,1-.39-.08l-8.83-3.89a1,1,0,0,1-.49-1.28A1,1,0,0,1,65,244l8.83,3.89a1,1,0,0,1-.39,1.85Z" style="fill:#e93396"/><path d="M61.23,244.3a.91.91,0,0,1-.39-.08l-1.35-.6a1,1,0,1,1,.78-1.76l1.35.59a1,1,0,0,1-.39,1.85Z" style="fill:#e93396"/><path d="M95.07,259.22a.91.91,0,0,1-.39-.08l-1.35-.59a1,1,0,0,1-.49-1.28,1,1,0,0,1,1.27-.49l1.35.59a1,1,0,0,1-.39,1.85Z" style="fill:#e93396"/><path d="M90.1,257a1.09,1.09,0,0,1-.39-.08l-8-3.53a1,1,0,0,1-.49-1.27,1,1,0,0,1,1.27-.5l8,3.53A1,1,0,0,1,90.1,257Z" style="fill:#e93396"/><path d="M107.32,264.62a.91.91,0,0,1-.39-.08l-8.83-3.89a1,1,0,0,1-.49-1.28,1,1,0,0,1,1.27-.49l8.83,3.89a1,1,0,0,1-.39,1.85Z" style="fill:#e93396"/><path d="M123.71,271.85a1,1,0,0,1-.39-.08l-8.83-3.9a1,1,0,0,1-.5-1.27,1,1,0,0,1,1.28-.5l8.83,3.9a1,1,0,0,1,.49,1.27A1,1,0,0,1,123.71,271.85Z" style="fill:#e93396"/><path d="M111.46,266.45a1.09,1.09,0,0,1-.39-.08l-1.35-.6a1,1,0,0,1-.49-1.27,1,1,0,0,1,1.27-.5l1.35.6a1,1,0,0,1,.5,1.27A1,1,0,0,1,111.46,266.45Z" style="fill:#e93396"/><path d="M141.05,279.52a.92.92,0,0,1-.39-.09l-8.83-3.89a1,1,0,0,1,.78-1.77l8.83,3.89a1,1,0,0,1-.39,1.86Z" style="fill:#e93396"/><path d="M128.8,274.12a.92.92,0,0,1-.39-.09l-1.35-.59a1,1,0,0,1,.79-1.77l1.34.59a1,1,0,0,1-.39,1.86Z" style="fill:#e93396"/><path d="M168.91,273.7a1,1,0,0,1-.42-1.83l1.45-.7a1,1,0,1,1,.84,1.74l-1.45.7A1.06,1.06,0,0,1,168.91,273.7Z" style="fill:#e93396"/><path d="M156.55,279.66a1,1,0,0,1-.88-.55,1,1,0,0,1,.46-1.29l8.69-4.19a1,1,0,0,1,.84,1.75L157,279.56A.92.92,0,0,1,156.55,279.66Z" style="fill:#e93396"/><path d="M185.17,265.87a1,1,0,0,1-.42-1.84l1.33-.64a1,1,0,1,1,.84,1.74l-1.33.64A.9.9,0,0,1,185.17,265.87Z" style="fill:#e93396"/><path d="M173.73,271.38a1,1,0,0,1-.42-1.84l7.87-3.79a1,1,0,0,1,1.3.45,1,1,0,0,1-.46,1.29l-7.87,3.8A1.06,1.06,0,0,1,173.73,271.38Z" style="fill:#e93396"/><path d="M189.87,263.61a1,1,0,0,1-.88-.55,1,1,0,0,1,.46-1.29l8.69-4.19a1,1,0,1,1,.84,1.74l-8.7,4.19A.86.86,0,0,1,189.87,263.61Z" style="fill:#e93396"/><path d="M206,255.83a1,1,0,0,1-.42-1.83l8.69-4.19a1,1,0,1,1,.84,1.74l-8.69,4.19A1.06,1.06,0,0,1,206,255.83Z" style="fill:#e93396"/><path d="M201.31,258.1a1,1,0,0,1-.87-.55,1,1,0,0,1,.45-1.29l1.32-.64a1,1,0,0,1,1.3.45,1,1,0,0,1-.46,1.29l-1.32.64A.92.92,0,0,1,201.31,258.1Z" style="fill:#e93396"/><path d="M223.09,247.62a1,1,0,0,1-.42-1.84l8.69-4.19a1,1,0,1,1,.84,1.75l-8.69,4.18A.9.9,0,0,1,223.09,247.62Z" style="fill:#e93396"/><path d="M218.4,249.88a1,1,0,0,1-.87-.55A1,1,0,0,1,218,248l1.33-.64a1,1,0,0,1,.84,1.75l-1.33.64A1.06,1.06,0,0,1,218.4,249.88Z" style="fill:#e93396"/><path d="M245.44,244.53l-16,11.41a.42.42,0,0,1-.6-.56l10-16.31-12.64-12.89a.43.43,0,0,1,.45-.7l14.16,5.29L245,217.41a.42.42,0,0,1,.81,0L250,230.77l14.16-5.29a.43.43,0,0,1,.45.7L252,239.07l10,16.31a.42.42,0,0,1-.61.56Z" style="fill:#fff"/></g></g></svg>