<svg xmlns="http://www.w3.org/2000/svg" xmlns:xlink="http://www.w3.org/1999/xlink" id="Layer_1" viewBox="0 0 61 43.8"><defs><style>      .st0 {        fill: none;      }      .st1 {        fill: #a42477;      }      .st2 {        fill: #480014;      }      .st3 {        fill: #d60166;      }      .st4 {        opacity: .3;      }      .st4, .st5 {        fill: #ff3f79;        mix-blend-mode: multiply;      }      .st4, .st5, .st6, .st7 {        isolation: isolate;      }      .st5, .st7 {        opacity: .5;      }      .st8 {        fill: #d7479a;      }      .st9 {        fill: #ff2af8;      }      .st10 {        fill: #1e1d1e;      }      .st11 {        fill: #8f7283;      }      .st12 {        fill: #a7017a;      }      .st13 {        fill: #c9098b;      }      .st14 {        fill: #8d004e;      }      .st15 {        fill: #cc01af;      }      .st16 {        fill: #9c8597;      }      .st17 {        fill: #a2044d;      }      .st18 {        fill: #ffa9e1;      }      .st19 {        fill: #f216e4;      }      .st20 {        fill: #72003d;      }      .st21 {        fill: #e602bd;      }      .st22 {        fill: #d2bccb;      }      .st23 {        fill: #f5eff5;      }      .st24 {        clip-path: url(#clippath);      }      .st7 {        fill: #fff;      }    </style><clipPath id="clippath"><path class="st0" d="M26.2,18.3c4.1-2,8-3.7,11.8-5-3.2-5.5-10.3-7.5-16.4-4.5-2.5,1.2-4.5,3.2-5.8,5.4-1.8,3.2-2.1,6.9-.7,10.3,3.3-2.2,7.1-4.3,11.1-6.3h0Z"/></clipPath></defs><g class="st6"><g id="uuid-f1593b19-f40e-4f48-93c6-927144099c11"><g id="uuid-b3af36f8-eb01-4999-a748-1f16a6507d1d"><g id="uuid-e6662fdc-1037-4b55-8d63-0ac6462ed4fc"><path class="st14" d="M31.8,3.2c-.3,1.2-1.4,2-2.7,2l-.8,3.1-.7-.2.8-3.1c-1.2-.5-1.9-1.7-1.6-3,.3-1.4,1.7-2.2,3.1-1.9,1.4.3,2.2,1.7,1.9,3.1h0Z"/><path class="st18" d="M15.8,14.3c1.3-2.3,3.2-4.2,5.8-5.4,6.1-3,13.4-1,16.5,4.6.1.2.2.4.3.6.9,1.8,1.3,3.8,1.2,5.7-.2,4.4-2.9,8.6-7.3,10.8-2.8,1.4-5.8,1.7-8.6,1.1-3.5-.7-6.5-2.9-8.2-6.3-1.8-3.6-1.5-7.7.4-11Z"/><path class="st4" d="M15.3,25.3c-1.8-3.6-1.5-7.7.4-11,1.9,1.7,6.8,4,17.5.5,1.8-.6,3.4-1,4.8-1.4.1.2.2.4.3.6.9,1.8,1.3,3.8,1.2,5.7l-15.9,11.9c-3.5-.7-6.5-2.9-8.2-6.3h0Z"/><path class="st14" d="M4.9,32.5c4.6-4.5,12.2-9.7,21.2-14.2,16.7-8.2,32.1-10.9,34.5-6.1.7,1.5,0,3.3-1.9,5.3-4.1,4.4-13.8,9.9-25.3,15.6C16.8,41.4,2.7,46.8.3,42c-1.1-2.2.7-5.6,4.6-9.5Z"/><path class="st19" d="M6.4,37.9c.7-.3,1.5,0,1.8.6.3.7,0,1.5-.6,1.8-.7.3-1.5,0-1.8-.6-.3-.7,0-1.5.6-1.8Z"/><path class="st19" d="M56.2,13.4c.7-.3,1.5,0,1.8.6s0,1.5-.6,1.8-1.5,0-1.8-.6,0-1.5.6-1.8Z"/><path class="st19" d="M31.6,29.3c.7-.3,1.5,0,1.8.6.3.7,0,1.5-.6,1.8s-1.5,0-1.8-.6c-.3-.7,0-1.5.6-1.8Z"/><g class="st24"><g><path class="st10" d="M24.7,10.3c.1,0,0,.1,0,.2s.2.3.2.4c0,.1.2.3.2.4,0,0,.1.5.1.6s0,.2,0,.2c0,0,0,.1,0,.2,0,0,0,0-.1.2,0,0,0,0,0,0,0,0-.1,0-.2.1-.2.1-.4.1-.6,0,0,0-.2,0-.3-.1h0c0,0,0,0,0,0,0,0,0,0,0,0,0,0,0,0,0,0-.2-.2-.3-.3-.5-.5-.2-.2-.2-.2-.4,0-.1,0-.2,0-.3.2,0,0,0,0,0,0,0,0-.1,0-.2.1,0,0,0,0,0,0-.2.2,0,.2,0,.4,0,0,0,0,0,0,0-.1-.2-.2-.3-.2-.2,0-1,.5-1.1.7,0,0,0,0,0,0,0,0,0,0,0,0,0,0,0,.2.2.2,0,0,0,0,0,0,0,0,0,0,0,0s.1,0,.2,0c.1.1.1,0,.3.2,0,0,0,0,.1.1.1,0,.4.1.5.1,0,0,0-.5-.1-.6,0,0,0-.1,0-.2s0,0,0,0c.4,0,.7.2,1.1.3,0,0,0,0,0,0s0,0,0,0h0c0,.1,0,.2,0,.2l.5.9-.3,1.3c0,.2,0,.4-.2.5,0,0,0,0,0,0,0,0-.1,0-.2,0,0,0-.2-.4-.2-.6-.2-.5-.5-1-.7-1.6-.4,0-.7-.1-1-.4-.2-.1-.4-.4-.5-.5s-.5-.2-.1-.4c.6-.5,1.3-.8,1.9-1.3,0,0,0,0,0,0h0s0,0,0,0c0,0,.2-.1.3-.2,0,0,0,0,0,0,0,0,.2-.1.3-.2,0,0,0,0,0,0,0,0,0,0,.1-.1.4-.2.8-.6,1.3-.8h0s0,0,0,0h0ZM25.1,11.3c0,0-.3-.5-.4-.5-.1,0-.3,0-.4.2-.2.1-.4.2-.5.4,0,0-.1,0-.2.1-.3.2-.1.3,0,.5,0,.1.2.2.3.3,0,0,0,0,0,0,.2,0,.3,0,.4-.2,0,0,.3-.1.3-.2,0,0,0,0,0,0,.1,0,.5-.2.5-.4s0,0,0,0c0,0,0-.1,0-.2h0Z"/><path class="st10" d="M24.5,10.5c-.2,0,0,.1.2.1,0,0,0-.2-.2-.1Z"/><path class="st10" d="M20.7,13.3v-.2s-.1,0-.1,0c0,0,.1.2.1.2Z"/><path class="st3" d="M28.4,15.9c0,0,0,.1.2.1.2-.1.4-.2.6-.4,0,0,0,0,0,0-.3.4-.6,1.1-.8,1.6,0,0,0,.1,0,.2h0c-.3,0-.6-.1-.9-.2,0,0,0,0,0,0,.1,0,.3,0,.4,0,0,0,0,.2,0,.3,0,0,0,0,0,.2s0,.4.2.6c0,0-.2,0-.3,0s0,0-.1,0c0,0-.2,0-.2,0,0,0,0,0,0,0,0,0,.1,0,.2,0,0,0-.1-.3-.1-.4s0,0,0-.1c0-.2,0-.4,0-.5h-.6c0-.1,0,.6,0,.6,0,0,0-.5,0-.6,0,0,0-.2.1-.2,0,0,0,0,0,0,0,0,0,0,.1,0,0,0-.1.1-.2.2h.6c0,0,0-.2,0-.4,0,0-.4.2-.4.2,0,0,0,0,0,0,0,0,0,0,0,0,.4-.4.9-.7,1.4-1h0Z"/><path class="st17" d="M27.4,13.8c0,0,0-.1.2-.2-.2.6-.3,1.2-.4,1.8,0,0,0,0-.1,0,0,0-.3,0-.3,0,0,0,0,.1,0,.2,0,.1,0,.3,0,.4,0,.2,0,.3,0,.5,0,0,0,.1,0,.2,0,.3-.4,1.1-.5,1.4,0,0,0,0,0,0,0-.5,0-1.1,0-1.6.3-.6.6-1.1.9-1.7,0,0,0,0,0,0h0s0,0,0,0c0,0,0,0,0,0,0,0,0,0,0,0,0-.1.4-.6.4-.7h0c0,0,0,0,0,0h0Z"/><path class="st23" d="M33.7,16.8s0,0,0,0c-.4-.3-.9-.6-1.4-.8-.3-.1-.5-.2-.8-.2,0,0,0,0,0,0s0,0,0,0c-.4,0-.9,0-1.3-.1,0,0,0,0,0,0,.1,0,.3,0,.4,0h-.7c0,0-.1,0-.2,0h.2c0,0,0,0,.1,0s0,0,0,0h.1s0,0,0,0c0,0,0,0,.1,0,0,0,0,0,0,0,0,0,0,0,0,0,.2.1.5.3.7.4,0,0,0,0,.1,0,.4,0,.8.1,1.2.2.4.2.7.4,1.1.5,0,0,0,0,.1,0,0,0,0,0,0,0h0Z"/><path class="st22" d="M24.8,13.2c.1,0,.2-.2.4,0,0,0,0,.1,0,.2-.3.5-.8.9-1.2,1.4l-.5-.9c0,0,0-.1,0-.1h0c0,0,.2,0,.2-.2,0,0,.2,0,.2,0,.3,0,.6-.2,1-.3Z"/><path class="st8" d="M26.3,11.2s0,0,0-.1h0c0,.4,0,.6,0,.9l.7-.2s0,0,0,0c-.1,0-.2,0-.3.1s-.3,0-.3.2v1.5s0,0,0,0h0c0,0,0,.1,0,.1-.2.3-.3.7-.4,1,0,0,0,.2,0,.2h.7c0-.1,0-.4-.1-.6,0,0,0,0,0,0,0-.1,0-.3,0-.4,0,0,0,0,0,0,0,.1,0,.2,0,.3,0,.3.1.5.1.8h0c.1-.5.3-.9.5-1.4,0,0,0-.2,0-.1,0,0,0,0,0,0,0,0,0,0,0,0h0s0,0,0,0h0c0,.2.3.2.3.2h0c0,0-.1.2-.2.2,0,0,0,0,0,0h0c0,0,0,0,0,0-.3.3-.3.4-.4.7,0,0,0,0,0,0,0,0,0,0,0,0h0c0,0,0,0,0,0-.2.6-.5,1.1-.9,1.7,0,.5,0,1.1,0,1.6,0,0,0,0,0,0,0,0,0,0,0,.1t0,0c0,.1.2.2.4.3,0,0,0,0,0,0,0,0,.1,0,.2,0,.1,0,.2,0,.3,0,0,0,0,.2,0,.2,0,0,0,0,0,0s.3.3.3.3c.3.3.5.5.8.8,0,0,0,0,0,.1h0c-.2-.1-.3-.3-.5-.5-.5-.4-.9-.9-1.4-1.4,0,0,0,0,0,0s-.2.1-.2.1c0,0,0,0,0,0,0,0,.2-.1.2-.1,0-.6,0-1.2,0-1.7h-.8c0,0,0,2.2,0,2.2,0,0,.4-.2.4-.2,0,0,0,0,0,0-.2,0-.3.2-.5.3,0,0,0,0,0,0,0-.7,0-1.4,0-2.2,0,0,0-.1,0-.1,0-.3,0-.6,0-.8,0,0,0-.1,0-.2,0,0,0,0,0,0,0,0,0,0,0,0,0,.3,0,.5,0,.8h0c.2-.3.3-.7.5-1,0,0,0-.1,0-.1,0,0-.3.6-.3.7,0,0,0,0,0,0,0,0-.3.5-.3.5,0,0,0,0,0,0,.2,0,.5,0,.7,0,0,0,.2-.3.2-.4,0,0,0,0,0,0,0,0,0,0,0-.1,0,0,.4-.6.4-.7s0,0,0,0c-.1,0-.4,0-.6,0s-.1,0-.2,0h0c0,0-.7.2-.8.2,0-.1,0-.2.1-.4,0,0,0,0,0,0h0c0,0-.2.4-.2.4.3,0,.5-.1.8-.2l.5-1.3s0,0,0,0c-.2,0-.3,0-.5.1,0,0,0,0,0,0,0,0-.1,0-.2,0h0s.2-.1.2-.1v-1.5c0,0,0,0-.1,0,0-.1.2-.2.2-.4h0c0,0,0,.2-.2.3,0,0,.5-.1.5-.2,0-.3,0-.5,0-.8,0,0,0,0,0,0h0ZM26.4,12.1h-.5c0,.1.5,1.4.5,1.4v-1.5s0,0,0,0ZM26.4,13.6l-.5-1.3v1.4c0,0,.5,0,.5,0Z"/><path class="st22" d="M25,9.6l.9.8c-.5,0-1-.2-1.6-.3,0,0,0,0,0,0-.2,0-.4,0-.6,0h0s0,0,0,0c0,0,0,0,0,0h0c.2-.1.4-.3.5-.4,0,0,0,0,0,0,.3,0,.6,0,.9.1h0Z"/><path class="st23" d="M25,9.6c1.2.2,1.8,1.1,2.3,2.1.1.6.2,1.2.3,1.8l-.4-1.5h0s0,0,0,0h0c0,0,0-.1,0-.1,0,0,0,0,0,0,0-.3-.3-.6-.4-.9-.1-.2-.3-.4-.4-.6,0,.2,0,.5,0,.7,0,0,0,0,0,0,0-.1-.1-.3-.2-.4,0,0,0,0,0,0,0,0,0,0,0,0h0l-.9-.8h0Z"/><path class="st23" d="M26,10.5l.2.8h0c0,.2,0,.4,0,.5h0c0-.4,0-.9-.1-1.3h0Z"/><path class="st8" d="M29.3,15.2c-.3.2-.6.5-.9.7-.5.3-1,.7-1.4,1,0,0,0,0,0,0h0s0,0-.1,0h0c.4-.5.8-1,1.2-1.4.4-.1.9-.4,1.3-.5h0Z"/><path class="st17" d="M25.1,15.3c.1,0,.8-.2.8-.2h0c0,0,0,.1,0,.2-.2.3-.3.7-.5,1h0c0-.3,0-.5,0-.8,0,0,0,0,0,0,0,0,0,0,0,0h0Z"/><path class="st17" d="M24.5,16.8c.1-.5.3-1,.5-1.4,0,0,0,.1,0,.2,0,.3,0,.6,0,.8-.1,0-.3.2-.4.3h-.2c0,.1,0,.1,0,.1Z"/><path class="st23" d="M29.3,15.2c.3,0,.7,0,1-.2.5.1,1,.3,1.5.4h0c-.1,0-.3,0-.4,0l-2-.2h0Z"/><path class="st3" d="M24.3,19.1c0-.3,0-.5,0-.8,0-.2,0-.4,0-.5s.1-.5.2-.7c0,0,0,0,0,0v2.1h-.1,0Z"/><path class="st3" d="M25.9,12.2v1.5s-.2,0-.2,0v-1.5c0,0,0,.1,0,.2,0,0,0,0,0,0,0,0,.1-.2.2-.3,0,0,0,0,.1,0Z"/><path class="st22" d="M27.1,11.9h0s0,0,0,0l.4,1.5h0s0,0,0,0h0s-.3,0-.3,0h0c0-.1,0-.1,0-.1h0c0-.1,0-.2,0-.2h0c0-.1,0-.2,0-.2h0c0-.1,0-.2,0-.2h0c0-.1,0-.2,0-.2h0c0-.2,0-.3,0-.2h0c0-.1,0-.2,0-.2,0,0,0-.1,0-.1h0Z"/><path class="st1" d="M31.3,15.4h0c.1,0,.3,0,.4,0,.1,0,.3,0,.4.1,0,0,.2,0,.3,0,0,0-.1.2-.2.3-.3-.1-.5-.2-.8-.2,0,0,0-.2-.1-.3h0Z"/><path class="st20" d="M32.5,15.7c0,0,0,0,.2.1.1.2.7.7,1,.9h0c-.4-.2-.9-.6-1.4-.8,0,0,0-.2.2-.3,0,0,0,0,0,0Z"/><path class="st16" d="M25.6,12.5s0,0,0,0c0,0,0,0,0,.2,0,.1-.2.2-.3.4-.1,0-.3,0-.4,0-.3.1-.7.2-1,.3,0,0,0,0,0,0,.3,0,.8-.2,1-.4,0,0,.2-.2.2-.3,0,0,0-.2.1-.2,0,0,.2,0,.3,0Z"/><path class="st8" d="M27.1,15.4c0,.2-.2.4-.3.7h0c0,0-.2,0-.2,0,0-.1,0-.3,0-.4,0,0,.1,0,.2,0,0,0,.2,0,.2,0,0,0,0,0,.1,0h0Z"/><path class="st3" d="M22.9,10.4c0,.3,0,.3-.2.6,0,0,0,0,0,0,0-.2,0-.4,0-.5,0,0,.3-.3.3-.3,0,0,0,.2,0,.2Z"/><path class="st17" d="M25.7,13.9c0,0,.1,0,.2,0h0c0,.2-.2.5-.3.7-.1.1-.2.3-.2.4,0,0,0,0,0,0,0-.2.4-.8.5-1.1h0Z"/><path class="st8" d="M24,9.5c-.2.1-.4.3-.5.4,0,0,0,0,0,0-.2,0-.3.1-.5.2.4-.3.6-.5,1-.7,0,0,0,0,0,0h0Z"/><path class="st1" d="M26.6,18s0,0,0,0c0,0,0,0,0,0Z"/><path class="st1" d="M26.5,18s0,0,0,0c0,0,0,0,0,0Z"/><path class="st1" d="M26.5,17.9s0,0,0,0c0,0,0,0,0,0Z"/><path class="st1" d="M26.8,18.4h0,0s0,0,0,0Z"/><path class="st1" d="M26.6,18.1s0,0,0,0c0,0,0,0,0,0Z"/><path class="st1" d="M26.6,18.1s0,0,0,0c0,0,0,0,0,0Z"/><path class="st1" d="M26.6,18h0,0s0,0,0,0Z"/><path class="st1" d="M26.9,18.5s0,0,0,0c0,0,0,0,0,0Z"/><path class="st1" d="M26.6,18.1s0,0,0,0c0,0,0,0,0,0Z"/><path class="st1" d="M26.9,18.5c0,0,.2.2.2.3,0,0,0,0,0,0v.5s-.3-.3-.3-.3c0,0,0,0,0,0,0,0,0-.2,0-.2-.1,0-.2,0-.3,0s-.1,0-.2,0c0,0,0,0,0,0h.2s.3,0,.3,0l-.6-.2.6.2s0,0,0,0h0Z"/><path class="st1" d="M26.6,16c0,0,.2,0,.2,0h0c0,.3-.3.6-.3.9,0,.2,0,.6,0,.8s0,.2,0,.3c0,0,0,0,0,0,0-.2,0-.6,0-.7v-.2s-.5,1.2-.5,1.2c0,0,0,0,0,0,0,0,0,0,0,0,.1-.3.5-1.1.5-1.4,0,0,0-.1,0-.2,0-.2,0-.3,0-.5h0Z"/><path class="st1" d="M26.7,18.1s0,0,0,0c0,0,0,0,0,0Z"/><path class="st1" d="M26.7,18.2h0s0,0,0,0Z"/><path class="st1" d="M26.8,18.3s0,0,0,0c0,0,0,0,0,0Z"/><path class="st1" d="M26.8,18.3s0,0,0,0h0Z"/><path class="st1" d="M26.8,18.4c0,0,0,.1,0,.1,0,0,0,0,0-.1Z"/><path class="st17" d="M22.6,10.7c0,.2,0,.4,0,.6,0,0,0,.3-.1.4,0,0,0,0,0,0,0,0,0,0,0,0,0-.3,0-.7.1-1.1Z"/><path class="st8" d="M24.7,16.7s0,0,0,0c0,0-.1,0-.2.1v1.9c0,0,0,.2,0,.2,0,0,0,0,0,0v-2.1c0,0,0-.1,0-.1,0,0,.2,0,.2,0Z"/><path class="st17" d="M26,18.2l.5-1.2v.2c0,.2,0,.6,0,.7,0,0,0,0,0,0,0,0,0,0,0,0s0,0,0,0c0,0,0,0,0,0,0,0,0,0,0,0,0,0,0,0,0,0,0,0,0,0,0,0,0,0,0,0,0,0,0,0,0,0,0,0,0,0,0,0,0,0,0,0,0,0,0,0,0,0,0,0,0,0,0,0,0,0,0,0h0c0,0,0,0,0,.1,0,0,0,0,0,0,0,0,0,0,0,0l-.6-.2.6.2h-.3s-.2,0-.2,0c-.1-.1-.3-.2-.4-.3h0s0,0,0,0c0,0,0-.1,0-.1h0Z"/><path class="st17" d="M26.1,18.3h.2s0,0,0,0c0,0-.1,0-.1,0h0Z"/><path class="st17" d="M27.4,18.4h0c0,0,0,.2,0,.2,0,0,.2.1.2.3h0s0,0,0,0c0,0-.1,0-.2,0,0,0,.2,0,.2,0,0,0,.2,0,.3,0,0,0,0,0,0,0,0,0,0,0-.2.1,0,.3.1.5.2.8h0c-.3-.3-.5-.5-.8-.8v-.5c0,0,0,0,0,0,0-.1-.1-.2-.2-.3,0,0,0,0,0,0,0,0,0,0,0-.1,0,0,0,0,0,0s0,0,0,0c0,0,0,0,0,0,0,0,0,0,0,0,0,0,0,0,0,0,0,0,0,0,0,0h0c0,0,0,0,0,0h0s0-.1,0-.1h0s0,.1,0,.1h0s0,0,0,0c0,0,0,0,0,0,0,0,0,0,0,0,0,0,0-.2,0-.3,0-.1,0-.2.1-.4,0,0,0,.6,0,.6v-.7c0,0,.7.1.7.1,0,.2,0,.4,0,.5,0,0,0,0,0,.1,0,0,.1.4.1.4,0,0-.1,0-.2,0s0,0,0,0c0,0,.2,0,.2,0h0Z"/><path class="st17" d="M27.2,18.9s0,0,0,0c0,0,0,0,0,0Z"/><path class="st17" d="M27.2,19h0s0,0,0,0Z"/><path class="st8" d="M22.6,10.6c0,.2,0,.4,0,.5s.1.3.2.4c0,0,0,0,0,0,0,0,0,0,0,0,0,0,0-.1-.2-.2,0,0,0,0,0,0,0-.2,0-.4,0-.6,0,0,0,0,0-.1Z"/><path class="st8" d="M25.2,13.1c0-.1.2-.2.3-.4l-.2.4-.2.2c0,0,0-.2,0-.2h0Z"/><path class="st22" d="M32,15.5h.2c-.1,0-.3,0-.4,0h0c0,0,.1,0,.2,0Z"/><path class="st23" d="M27.6,13.5h0s0,0,0,0Z"/><path class="st23" d="M23.3,11.9c.2.2.3.4.5.5,0,0,0,0,0,0,0,0,0,0,0,0,0,0,0,0,0,0,0,.1.2.1.3.3l.3.2c-.4.2-.8.4-1.3.5,0,0,0,0,0,0,0,0,0,0,0,0-.4-.1-.7-.2-1.1-.3,0,0,0,0,0,0,0-.1.1-.3.2-.4,0,0,0,0,0-.1,0,0,0,0,0,0h0c0,0,0-.1,0-.2,0,0,0,0,0,0,0,0,.1-.2.2-.2,0,0,0,0,0,0,0,0,.4-.2.5-.2,0,0,.1,0,.1,0h0Z"/><path class="st1" d="M20.9,13.2s0,0,0,0c.1-.1.9-.6,1.1-.7.2,0,.2,0,.3.2,0,0,0,0,0,.1,0,.1-.2.3-.2.4,0,0,0,0,0,0-.1,0-.4.3-.5.4,0,0,0,0,0,0-.1-.1-.3-.3-.4-.4h0Z"/><path class="st13" d="M22.9,10.2c.2,0,.3-.1.5-.2l-.3,1.3c0,0-.2.1-.3.2-.1-.1-.2-.2-.2-.4,0,0,0,0,0,0,.2-.2.2-.3.2-.6,0,0,0-.2,0-.2h0Z"/><path class="st13" d="M23.7,11.3c.2-.1.4-.3.5-.4.1,0,.3-.2.4-.2s.3.4.4.5c0,0-.2,0-.2,0,0,0,0,.1,0,.1h-.2s0,0,0,0c-.1,0,0,.1,0,.2h0c-.2,0-.4-.2-.5-.3,0,0,0,0,0,0h0ZM24.4,11.1s.3-.2.3-.3c0,0-.1,0-.2,0,0,0,0,0,0,0,0,0,0,0,0,0,0,0,0,0,0,0,0,0,0,0,0,0,0,0,0,.1,0,.1h0s0,0,0,0c0,0,0,0,.1-.1h0Z"/><path class="st20" d="M25.4,11.9c0,0,0,0,0-.2,0-.1,0-.7,0-.8l.6.8h0c0,0,0,.1,0,.1,0,.1-.2.2-.2.4,0,0-.1.2-.2.3,0,0-.2,0-.3,0,0,0,0,0-.1,0,0,0,0-.1.1-.2,0,0,0,0,0-.1,0,0,0-.2,0-.2h0Z"/><path class="st23" d="M24.8,10.5h0s0,.1,0,.1c0,0,.4-.1.5-.1,0,0,0,.2,0,.2s0,.2,0,.2c0,.2.1.7,0,.8,0,0,0,.2,0,.2h0c0,0-.1-.5-.1-.6,0-.1-.2-.3-.2-.4,0,0-.2-.3-.2-.4h0Z"/><path class="st8" d="M23.5,11.4c0,0,.1,0,.2-.1,0,0,0,0,0,0,.2,0,.4.2.5.3,0,0,0,.1-.1.1-.1,0-.3.1-.5.2,0,0-.1,0-.1,0-.2-.2-.3-.3,0-.5Z"/><path class="st1" d="M24.3,11.6h0c0,0,0,0,.2.1,0,0,0,0,.2,0h0c-.2.2-.5.3-.7.4h-.1c-.1,0-.2-.2-.3-.3,0,0,0,0,.1,0,.1,0,.3-.1.5-.2,0,0,.1,0,.1-.1h0Z"/><path class="st9" d="M23.4,10s0,0,0,0h0c0,.1-.2.7-.2.8.2,0,.5,0,.7,0,0,0,0,0,0,0-.2.1-.4.3-.6.4,0,0-.1,0-.1.1,0,0,0,0,0,0l.3-1.3h0Z"/><path class="st20" d="M21.3,13.7s0,0,0,0c.1,0,.4-.3.5-.4,0,0,0,0,0,0s0,0,0,0c0,0,0,0,0,0,0,0,0,.1,0,.2-.2,0-.3.2-.5.3,0,0,0,0,0,0-.1,0-.1,0-.3-.2,0,0,0,0,0,0h0Z"/><path class="st2" d="M22.1,13.5c0,0,.1.5.1.6-.1,0-.4,0-.5-.1,0,0,0-.1-.1-.1,0,0,0,0,0,0,.1,0,.3-.2.5-.3h0Z"/><path class="st11" d="M25.2,12.5s0,0,.1,0c0,0,0,.2-.1.2,0,0-.2.2-.2.3-.2.2-.7.3-1,.4,0,0-.1,0,0,0,0,0-.2,0-.2,0,0,0-.2,0-.2.1h0s0,0,0,0c.4-.2.8-.3,1.3-.5.1,0,.2,0,.3-.2,0-.1.1-.3.2-.4,0,0,0,0,0,0h0Z"/><path class="st12" d="M25.1,11.5c-.2,0-.4.1-.6.2,0,0-.1,0-.2-.1,0,0,0-.2,0-.2s0,0,0,0,.2,0,.2,0,0,0,0-.1c0,0,.2,0,.2,0,0,0,0,.1,0,.2Z"/><path class="st22" d="M23.9,12.6s0,0,0,0h0c0,0,.2.1.3.1.1,0,.3.2.5.2,0,0,.1,0,.2,0,0,.1-.2,0-.3.2l-.3-.2c0,0-.2-.1-.3-.3,0,0,0,0,0,0h0Z"/><path class="st20" d="M24,12.2c.2-.2.5-.2.7-.4,0,0,0,0,0,0,0,0,0,0,0,0,0,0-.2.1-.3.2-.1,0-.2.2-.4.2,0,0,0,0,0,0,0,0,.1,0,.1,0Z"/><path class="st16" d="M24.9,12.6c0,0,.1-.1.2-.1,0,.1-.1.3-.2.4,0,0,0,0-.2,0-.1,0-.3-.1-.5-.2.2,0,.4,0,.6,0Z"/><path class="st3" d="M22.6,11.2c0,0,.1.1.2.2,0,0,0,0,0,0,0,0-.2.1-.3.2,0,0,0,0,0,0h0s0,0,0,0c0,0,0-.3.1-.4,0,0,0,0,0,0Z"/><path class="st20" d="M24.5,11.7c.2-.1.4-.2.6-.2,0,0,0,0,0,0,0,0-.4.2-.4.2s-.2,0-.2,0h0Z"/><path class="st22" d="M22.9,11.9c.2-.2.3-.2.4,0,0,0,0,0-.1,0,0,0-.4.2-.5.2,0,0,0,0,0,0,0,0-.1.2-.2.2,0,0,0,0,0,0,0,0,0-.2,0-.2,0,0,.1,0,.2-.1h0c0,0,.1-.1.2-.2h0Z"/><path class="st2" d="M25.2,11.5c0,.2-.3.3-.5.4,0,0,0,0,0,0h0c0,0,.3-.3.4-.3Z"/><path class="st11" d="M20.9,13.2c.1.2.3.3.4.4,0,0,0,0,0,0,0,0-.2,0-.2,0,0,0,0,0,0,0,0,0,0,0,0,0,0,0-.2-.1-.2-.2s0,0,0,0h0Z"/><path class="st11" d="M22.4,12.3c0,0,0,.2,0,.2,0,0,0,.1,0,.2h0c0-.2-.2-.2,0-.4Z"/><path class="st1" d="M22.6,12.2h0c0,0,0-.1,0-.1,0,0,.2-.1.3-.2,0,0-.1.2-.2.3Z"/><path class="st21" d="M24.5,10.5c0,0,.2.1.2.1,0,0-.4,0-.2-.1Z"/><path class="st8" d="M20.7,13.1v.2s-.1-.2-.1-.2c0,0,.1,0,.1,0Z"/><path class="st22" d="M24.8,10.2s0,.1,0,.1h0c0,.1,0,.1,0,.1,0,0,0-.2,0-.2s0,0,0,0h0s0-.1.1,0Z"/><path class="st22" d="M25.4,11.9c0,0,0,.2,0,.2h0c0,0,0-.2,0-.2h0Z"/><path class="st16" d="M24.6,10.3h0c-.4.3-.8.6-1.3.9.2-.1.4-.3.6-.4,0,0,0,0,0,0,0,0,0,0,.1,0,0,0,0,0,0,0,.1,0,.3-.2.4-.3h0Z"/><path class="st11" d="M23.4,11.1c0,0,0,0-.1.1,0,0,0,0,.1-.1Z"/><path class="st11" d="M25.4,12.1h0c0,.1,0,.1,0,.2,0,0,0-.2,0-.2Z"/><path class="st16" d="M23.4,13.8s0,0,0,0h0c0,0,0,0,0,0Z"/><path class="st20" d="M23.3,13.6s0,0,0,0c0,0,0,0,0,0Z"/><path class="st2" d="M22.5,11.7c0,0,0,0,0,0,0,0,0,0,0,0Z"/><path class="st22" d="M23.9,12.5s0,0,0,0c0,0,0,0,0,0Z"/><path class="st16" d="M24.7,10.3h0s0,0,0,0Z"/><path class="st13" d="M29.3,15.2l2,.2h0s0,.1,0,.1h0c0-.1,0-.1,0-.1h-1.4c0,.1,0,.1,0,.1h-.5s0,0,0,0,0,0,0,0c0,0,0,0,0,0-.2.1-.4.2-.6.4,0,0-.1,0-.2-.1.3-.2.6-.5.9-.7h0Z"/><path class="st13" d="M28.4,17.5c0,.2,0,.5,0,.7,0,.1,0,.3,0,.4-.2,0-.3,0-.5,0,0-.2-.2-.4-.2-.6s0-.1,0-.2c0,0,0-.2,0-.3.2,0,.4,0,.6.1Z"/><path class="st17" d="M26.9,17s0,0,0,0c0,0,.4-.3.4-.2,0,.2,0,.3,0,.5h-.6c0-.1.1-.2.2-.2h0Z"/><path class="st8" d="M29.3,15.6h0l-.9,1.8s0,0,0,0c0,0,0-.1,0-.2.2-.5.5-1.2.8-1.6,0,0,0,0,0,0Z"/><path class="st8" d="M28.4,17.5c-.2,0-.4,0-.6-.1-.1,0-.3,0-.4,0,0,0,0,0,0,0,.3,0,.6.1.9.2h0Z"/><path class="st8" d="M27.5,18.4c0,0,.2,0,.3,0,.2,0,.3,0,.5,0,0,0,0,0,0,0-.3,0-.6,0-.9-.1h0s0,0,.1,0Z"/><path class="st1" d="M27.4,13.8c0,.1-.3.6-.4.7,0,0,0,0,0,0,.1-.4.1-.4.4-.7,0,0,0,0,0,0h0Z"/><path class="st1" d="M26.7,15.5c0,0,0-.1,0-.2,0,0,.3,0,.3,0,0,0-.1,0-.2,0,0,0,0,0-.2,0h0Z"/><path class="st1" d="M27.4,13.8s0,0,0,0c0,0,0,0,0,0Z"/><path class="st1" d="M26.9,14.7s0,0,0,0c0,0,0,0,0,0Z"/><path class="st1" d="M26.9,14.7h0,0Z"/><path class="st21" d="M29.7,15.6h.2,0s0,0,0,0c0,0,0,0,.1,0h0s0,0,.1,0c0,0,0,0,0,0,0,0,.1,0,.1,0l-.2,1.7c-.2,0-.4,0-.6,0-.4,0-.7,0-1.1.1l.9-1.8c0,0,.2,0,.3,0h0Z"/><path class="st17" d="M30.4,15.8c.2.1.5.3.7.4h0c0,0,.1,1.3.1,1.3-.3,0-.5,0-.8,0h-.2s0,0-.1,0c0-.5.1-1,.2-1.5,0,0,0,0,0,0h0Z"/><path class="st17" d="M31.2,15.4h0c0,0,0,0,0,.1h0c-.2,0-.4,0-.6,0h-.5s0,0,0,0h0s-.1,0-.2,0h1.4Z"/><path class="st22" d="M30.6,15.6c.3,0,.4,0,.6,0,0,0,0,0,0,0,0,0,0,0,0,0,0,0,0,0,0,0-.4,0-.9,0-1.3-.1,0,0,0,0,0,0,.1,0,.3,0,.4,0h0s0,0,0,0h0Z"/><path class="st1" d="M30.3,15.7s0,0,0,0c0,0,0,0,0,0,0,.5-.1,1-.2,1.5,0,0,.1,0,.1,0,0,0-.2,0-.2,0,0-.5.1-1,.2-1.5,0,0,0-.1,0-.1h0Z"/><path class="st20" d="M31.3,15.4c0,0,.1.2.1.3,0,0,0,0,0,0,0,0,0,0,0,0s0,0,0,0h0c0,0,0-.2,0-.2Z"/><path class="st22" d="M29.8,15.6c0,0-.1,0-.2,0-.1,0-.2,0-.3,0h0s0,0,0,0h.5s0,0,0,0Z"/><path class="st11" d="M30.1,15.6h-.2,0s0,0,0,0c0,0,.2,0,.2,0Z"/><path class="st8" d="M30.2,15.7s0,0,0,0c0,0,0,0,0,0Z"/><path class="st8" d="M29.9,15.6s0,0,0,0h0s0,0,0,0Z"/><path class="st1" d="M30.2,15.5h0s0,0,0,0h0Z"/><path class="st8" d="M30,15.6s0,0,0,0h0Z"/><path class="st16" d="M23.4,13.6c0,0,.2,0,.2-.1,0,0-.2,0-.2.1Z"/><path class="st15" d="M25.7,18.4s.2-.1.2-.1c0,0,0,0,0,0,.4.5.9.9,1.4,1.4.2.2.3.4.5.5h0s-.2,0-.2,0h-1s0,0,0,0c0,0-.2,0-.3,0h0c0-.1.2-.2.3-.4v-.2c.1,0,0,.1,0,.1,0,0,0,0,0,.1,0,0-.1.2-.2.2-.4-.5-.7-1-1.1-1.5.2,0,.4-.2.5-.3h0Z"/><path class="st15" d="M27,19.4h0s0,0,0,0Z"/><path class="st15" d="M26.9,19.4s0,0,0,0c0,0,0,0,0,0Z"/><path class="st15" d="M26.8,19.7s.1-.1.1-.2c0,0-.1.1-.1.1,0,0,0,0,0,0Z"/><path class="st21" d="M25.6,18.4s-.4.2-.4.2v-2.2h.8c0,.7,0,1.3,0,1.8,0,0-.2,0-.2.1,0,0,0,0,0,0,0,0,0,0,0,0Z"/><path class="st12" d="M26.8,11.9l.2,1h0s0,0,0-.1c0,0,0,0,0,0,0,.2.3.4.3.6,0,0,0,0,0,0,0,0,0,0,0,0,0,0,0,0,0,.1-.1.4-.3.9-.5,1.3h0c0-.2,0-.5-.1-.8,0,0,0,0,0,0,0-.1.3-.5.3-.6-.1,0-.3,0-.4,0h0v-1.6c0-.2.2-.1.3-.2h0Z"/><path class="st3" d="M25.3,14.9c0-.1.2-.3.2-.4.1-.2.2-.4.3-.6.2,0,.3,0,.5-.1,0,0,0,0,0,0l-.5,1.3c-.2,0-.5.2-.8.2,0,0,.2-.3.2-.3h0Z"/><path class="st15" d="M25.1,18.7c-.2,0-.5.3-.6.3,0,0,0-.1,0-.2l.7-2.3c0,.7,0,1.4,0,2.2Z"/><path class="st13" d="M24.7,16.7c.1-.1.3-.2.4-.3,0,0,0,0,0,.1l-.7,2.3v-1.9c0,0,.1-.1.2-.1,0,0,0,0,0,0h0Z"/><path class="st12" d="M26,15.1c.1,0,.4,0,.6,0,0,0,0,0,0,0,0,0-.3.6-.4.7,0,0,0,.1,0,.1l-.7-.2c0-.1.3-.6.3-.7,0,0,0,0,.2,0Z"/><path class="st13" d="M26.2,16s0,0,0,0c0,0-.2.4-.2.4-.2,0-.5,0-.7,0,0,0,0,0,0,0,0,0,.3-.5.3-.5,0,0,0,0,0,0l.7.2h0Z"/><path class="st13" d="M26.8,11.9c.1,0,.2,0,.3-.1h0c0,0,0,.1,0,.1,0,0,0,0,0,.1s0,0,0,.1h0c0,.1,0,.2,0,.2h0c0,.2,0,.2,0,.2h0c0,.2,0,.2,0,.2h0c0,.1,0,.2,0,.2h0c0,.1,0,.2,0,.2h0c0,.1,0,.2,0,.2,0-.2-.3-.4-.3-.6,0,0,0,0,0,0,0,0,0,.1,0,.2h0c0,0-.2-1.1-.2-1.1h0Z"/><polygon class="st13" points="26.4 13.5 25.9 12.2 26.4 12.1 26.4 13.5"/><path class="st15" d="M26.5,14.4c0,.3.1.5.1.8h-.7c0-.1,0-.3,0-.3,0,0,0,0,0,0,0,0,0,0,0-.1,0,0,.1-.1.2-.2,0,0,0-.1.2-.2,0,0,0,0,0,0Z"/><path class="st21" d="M25.9,12.3l.5,1.3s-.4,0-.5,0v-1.4Z"/><path class="st17" d="M26.4,11.2s0,0,.1,0c0,0,.3.3.4.4,0,0,.1,0,.2.1,0,0,0,0,0,0l-.7.2c0-.3,0-.5,0-.8h0Z"/><path class="st21" d="M26.3,11.2c0,0,0,0,0,0,0,.3,0,.5,0,.8,0,0-.5.2-.5.2,0,0,.1-.2.2-.3,0,0,0,0,0-.1h0c0-.1,0-.3,0-.4,0,0,.1-.1.1-.2h0Z"/><path class="st17" d="M26.5,13.7c.1,0,.3,0,.4,0,0,.1-.1.5-.3.6,0,0,0,0,0,0,0-.1,0-.2,0-.3,0,0,0,0,0,0h0v-.2h0s0,0,0,0Z"/><path class="st20" d="M26.4,11c0,0,.1-.2.3-.2.1.2.3.6.4.9,0,0-.1,0-.2-.1,0,0-.4-.3-.4-.4,0,0,0,0-.1,0h0c0-.1,0-.1,0-.1Z"/><path class="st13" d="M26,14.8c.1-.3.2-.7.4-1,0,0,0,0,0,0h0c0,.2,0,.4,0,.5-.1,0-.1.1-.2.2,0,0-.1,0-.2.2,0,0,0,0,0,.1h0c0,0,0,0,0,0Z"/><path class="st17" d="M26.4,11h0c0,0,0,0,0,.1,0,0,0,.2-.1.2h0c0-.2.1-.3.1-.4,0,0,0,0,0,0Z"/><path class="st1" d="M26,18.3h0,0s0,0,0,0h0Z"/><path class="st21" d="M23.5,10s0,0,0,0h0c.2,0,.4,0,.6,0,0,0,0,0,0,.1,0,.1-.1.3-.1.4,0,0,0,0-.1,0-.2,0-.5,0-.7,0,0,0,.2-.6.2-.7h0Z"/><path class="st12" d="M24.3,10.1c.5,0,1,.2,1.6.3h0c-.1.2-.3.3-.4.5,0,0,0-.1,0-.1,0,0,0-.2,0-.2,0,0-.4.1-.5.1,0,0,0,0,0-.1,0,0,0,0,0-.1h0c0-.1-.1,0-.1,0-.1,0-.3.2-.4.3v-.5c.1,0,.1,0,.1,0Z"/><path class="st8" d="M24.2,10.1h0s-.1.5-.1.5c0,0,0,0,0,0,0-.2,0-.3.1-.4,0,0,0-.1,0-.1h0Z"/><path class="st9" d="M23.6,10h0s0,0,0,0h0s0,0,0,0Z"/><path class="st8" d="M26.2,10.2c.1.2.3.4.4.6-.1,0-.2.2-.3.2,0,0,0-.1,0-.1h0c0-.2,0-.5,0-.7Z"/><path class="st22" d="M26.2,11.3l-.2-.8c0,.1.1.3.2.4,0,0,0,0,0,0h0c0,.2-.1.2-.1.3h0Z"/><path class="st22" d="M26,10.5h0s0,0,0,0h0Z"/><path class="st8" d="M25.9,10.3s0,0,0,0c0,0-.1,0-.2.1,0,0-.1.1-.2.2,0,0,0,.1-.1.1.1-.2.3-.3.4-.5h0Z"/><path class="st8" d="M27.1,11.9h0c0,0,0,0,0,0h0Z"/><path class="st9" d="M24.5,19.1s0,0,0,0c.1-.1.4-.2.6-.3l1.1,1.5-.9.8s-.9-1.9-.9-1.9Z"/><path class="st8" d="M26.3,20.2c0,0,.1-.1.2-.2,0,0,0,0,0-.1h.2c0-.1-.1,0-.1,0,0,.1-.2.2-.3.4,0,0,0,0,0,0Z"/><path class="st8" d="M27.2,13.1s0-.1,0-.1c0,0,0,0,0,.1Z"/><path class="st8" d="M27.2,12.8s0-.1,0-.1c0,0,0,0,0,.1Z"/><path class="st8" d="M27.1,12.2s0-.1,0-.1c0,0,0,0,0,.1Z"/><path class="st8" d="M27.1,12.4s0-.1,0-.1c0,0,0,0,0,.1Z"/><path class="st8" d="M27.2,12.6s0-.1,0-.1c0,0,0,0,0,.1Z"/><path class="st8" d="M27.2,13.3s0,0,0,0c0,0,0,0,0,0Z"/><path class="st13" d="M25.5,14.5c0,.1-.2.3-.2.4h0c0-.2.1-.3.2-.4Z"/><path class="st3" d="M26.6,17.9h0s0,.1,0,.1h0Z"/><polygon class="st1" points="26.6 17.9 26.6 17.9 26.6 17.9 26.6 17.9"/><path class="st22" d="M24.3,11.1s0,0,0,0c0,0,0,0,0,0,0,0,0,.1-.1.1h0c0-.1,0,0,0,0,0,0,0-.1,0-.1,0,0,0,0,0,0h0c0,0,0,0,0,0h0c0,0,0,0,0,0,0,0,0,0,0,0,0,0,.1,0,.2,0,0,0-.3.3-.3.3h0Z"/><path class="st8" d="M24.4,11h0s0,0,0,0c0,0,0,0,0,0,0,0,0,0,0,0Z"/><path class="st17" d="M26,10.4h0c0,.5,0,.9.1,1.3l-.6-.8c0,0,0-.2,0-.2,0,0,0,0,0,.1s0,0,.1-.1c0,0,.1-.1.2-.2,0,0,0-.1.2-.1h0ZM25.5,10.9s0,0,0,0c0,0,0,0,0,0Z"/><path class="st17" d="M26.1,11.8c0,0,0,.1,0,.1h0s0-.1,0-.1Z"/><path class="st13" d="M28.3,18.6h0s0,0,0,0c0,.1-.2.2-.2.4,0,0-.3,0-.3,0,0-.2-.1-.2-.2-.3,0,0,0-.2,0-.2.3,0,.6,0,.9.1Z"/><path class="st3" d="M27.9,19s0,0,0,0c0,0,0,0-.1.1,0,0,0,0,0,0,0,0,.1.7.2.9,0,0,0,0,0,0h0s0-.1,0-.1h0c0-.3-.1-.5-.2-.8,0,0,.1,0,.2-.1,0,0,0,0,0,0h0Z"/><path class="st3" d="M27.9,20.1h0s0,0,0,0Z"/><path class="st13" d="M27.6,18.9h0c0,0-.2,0-.2,0,0,0,.1,0,.2,0,0,0,0,0,0,0h0Z"/><path class="st1" d="M27.2,18.9s0,0,0,0c0,0,0,0,0,0Z"/><path class="st1" d="M27.2,19s0,0,0,0h0Z"/><path class="st23" d="M30.6,15.6s0,0,0,0h0Z"/><path class="st13" d="M31.3,15.6s0,0,0,0c0,0,0,0,0,0,0,0,0,0,0,0Z"/><path class="st8" d="M26.9,19.5s-.1.1-.1.2c0,0,0,0,0,0,0,0,0-.1.1-.1Z"/><path class="st8" d="M26.9,19.4s0,0,0,0c0,0,0,0,0,0Z"/><path class="st8" d="M27,19.4s0,0,0,0h0Z"/><path class="st1" d="M26.1,18.3s0,0,.1,0c0,0,0,0,0,0h-.2Z"/><path class="st8" d="M24.3,11.1s0,0,0,0c0,0,0,0,0,0Z"/><path class="st8" d="M25.5,10.9s0,0,0,0c0,0,0,0,0,0Z"/><path class="st17" d="M27.9,20.1s0,0,0,0h0Z"/></g></g><path class="st7" d="M23.2,10.1c2.7-1.3,5.4-1.4,6-.1s-1.1,3.3-3.8,4.6c-2.7,1.3-5.4,1.4-6,.1-.6-1.2,1.1-3.3,3.8-4.6Z"/><path class="st5" d="M.3,42c-1.1-2.2.7-5.6,4.6-9.5,1.1,3,5,5.1,15.5,2.2,14.4-3.9,29.5-12,38.3-17.1-4.1,4.4-13.8,9.9-25.3,15.6C16.8,41.4,2.7,46.8.3,42h0Z"/><path class="st7" d="M30.8,10.8c.8-.4,1.6-.4,1.7-.1.2.3-.3.9-1.1,1.3-.8.4-1.6.4-1.7.1-.2-.3.3-.9,1.1-1.3Z"/><path class="st14" d="M12,12.9c1.2.5,2.5,0,3.2-.9l2.9,1.3.3-.7-2.9-1.3c.4-1.2-.2-2.6-1.4-3.1-1.3-.6-2.8,0-3.4,1.3-.6,1.3,0,2.8,1.3,3.4h0Z"/></g></g></g></g></svg>