<svg xmlns="http://www.w3.org/2000/svg" id="uuid-49a236c3-ffb7-486d-92d0-77817357057f" viewBox="0 0 530.92 107.85"><defs><style>.uuid-83f25af0-06b5-4f44-831f-3cba97f6d931{fill:#bcbec0;}</style></defs><g id="uuid-f4408b21-3aa5-4d17-8729-626c241a7680"><path class="uuid-83f25af0-06b5-4f44-831f-3cba97f6d931" d="M431.57,24.65h26.21c.93,15.01,1.84,29.66,2.75,44.31.21.02.42.04.64.06,1.37-14.63,2.73-29.26,4.12-44.11h20.18c1.38,14.73,2.74,29.41,4.11,44.08.21-.01.43-.03.64-.04.91-14.61,1.81-29.23,2.73-44.06h26.22c-2.92,26.99-5.83,53.83-8.76,80.86h-30.83c-1.29-14.26-2.58-28.47-3.86-42.69-.22-.01-.44-.02-.66-.04-1.28,14.12-2.57,28.23-3.88,42.63h-30.81c-.96-8.67-1.92-17.32-2.88-25.98l-.73-.22c-.4,1.21-.81,2.42-1.21,3.64-7,21.35-28.63,30.59-48.97,20.92-9.01-4.29-13.73-11.92-15.94-21.22-2.69-11.35-2.74-22.82-.03-34.17,4.36-18.25,18.5-27.36,37.8-25.26,21.08,2.29,23.83,17.89,21.51,30.75-1.05,5.82-4.66,10.17-9.91,12.67-4.74,2.26-9.9,3.65-14.75,5.72-2.19.93-5.53,2.35-5.78,3.95-.55,3.47,2.75,5.24,5.76,6.27,11.85,4.05,31.71-3.04,30.04-23.5-.65-7.97-1.71-15.91-2.57-23.87-.36-3.33-.69-6.66-1.11-10.71ZM396.63,69.65c9.88-5.34,11.14-9.32,10.02-21.19-.23-2.44-.99-5.04-4.09-5.36-3.31-.34-4.52,2.11-5.2,4.69-1.85,7.09-1.71,14.26-.72,21.86Z"/><path class="uuid-83f25af0-06b5-4f44-831f-3cba97f6d931" d="M290.57,38.1V0h24.29q9.07,0,11.1,8.96c3.75,16.62,7.48,33.24,11.22,49.86.21.95.52,1.88,1.45,2.72V.31h26.97v105.64c-2.36,0-4.75,0-7.14,0-7.49,0-14.99-.14-22.47.07-2.75.08-3.77-.8-4.35-3.45-4.02-18.28-8.2-36.52-12.33-54.77-.3-1.34-.67-2.67-1.66-3.93v61.86h-24.95c-.56-4.85-1.12-9.66-1.81-15.57-.8,1.82-1.23,2.64-1.53,3.51-2.58,7.53-7.05,12.98-15.56,13.6-8.87.65-16.83-1.81-21.07-10.04-2.89-5.61-4.82-12.01-5.74-18.26-1.85-12.58-1.7-25.28,1.85-37.65,3.46-12.06,11.15-18.05,22.54-18.12,7.45-.04,12.86,3.21,16.22,9.86.85,1.68,1.59,3.42,2.37,5.13.2-.03.39-.06.59-.09ZM291.37,65.26c-.78-5.5-1.31-10.9-2.39-16.18-.67-3.26-2.44-6.1-6.48-6.04-3.81.05-5.53,2.77-6.3,5.85-2.76,10.95-2.76,22,0,32.95.78,3.09,2.51,5.81,6.3,5.87,4.02.06,5.83-2.78,6.48-6.05,1.08-5.41,1.62-10.93,2.39-16.39Z"/><path class="uuid-83f25af0-06b5-4f44-831f-3cba97f6d931" d="M0,105.19V0C1.68,0,3.19,0,4.7,0c14.2.13,28.42-.26,42.58.55,13.72.79,20.71,7.05,22.22,18.4,1.97,14.82-2.85,25.65-15.25,29.9-.33.11-.59.43-1.21.91,1.16.37,2.05.66,2.95.93,7.95,2.38,12.58,7.87,14.31,15.79,1.63,7.45,1.18,14.91-1.04,22.2-2.95,9.69-9.87,15.76-19.6,16.26-16.43.85-32.94.23-49.66.23ZM28.17,85.14c4.66-.15,9.78,1.55,12.47-3.31,2.93-5.31,3.02-11.36-.08-16.62-2.74-4.65-7.79-3.2-12.39-3.25v23.18ZM27.97,24.8c0,6.9,0,13.33,0,19.76,0,.74.14,1.49.24,2.54,4.21-.06,8.78,1.28,11.27-3.18,2.86-5.13,2.78-10.77.05-15.94-2.42-4.59-6.99-3.3-11.57-3.18Z"/><path class="uuid-83f25af0-06b5-4f44-831f-3cba97f6d931" d="M102.21,105.76h-28.03V24.92h26.11c.9,7.94,1.78,15.8,2.8,24.76,1.38-3.3,2.27-5.55,3.27-7.75,4.85-10.8,13.03-17.16,24.94-18.15,4.73-.39,9.58-.65,14.27-.07,14.96,1.84,23.18,9.78,23.77,24.76.75,18.94.18,37.93.18,57.2h-24.65c-.57-4.67-1.14-9.44-1.85-15.28-.84,2.12-1.3,3.25-1.73,4.4-4.29,11.3-16.03,15.97-27,10.76-4.45-2.11-7.17-5.8-7.79-10.44-.69-5.19-.95-10.55-.45-15.74.75-7.7,5.32-13,12.44-15.95,2.85-1.18,5.84-2.03,8.79-2.98,2.45-.79,4.98-1.39,7.38-2.31,3.09-1.19,6.85-2.12,6.37-6.56-.45-4.17-3.81-5.53-7.37-6.32-17.82-3.93-31.36,6.76-31.43,24.84-.05,11.74,0,23.49,0,35.69ZM142.23,60.89c-7.84,3.25-11.59,8.2-11.36,15.85.05,1.8-.08,3.61-.01,5.42.19,5.34,1.83,8.48,4.59,8.23,4.59-.42,5.15-4.39,5.49-7.74.7-7.03.87-14.11,1.29-21.76Z"/><path class="uuid-83f25af0-06b5-4f44-831f-3cba97f6d931" d="M202.26,105.75h-27.96V24.67c8.21,0,16.3-.06,24.39.12.68.01,1.75,1.59,1.91,2.56.61,3.77.92,7.58,1.47,12.43.94-1.85,1.4-2.71,1.82-3.58,5.29-10.88,15.34-15.42,27.05-12.17,4.96,1.37,8.6,4.46,9.99,9.38,1.15,4.05,2.03,8.33,2.08,12.52.23,19.23.12,38.47.13,57.71,0,.62-.12,1.24-.2,2.08h-28.14v-4.04c0-15.88,0-31.76,0-47.64,0-1.94.34-4.02-.25-5.77-.63-1.87-2.04-4.65-3.39-4.82-2-.25-5.26.87-6.15,2.45-1.62,2.88-2.55,6.51-2.61,9.85-.26,15.1-.11,30.21-.12,45.32,0,1.42,0,2.83,0,4.68Z"/><path class="uuid-83f25af0-06b5-4f44-831f-3cba97f6d931" d="M530.92,98.99c-.05,4.77-3.96,8.54-8.72,8.4-4.62-.13-8.29-3.85-8.33-8.44-.04-4.79,3.72-8.53,8.57-8.52,4.89.01,8.54,3.69,8.48,8.56ZM528.73,98.8c-.04-3.59-2.88-6.44-6.39-6.4-3.49.05-6.31,2.98-6.28,6.53.03,3.57,2.89,6.41,6.41,6.37,3.55-.04,6.29-2.89,6.25-6.51Z"/><path class="uuid-83f25af0-06b5-4f44-831f-3cba97f6d931" d="M524.56,102.69c-1.01-.85-2.02-1.7-3.05-2.57-.5.85-.94,1.6-1.98,3.39v-8.03c5.21-.72,5.16-.72,4.79,4.39-.05.74.6,1.52.93,2.29-.23.18-.46.36-.68.53Z"/></g></svg>