<svg xmlns="http://www.w3.org/2000/svg" xmlns:xlink="http://www.w3.org/1999/xlink" viewBox="0 0 572.89 487.91"><defs><filter id="luminosity-noclip" x="0" y="-5612.22" width="572.89" height="32766" filterUnits="userSpaceOnUse" color-interpolation-filters="sRGB"/><mask id="mask" x="0" y="-5612.22" width="572.89" height="32766" maskUnits="userSpaceOnUse"><g style="filter:url(#luminosity-noclip)"/></mask><linearGradient id="linear-gradient" x1="-1323.85" y1="459.41" x2="-504.42" y2="61.78" gradientTransform="matrix(-1, 0, 0, 1, -631.25, 0)" gradientUnits="userSpaceOnUse"><stop offset="0.01" stop-color="#fff"/><stop offset="1"/></linearGradient><filter id="luminosity-noclip-2" x="0" y="-5612.22" width="215.42" height="32766" filterUnits="userSpaceOnUse" color-interpolation-filters="sRGB"/><mask id="mask-2" x="0" y="-5612.22" width="215.42" height="32766" maskUnits="userSpaceOnUse"><g style="filter:url(#luminosity-noclip-2)"/></mask><linearGradient id="linear-gradient-2" x1="1827.45" y1="168.49" x2="1961.68" y2="91.9" gradientTransform="matrix(-1, 0, 0, 1, 2001.26, 0)" gradientUnits="userSpaceOnUse"><stop offset="0" stop-color="#fff"/><stop offset="1"/></linearGradient><filter id="luminosity-noclip-3" x="130.88" y="-5612.22" width="215.42" height="32766" filterUnits="userSpaceOnUse" color-interpolation-filters="sRGB"/><mask id="mask-3" x="130.88" y="-5612.22" width="215.42" height="32766" maskUnits="userSpaceOnUse"><g style="filter:url(#luminosity-noclip-3)"/></mask><linearGradient id="linear-gradient-3" x1="1696.57" y1="99.9" x2="1830.8" y2="23.3" xlink:href="#linear-gradient-2"/><filter id="luminosity-noclip-4" x="0" y="98.18" width="572.89" height="389.72" filterUnits="userSpaceOnUse" color-interpolation-filters="sRGB"/><mask id="mask-4" x="0" y="98.18" width="572.89" height="389.72" maskUnits="userSpaceOnUse"><g style="mask:url(#mask);filter:url(#luminosity-noclip-4)"><path d="M176.69,302.88l.05-20.8L0,180l23-13.27,172.12,99.38,6.29-3.65V225.45a2.51,2.51,0,0,1,0-1.85v-.13h.07a2.75,2.75,0,0,1,1.16-1.22l60.09-34.69L130.88,111.45l23-13.27,168.76,97.43,21.27-12.36c1.47-.85,3.5-.73,5.75.56l33.11,19.12,144.33-82.32,25.74,21.46v17l-12.26,10.26-73,69.09.16.09,9.41,18.92c4.22,2.74,7.56,8.67,7.54,13.59v1.56L572.89,450v28l-17.2,9.93L189.52,427.17l-40.46-23.36v-1.88L90.53,422.55,53.15,407.61V390.45L182.32,315C179.05,311.88,176.67,307,176.69,302.88Z" style="mix-blend-mode:multiply;fill:url(#linear-gradient)"/></g></mask><linearGradient id="linear-gradient-4" x1="-1323.85" y1="459.41" x2="-504.42" y2="61.78" gradientTransform="matrix(-1, 0, 0, 1, -631.25, 0)" gradientUnits="userSpaceOnUse"><stop offset="0.01" stop-color="#bf0072"/><stop offset="1" stop-color="#ffc6f0"/></linearGradient><filter id="luminosity-noclip-5" x="0" y="68.59" width="215.42" height="124.37" filterUnits="userSpaceOnUse" color-interpolation-filters="sRGB"/><mask id="mask-5" x="0" y="68.59" width="215.42" height="124.37" maskUnits="userSpaceOnUse"><g style="mask:url(#mask-2);filter:url(#luminosity-noclip-5)"><polygon points="192.44 192.96 215.42 179.69 22.99 68.59 0 81.86 192.44 192.96" style="mix-blend-mode:multiply;fill:url(#linear-gradient-2)"/></g></mask><linearGradient id="linear-gradient-5" x1="1827.45" y1="168.49" x2="1961.68" y2="91.9" gradientTransform="matrix(-1, 0, 0, 1, 2001.26, 0)" gradientUnits="userSpaceOnUse"><stop offset="0" stop-color="#ac005b"/><stop offset="1" stop-color="#ffe1ff"/></linearGradient><filter id="luminosity-noclip-6" x="130.88" y="0" width="215.42" height="124.37" filterUnits="userSpaceOnUse" color-interpolation-filters="sRGB"/><mask id="mask-6" x="130.88" y="0" width="215.42" height="124.37" maskUnits="userSpaceOnUse"><g style="mask:url(#mask-3);filter:url(#luminosity-noclip-6)"><polygon points="323.31 124.37 346.3 111.1 153.87 0 130.88 13.27 323.31 124.37" style="mix-blend-mode:multiply;fill:url(#linear-gradient-3)"/></g></mask><linearGradient id="linear-gradient-6" x1="1696.57" y1="99.9" x2="1830.8" y2="23.3" xlink:href="#linear-gradient-5"/><linearGradient id="linear-gradient-7" x1="1632.23" y1="353.43" x2="1684.07" y2="194.22" gradientTransform="matrix(-1, 0, 0, 1, 2001.26, 0)" gradientUnits="userSpaceOnUse"><stop offset="0" stop-color="#88003e"/><stop offset="1" stop-color="#d2008b"/></linearGradient><linearGradient id="linear-gradient-8" x1="-849.46" y1="152.85" x2="-1180.2" y2="358.75" gradientTransform="matrix(-1, 0, 0, 1, -631.25, 0)" gradientUnits="userSpaceOnUse"><stop offset="0" stop-color="#ff5eca"/><stop offset="1" stop-color="#fdf"/></linearGradient><linearGradient id="linear-gradient-9" x1="1574.06" y1="374.19" x2="1820.86" y2="96.4" gradientTransform="matrix(-1, 0, 0, 1, 2001.26, 0)" gradientUnits="userSpaceOnUse"><stop offset="0" stop-color="#db1f9b"/><stop offset="1" stop-color="#ffe1ff"/></linearGradient><linearGradient id="linear-gradient-10" x1="1448.43" y1="102.5" x2="1630.5" y2="102.5" xlink:href="#linear-gradient-9"/><linearGradient id="linear-gradient-11" x1="-1147.32" y1="-6.18" x2="-1038.29" y2="162.39" gradientTransform="matrix(-1, 0, 0, 1, -631.25, 0)" gradientUnits="userSpaceOnUse"><stop offset="0" stop-color="#ff99d3"/><stop offset="1" stop-color="#ee12ad"/></linearGradient><linearGradient id="linear-gradient-12" x1="-949.45" y1="38.3" x2="-1092.94" y2="212.63" xlink:href="#linear-gradient-8"/><linearGradient id="linear-gradient-13" x1="-1071.83" y1="201.66" x2="-832.62" y2="201.66" gradientTransform="matrix(-1, 0, 0, 1, -631.25, 0)" xlink:href="#linear-gradient-7"/><linearGradient id="linear-gradient-14" x1="-849.28" y1="74.84" x2="-1027.2" y2="206.84" xlink:href="#linear-gradient-8"/><linearGradient id="linear-gradient-15" x1="-992.04" y1="162.29" x2="-1060.92" y2="260.58" xlink:href="#linear-gradient-8"/><linearGradient id="linear-gradient-16" x1="1688.36" y1="203.37" x2="1585.98" y2="295.51" gradientTransform="matrix(-1, 0, 0, 1, 2001.26, 0)" gradientUnits="userSpaceOnUse"><stop offset="0" stop-color="#8c0044"/><stop offset="1" stop-color="#9d004c"/></linearGradient><linearGradient id="linear-gradient-17" x1="-769.23" y1="133.19" x2="-989.48" y2="280.98" xlink:href="#linear-gradient-8"/><linearGradient id="linear-gradient-18" x1="-951.11" y1="234.88" x2="-807.94" y2="234.88" gradientTransform="matrix(-1, 0, 0, 1, -631.25, 0)" xlink:href="#linear-gradient-7"/><linearGradient id="linear-gradient-19" x1="1835.96" y1="239.66" x2="1835.96" y2="358.09" xlink:href="#linear-gradient-9"/><linearGradient id="linear-gradient-20" x1="-773.36" y1="365.76" x2="-813.54" y2="194.29" xlink:href="#linear-gradient-11"/><linearGradient id="linear-gradient-21" x1="-882.08" y1="1.7" x2="-1037.04" y2="223.39" xlink:href="#linear-gradient-11"/><linearGradient id="linear-gradient-22" x1="-852.07" y1="22.68" x2="-1007.03" y2="244.37" xlink:href="#linear-gradient-11"/><linearGradient id="linear-gradient-23" x1="3705.84" y1="-1487.73" x2="3755.77" y2="-1520.62" gradientTransform="matrix(-0.87, 0.5, 1, 0.58, 4978.21, -811.19)" xlink:href="#linear-gradient-16"/><linearGradient id="linear-gradient-24" x1="3706.86" y1="-1436.24" x2="3756.8" y2="-1469.14" gradientTransform="matrix(-0.87, 0.5, 1, 0.58, 4978.21, -811.19)" xlink:href="#linear-gradient-16"/><linearGradient id="linear-gradient-25" x1="3553.21" y1="-1481.67" x2="3603.15" y2="-1514.57" gradientTransform="matrix(-0.87, 0.5, 1, 0.58, 4978.21, -811.19)" xlink:href="#linear-gradient-16"/><linearGradient id="linear-gradient-26" x1="3554.23" y1="-1430.19" x2="3604.17" y2="-1463.08" gradientTransform="matrix(-0.87, 0.5, 1, 0.58, 4978.21, -811.19)" xlink:href="#linear-gradient-16"/><linearGradient id="linear-gradient-27" x1="-1236.79" y1="329.69" x2="-1050.98" y2="293.82" xlink:href="#linear-gradient-11"/><linearGradient id="linear-gradient-28" x1="-690.96" y1="163.88" x2="-787.82" y2="263.61" gradientTransform="matrix(-1, 0, 0, 1, -631.25, 0)" xlink:href="#linear-gradient-16"/><linearGradient id="linear-gradient-29" x1="-1113.24" y1="23.63" x2="-1049.12" y2="122.76" gradientTransform="matrix(-1, 0, 0, 1, -631.25, 0)" xlink:href="#linear-gradient-16"/></defs><title>plane</title><g style="isolation:isolate"><g id="Layer_2" data-name="Layer 2"><g id="Layer_1-2" data-name="Layer 1"><g id="Plane"><g style="mask:url(#mask-4)"><path d="M176.69,302.88l.05-20.8L0,180l23-13.27,172.12,99.38,6.29-3.65V225.45a2.51,2.51,0,0,1,0-1.85v-.13h.07a2.75,2.75,0,0,1,1.16-1.22l60.09-34.69L130.88,111.45l23-13.27,168.76,97.43,21.27-12.36c1.47-.85,3.5-.73,5.75.56l33.11,19.12,144.33-82.32,25.74,21.46v17l-12.26,10.26-73,69.09.16.09,9.41,18.92c4.22,2.74,7.56,8.67,7.54,13.59v1.56L572.89,450v28l-17.2,9.93L189.52,427.17l-40.46-23.36v-1.88L90.53,422.55,53.15,407.61V390.45L182.32,315C179.05,311.88,176.67,307,176.69,302.88Z" style="opacity:0.30000000000000004;mix-blend-mode:multiply;fill:url(#linear-gradient-4)"/></g><g id="spaceship_1" data-name="spaceship 1"><g style="mask:url(#mask-5)"><polygon points="192.44 192.96 215.42 179.69 22.99 68.59 0 81.86 192.44 192.96" style="fill:url(#linear-gradient-5)"/></g><g style="mask:url(#mask-6)"><polygon points="323.31 124.37 346.3 111.1 153.87 0 130.88 13.27 323.31 124.37" style="fill:url(#linear-gradient-6)"/></g><path d="M170.78,278.33l22.92,1.52L427.22,145l40.47,23.36,86.79,174.43,18.4,8.94v28l-17.19,9.92L189.52,329l-40.46-23.36v-28S167.86,277.16,170.78,278.33Z" style="fill:url(#linear-gradient-7)"/><polygon points="427.22 117 467.69 140.36 572.88 351.76 555.69 361.69 189.52 300.96 149.06 277.6 427.22 117" style="fill:url(#linear-gradient-8)"/><path d="M485.74,197s-.61,2.47-4.31,4.94-8,8-8,8l4.32,42.58L448.1,288.33l11.72-1.85L416,314.87l-56.77-26.54s-9.88-.61-15.43,0-22.21,8-22.21,8-12.35,5.55-29.63-3.71a210.67,210.67,0,0,0-33.32-14.19l-104.29,29-21.6-21.6s68.5-38.88,71.59-39.5S326.53,210,329,210s44.43-10.49,55.54-16.66,33.94-16.66,33.94-16.66Z" style="opacity:0.6000000000000001;mix-blend-mode:multiply;fill:url(#linear-gradient-9)"/><polygon points="370.75 127.27 372.67 126.18 371.96 125.86 371.96 111 403.85 108.39 527.08 38.11 540.25 49.09 552.82 43.89 552.82 60.92 540.56 71.18 439.39 166.9 370.75 127.27" style="fill:url(#linear-gradient-10)"/><polygon points="370.76 111.57 439.39 151.22 552.83 43.9 527.07 22.44 491.73 42.57 400.1 94.82 370.76 111.57" style="fill:url(#linear-gradient-11)"/><path d="M343.89,85.06c1.47-.85,3.5-.73,5.75.57l127,73.3c4.45,2.57,8.06,8.81,8,13.94l-.06,22.25c0,2.55-.91,4.34-2.35,5.18l-32.08,18.64c1.46-.85,2.35-2.64,2.36-5.18l.07-22.25c0-5.13-3.6-11.37-8.05-13.95l-127-73.29c-2.25-1.3-4.28-1.42-5.75-.57Z" style="fill:url(#linear-gradient-12)"/><path d="M317.57,104.27c-4.46-2.58-8.09-.51-8.11,4.61l-.06,22.25c0,5.13,3.59,11.37,8.05,13.94l127,73.31c4.46,2.57,8.09.5,8.1-4.62l.07-22.25c0-5.13-3.6-11.37-8.05-13.95Z" style="fill:#8e0045"/><path d="M201.4,181.57V125.28l156.76,21.06,81.22,29.47,1.2,57.15-.4.09a2.47,2.47,0,0,1-1.35,2.73l-71.77,41.43c-2.73,1.58-8.44.84-12.76-1.65l-150-86.63C200.85,186.64,201.4,185,201.4,181.57Z" style="fill:url(#linear-gradient-13)"/><path d="M354.75,217.58c4.29,2.48,10,3.22,12.7,1.65L438.84,178c2.72-1.57,1.45-4.85-2.85-7.33L286.72,84.5c-4.29-2.48-10-3.21-12.69-1.65l-71.4,41.22c-2.72,1.57-1.44,4.86,2.85,7.34Z" style="fill:url(#linear-gradient-14)"/><path d="M362.29,220l77.28-42.32,0-.69,4.06,2.22c30.19,17.43,49,53,50.25,88.19l-77.3,43-56.29-32.5Z" style="fill:url(#linear-gradient-15)"/><path d="M362.29,220l-2,57.91,56.29,32.5c-1.24-35.22-20.06-70.76-50.25-88.19Z" style="fill:url(#linear-gradient-16)"/><path d="M211.17,158.63c1.48-.85,3.51-.73,5.75.56l127,73.3c4.46,2.57,8.06,8.82,8.05,13.94l-.06,22.25c0,2.55-.91,4.34-2.36,5.18L317.44,292.5c1.45-.84,2.35-2.63,2.35-5.18l.07-22.25c0-5.12-3.59-11.37-8.05-13.94l-127-73.3c-2.24-1.3-4.28-1.42-5.75-.56Z" style="fill:url(#linear-gradient-17)"/><path d="M184.85,177.83c-4.46-2.58-8.09-.51-8.1,4.62l-.06,22.25c0,5.12,3.59,11.36,8.05,13.94l127,73.3c4.46,2.57,8.09.51,8.1-4.62l.07-22.25c0-5.12-3.59-11.37-8.05-13.94Z" style="fill:url(#linear-gradient-18)"/><polygon points="90.39 287.65 208.42 218.67 249.09 242.14 263.21 237.45 277.23 241.43 277.44 258.51 90.53 324.36 53.15 309.42 53.15 292.27 90.39 287.65" style="fill:url(#linear-gradient-19)"/><polygon points="53.14 292.27 90.54 307.21 277.44 241.35 208.41 201.5 183.77 215.91 85.71 273.23 53.14 292.27" style="fill:url(#linear-gradient-20)"/><path d="M358.48,205.52a9.24,9.24,0,0,0,8.32,0l52.13-30.1c2.3-1.33,2.29-3.48,0-4.81l-25.51-14.72a9.17,9.17,0,0,0-8.32,0L333,186c-2.3,1.33-2.3,3.48,0,4.81Z" style="fill:url(#linear-gradient-21)"/><path d="M322.35,173.54a10.76,10.76,0,0,0,9.73,0L364.19,155c2.69-1.55,2.69-4.07,0-5.62l-85.32-49.26a10.74,10.74,0,0,0-9.72,0L237,118.66c-2.69,1.56-2.69,4.07,0,5.62Z" style="fill:url(#linear-gradient-22)"/><path d="M244.32,202.05a4.58,4.58,0,0,0,4.17,0l13.75-7.93a1.27,1.27,0,0,0,0-2.41l-36.53-21.09a4.62,4.62,0,0,0-4.16,0l-13.75,7.94a1.27,1.27,0,0,0,0,2.41Z" style="fill:url(#linear-gradient-23)"/><path d="M294.93,232.29a4.56,4.56,0,0,0,4.16,0l13.75-7.94a1.27,1.27,0,0,0,0-2.4l-36.52-21.09a4.64,4.64,0,0,0-4.17,0L258.4,208.8a1.27,1.27,0,0,0,0,2.4Z" style="fill:url(#linear-gradient-24)"/><path d="M382.55,129.24a4.64,4.64,0,0,0,4.17,0l13.75-7.94a1.27,1.27,0,0,0,0-2.41L363.94,97.8a4.62,4.62,0,0,0-4.16,0L346,105.74a1.27,1.27,0,0,0,0,2.41Z" style="fill:url(#linear-gradient-25)"/><path d="M433.16,159.47a4.56,4.56,0,0,0,4.16,0l13.75-7.93a1.27,1.27,0,0,0,0-2.41L414.55,128a4.64,4.64,0,0,0-4.17,0L396.63,136a1.27,1.27,0,0,0,0,2.41Z" style="fill:url(#linear-gradient-26)"/><polygon points="497.24 276.46 429.36 315.95 549.07 351.13 561.42 343.1 497.24 276.46" style="fill:url(#linear-gradient-27)"/><polygon points="85.71 273.23 94.88 278.02 203.86 229.72 183.77 215.91 85.71 273.23" style="fill:url(#linear-gradient-28)"/><polygon points="400.1 94.82 420.63 108.47 500.86 49.85 491.73 42.57 400.1 94.82" style="fill:url(#linear-gradient-29)"/></g></g></g></g></g></svg>