<svg xmlns="http://www.w3.org/2000/svg" viewBox="0 0 53.57 82.12"><title>stone-with-alien</title><g style="isolation:isolate"><g id="Layer_2" data-name="Layer 2"><g id="Layer_1-2" data-name="Layer 1"><polygon points="52.06 57.17 39.55 81.59 39.31 82.07 27.45 82.12 19.33 70.42 11.74 67.68 6.03 65.62 0.79 48.39 8.04 49.27 21.75 50.91 24.94 51.3 33.57 53.17 52.06 57.17" style="fill:#ff009a"/><polygon points="19.33 70.42 11.74 67.68 8.04 49.27 21.75 50.91 19.33 70.42" style="fill:#80004d;opacity:0.65;mix-blend-mode:multiply"/><polygon points="52.06 57.17 39.55 81.59 36.11 56.23 33.57 53.17 52.06 57.17" style="fill:#80004d;opacity:0.65;mix-blend-mode:multiply"/><path d="M52.05,57.17,40.76,62.38l-19.57.68L.79,48.39l-.17-.77L0,44.89,11.25,40.1s11-3.13,20-3.59S53.57,49.33,53.57,49.33L53.25,51Z" style="fill:#e18dbe"/><polygon points="52.05 57.17 40.76 62.38 21.19 63.06 0.8 48.39 0.62 47.62 31.19 57.02 47.81 56.39 53.25 51.01 52.05 57.17" style="fill:#ffbdff"/><g id="Alien"><path d="M39.76,12.2a1.39,1.39,0,0,0-2.74.5s.56,3.24-.77,5.28a4,4,0,0,1-3.48,1.65,5.34,5.34,0,0,0-9.84,0A4,4,0,0,1,19.56,18c-1.33-2-.77-5.25-.77-5.28a1.39,1.39,0,1,0-2.73-.5c0,.17-.78,4.32,1.18,7.31a6.51,6.51,0,0,0,5.27,2.88V43.78a.84.84,0,0,0,.84.83h1.38a.83.83,0,0,0,.84-.83V32.92a5.35,5.35,0,0,0,4.56,0V43.78a.84.84,0,0,0,.84.83h1.38a.84.84,0,0,0,.84-.83V22.4a6.57,6.57,0,0,0,5.39-2.89C40.53,16.52,39.79,12.37,39.76,12.2Z" style="fill:#81d46f"/><path d="M31.09,5.14l1.44-3.37a.88.88,0,0,0,.83-.88.89.89,0,1,0-1.77,0,.87.87,0,0,0,.12.45L30.25,4.72a6.33,6.33,0,0,0-2.37-.46,6.21,6.21,0,0,0-2.5.52L23.89,1.34A.87.87,0,0,0,24,.89a.89.89,0,1,0-.95.88l1.49,3.45a4.74,4.74,0,0,0-2.32,3.89v.22a14.13,14.13,0,0,0,1.83,6.33c1,1.74,2.34,3,3.81,3s2.82-1.27,3.82-3A14.2,14.2,0,0,0,33.52,9.3V9.11A4.76,4.76,0,0,0,31.09,5.14Z" style="fill:#8fe77e"/><path d="M25.5,11.73c-.57-1.73-2-2.81-3.24-2.41h0a14.13,14.13,0,0,0,1.83,6.33,1.31,1.31,0,0,0,.27-.06C25.56,15.2,26.07,13.47,25.5,11.73Z" style="fill:#1d1d1b"/><path d="M30.37,11.73c-.58,1.74-.06,3.47,1.15,3.87l.18,0A14.2,14.2,0,0,0,33.52,9.3C32.32,9,30.93,10,30.37,11.73Z" style="fill:#1d1d1b"/><path d="M27.09,17.46a.74.74,0,0,1,0,.79.75.75,0,0,1-.69-.39c-.27-.44-.11-.77,0-.8A.69.69,0,0,1,27.09,17.46Z" style="fill:#5da74a"/><path d="M28.61,17.46a.73.73,0,0,0,0,.79.75.75,0,0,0,.69-.39c.26-.44.1-.77,0-.8A.69.69,0,0,0,28.61,17.46Z" style="fill:#5da74a"/><path d="M27.45,29.3a.92.92,0,0,0,.45.89.93.93,0,0,0,.51-.86c0-.65-.37-.91-.45-.9A.87.87,0,0,0,27.45,29.3Z" style="fill:#5da74a"/></g></g></g></g></svg>